<svg xmlns="http://www.w3.org/2000/svg" width="292.298" height="243.813" viewBox="0 0 292.298 243.813">
  <g id="creativity-home" transform="translate(-840.851 -3304.181)">
    <path id="Path_578" data-name="Path 578" d="M650.329,105.5a49.668,49.668,0,0,1-6.573,25.657,51.271,51.271,0,0,1-4.672,6.709c-15.327,18.746-43.823,29.007-69.578,45.627-76.024,49.057-84.259-29.552-80.826-77.992A86.429,86.429,0,0,1,509.77,54.34a80.279,80.279,0,0,1,8.209-8.07A78.627,78.627,0,0,1,569.507,27.5c34.42,0,63.813,20.76,75.467,50.015a75.555,75.555,0,0,1,5.355,27.98Z" transform="translate(466.652 3276.678)" fill="#fee8eb"/>
    <path id="Path_587" data-name="Path 587" d="M640.3,88.423l-76.956,9.259a80.279,80.279,0,0,1,8.209-8.07Z" transform="translate(413.08 3233.335)" fill="#d0cde1"/>
    <path id="Path_597" data-name="Path 597" d="M853.641,383.724a51.258,51.258,0,0,1-4.671,6.709L783.05,382.5Z" transform="translate(256.768 3024.109)" fill="#d0cde1"/>
    <path id="Path_596" data-name="Path 596" d="M765.769,192.993,654.05,178.5l109.03,6.446A75.131,75.131,0,0,1,765.769,192.993Z" transform="translate(348.546 3169.247)" fill="#d0cde1"/>
    <path id="Path_575" data-name="Path 575" d="M476.677,79.583c0,.2-.006.4-.023.589a8.078,8.078,0,1,1-15.2-4.36,7.431,7.431,0,0,1,.594-.955,8.076,8.076,0,0,1,14.6,4.068C476.668,79.141,476.677,79.361,476.677,79.583Z" transform="translate(486.236 3245.373)" fill="#ff5062"/>
    <path id="Path_579" data-name="Path 579" d="M486.638,97.371c0,.2-.006.4-.023.589l-12.1-1.454,12.09.208C486.629,96.929,486.638,97.148,486.638,97.371Z" transform="translate(476.275 3227.585)" fill="#d0cde1"/>
    <path id="Path_576" data-name="Path 576" d="M476.823,113.615l-11.19,1.347a8.1,8.1,0,0,1-.854-1.14Z" transform="translate(483.205 3215.412)" fill="#d0cde1"/>
    <path id="Path_577" data-name="Path 577" d="M472.923,82.615l-9.164,1.1a7.427,7.427,0,0,1,.594-.955Z" transform="translate(483.931 3237.468)" fill="#d0cde1"/>
    <path id="Path_598" data-name="Path 598" d="M862.731,574.373c-.093.176-.19.346-.3.509a8.078,8.078,0,1,1-11.383-10.977,7.427,7.427,0,0,1,.973-.565,8.076,8.076,0,0,1,10.989,10.438C862.931,573.979,862.836,574.177,862.731,574.373Z" transform="translate(210.903 2896.042)" fill="#ff5062"/>
    <path id="Path_600" data-name="Path 600" d="M874.857,587.738c-.093.176-.19.346-.3.509l-10-6.955,10.582,5.851C875.056,587.344,874.961,587.541,874.857,587.738Z" transform="translate(198.777 2882.678)" fill="#d0cde1"/>
    <path id="Path_599" data-name="Path 599" d="M858.333,597.938l-10.516-4.055a8.088,8.088,0,0,1-.22-1.407Z" transform="translate(210.845 2874.722)" fill="#d0cde1"/>
    <path id="Path_601" data-name="Path 601" d="M868.385,569.282l-8.611-3.322a7.415,7.415,0,0,1,.973-.565Z" transform="translate(202.182 2893.988)" fill="#d0cde1"/>
    <path id="Path_602" data-name="Path 602" d="M1064.381,114.943c.139.143.272.287.394.438a8.078,8.078,0,1,1-13.926,7.492,7.43,7.43,0,0,1-.241-1.1,8.076,8.076,0,0,1,13.293-7.281C1064.066,114.633,1064.228,114.784,1064.381,114.943Z" transform="translate(66.474 3216.202)" fill="#ff5062"/>
    <path id="Path_603" data-name="Path 603" d="M1056.866,123.526l-5.791,7.187a7.413,7.413,0,0,1-.241-1.1Z" transform="translate(66.25 3208.361)" fill="#d0cde1"/>
    <path id="Path_592" data-name="Path 592" d="M567.8,636.956s17.729.739,17.729,5.171-19.946,0-19.946,0Z" transform="translate(411.484 2843.075)" fill="#a0616a"/>
    <path id="Path_588" data-name="Path 588" d="M297.125,640.786l-33.243-2.216L262.4,620.841l-7.387,15.513-32.5-4.432c.739-28.072,12.558-55.4,13.3-59.1s2.5-18.956,2.5-18.956c3.228-6.848,20.145-7.491,33.405-6.87,5.5.251,10.372.724,13.378,1.064,1.987.222,3.162.384,3.162.384,5.3,5.459,8.71,12.9,10.808,21.209C306.632,599.595,297.125,640.786,297.125,640.786Z" transform="translate(655.567 2907.208)" fill="#2f2e41"/>
    <circle id="Ellipse_99" data-name="Ellipse 99" cx="18.468" cy="18.468" r="18.468" transform="translate(897.287 3339.673)" fill="#a0616a"/>
    <path id="Path_580" data-name="Path 580" d="M274.082,229.879s-5.171,22.9-13.3,29.549,31.765,0,31.765,0-8.865-14.775-2.216-21.423S274.082,229.879,274.082,229.879Z" transform="translate(629.116 3132.695)" fill="#a0616a"/>
    <path id="Path_581" data-name="Path 581" d="M285.061,377.26l-12.255,1.359-34.284,3.812s-.162-.436-.451-1.226c-2.49-6.789-14.479-39.825-15.8-49.746-1.477-11.081,14.036-24.378,14.036-24.378s14.775-2.955,19.207-2.955,22.162,6.649,22.162,6.649l6.612,59.475.569,5.149Z" transform="translate(655.812 3079.871)" fill="#d0cde1"/>
    <path id="Path_586" data-name="Path 586" d="M389.995,473.516l-24.844-14.56s-.436-1.418-1.175-3.812c-.369-1.2-.82-2.645-1.33-4.285-2.866-9.2-7.675-24.393-11.532-35.488-5.91-16.991,22.9,30.288,22.9,30.288l1.44,1.115.569,5.149c1.987.222,3.162.384,3.162.384C384.484,457.766,387.9,465.205,389.995,473.516Z" transform="translate(564.641 3003.346)" opacity="0.15"/>
    <path id="Path_582" data-name="Path 582" d="M364.274,326.9s-7.387,9.6-1.477,26.594,14.036,43.585,14.036,43.585L419.678,422.2l5.91-7.387L385.7,383.781s-1.478-56.143-8.865-58.359A15.139,15.139,0,0,0,364.274,326.9Z" transform="translate(557.392 3065.224)" fill="#d0cde1"/>
    <path id="Path_589" data-name="Path 589" d="M246.836,543.558s10.342,21.423,14.775,19.207-11.081-24.378-11.081-24.378Z" transform="translate(638.263 2913.203)" fill="#a0616a"/>
    <path id="Path_583" data-name="Path 583" d="M136.625,352.77l-39.153,32.5S82.7,395.616,110.03,403s29.549,11.82,29.549,11.82,2.955-9.6,6.649-8.126l-31.765-15.513,25.855-15.513Z" transform="translate(747.366 3045.263)" fill="#d0cde1"/>
    <path id="Path_574" data-name="Path 574" d="M166.606,158.55A104.3,104.3,0,0,0,177.064,153c-.271-8.05.72-15.357,3.622-19.23,1.629-3.7,5.049-7.4,7.727-10.316,6.578-7.16,21.124-11.157,23.7-7.579,19.513.385,21.567,15.68,21.567,15.68-.1,6.4-6.751,6.6-12.575,6.367.522,4.367-.868,8.906-4.893,10.918-7.7,3.849-10.006,8.852-6.158,12.315s10.776,12.7,1.539,15.009-10.391,6.927-7.7,8.852-6.158-3.464-6.158-3.464-1.539,9.237-9.621,6.927a4.861,4.861,0,0,1-2.16-1.53c-2.183,2.4-4.13,3.816-5.6,3.824-8.405.045-7.4-9.265-7.4-9.265s-9.977,2.8-6.864,1.675,3.246-5.885-5.025-10.6S161.966,160.847,166.606,158.55Z" transform="translate(701.648 3214.75)" fill="#2f2e41"/>
    <path id="Path_584" data-name="Path 584" d="M545.1,258.551l-.134-.018.327,1.243a32.655,32.655,0,0,0,1.342,5.1l9.587,36.445a6.177,6.177,0,0,0,5.029,4.533l19.551,3.025a6.177,6.177,0,0,0,6.39-3.189l18.58-34.7a32.587,32.587,0,0,0,1.589-2.969l.631-1.178-.1-.013a32.849,32.849,0,1,0-62.794-8.275Z" transform="translate(426.284 3138.88)" fill="#3f3d56"/>
    <path id="Path_585" data-name="Path 585" d="M577.8,305.677a6.722,6.722,0,0,1-1.028-.079l-20.437-3.162a6.744,6.744,0,0,1-5.492-4.95l-10.021-38.094a34.359,34.359,0,0,1-1.408-5.354l-.253-1.667A34.632,34.632,0,0,1,578.8,213.747l-.089.57a34.067,34.067,0,0,0-38.933,38.351l.195,1.247a34.124,34.124,0,0,0,1.4,5.309L551.4,297.34a6.166,6.166,0,0,0,5.022,4.526l20.437,3.162a6.177,6.177,0,0,0,6.381-3.184l.509.272A6.758,6.758,0,0,1,577.8,305.677Z" transform="translate(430.487 3144.462)" fill="#d0cde1"/>
    <rect id="Rectangle_123" data-name="Rectangle 123" width="36.158" height="0.746" transform="translate(1001.033 3439.668) rotate(-69.885)" fill="#d0cde1"/>
    <rect id="Rectangle_122" data-name="Rectangle 122" width="0.746" height="36.158" transform="translate(992.42 3402.605) rotate(-2.516)" fill="#d0cde1"/>
    <path id="Path_593" data-name="Path 593" d="M601.645,579.565l-26.187-4.051a.746.746,0,1,1,.228-1.475l26.187,4.051a.746.746,0,1,1-.228,1.475Z" transform="translate(404.91 2887.845)" fill="#3f3d56"/>
    <path id="Path_590" data-name="Path 590" d="M603.972,560.291l-26.187-4.051a.746.746,0,1,1,.228-1.475l26.187,4.051a.746.746,0,0,1-.228,1.475Z" transform="translate(403.256 2901.558)" fill="#3f3d56"/>
    <path id="Path_591" data-name="Path 591" d="M606.3,541.019l-26.187-4.051a.746.746,0,0,1,.228-1.475l26.187,4.051a.746.746,0,1,1-.228,1.475Z" transform="translate(401.6 2915.27)" fill="#3f3d56"/>
    <path id="Path_594" data-name="Path 594" d="M598.718,584.9c5.194.8,9.853-1.44,10.406-5.011l-18.81-2.91C589.761,580.548,593.524,584.094,598.718,584.9Z" transform="translate(393.93 2885.748)" fill="#3f3d56"/>
    <path id="Path_595" data-name="Path 595" d="M625.413,342.137a4.6,4.6,0,0,1-2.549-1.648c-.166-.194-.328-.4-.49-.6a5.828,5.828,0,0,0-1.924-1.79c-1.713-.8-3.731.317-5.479,1.515l-.422-.616c1.921-1.317,4.162-2.534,6.217-1.576a6.468,6.468,0,0,1,2.19,2c.157.2.314.391.475.579.527.615,1.578,1.613,2.7,1.383a3.635,3.635,0,0,0,1.3-.687,6.938,6.938,0,0,1,.918-.579,3.656,3.656,0,0,1,4.013.567,7.234,7.234,0,0,1,.545.576,1.858,1.858,0,0,0,3,.353,3.86,3.86,0,0,1,2.259-.677l.081.011c1.47.227,2.148,1.854,2.532,3.067l-.712.225c-.521-1.65-1.156-2.47-1.988-2.561a3.281,3.281,0,0,0-1.817.592,2.547,2.547,0,0,1-3.919-.518,6.562,6.562,0,0,0-.487-.517,2.933,2.933,0,0,0-3.177-.449,6.308,6.308,0,0,0-.818.52,4.24,4.24,0,0,1-1.578.809,2.454,2.454,0,0,1-.872.019Z" transform="translate(376.648 3056.424)" fill="#d0cde1"/>
  </g>
</svg>
