<svg xmlns="http://www.w3.org/2000/svg" xmlns:xlink="http://www.w3.org/1999/xlink" width="301.558" height="219.37" viewBox="0 0 301.558 219.37">
  <defs>
    <linearGradient id="linear-gradient" x1="0.5" y1="1" x2="0.5" gradientUnits="objectBoundingBox">
      <stop offset="0" stop-color="gray" stop-opacity="0.251"/>
      <stop offset="0.54" stop-color="gray" stop-opacity="0.122"/>
      <stop offset="1" stop-color="gray" stop-opacity="0.102"/>
    </linearGradient>
    <linearGradient id="linear-gradient-4" x1="0.5" y1="1.001" x2="0.5" y2="0" xlink:href="#linear-gradient"/>
    <linearGradient id="linear-gradient-5" x1="0" y1="0.5" x2="1" y2="0.5" xlink:href="#linear-gradient"/>
    <linearGradient id="linear-gradient-6" x1="1.414" y1="1" x2="1.414" y2="0" xlink:href="#linear-gradient"/>
    <linearGradient id="linear-gradient-8" x1="0.501" y1="1.001" x2="0.501" y2="0" xlink:href="#linear-gradient"/>
  </defs>
  <g id="distr-image" transform="translate(-0.012 0.008)">
    <path id="Path_2237" data-name="Path 2237" d="M100.586,98.689a20.723,20.723,0,0,0-6.628.644,11.038,11.038,0,0,0-7.535,12.453c.88,4.96,4.5,9.281,8.254,13.23s7.824,7.854,9.883,12.575c1.027,2.356,1.507,5,.463,7.349-1.61,3.627-6.464,5.653-11.124,6.075s-9.339-.4-14.016-.674a17.618,17.618,0,0,0-5.828.4,15.423,15.423,0,0,0-5.273,2.986c-6.075,4.818-10.938,11.4-10.144,18.3.888,7.835,8.809,14.027,17.485,17.349,2.873,1.11,5.912,1.993,8.44,3.564,6.661,4.144,8.157,11.915,7.494,18.773s-2.922,13.724-1.665,20.521c1.479,7.907,8.026,15.051,16.858,18.387,7.868,2.972,17.715,2.775,24.7-1.418a29.89,29.89,0,0,0,8.221-7.835,63.206,63.206,0,0,0,8.174-14.154c.974-2.356,1.89-4.89,4.163-6.528a14.305,14.305,0,0,1,4.965-2.009c5.362-1.321,11.01-1.682,16.422-2.859s10.843-3.372,13.785-7.294c4.163-5.551,2.22-12.661,2.24-19.189.033-14.893,10.855-28.223,14.848-42.741,1.3-4.743,1.79-9.991-1.124-14.224-1.979-2.873-5.318-4.946-8.826-6.547-7.718-3.522-16.491-5.09-25.12-6.617-11.992-2.12-26.555-2.4-35.85-9.256C124.942,103.383,112.739,98.689,100.586,98.689Z" transform="translate(-58 -86.287)" fill="#de4756" opacity="0.2"/>
    <g id="Group_119" data-name="Group 119" transform="translate(6.89 89.479)" opacity="0.5">
      <path id="Path_2238" data-name="Path 2238" d="M82.09,384.231a3.37,3.37,0,0,0-.305,3.636c1.526,2.914,5.3,2.315,7.136,5.1a5.1,5.1,0,0,1,.791,2.578,17.506,17.506,0,0,1-.672,4.213,7.122,7.122,0,0,0,.727,4.813,8.5,8.5,0,0,0,3.886,3.466,20.672,20.672,0,0,0,4.135,1.094,25.455,25.455,0,0,1,4.9,1.665,9.259,9.259,0,0,1,2.093,1.221A15.239,15.239,0,0,1,106.9,414.3l5.9,7.288a20.865,20.865,0,0,0,2.5,2.731,15.044,15.044,0,0,0,3.253,2c2.356,1.174,4.821,2.376,6.866,2.24s3.466-2.109,2.5-4.868c-.916-2.626-3.5-4.837-4.668-7.457-1.846-4.13.572-7.216-.974-11.351-1.482-3.974-5.637-6.639-8.29-10.269-1.9-2.581-2.964-5.584-4.679-8.3a22.707,22.707,0,0,0-9.714-8.362,18.853,18.853,0,0,0-9.758-1.352,6.252,6.252,0,0,0-3.411,1.132c-.955.8-.833,2.309-1.454,3.378C84.258,382.346,82.9,383.043,82.09,384.231Z" transform="translate(-81.383 -376.455)" fill="#de4756"/>
      <path id="Path_2239" data-name="Path 2239" d="M97.28,384.33s29.552,27.629,41.47,49.141" transform="translate(-92.868 -382.145)" fill="none" stroke="#535461" stroke-miterlimit="10" stroke-width="2"/>
      <path id="Path_2240" data-name="Path 2240" d="M83.24,417.519s11.809-2.3,19.983,6.911" transform="translate(-82.725 -405.938)" fill="none" stroke="#535461" stroke-miterlimit="10" stroke-width="2"/>
      <path id="Path_2241" data-name="Path 2241" d="M113.48,466.438s13.044-9.123,17.557-3.816" transform="translate(-104.572 -437.509)" fill="none" stroke="#535461" stroke-miterlimit="10" stroke-width="2"/>
      <path id="Path_2242" data-name="Path 2242" d="M146.344,381.63s-1.374,6.983,3.569,18.39" transform="translate(-128.188 -380.194)" fill="none" stroke="#535461" stroke-miterlimit="10" stroke-width="2"/>
      <path id="Path_2243" data-name="Path 2243" d="M201.515,479.28s-1.155,4.579-10.435,1.213" transform="translate(-160.635 -450.742)" fill="none" stroke="#535461" stroke-miterlimit="10" stroke-width="2"/>
      <path id="Path_2244" data-name="Path 2244" d="M194.73,511.591s5.665-6.547,3.089-9.761" transform="translate(-163.272 -467.034)" fill="none" stroke="#535461" stroke-miterlimit="10" stroke-width="2"/>
    </g>
    <path id="Path_2245" data-name="Path 2245" d="M58.633,245.921c-1.388,1.64-2.687,3.911-1.665,6.15,1.965,4.4,9.239,2.245,11.834,6.339a6.045,6.045,0,0,1,.7,4.055c-.35,2.612-1.643,4.829-2.537,7.216s-1.357,5.273-.1,7.793a9.441,9.441,0,0,0,6.245,4.593,34.931,34.931,0,0,0,7.43.555,41.13,41.13,0,0,1,8.7,1.282,12.02,12.02,0,0,1,3.547,1.427,15.776,15.776,0,0,1,3.283,3.158l8.881,10.349a21.165,21.165,0,0,0,3.847,3.794,19,19,0,0,0,5.5,2.345c4.066,1.243,8.326,2.5,12.212,1.646s7.147-4.566,6.175-8.865c-.924-4.094-5.093-7-6.5-11.007-2.22-6.32,3.261-12.181,1.615-18.612-1.576-6.167-8.565-9.348-12.45-14.568-2.775-3.741-3.869-8.421-6.295-12.4a25.4,25.4,0,0,0-15.687-11c-6.078-1.446-12.192-.772-17.893.674a17.479,17.479,0,0,0-6.744,2.92c-2.034,1.629-2.267,4.1-3.75,6.067C63.271,242.122,60.5,243.7,58.633,245.921Z" transform="translate(-56.59 -180.714)" fill="#de4756"/>
    <path id="Path_2246" data-name="Path 2246" d="M95.07,251.4S142.16,288.451,158,320.674" transform="translate(-84.382 -196.628)" fill="none" stroke="#535461" stroke-miterlimit="10" stroke-width="2"/>
    <path id="Path_2247" data-name="Path 2247" d="M58.46,306.487s22.861-7.4,35.4,5.456" transform="translate(-57.932 -234.897)" fill="none" stroke="#535461" stroke-miterlimit="10" stroke-width="2"/>
    <path id="Path_2248" data-name="Path 2248" d="M96.26,372.092s27.229-19.15,34.112-11.682" transform="translate(-85.241 -274.135)" fill="none" stroke="#535461" stroke-miterlimit="10" stroke-width="2"/>
    <path id="Path_2249" data-name="Path 2249" d="M184.185,231.88s-4.693,12.042,1.11,29.547" transform="translate(-147.469 -182.526)" fill="none" stroke="#535461" stroke-miterlimit="10" stroke-width="2"/>
    <path id="Path_2250" data-name="Path 2250" d="M260.955,369.69S257.4,377.664,241,374.874" transform="translate(-189.81 -282.088)" fill="none" stroke="#535461" stroke-miterlimit="10" stroke-width="2"/>
    <path id="Path_2251" data-name="Path 2251" d="M231.69,431.307s12.62-12.622,8.762-17.207" transform="translate(-183.084 -314.173)" fill="none" stroke="#535461" stroke-miterlimit="10" stroke-width="2"/>
    <ellipse id="Ellipse_410" data-name="Ellipse 410" cx="129.056" cy="34.559" rx="129.056" ry="34.559" transform="translate(42.464 145.349)" fill="#de4756" opacity="0.1"/>
    <path id="Path_2252" data-name="Path 2252" d="M1000.415,55.53a23.745,23.745,0,0,0-4.33,24.7c5.615,14.757-9.625,39.3-9.625,39.3s.164-.025.466-.078a28.957,28.957,0,0,0,19.217-44.32C1001.922,68.68,998.455,61.114,1000.415,55.53Z" transform="translate(-728.376 -55.12)" fill="#de4756"/>
    <path id="Path_2253" data-name="Path 2253" d="M1000.415,55.53s-5.615,12.19,0,22.134.963,37.854-13.955,41.864" transform="translate(-728.376 -55.12)" fill="none" stroke="#535461" stroke-miterlimit="10" stroke-width="2"/>
    <path id="Path_2254" data-name="Path 2254" d="M1011.531,200.137s-11.349-1.807-12.381,8.362-21.82,11.579-21.82,11.579l.389.258c17.163,11.265,33.582,7.177,31.084-7.771C1007.9,206.992,1007.97,201.4,1011.531,200.137Z" transform="translate(-721.78 -159.503)" fill="#de4756"/>
    <path id="Path_2255" data-name="Path 2255" d="M1011.531,200.137s-11.349-1.807-12.381,8.362-21.82,11.579-21.82,11.579l.389.258c17.163,11.265,33.582,7.177,31.084-7.771C1007.9,206.992,1007.97,201.4,1011.531,200.137Z" transform="translate(-721.78 -159.503)" fill="#f5f5f5" opacity="0.2"/>
    <path id="Path_2256" data-name="Path 2256" d="M1011.531,200.46s-8.809,1.943-8.085,9.941-13.08,17.61-26.116,9.991" transform="translate(-721.78 -159.826)" fill="none" stroke="#535461" stroke-miterlimit="10" stroke-width="2"/>
    <path id="Path_2257" data-name="Path 2257" d="M299.519,231.124s-3.68-12.489.691-21.687a19.73,19.73,0,0,0,1.6-12.378,33.186,33.186,0,0,0-1.751-5.809" transform="translate(-231.042 -153.172)" fill="none" stroke="#535461" stroke-miterlimit="10" stroke-width="2"/>
    <path id="Path_2258" data-name="Path 2258" d="M300.551,163.075c0,1.532-2.775,5.97-2.775,5.97S295,164.6,295,163.075a2.775,2.775,0,0,1,5.551,0Z" transform="translate(-228.823 -130.812)" fill="#de4756"/>
    <path id="Path_2259" data-name="Path 2259" d="M317.013,189.437c-.833,1.285-5.573,3.505-5.573,3.505s.086-5.234.919-6.519a2.775,2.775,0,1,1,4.654,3.014Z" transform="translate(-240.701 -148.692)" fill="#de4756"/>
    <path id="Path_2260" data-name="Path 2260" d="M313.67,239.279c-1.368.688-6.58.214-6.58.214s2.717-4.474,4.083-5.162a2.775,2.775,0,1,1,2.5,4.951Z" transform="translate(-237.558 -184.041)" fill="#de4756"/>
    <path id="Path_2261" data-name="Path 2261" d="M304.57,279.225c-1.232.91-6.45,1.321-6.45,1.321s1.921-4.868,3.153-5.778a2.775,2.775,0,1,1,3.3,4.457Z" transform="translate(-231.077 -213.058)" fill="#de4756"/>
    <path id="Path_2262" data-name="Path 2262" d="M288.03,201.929c1.11,1.066,6.214,2.173,6.214,2.173s-1.252-5.082-2.351-6.147a2.775,2.775,0,1,0-3.863,3.977Z" transform="translate(-223.11 -157.382)" fill="#de4756"/>
    <path id="Path_2263" data-name="Path 2263" d="M276.3,247.236c1.368.688,6.58.214,6.58.214s-2.717-4.474-4.083-5.162a2.775,2.775,0,0,0-2.5,4.951Z" transform="translate(-214.288 -189.867)" fill="#de4756"/>
    <path id="Path_2264" data-name="Path 2264" d="M273.348,294.242c1.232.91,6.45,1.321,6.45,1.321s-1.921-4.868-3.153-5.778a2.775,2.775,0,0,0-3.3,4.457Z" transform="translate(-212.445 -224.023)" fill="#de4756"/>
    <path id="Path_2265" data-name="Path 2265" d="M485.742,286.959H462.127a7.871,7.871,0,0,0,.833-3.516V175.9a7.907,7.907,0,0,0-7.907-7.9H272.246a7.907,7.907,0,0,0-7.907,7.907V283.442a7.871,7.871,0,0,0,.833,3.516H240.72a2.09,2.09,0,0,0-2.09,2.09v1.685a11.7,11.7,0,0,0,11.7,11.7H476.153a11.7,11.7,0,0,0,11.7-11.7v-1.685a2.09,2.09,0,0,0-2.107-2.09Zm-145.511,6.689-2.026-2.3h50.265l-2.242,2.3Z" transform="translate(-188.098 -136.375)" fill="url(#linear-gradient)"/>
    <rect id="Rectangle_443" data-name="Rectangle 443" width="194.122" height="120.56" rx="23.26" transform="translate(78.48 33.143)" fill="#535461"/>
    <rect id="Rectangle_444" data-name="Rectangle 444" width="185.54" height="98.49" transform="translate(82.568 50.717)" fill="#f1f1f4"/>
    <circle id="Ellipse_411" data-name="Ellipse 411" cx="1.635" cy="1.635" r="1.635" transform="translate(173.704 40.498)" fill="#fff"/>
    <path id="Path_2266" data-name="Path 2266" d="M399.41,592.39l-6.383,6.539H348.065L342.3,592.39H250.813a2.043,2.043,0,0,0-2.043,2.043v1.649a11.429,11.429,0,0,0,11.443,11.429h220.7a11.429,11.429,0,0,0,11.429-11.429v-1.649a2.043,2.043,0,0,0-2.043-2.043Z" transform="translate(-195.424 -442.98)" fill="#535461"/>
    <rect id="Rectangle_445" data-name="Rectangle 445" width="50.726" height="38.228" transform="translate(93.9 58.221)" fill="#fff"/>
    <rect id="Rectangle_446" data-name="Rectangle 446" width="16.908" height="9.556" transform="translate(98.862 61.53)" fill="#de4756" opacity="0.2"/>
    <rect id="Rectangle_447" data-name="Rectangle 447" width="19.85" height="2.206" transform="translate(119.814 61.53)" fill="#e6e8ec"/>
    <rect id="Rectangle_448" data-name="Rectangle 448" width="13.969" height="2.206" transform="translate(119.814 65.204)" fill="#e6e8ec"/>
    <rect id="Rectangle_449" data-name="Rectangle 449" width="19.85" height="2.206" transform="translate(119.814 68.879)" fill="#e6e8ec"/>
    <rect id="Rectangle_450" data-name="Rectangle 450" width="40.801" height="2.206" transform="translate(98.862 72.556)" fill="#e6e8ec"/>
    <rect id="Rectangle_451" data-name="Rectangle 451" width="40.801" height="2.206" transform="translate(98.862 76.231)" fill="#e6e8ec"/>
    <rect id="Rectangle_452" data-name="Rectangle 452" width="40.801" height="2.206" transform="translate(98.862 79.908)" fill="#e6e8ec"/>
    <rect id="Rectangle_453" data-name="Rectangle 453" width="37.493" height="2.206" transform="translate(98.862 83.583)" fill="#e6e8ec"/>
    <rect id="Rectangle_454" data-name="Rectangle 454" width="40.801" height="2.206" transform="translate(98.862 87.258)" fill="#e6e8ec"/>
    <rect id="Rectangle_455" data-name="Rectangle 455" width="40.801" height="2.206" transform="translate(98.862 90.935)" fill="#e6e8ec"/>
    <rect id="Rectangle_456" data-name="Rectangle 456" width="50.726" height="38.228" transform="translate(149.771 58.221)" fill="#fff"/>
    <rect id="Rectangle_457" data-name="Rectangle 457" width="16.908" height="9.556" transform="translate(154.731 61.53)" fill="#de4756" opacity="0.2"/>
    <rect id="Rectangle_458" data-name="Rectangle 458" width="19.85" height="2.206" transform="translate(175.685 61.53)" fill="#e6e8ec"/>
    <rect id="Rectangle_459" data-name="Rectangle 459" width="13.969" height="2.206" transform="translate(175.685 65.204)" fill="#e6e8ec"/>
    <rect id="Rectangle_460" data-name="Rectangle 460" width="19.85" height="2.206" transform="translate(175.685 68.879)" fill="#e6e8ec"/>
    <rect id="Rectangle_461" data-name="Rectangle 461" width="40.801" height="2.206" transform="translate(154.731 72.556)" fill="#e6e8ec"/>
    <rect id="Rectangle_462" data-name="Rectangle 462" width="40.801" height="2.206" transform="translate(154.731 76.231)" fill="#e6e8ec"/>
    <rect id="Rectangle_463" data-name="Rectangle 463" width="40.801" height="2.206" transform="translate(154.731 79.908)" fill="#e6e8ec"/>
    <rect id="Rectangle_464" data-name="Rectangle 464" width="37.493" height="2.206" transform="translate(154.731 83.583)" fill="#e6e8ec"/>
    <rect id="Rectangle_465" data-name="Rectangle 465" width="40.801" height="2.206" transform="translate(154.731 87.258)" fill="#e6e8ec"/>
    <rect id="Rectangle_466" data-name="Rectangle 466" width="40.801" height="2.206" transform="translate(154.731 90.935)" fill="#e6e8ec"/>
    <rect id="Rectangle_467" data-name="Rectangle 467" width="50.726" height="38.228" transform="translate(205.64 58.221)" fill="#fff"/>
    <rect id="Rectangle_468" data-name="Rectangle 468" width="16.908" height="9.556" transform="translate(210.602 61.53)" fill="#de4756" opacity="0.2"/>
    <rect id="Rectangle_469" data-name="Rectangle 469" width="19.85" height="2.206" transform="translate(231.554 61.53)" fill="#e6e8ec"/>
    <rect id="Rectangle_470" data-name="Rectangle 470" width="13.969" height="2.206" transform="translate(231.554 65.204)" fill="#e6e8ec"/>
    <rect id="Rectangle_471" data-name="Rectangle 471" width="19.85" height="2.206" transform="translate(231.554 68.879)" fill="#e6e8ec"/>
    <rect id="Rectangle_472" data-name="Rectangle 472" width="40.801" height="2.206" transform="translate(210.602 72.556)" fill="#e6e8ec"/>
    <rect id="Rectangle_473" data-name="Rectangle 473" width="40.801" height="2.206" transform="translate(210.602 76.231)" fill="#e6e8ec"/>
    <rect id="Rectangle_474" data-name="Rectangle 474" width="40.801" height="2.206" transform="translate(210.602 79.908)" fill="#e6e8ec"/>
    <rect id="Rectangle_475" data-name="Rectangle 475" width="37.493" height="2.206" transform="translate(210.602 83.583)" fill="#e6e8ec"/>
    <rect id="Rectangle_476" data-name="Rectangle 476" width="40.801" height="2.206" transform="translate(210.602 87.258)" fill="#e6e8ec"/>
    <rect id="Rectangle_477" data-name="Rectangle 477" width="40.801" height="2.206" transform="translate(210.602 90.935)" fill="#e6e8ec"/>
    <rect id="Rectangle_478" data-name="Rectangle 478" width="50.726" height="38.228" transform="translate(93.9 101.226)" fill="#fff"/>
    <rect id="Rectangle_479" data-name="Rectangle 479" width="16.908" height="9.556" transform="translate(98.862 104.534)" fill="#de4756" opacity="0.2"/>
    <rect id="Rectangle_480" data-name="Rectangle 480" width="19.85" height="2.206" transform="translate(119.814 104.534)" fill="#e6e8ec"/>
    <rect id="Rectangle_481" data-name="Rectangle 481" width="13.969" height="2.206" transform="translate(119.814 108.212)" fill="#e6e8ec"/>
    <rect id="Rectangle_482" data-name="Rectangle 482" width="19.85" height="2.206" transform="translate(119.814 111.886)" fill="#e6e8ec"/>
    <rect id="Rectangle_483" data-name="Rectangle 483" width="40.801" height="2.206" transform="translate(98.862 115.561)" fill="#e6e8ec"/>
    <rect id="Rectangle_484" data-name="Rectangle 484" width="40.801" height="2.206" transform="translate(98.862 119.238)" fill="#e6e8ec"/>
    <rect id="Rectangle_485" data-name="Rectangle 485" width="40.801" height="2.206" transform="translate(98.862 122.913)" fill="#e6e8ec"/>
    <rect id="Rectangle_486" data-name="Rectangle 486" width="37.493" height="2.206" transform="translate(98.862 126.59)" fill="#e6e8ec"/>
    <rect id="Rectangle_487" data-name="Rectangle 487" width="40.801" height="2.206" transform="translate(98.862 130.265)" fill="#e6e8ec"/>
    <rect id="Rectangle_488" data-name="Rectangle 488" width="40.801" height="2.206" transform="translate(98.862 133.94)" fill="#e6e8ec"/>
    <rect id="Rectangle_489" data-name="Rectangle 489" width="50.726" height="38.228" transform="translate(149.771 101.226)" fill="#fff"/>
    <rect id="Rectangle_490" data-name="Rectangle 490" width="16.908" height="9.556" transform="translate(154.731 104.534)" fill="#de4756" opacity="0.2"/>
    <rect id="Rectangle_491" data-name="Rectangle 491" width="19.85" height="2.206" transform="translate(175.685 104.534)" fill="#e6e8ec"/>
    <rect id="Rectangle_492" data-name="Rectangle 492" width="13.969" height="2.206" transform="translate(175.685 108.212)" fill="#e6e8ec"/>
    <rect id="Rectangle_493" data-name="Rectangle 493" width="19.85" height="2.206" transform="translate(175.685 111.886)" fill="#e6e8ec"/>
    <rect id="Rectangle_494" data-name="Rectangle 494" width="40.801" height="2.206" transform="translate(154.731 115.561)" fill="#e6e8ec"/>
    <rect id="Rectangle_495" data-name="Rectangle 495" width="40.801" height="2.206" transform="translate(154.731 119.238)" fill="#e6e8ec"/>
    <rect id="Rectangle_496" data-name="Rectangle 496" width="40.801" height="2.206" transform="translate(154.731 122.913)" fill="#e6e8ec"/>
    <rect id="Rectangle_497" data-name="Rectangle 497" width="37.493" height="2.206" transform="translate(154.731 126.59)" fill="#e6e8ec"/>
    <rect id="Rectangle_498" data-name="Rectangle 498" width="40.801" height="2.206" transform="translate(154.731 130.265)" fill="#e6e8ec"/>
    <rect id="Rectangle_499" data-name="Rectangle 499" width="40.801" height="2.206" transform="translate(154.731 133.94)" fill="#e6e8ec"/>
    <rect id="Rectangle_500" data-name="Rectangle 500" width="50.726" height="38.228" transform="translate(205.64 101.226)" opacity="0.1"/>
    <path id="Path_2267" data-name="Path 2267" d="M276.229,310.18H197.963a7.169,7.169,0,0,0-7.183,7.166V425.792a7.169,7.169,0,0,0,7.18,7.161h78.266a7.169,7.169,0,0,0,7.18-7.16V317.346a7.169,7.169,0,0,0-7.177-7.166Z" transform="translate(-153.528 -239.095)" fill="url(#linear-gradient)"/>
    <rect id="Rectangle_501" data-name="Rectangle 501" width="90.422" height="120.197" rx="20" transform="translate(38.356 72.556)" fill="#535461"/>
    <rect id="Rectangle_502" data-name="Rectangle 502" width="81.233" height="97.458" transform="translate(42.949 83.927)" fill="#f1f1f4"/>
    <circle id="Ellipse_412" data-name="Ellipse 412" cx="1.102" cy="1.102" r="1.102" transform="translate(82.096 76.969)" fill="#fff"/>
    <circle id="Ellipse_413" data-name="Ellipse 413" cx="3.308" cy="3.308" r="3.308" transform="translate(79.89 183.564)" fill="#fff"/>
    <rect id="Rectangle_503" data-name="Rectangle 503" width="23.169" height="17.463" transform="translate(46.46 93.885)" fill="#fff"/>
    <rect id="Rectangle_504" data-name="Rectangle 504" width="7.724" height="4.366" transform="translate(48.728 95.398)" fill="#de4756" opacity="0.2"/>
    <rect id="Rectangle_505" data-name="Rectangle 505" width="9.067" height="1.007" transform="translate(58.297 95.398)" fill="#e6e8ec"/>
    <rect id="Rectangle_506" data-name="Rectangle 506" width="6.381" height="1.007" transform="translate(58.297 97.077)" fill="#e6e8ec"/>
    <rect id="Rectangle_507" data-name="Rectangle 507" width="9.067" height="1.007" transform="translate(58.297 98.756)" fill="#e6e8ec"/>
    <rect id="Rectangle_508" data-name="Rectangle 508" width="18.637" height="1.007" transform="translate(48.728 100.435)" fill="#e6e8ec"/>
    <rect id="Rectangle_509" data-name="Rectangle 509" width="18.637" height="1.007" transform="translate(48.728 102.114)" fill="#e6e8ec"/>
    <rect id="Rectangle_510" data-name="Rectangle 510" width="18.637" height="1.007" transform="translate(48.728 103.793)" fill="#e6e8ec"/>
    <rect id="Rectangle_511" data-name="Rectangle 511" width="17.127" height="1.007" transform="translate(48.728 105.472)" fill="#e6e8ec"/>
    <rect id="Rectangle_512" data-name="Rectangle 512" width="18.637" height="1.007" transform="translate(48.728 107.152)" fill="#e6e8ec"/>
    <rect id="Rectangle_513" data-name="Rectangle 513" width="18.637" height="1.007" transform="translate(48.728 108.831)" fill="#e6e8ec"/>
    <rect id="Rectangle_514" data-name="Rectangle 514" width="23.169" height="17.463" transform="translate(71.983 93.885)" fill="#fff"/>
    <rect id="Rectangle_515" data-name="Rectangle 515" width="7.724" height="4.366" transform="translate(74.247 95.398)" fill="#de4756" opacity="0.2"/>
    <rect id="Rectangle_516" data-name="Rectangle 516" width="9.067" height="1.007" transform="translate(83.82 95.398)" fill="#e6e8ec"/>
    <rect id="Rectangle_517" data-name="Rectangle 517" width="6.381" height="1.007" transform="translate(83.82 97.077)" fill="#e6e8ec"/>
    <rect id="Rectangle_518" data-name="Rectangle 518" width="9.067" height="1.007" transform="translate(83.82 98.756)" fill="#e6e8ec"/>
    <rect id="Rectangle_519" data-name="Rectangle 519" width="18.637" height="1.007" transform="translate(74.247 100.435)" fill="#e6e8ec"/>
    <rect id="Rectangle_520" data-name="Rectangle 520" width="18.637" height="1.007" transform="translate(74.247 102.114)" fill="#e6e8ec"/>
    <rect id="Rectangle_521" data-name="Rectangle 521" width="18.637" height="1.007" transform="translate(74.247 103.793)" fill="#e6e8ec"/>
    <rect id="Rectangle_522" data-name="Rectangle 522" width="17.127" height="1.007" transform="translate(74.247 105.472)" fill="#e6e8ec"/>
    <rect id="Rectangle_523" data-name="Rectangle 523" width="18.637" height="1.007" transform="translate(74.247 107.152)" fill="#e6e8ec"/>
    <rect id="Rectangle_524" data-name="Rectangle 524" width="18.637" height="1.007" transform="translate(74.247 108.831)" fill="#e6e8ec"/>
    <rect id="Rectangle_525" data-name="Rectangle 525" width="23.169" height="17.463" transform="translate(97.502 93.885)" fill="#fff"/>
    <rect id="Rectangle_526" data-name="Rectangle 526" width="7.724" height="4.366" transform="translate(99.77 95.398)" fill="#de4756" opacity="0.2"/>
    <rect id="Rectangle_527" data-name="Rectangle 527" width="9.067" height="1.007" transform="translate(109.34 95.398)" fill="#e6e8ec"/>
    <rect id="Rectangle_528" data-name="Rectangle 528" width="6.381" height="1.007" transform="translate(109.34 97.077)" fill="#e6e8ec"/>
    <rect id="Rectangle_529" data-name="Rectangle 529" width="9.067" height="1.007" transform="translate(109.34 98.756)" fill="#e6e8ec"/>
    <rect id="Rectangle_530" data-name="Rectangle 530" width="18.637" height="1.007" transform="translate(99.77 100.435)" fill="#e6e8ec"/>
    <rect id="Rectangle_531" data-name="Rectangle 531" width="18.637" height="1.007" transform="translate(99.77 102.114)" fill="#e6e8ec"/>
    <rect id="Rectangle_532" data-name="Rectangle 532" width="18.637" height="1.007" transform="translate(99.77 103.793)" fill="#e6e8ec"/>
    <rect id="Rectangle_533" data-name="Rectangle 533" width="17.127" height="1.007" transform="translate(99.77 105.472)" fill="#e6e8ec"/>
    <rect id="Rectangle_534" data-name="Rectangle 534" width="18.637" height="1.007" transform="translate(99.77 107.152)" fill="#e6e8ec"/>
    <rect id="Rectangle_535" data-name="Rectangle 535" width="18.637" height="1.007" transform="translate(99.77 108.831)" fill="#e6e8ec"/>
    <rect id="Rectangle_536" data-name="Rectangle 536" width="23.169" height="17.463" transform="translate(46.46 113.529)" fill="#fff"/>
    <rect id="Rectangle_537" data-name="Rectangle 537" width="7.724" height="4.366" transform="translate(48.728 115.042)" fill="#de4756" opacity="0.2"/>
    <rect id="Rectangle_538" data-name="Rectangle 538" width="9.067" height="1.007" transform="translate(58.297 115.042)" fill="#e6e8ec"/>
    <rect id="Rectangle_539" data-name="Rectangle 539" width="6.381" height="1.007" transform="translate(58.297 116.721)" fill="#e6e8ec"/>
    <rect id="Rectangle_540" data-name="Rectangle 540" width="9.067" height="1.007" transform="translate(58.297 118.4)" fill="#e6e8ec"/>
    <rect id="Rectangle_541" data-name="Rectangle 541" width="18.637" height="1.007" transform="translate(48.728 120.079)" fill="#e6e8ec"/>
    <rect id="Rectangle_542" data-name="Rectangle 542" width="18.637" height="1.007" transform="translate(48.728 121.758)" fill="#e6e8ec"/>
    <rect id="Rectangle_543" data-name="Rectangle 543" width="18.637" height="1.007" transform="translate(48.728 123.438)" fill="#e6e8ec"/>
    <rect id="Rectangle_544" data-name="Rectangle 544" width="17.127" height="1.007" transform="translate(48.728 125.117)" fill="#e6e8ec"/>
    <rect id="Rectangle_545" data-name="Rectangle 545" width="18.637" height="1.007" transform="translate(48.728 126.796)" fill="#e6e8ec"/>
    <rect id="Rectangle_546" data-name="Rectangle 546" width="18.637" height="1.007" transform="translate(48.728 128.475)" fill="#e6e8ec"/>
    <rect id="Rectangle_547" data-name="Rectangle 547" width="23.169" height="17.463" transform="translate(71.983 113.529)" fill="#fff"/>
    <rect id="Rectangle_548" data-name="Rectangle 548" width="7.724" height="4.366" transform="translate(74.247 115.042)" fill="#de4756" opacity="0.2"/>
    <rect id="Rectangle_549" data-name="Rectangle 549" width="9.067" height="1.007" transform="translate(83.82 115.042)" fill="#e6e8ec"/>
    <rect id="Rectangle_550" data-name="Rectangle 550" width="6.381" height="1.007" transform="translate(83.82 116.721)" fill="#e6e8ec"/>
    <rect id="Rectangle_551" data-name="Rectangle 551" width="9.067" height="1.007" transform="translate(83.82 118.4)" fill="#e6e8ec"/>
    <rect id="Rectangle_552" data-name="Rectangle 552" width="18.637" height="1.007" transform="translate(74.247 120.079)" fill="#e6e8ec"/>
    <rect id="Rectangle_553" data-name="Rectangle 553" width="18.637" height="1.007" transform="translate(74.247 121.758)" fill="#e6e8ec"/>
    <rect id="Rectangle_554" data-name="Rectangle 554" width="18.637" height="1.007" transform="translate(74.247 123.438)" fill="#e6e8ec"/>
    <rect id="Rectangle_555" data-name="Rectangle 555" width="17.127" height="1.007" transform="translate(74.247 125.117)" fill="#e6e8ec"/>
    <rect id="Rectangle_556" data-name="Rectangle 556" width="18.637" height="1.007" transform="translate(74.247 126.796)" fill="#e6e8ec"/>
    <rect id="Rectangle_557" data-name="Rectangle 557" width="18.637" height="1.007" transform="translate(74.247 128.475)" fill="#e6e8ec"/>
    <rect id="Rectangle_558" data-name="Rectangle 558" width="23.169" height="17.463" transform="translate(97.502 113.529)" fill="#fff"/>
    <rect id="Rectangle_559" data-name="Rectangle 559" width="7.724" height="4.366" transform="translate(99.77 115.042)" fill="#de4756" opacity="0.2"/>
    <rect id="Rectangle_560" data-name="Rectangle 560" width="9.067" height="1.007" transform="translate(109.34 115.042)" fill="#e6e8ec"/>
    <rect id="Rectangle_561" data-name="Rectangle 561" width="6.381" height="1.007" transform="translate(109.34 116.721)" fill="#e6e8ec"/>
    <rect id="Rectangle_562" data-name="Rectangle 562" width="9.067" height="1.007" transform="translate(109.34 118.4)" fill="#e6e8ec"/>
    <rect id="Rectangle_563" data-name="Rectangle 563" width="18.637" height="1.007" transform="translate(99.77 120.079)" fill="#e6e8ec"/>
    <rect id="Rectangle_564" data-name="Rectangle 564" width="18.637" height="1.007" transform="translate(99.77 121.758)" fill="#e6e8ec"/>
    <rect id="Rectangle_565" data-name="Rectangle 565" width="18.637" height="1.007" transform="translate(99.77 123.438)" fill="#e6e8ec"/>
    <rect id="Rectangle_566" data-name="Rectangle 566" width="17.127" height="1.007" transform="translate(99.77 125.117)" fill="#e6e8ec"/>
    <rect id="Rectangle_567" data-name="Rectangle 567" width="18.637" height="1.007" transform="translate(99.77 126.796)" fill="#e6e8ec"/>
    <rect id="Rectangle_568" data-name="Rectangle 568" width="18.637" height="1.007" transform="translate(99.77 128.475)" fill="#e6e8ec"/>
    <rect id="Rectangle_569" data-name="Rectangle 569" width="23.169" height="17.463" transform="translate(46.46 133.951)" fill="#fff"/>
    <rect id="Rectangle_570" data-name="Rectangle 570" width="7.724" height="4.366" transform="translate(48.728 135.463)" fill="#de4756" opacity="0.2"/>
    <rect id="Rectangle_571" data-name="Rectangle 571" width="9.067" height="1.007" transform="translate(58.297 135.463)" fill="#e6e8ec"/>
    <rect id="Rectangle_572" data-name="Rectangle 572" width="6.381" height="1.007" transform="translate(58.297 137.142)" fill="#e6e8ec"/>
    <rect id="Rectangle_573" data-name="Rectangle 573" width="9.067" height="1.007" transform="translate(58.297 138.821)" fill="#e6e8ec"/>
    <rect id="Rectangle_574" data-name="Rectangle 574" width="18.637" height="1.007" transform="translate(48.728 140.501)" fill="#e6e8ec"/>
    <rect id="Rectangle_575" data-name="Rectangle 575" width="18.637" height="1.007" transform="translate(48.728 142.18)" fill="#e6e8ec"/>
    <rect id="Rectangle_576" data-name="Rectangle 576" width="18.637" height="1.007" transform="translate(48.728 143.859)" fill="#e6e8ec"/>
    <rect id="Rectangle_577" data-name="Rectangle 577" width="17.127" height="1.007" transform="translate(48.728 145.538)" fill="#e6e8ec"/>
    <rect id="Rectangle_578" data-name="Rectangle 578" width="18.637" height="1.007" transform="translate(48.728 147.217)" fill="#e6e8ec"/>
    <rect id="Rectangle_579" data-name="Rectangle 579" width="18.637" height="1.007" transform="translate(48.728 148.896)" fill="#e6e8ec"/>
    <rect id="Rectangle_580" data-name="Rectangle 580" width="23.169" height="17.463" transform="translate(71.983 133.951)" fill="#fff"/>
    <rect id="Rectangle_581" data-name="Rectangle 581" width="7.724" height="4.366" transform="translate(74.247 135.463)" fill="#de4756" opacity="0.2"/>
    <rect id="Rectangle_582" data-name="Rectangle 582" width="9.067" height="1.007" transform="translate(83.82 135.463)" fill="#e6e8ec"/>
    <rect id="Rectangle_583" data-name="Rectangle 583" width="6.381" height="1.007" transform="translate(83.82 137.142)" fill="#e6e8ec"/>
    <rect id="Rectangle_584" data-name="Rectangle 584" width="9.067" height="1.007" transform="translate(83.82 138.821)" fill="#e6e8ec"/>
    <rect id="Rectangle_585" data-name="Rectangle 585" width="18.637" height="1.007" transform="translate(74.247 140.501)" fill="#e6e8ec"/>
    <rect id="Rectangle_586" data-name="Rectangle 586" width="18.637" height="1.007" transform="translate(74.247 142.18)" fill="#e6e8ec"/>
    <rect id="Rectangle_587" data-name="Rectangle 587" width="18.637" height="1.007" transform="translate(74.247 143.859)" fill="#e6e8ec"/>
    <rect id="Rectangle_588" data-name="Rectangle 588" width="17.127" height="1.007" transform="translate(74.247 145.538)" fill="#e6e8ec"/>
    <rect id="Rectangle_589" data-name="Rectangle 589" width="18.637" height="1.007" transform="translate(74.247 147.217)" fill="#e6e8ec"/>
    <rect id="Rectangle_590" data-name="Rectangle 590" width="18.637" height="1.007" transform="translate(74.247 148.896)" fill="#e6e8ec"/>
    <rect id="Rectangle_591" data-name="Rectangle 591" width="23.169" height="17.463" transform="translate(97.502 133.951)" fill="#fff"/>
    <rect id="Rectangle_592" data-name="Rectangle 592" width="7.724" height="4.366" transform="translate(99.77 135.463)" fill="#de4756" opacity="0.2"/>
    <rect id="Rectangle_593" data-name="Rectangle 593" width="9.067" height="1.007" transform="translate(109.34 135.463)" fill="#e6e8ec"/>
    <rect id="Rectangle_594" data-name="Rectangle 594" width="6.381" height="1.007" transform="translate(109.34 137.142)" fill="#e6e8ec"/>
    <rect id="Rectangle_595" data-name="Rectangle 595" width="9.067" height="1.007" transform="translate(109.34 138.821)" fill="#e6e8ec"/>
    <rect id="Rectangle_596" data-name="Rectangle 596" width="18.637" height="1.007" transform="translate(99.77 140.501)" fill="#e6e8ec"/>
    <rect id="Rectangle_597" data-name="Rectangle 597" width="18.637" height="1.007" transform="translate(99.77 142.18)" fill="#e6e8ec"/>
    <rect id="Rectangle_598" data-name="Rectangle 598" width="18.637" height="1.007" transform="translate(99.77 143.859)" fill="#e6e8ec"/>
    <rect id="Rectangle_599" data-name="Rectangle 599" width="17.127" height="1.007" transform="translate(99.77 145.538)" fill="#e6e8ec"/>
    <rect id="Rectangle_600" data-name="Rectangle 600" width="18.637" height="1.007" transform="translate(99.77 147.217)" fill="#e6e8ec"/>
    <rect id="Rectangle_601" data-name="Rectangle 601" width="18.637" height="1.007" transform="translate(99.77 148.896)" fill="#e6e8ec"/>
    <rect id="Rectangle_602" data-name="Rectangle 602" width="23.169" height="17.463" transform="translate(46.46 153.595)" fill="#fff"/>
    <rect id="Rectangle_603" data-name="Rectangle 603" width="7.724" height="4.366" transform="translate(48.728 155.107)" fill="#de4756" opacity="0.2"/>
    <rect id="Rectangle_604" data-name="Rectangle 604" width="9.067" height="1.007" transform="translate(58.297 155.107)" fill="#e6e8ec"/>
    <rect id="Rectangle_605" data-name="Rectangle 605" width="6.381" height="1.007" transform="translate(58.297 156.787)" fill="#e6e8ec"/>
    <rect id="Rectangle_606" data-name="Rectangle 606" width="9.067" height="1.007" transform="translate(58.297 158.466)" fill="#e6e8ec"/>
    <rect id="Rectangle_607" data-name="Rectangle 607" width="18.637" height="1.007" transform="translate(48.728 160.145)" fill="#e6e8ec"/>
    <rect id="Rectangle_608" data-name="Rectangle 608" width="18.637" height="1.007" transform="translate(48.728 161.824)" fill="#e6e8ec"/>
    <rect id="Rectangle_609" data-name="Rectangle 609" width="18.637" height="1.007" transform="translate(48.728 163.503)" fill="#e6e8ec"/>
    <rect id="Rectangle_610" data-name="Rectangle 610" width="17.127" height="1.007" transform="translate(48.728 165.182)" fill="#e6e8ec"/>
    <rect id="Rectangle_611" data-name="Rectangle 611" width="18.637" height="1.007" transform="translate(48.728 166.861)" fill="#e6e8ec"/>
    <rect id="Rectangle_612" data-name="Rectangle 612" width="18.637" height="1.007" transform="translate(48.728 168.54)" fill="#e6e8ec"/>
    <rect id="Rectangle_613" data-name="Rectangle 613" width="23.169" height="17.463" transform="translate(71.983 153.595)" fill="#fff"/>
    <rect id="Rectangle_614" data-name="Rectangle 614" width="7.724" height="4.366" transform="translate(74.247 155.107)" fill="#de4756" opacity="0.2"/>
    <rect id="Rectangle_615" data-name="Rectangle 615" width="9.067" height="1.007" transform="translate(83.82 155.107)" fill="#e6e8ec"/>
    <rect id="Rectangle_616" data-name="Rectangle 616" width="6.381" height="1.007" transform="translate(83.82 156.787)" fill="#e6e8ec"/>
    <rect id="Rectangle_617" data-name="Rectangle 617" width="9.067" height="1.007" transform="translate(83.82 158.466)" fill="#e6e8ec"/>
    <rect id="Rectangle_618" data-name="Rectangle 618" width="18.637" height="1.007" transform="translate(74.247 160.145)" fill="#e6e8ec"/>
    <rect id="Rectangle_619" data-name="Rectangle 619" width="18.637" height="1.007" transform="translate(74.247 161.824)" fill="#e6e8ec"/>
    <rect id="Rectangle_620" data-name="Rectangle 620" width="18.637" height="1.007" transform="translate(74.247 163.503)" fill="#e6e8ec"/>
    <rect id="Rectangle_621" data-name="Rectangle 621" width="17.127" height="1.007" transform="translate(74.247 165.182)" fill="#e6e8ec"/>
    <rect id="Rectangle_622" data-name="Rectangle 622" width="18.637" height="1.007" transform="translate(74.247 166.861)" fill="#e6e8ec"/>
    <rect id="Rectangle_623" data-name="Rectangle 623" width="18.637" height="1.007" transform="translate(74.247 168.54)" fill="#e6e8ec"/>
    <rect id="Rectangle_624" data-name="Rectangle 624" width="23.169" height="17.463" transform="translate(97.502 153.595)" opacity="0.1"/>
    <path id="Path_2268" data-name="Path 2268" d="M168.73,442.62H128.543a3.974,3.974,0,0,0-3.983,3.966v88a3.974,3.974,0,0,0,3.983,3.966H168.73a3.974,3.974,0,0,0,3.983-3.966v-88A3.974,3.974,0,0,0,168.73,442.62Z" transform="translate(-105.687 -334.777)" fill="url(#linear-gradient)"/>
    <rect id="Rectangle_625" data-name="Rectangle 625" width="47.418" height="94.835" rx="11" transform="translate(19.242 108.581)" fill="#535461"/>
    <rect id="Rectangle_626" data-name="Rectangle 626" width="40.432" height="77.189" transform="translate(22.733 117.401)" fill="#f1f1f4"/>
    <circle id="Ellipse_414" data-name="Ellipse 414" cx="0.366" cy="0.366" r="0.366" transform="translate(37.804 112.625)" fill="#fff"/>
    <rect id="Rectangle_627" data-name="Rectangle 627" width="8.087" height="0.735" rx="0.368" transform="translate(40.01 112.622)" fill="#fff"/>
    <circle id="Ellipse_415" data-name="Ellipse 415" cx="2.573" cy="2.573" r="2.573" transform="translate(40.193 195.695)" fill="#fff"/>
    <rect id="Rectangle_628" data-name="Rectangle 628" width="27.571" height="20.779" transform="translate(29.164 122.022)" opacity="0.1"/>
    <rect id="Rectangle_629" data-name="Rectangle 629" width="27.571" height="20.779" transform="translate(29.164 145.399)" fill="#fff"/>
    <rect id="Rectangle_630" data-name="Rectangle 630" width="9.189" height="5.196" transform="translate(31.862 147.198)" fill="#de4756" opacity="0.2"/>
    <rect id="Rectangle_631" data-name="Rectangle 631" width="10.788" height="1.199" transform="translate(43.249 147.198)" fill="#e6e8ec"/>
    <rect id="Rectangle_632" data-name="Rectangle 632" width="7.593" height="1.199" transform="translate(43.249 149.196)" fill="#e6e8ec"/>
    <rect id="Rectangle_633" data-name="Rectangle 633" width="10.788" height="1.199" transform="translate(43.249 151.191)" fill="#e6e8ec"/>
    <rect id="Rectangle_634" data-name="Rectangle 634" width="22.178" height="1.199" transform="translate(31.862 153.19)" fill="#e6e8ec"/>
    <rect id="Rectangle_635" data-name="Rectangle 635" width="22.178" height="1.199" transform="translate(31.862 155.188)" fill="#e6e8ec"/>
    <rect id="Rectangle_636" data-name="Rectangle 636" width="22.178" height="1.199" transform="translate(31.862 157.186)" fill="#e6e8ec"/>
    <rect id="Rectangle_637" data-name="Rectangle 637" width="20.38" height="1.199" transform="translate(31.862 159.185)" fill="#e6e8ec"/>
    <rect id="Rectangle_638" data-name="Rectangle 638" width="22.178" height="1.199" transform="translate(31.862 161.183)" fill="#e6e8ec"/>
    <rect id="Rectangle_639" data-name="Rectangle 639" width="22.178" height="1.199" transform="translate(31.862 163.181)" fill="#e6e8ec"/>
    <rect id="Rectangle_640" data-name="Rectangle 640" width="27.571" height="20.779" transform="translate(29.164 168.823)" fill="#fff"/>
    <rect id="Rectangle_641" data-name="Rectangle 641" width="9.189" height="5.196" transform="translate(31.862 170.622)" fill="#de4756" opacity="0.2"/>
    <rect id="Rectangle_642" data-name="Rectangle 642" width="10.788" height="1.199" transform="translate(43.249 170.622)" fill="#e6e8ec"/>
    <rect id="Rectangle_643" data-name="Rectangle 643" width="7.593" height="1.199" transform="translate(43.249 172.62)" fill="#e6e8ec"/>
    <rect id="Rectangle_644" data-name="Rectangle 644" width="10.788" height="1.199" transform="translate(43.249 174.618)" fill="#e6e8ec"/>
    <rect id="Rectangle_645" data-name="Rectangle 645" width="22.178" height="1.199" transform="translate(31.862 176.617)" fill="#e6e8ec"/>
    <rect id="Rectangle_646" data-name="Rectangle 646" width="22.178" height="1.199" transform="translate(31.862 178.615)" fill="#e6e8ec"/>
    <rect id="Rectangle_647" data-name="Rectangle 647" width="22.178" height="1.199" transform="translate(31.862 180.613)" fill="#e6e8ec"/>
    <rect id="Rectangle_648" data-name="Rectangle 648" width="20.38" height="1.199" transform="translate(31.862 182.612)" fill="#e6e8ec"/>
    <rect id="Rectangle_649" data-name="Rectangle 649" width="22.178" height="1.199" transform="translate(31.862 184.607)" fill="#e6e8ec"/>
    <rect id="Rectangle_650" data-name="Rectangle 650" width="22.178" height="1.199" transform="translate(31.862 186.605)" fill="#e6e8ec"/>
    <path id="Path_2269" data-name="Path 2269" d="M400.859,631.217c-1.865-2.262-4.124-4.862-3.808-7.874.255-2.44-.358-4.693-.236-7.138.172-3.475-.53-6.2-3.034-8.426-1.463-1.3-3.908-2.326-4.635-2.065-1.443.516-3.017.319-4.5.666a4.557,4.557,0,0,0-2.342,1.177,2.859,2.859,0,0,0-.525,3.278,5.534,5.534,0,0,0,2.742,7.771c-1.041.433-1.943,1.435-2.29,3.466a23.7,23.7,0,0,1-1.11,4.1,6.654,6.654,0,0,1-.677.278c.05.019.1.033.155.053-.108.042-.219.083-.327.122a3.568,3.568,0,0,0,.616.178,23.543,23.543,0,0,1-3.025,5.515s-3.142.694-4.363-.519c0,0,.2.233.469.583-1.2-.5-3.156-1.3-4.832-1.971-1.216-.483-1.529,0-1.513.672a2.247,2.247,0,0,0-.849.278,8.2,8.2,0,0,0-1.127-.605c-.7-.172-2.967-1.388-5.237,2.775a96.492,96.492,0,0,1-7.313,10.114c-5.065,2.329-11.657,5.273-14.1,6.02h-1.565c-.205-.336-.35-.555-.35-.555l-.122.08-.053-.08a12.9,12.9,0,0,1-6.214,2.151,5.89,5.89,0,0,1-1.321-.172,12.956,12.956,0,0,0-3.178-.511,1.874,1.874,0,0,0-1.646.572h0a1.5,1.5,0,0,0-.108.158h0a1.851,1.851,0,0,0-.092.175h0c-.028.061-.053.125-.078.192a.391.391,0,0,0,.1.328,1.762,1.762,0,0,0,.136.172l.086.094a13.878,13.878,0,0,0,2.007,1.551c.258.175.53.352.816.536l.541.344.483.3.194.119.216.133.386.236.23.139.433.258.35.208c.916.555,1.832,1.066,2.653,1.529l.577.325.056.031.369.205.641.355.441.241.205.114.222.119.044.025.383.208a.555.555,0,0,0,.447-.122c.111-.472.383-1.482.672-1.56a9.994,9.994,0,0,0,1.907-3.758h3.405a15.021,15.021,0,0,0,1.99-.3,3.3,3.3,0,0,1-2.428.852c-1.432-.355-2.789.516-2.925,1.388l-.017.053v.4a.116.116,0,0,0,.017.069c.017.022,0,.031,0,.044a.836.836,0,0,0,.036.089v.022a.9.9,0,0,0,.064.105l.028.036.056.069.039.039.064.061.047.039.075.056.056.036.092.053.061.033.114.053.058.025c.061.025.125.05.194.072s.239.072.386.108l.147.036.214.05.114.025.466.094.228.042.186.033.427.075.833.136.735.111.958.136.211.028.344.047.494.067.339.044h0l.874.111.278.033.555.067c.724.086,1.427.169,2.07.241l.747.083.377.042.161.017.452.05.253.028.308.033.436.044h.047l.278.028h0a.253.253,0,0,0,.278-.247h0v-.028a.247.247,0,0,0,.042-.133,5.733,5.733,0,0,1,.155-1.232c.019-.069.042-.141.064-.211l.028-.081c.031-.086.061-.172.1-.261a1.869,1.869,0,0,0,.064-.192l.017-.061a.526.526,0,0,1,.025-.105c.352-1.2-.072-3.433-.194-4.31a4.68,4.68,0,0,0-.191-.833.337.337,0,0,0,.067,0,1.987,1.987,0,0,0,.505-.277c2.573-.919,4.746-1.968,5.431-3.02a4.7,4.7,0,0,1,3.33.347c1.332.663,11.415,3.952,16.111,5.473.833.727,1.5,1.152,1.868,1.11,0,0,5.975.966,8.379-.921.214.147.347.228.347.228s3.491-1.735,4.016-3.988c.169-.73.322-1.81.477-3a4.366,4.366,0,0,0,1.268-3.07c.108-3.788,1.576-8.115,2.664-11.97a4.794,4.794,0,0,0,3.053-.744l-.053-.069Zm-20.016,5.673-.666-.225a5.552,5.552,0,0,0,.58-.966Zm-3.758,1.593,4.047,2.428.036.494a3.544,3.544,0,0,0,.033,1.13,31.13,31.13,0,0,1-4.113-4.052Zm-1.651-3.536c-.441-.183-.808-.347-1.057-.483l.938.058a2.1,2.1,0,0,1,.122.425ZM364.609,638.9s.7-1.56,2.27,1.041c.244.405.694,1.046,1.288,1.846l-4.568-.613a6.661,6.661,0,0,0,1-2.273Z" transform="translate(-249.963 -452.577)" fill="url(#linear-gradient-4)"/>
    <path id="Path_2270" data-name="Path 2270" d="M487.135,696.177s-3.2-1.349-5.728-2.359-1.01,2.359-1.01,2.359a40.481,40.481,0,0,1,4.213,1.349,25.018,25.018,0,0,0,3.539.336Z" transform="translate(-362.439 -516.122)" fill="#f7c4a7"/>
    <path id="Path_2271" data-name="Path 2271" d="M487.135,696.177s-3.2-1.349-5.728-2.359-1.01,2.359-1.01,2.359a40.481,40.481,0,0,1,4.213,1.349,25.018,25.018,0,0,0,3.539.336Z" transform="translate(-362.439 -516.122)" opacity="0.05"/>
    <path id="Path_2272" data-name="Path 2272" d="M515.539,652.82s-5.728-3.034-6.741,2.864a24.077,24.077,0,0,1-4.2,9.944s-3.033.674-4.213-.505c0,0,2.864,3.369,1.515,3.708,0,0,3.034,2.19,4.382,1.515s2.359-5.223,2.864-6.4S511.5,652.481,515.539,652.82Z" transform="translate(-377.202 -486.075)" fill="#575988"/>
    <path id="Path_2273" data-name="Path 2273" d="M515.539,652.82s-5.728-3.034-6.741,2.864a24.077,24.077,0,0,1-4.2,9.944s-3.033.674-4.213-.505c0,0,2.864,3.369,1.515,3.708,0,0,3.034,2.19,4.382,1.515s2.359-5.223,2.864-6.4S511.5,652.481,515.539,652.82Z" transform="translate(-377.202 -486.075)" opacity="0.1"/>
    <path id="Path_2274" data-name="Path 2274" d="M543.49,636.1s3.539,4.044,3.708,7.413,4.044-3.539,4.382-3.708-3.372-5.895-3.711-7.746S543.49,636.1,543.49,636.1Z" transform="translate(-408.348 -471.383)" fill="#f7c4a7"/>
    <path id="Path_2275" data-name="Path 2275" d="M489.891,598.67l-2.231,2.021,1.052,4.255,2.864-2.695-.336-2.695Z" transform="translate(-352.307 -432.219)" fill="#f7c4a7"/>
    <path id="Path_2276" data-name="Path 2276" d="M317.744,706.59H313.87l1.515,3.705,3.708-1.01Z" transform="translate(-226.75 -510.188)" fill="#f7c4a7"/>
    <path id="Path_2277" data-name="Path 2277" d="M341.895,759.78s-4.008,2.795-7.441,1.923-4.36-.555-4.76.58c-.369,1.032,9.578,6.5,11.163,7.36a.18.18,0,0,0,.278-.119c.108-.458.369-1.44.647-1.515a9.024,9.024,0,0,0,1.943-4.421C343.64,762.364,341.895,759.78,341.895,759.78Z" transform="translate(-253.881 -563.913)" opacity="0.1"/>
    <path id="Path_2278" data-name="Path 2278" d="M341.295,759.78s-4.008,2.795-7.441,1.923-4.36-.555-4.76.58c-.369,1.032,9.578,6.5,11.163,7.36a.18.18,0,0,0,.278-.119c.108-.458.369-1.44.647-1.515a9.024,9.024,0,0,0,1.943-4.421C343.04,762.364,341.295,759.78,341.295,759.78Z" transform="translate(-253.448 -563.913)" fill="#f3b5b7"/>
    <path id="Path_2279" data-name="Path 2279" d="M409.588,731.655,398.3,730.14s-18.368,8.762-20.557,8.931l.505,3.886h3.369c1.349,0,14.49-2.864,16.344-5.728a4.513,4.513,0,0,1,3.2.336c1.685.833,17.862,6.067,17.862,6.067Z" transform="translate(-288.6 -542.499)" fill="#575988"/>
    <path id="Path_2280" data-name="Path 2280" d="M409.588,731.655,398.3,730.14s-18.368,8.762-20.557,8.931l.505,3.886h3.369c1.349,0,14.49-2.864,16.344-5.728a4.513,4.513,0,0,1,3.2.336c1.685.833,17.862,6.067,17.862,6.067Z" transform="translate(-288.6 -542.499)" opacity="0.1"/>
    <path id="Path_2281" data-name="Path 2281" d="M358.824,699.3l-1.854,2.359,1.854,1.01,2.7-2.021Z" transform="translate(-257.888 -504.921)" fill="#f7c4a7"/>
    <path id="Path_2282" data-name="Path 2282" d="M450.7,708.423s-6.061-5.19-6.486-6.134-10.363-7.344-11.038-7.513-2.864-1.349-5.054,2.695-10.269,13.816-10.269,13.816,2.528,3.539,3.369,3.369,10.269-8.088,10.952-11.965c0,0,.674-1.515,2.19,1.01s11.29,14.66,13.144,14.49c0,0,7.247,1.18,8.762-1.685S450.7,708.423,450.7,708.423Z" transform="translate(-317.578 -516.742)" fill="#575988"/>
    <rect id="Rectangle_651" data-name="Rectangle 651" width="25.231" height="19.014" transform="translate(106.187 164.477)" fill="url(#linear-gradient-5)"/>
    <rect id="Rectangle_652" data-name="Rectangle 652" width="23.169" height="17.463" transform="translate(107.216 165.252)" fill="#fff"/>
    <rect id="Rectangle_653" data-name="Rectangle 653" width="7.724" height="4.366" transform="translate(109.484 166.764)" fill="#de4756" opacity="0.2"/>
    <rect id="Rectangle_654" data-name="Rectangle 654" width="9.067" height="1.007" transform="translate(119.053 166.764)" fill="#e6e8ec"/>
    <rect id="Rectangle_655" data-name="Rectangle 655" width="6.381" height="1.007" transform="translate(119.053 168.443)" fill="#e6e8ec"/>
    <rect id="Rectangle_656" data-name="Rectangle 656" width="9.067" height="1.007" transform="translate(119.053 170.122)" fill="#e6e8ec"/>
    <rect id="Rectangle_657" data-name="Rectangle 657" width="18.637" height="1.007" transform="translate(109.484 171.801)" fill="#e6e8ec"/>
    <rect id="Rectangle_658" data-name="Rectangle 658" width="18.637" height="1.007" transform="translate(109.484 173.481)" fill="#e6e8ec"/>
    <rect id="Rectangle_659" data-name="Rectangle 659" width="18.637" height="1.007" transform="translate(109.484 175.16)" fill="#e6e8ec"/>
    <rect id="Rectangle_660" data-name="Rectangle 660" width="17.127" height="1.007" transform="translate(109.484 176.839)" fill="#e6e8ec"/>
    <rect id="Rectangle_661" data-name="Rectangle 661" width="18.637" height="1.007" transform="translate(109.484 178.518)" fill="#e6e8ec"/>
    <rect id="Rectangle_662" data-name="Rectangle 662" width="18.637" height="1.007" transform="translate(109.484 180.197)" fill="#e6e8ec"/>
    <path id="Path_2283" data-name="Path 2283" d="M532.611,655.074s-2.107.927-2.276,4.8-3.886,10.447-3.886,10.447l.336,7.752s4.044,4.044,4.382,6.572,3.206,4.213,3.206,4.213,3.369-1.685,3.886-3.886.833-7.582,1.685-9.606.336-14.66.336-14.66l-2.528-4.382L536.4,654.81l-3.539,4.044S530.927,656.25,532.611,655.074Z" transform="translate(-396.037 -488.076)" fill="#f3b5b7"/>
    <path id="Path_2284" data-name="Path 2284" d="M526.788,676.144s-.505-6.067,1.01-7.413l3.034-8.6s1.1-4.127.927-4.466-3.961,3.286-3.961,3.286l-2.528,8.931.674,9.436Z" transform="translate(-395.184 -488.676)" opacity="0.1"/>
    <path id="Path_2285" data-name="Path 2285" d="M526.178,675.93s-.505-6.067,1.01-7.413l3.034-8.6s1.18-4.213,1.01-4.549-4.044,3.369-4.044,3.369l-2.528,8.931.674,9.436Z" transform="translate(-394.744 -488.461)" fill="#575988"/>
    <path id="Path_2286" data-name="Path 2286" d="M490.282,703.02s-8.432-2.695-8.931-3.369-5.9-5.054-7.752-2.023,6.908,3.886,6.908,3.886l8.931,5.393Z" transform="translate(-357.668 -518.247)" fill="#f7c4a7"/>
    <path id="Path_2287" data-name="Path 2287" d="M391.5,761.69l-2.5-.45s-4.085,5.232-6.211,4.7-4.085,1.76-1.837,2.5c2.032.663,10.8,1.593,12.475,1.765a.244.244,0,0,0,.278-.239,5.365,5.365,0,0,1,.372-1.9c.45-1.11,0-3.475-.125-4.374a4.352,4.352,0,0,0-.491-1.513Z" transform="translate(-290.199 -564.968)" opacity="0.1"/>
    <path id="Path_2288" data-name="Path 2288" d="M391.329,762.28l-2.5-.45s-4.08,5.234-6.22,4.7-4.085,1.76-1.837,2.5c2.032.663,10.8,1.593,12.475,1.765a.244.244,0,0,0,.278-.239,5.365,5.365,0,0,1,.372-1.9c.45-1.11,0-3.475-.125-4.374a4.351,4.351,0,0,0-.491-1.513Z" transform="translate(-290.069 -565.394)" fill="#f3b5b7"/>
    <circle id="Ellipse_416" data-name="Ellipse 416" cx="5.393" cy="5.393" r="5.393" transform="translate(131.013 155.876)" opacity="0.1"/>
    <circle id="Ellipse_417" data-name="Ellipse 417" cx="5.393" cy="5.393" r="5.393" transform="translate(130.507 155.876)" fill="#f7c4a7"/>
    <path id="Path_2289" data-name="Path 2289" d="M546.231,654.24s6.4,2.19,6.4,6.741-3.539,11.8-3.708,17.693-9.436,5.054-9.436,5.054-1.349-19.883,0-21.4S546.905,654.914,546.231,654.24Z" transform="translate(-405.024 -487.665)" fill="#575988"/>
    <path id="Path_2290" data-name="Path 2290" d="M536.408,676.732s-2.359,10.447-7.921,8.6c0,0-2.864,4.213-.833,6.067,0,0,4.887,1.18,8.087-2.023s5.554-4.388,6.059-8.273.833-9.267-.833-8.762S536.408,676.732,536.408,676.732Z" transform="translate(-396.381 -500.72)" opacity="0.1"/>
    <path id="Path_2291" data-name="Path 2291" d="M537.018,676.165s-2.359,10.447-7.921,8.6c0,0-2.864,4.213-.833,6.067,0,0,4.887,1.18,8.087-2.023s5.551-4.382,6.067-8.257.833-9.267-.833-8.762S537.018,676.165,537.018,676.165Z" transform="translate(-396.822 -500.323)" fill="#575988"/>
    <path id="Path_2292" data-name="Path 2292" d="M430.424,784.48a.053.053,0,0,1-.017.047,4.936,4.936,0,0,0-.278.891,3.289,3.289,0,0,1,.142-.4A2.442,2.442,0,0,0,430.424,784.48Z" transform="translate(-326.449 -581.758)" fill="#dddbe2"/>
    <path id="Path_2293" data-name="Path 2293" d="M380.965,783.406c-.694-.228-.985-.6-1-1-.278.555-.105,1.166.874,1.488,2.032.663,10.8,1.593,12.475,1.765a.244.244,0,0,0,.278-.241h0a.247.247,0,0,0-.219-.25C391.531,784.972,382.969,784.059,380.965,783.406Z" transform="translate(-290.124 -580.262)" fill="#dddbe2"/>
    <path id="Path_2294" data-name="Path 2294" d="M329.317,766.8a2.078,2.078,0,0,1,.164-.358,1.643,1.643,0,0,0-.4.655c-.369,1.032,9.578,6.494,11.163,7.36a.183.183,0,0,0,.278-.119h0a.183.183,0,0,0-.089-.2C338.676,773.173,328.951,767.819,329.317,766.8Z" transform="translate(-253.44 -568.725)" fill="#dddbe2"/>
    <path id="Path_2295" data-name="Path 2295" d="M372.788,788.15c-.089.025-.178.142-.258.308h.028c.072-.019.2-.164.355-.389A.328.328,0,0,1,372.788,788.15Z" transform="translate(-284.836 -584.352)" fill="#dddbe2"/>
    <path id="Path_2296" data-name="Path 2296" d="M529.374,620.526a28.993,28.993,0,0,0-.924,3.33,7.318,7.318,0,0,1-4.51,4.679c1.751.7,3.816-.155,5.171-1.571a16.19,16.19,0,0,0,2.906-5.132c1.965,1.321,1.726,4.357,2.384,6.722a7.455,7.455,0,0,0,3.969,4.743,7.105,7.105,0,0,0,6.078-.122c-1.8-2.2-4.366-5.212-4.06-8.137.247-2.37-1.454-4.18-1.335-6.555.167-3.375-1.11-5.082-3.539-7.247-1.413-1.266.81-3.053-1.01-2.528-.716.205-1.471-.555-2.173-.308-1.388.5-2.911.311-4.343.647C520.54,610.79,530.063,619,529.374,620.526Z" transform="translate(-394.224 -454.511)" opacity="0.1"/>
    <path id="Path_2297" data-name="Path 2297" d="M529.984,619.783a29.006,29.006,0,0,0-.924,3.331,7.319,7.319,0,0,1-4.51,4.679c1.751.7,3.816-.155,5.171-1.571a16.191,16.191,0,0,0,2.906-5.132c1.965,1.321,1.726,4.357,2.384,6.722a7.455,7.455,0,0,0,3.969,4.743,7.105,7.105,0,0,0,6.078-.122c-1.8-2.2-4.2-4.718-3.886-7.632.247-2.37-.122-4.8,0-7.18a11.342,11.342,0,0,0-3.9-8.79,5.3,5.3,0,0,0-4.321-1.174c-1.388.5-2.911.311-4.343.647C521.15,610.049,530.678,618.253,529.984,619.783Z" transform="translate(-394.664 -453.937)" fill="#b96b6b"/>
    <path id="Path_2298" data-name="Path 2298" d="M207.634,532.278c9.714-2.989,15.448-2.742,15.448-2.742l-.8-4.516a3.413,3.413,0,0,0,.672-.591s-1-5.481,0-6.852S226.7,503.75,226.7,503.75v-4.238c5-1.743,10.838-11.834,10.838-11.834l7.352,18.931s7.349,14.576,8.346,15.073c.8.4,1.193,3.658,1.324,4.954l-.061.019c.031.314.044.508.044.508l.058-.039v.039a2.863,2.863,0,0,1,.389-.228,64.218,64.218,0,0,1-5.37,5.584c-.985.863.783,1.529,1.61,1.515a4.059,4.059,0,0,1,1.388.2c4.188,1.446,11.074-3.833,11.074-3.833l-1.724-4.807c.45-.036.727-.053.727-.053s-5.606-19.683-8.223-21.554a11.934,11.934,0,0,1-2.22-2.1,7.771,7.771,0,0,1-1.757-5.4l.919-16.15c1.477-.216,2.428-.4,2.428-.4s.344-4.413.333-7.8a13.763,13.763,0,0,0-.333-3.913,11.194,11.194,0,0,1-.411-3.586c0-1.943.161-3.763.161-3.763a49.868,49.868,0,0,0,4.735-8.6,14.354,14.354,0,0,0,1.493-6.211,8.474,8.474,0,0,0-.2-2.07,2.6,2.6,0,0,0-1.174-1.629c-1.576-.966-5.165-3.35-6.222-5.659-1.343-2.931-3.283-3.347-3.361-3.364l-.119-.516a4.843,4.843,0,0,0,1.56-2.365c.405-1.249.488-2.581.833-3.849.167-.611.4-1.2.555-1.812a7.158,7.158,0,0,0,.225-1.882,5.828,5.828,0,0,0-.555-2.678,4.493,4.493,0,0,0-3.386-2.537,4.917,4.917,0,0,1-2.356-.425c-.455-.325-.694-.877-1.11-1.263a3.083,3.083,0,0,0-3.086-.361,6.575,6.575,0,0,0-3.375,2.628,13.723,13.723,0,0,1-1.432,2.22,21.021,21.021,0,0,1-1.771,1.341,3.608,3.608,0,0,0-1.388,2.775v.25a2.469,2.469,0,0,0,1.823,2.354,2.691,2.691,0,0,0,.833.022,6.728,6.728,0,0,0,4.993,8.315c-.017.089-.036.178-.055.278h.058a9.612,9.612,0,0,1-.45,1.266h-.08l.2-.361-2.859-.2a4.79,4.79,0,0,0-2.42.452,3.65,3.65,0,0,0-2.2,3.108c-.25,3.225-6.356,8.082-6.356,8.082C224.827,451.55,211,452.172,211,452.172s.061.078.089.119l-.278-.053-1.046-.191s-3.239-9.592-6.353-7.849,5.356,11.213,5.356,11.213l2.448.164.247.017a14.951,14.951,0,0,1-.386,1.84h0c-.033.122-.058.2-.064.219h0a103.2,103.2,0,0,1,11.909-.624h.494l.35-.017c.278,3.006,4.563,9.114,4.563,9.114l2.645.555.2.042a22.116,22.116,0,0,1-3.219,4.882l-.871,4.86.069-.017-.069.391a.941.941,0,0,0,.4-.211c-1.707,4.529-4.538,11.579-6.506,14.038-2.989,3.738-2.617,9.714-2.617,9.714s-2.989,15.7-2.864,18.562a7.382,7.382,0,0,1-1.08,3.922,12.969,12.969,0,0,0-1.538,2.184,6.651,6.651,0,0,1-5.856,3.608C203.909,530.657,207.634,532.278,207.634,532.278Zm19.242-75.987h0l.322-.128.075-.031.308-.133.053-.025.278-.128.061-.028.294-.147.069-.036.278-.147h.022l.278-.161.067-.039.278-.161.044-.028.241-.147.056-.033.258-.164.058-.039.239-.158.022-.014.244-.169.056-.039.233-.167.036-.025.205-.15.044-.033.214-.164.044-.033.194-.153h.017l.2-.158.042-.033.186-.153.017-.014.167-.142.028-.025.164-.142.025-.022.15-.136h0l.144-.13.019-.019.278-.278.405-.033a3.82,3.82,0,0,1,.494,2.145,28.281,28.281,0,0,1-.744,5.2,16.227,16.227,0,0,1-.738,4.2,2.475,2.475,0,0,1-.88-.214s-.017.089-.042.239l-.239-.061-1.213-.3S228.916,458.411,226.876,456.291Z" transform="translate(-162.156 -315.121)" fill="url(#linear-gradient-6)"/>
    <path id="Path_2299" data-name="Path 2299" d="M380.981,801.79l2.312,6.442s-6.331,4.857-10.444,3.852a11.49,11.49,0,0,0-1.887-.305c-.852-.064-2.317-.683-1.413-1.474a77.676,77.676,0,0,0,6.811-7.3Z" transform="translate(-282.476 -594.264)" fill="#4f4d59"/>
    <path id="Path_2300" data-name="Path 2300" d="M231.855,795.746l1.094,6.2s-5.6-.244-15.081,2.675c0,0-3.65-1.582-.608-3.528a6.505,6.505,0,0,0,5.717-3.528c2.19-3.772,3.528-3.283,3.528-3.283Z" transform="translate(-171.784 -588.827)" fill="#4f4d59"/>
    <path id="Path_2301" data-name="Path 2301" d="M280.418,607.309l-1.071,18.873a7.807,7.807,0,0,0,1.862,5.52,11.444,11.444,0,0,0,2.009,1.873c2.553,1.823,8.026,21.04,8.026,21.04s-6.2.364-7.9,1.582c0,0-.364-4.865-1.338-5.351s-8.149-14.71-8.149-14.71l-7.18-18.49s-5.717,9.853-10.583,11.554v4.135s-2.675,12.162-3.65,13.5,0,6.689,0,6.689-2.8,3.528-9.242-.244a8.116,8.116,0,0,0,1.943-5.109c-.125-2.8,2.8-18.118,2.8-18.118s-.364-5.828,2.553-9.486,7.771-17.635,7.771-17.635l3.347-7.2Z" transform="translate(-191.4 -445.393)" fill="#787c9c"/>
    <g id="Group_120" data-name="Group 120" transform="translate(56.632 150.342)" opacity="0.1">
      <path id="Path_2302" data-name="Path 2302" d="M337.271,654.635s-5.473-19.217-8.026-21.04a11.586,11.586,0,0,1-2.112-2,7.718,7.718,0,0,1-1.757-5.4l1.071-18.873L308.51,596.274l.244-.525,18.787,11.579L326.47,626.2a7.718,7.718,0,0,0,1.757,5.4,11.588,11.588,0,0,0,2.112,2c2.553,1.823,8.026,21.04,8.026,21.04s-6.2.364-7.9,1.582c0,0-.014-.189-.044-.5A34.28,34.28,0,0,1,337.271,654.635Z" transform="translate(-295.216 -595.75)"/>
      <path id="Path_2303" data-name="Path 2303" d="M263.868,710.607s-.974-5.351,0-6.689,3.65-13.5,3.65-13.5v-4.135c4.865-1.7,10.583-11.554,10.583-11.554l.425,1.1c-1.649,2.614-6.048,9.106-9.911,10.458v4.135s-2.675,12.162-3.65,13.5,0,6.689,0,6.689a5.083,5.083,0,0,1-4.355,1.477A4.79,4.79,0,0,0,263.868,710.607Z" transform="translate(-260.61 -652.81)"/>
    </g>
    <path id="Path_2304" data-name="Path 2304" d="M211.156,532.132l2.39.158,1.26.083v-3.053l-1.665-.3-1.024-.186s-3.161-9.364-6.2-7.663S211.156,532.132,211.156,532.132Z" transform="translate(-163.977 -391.379)" fill="#714b4f"/>
    <path id="Path_2305" data-name="Path 2305" d="M340.532,470.93s1.582,6.081,2.068,9.853-11.31.73-11.31.73,4.5-5.473,1.943-8.393Z" transform="translate(-255.041 -355.23)" fill="#714b4f"/>
    <path id="Path_2306" data-name="Path 2306" d="M316.362,508.264l-.244,2.312,3.769-.244,3.769-3.283,3.769-10.583,2.437-3.766,1.823-2.312-.73-2.8s-.333.278-.9.722c-1.851,1.418-6.2,4.363-9.372,3.55a3.791,3.791,0,0,1-.433-.136l-4.743,8.149Z" transform="translate(-243.641 -367.267)" fill="#e6e6f0"/>
    <path id="Path_2307" data-name="Path 2307" d="M271.414,485s1.943.364,3.283,3.283c1.03,2.245,4.5,4.56,6.053,5.512a2.6,2.6,0,0,1,1.177,1.64c.314,1.388.433,3.969-1.271,7.688a49.2,49.2,0,0,1-4.621,8.393s-.486,5.828.244,7.541,0,11.068,0,11.068-12.767,2.431-17.027,0-3.65-11.82-3.65-11.82-4.013,8.52-5.465,8.765l.833-4.743s4.743-5.109,5-11.676c0,0,1.46-5.959.244-7.541,0,0-20.555,1.7-21.77.244,0,0,13.5-.608,15.567-3.886,0,0,5.959-4.743,6.2-7.9a3.5,3.5,0,0,1,1.823-2.864,4.762,4.762,0,0,1,2.725-.608l2.748.189s-4.74,8.376-4.488,9.486-.244,9.972-.244,9.972,5.473-11.8,7.9-13.136,5.22-6.827,5.22-6.827L271.414,485" transform="translate(-185.071 -365.395)" opacity="0.1"/>
    <path id="Path_2308" data-name="Path 2308" d="M316.362,508.264l-.244,2.312,3.769-.244,3.769-3.283,3.769-10.583,2.437-3.766,1.823-2.312-.73-2.8s-.333.278-.9.722l.167.96s-2.8,5.492-5.229,6.83-7.9,13.136-7.9,13.136.486-8.881.244-9.972c-.167-.744,1.965-4.843,3.35-7.4a3.791,3.791,0,0,1-.433-.136l-4.743,8.149Z" transform="translate(-243.641 -367.267)" opacity="0.1"/>
    <path id="Path_2309" data-name="Path 2309" d="M234.105,553.269l1.26.083V550.3L233.7,550A4.734,4.734,0,0,1,234.105,553.269Z" transform="translate(-184.536 -412.355)" opacity="0.1"/>
    <path id="Path_2310" data-name="Path 2310" d="M271.414,483.64s1.943.364,3.283,3.283c1.03,2.245,4.5,4.56,6.053,5.512a2.6,2.6,0,0,1,1.177,1.64c.314,1.388.433,3.969-1.271,7.688a49.2,49.2,0,0,1-4.621,8.393s-.486,5.828.244,7.541,0,11.068,0,11.068-12.767,2.431-17.027,0-3.65-11.8-3.65-11.8-4.013,8.512-5.465,8.754l.833-4.743s4.743-5.109,5-11.676c0,0,1.46-5.959.244-7.541,0,0-4.743,5.109-10.094,5a102.753,102.753,0,0,0-11.676.608s1.216-3.886,0-5.351c0,0,13.5-.608,15.567-3.886,0,0,5.959-4.743,6.2-7.9a3.5,3.5,0,0,1,1.826-2.875,4.763,4.763,0,0,1,2.725-.608l2.748.189s-4.743,8.387-4.491,9.481-.244,9.972-.244,9.972,5.473-11.8,7.9-13.136,5.229-6.83,5.229-6.83l-.486-2.775" transform="translate(-185.071 -364.413)" fill="#67647e"/>
    <path id="Path_2311" data-name="Path 2311" d="M325.391,529.65s-2.92,9.853-4.621,11.068-12.04,7.419-15.081,5.959c0,0-.73,3.65.364,4.5,0,0,11.34-.444,11.432-.486,0,0,7.419-.974,8.634-4.621s2.675-9.853,2.675-9.853Z" transform="translate(-236.373 -397.653)" opacity="0.1"/>
    <ellipse id="Ellipse_418" data-name="Ellipse 418" cx="0.425" cy="0.608" rx="0.425" ry="0.608" transform="translate(73.026 141.911)" fill="#ba7855"/>
    <ellipse id="Ellipse_419" data-name="Ellipse 419" cx="0.425" cy="0.608" rx="0.425" ry="0.608" transform="translate(71.811 146.168)" fill="#ba7855"/>
    <g id="Group_121" data-name="Group 121" transform="translate(49.369 119.213)" opacity="0.1">
      <path id="Path_2312" data-name="Path 2312" d="M346.539,528.6s.73-9.364,0-11.068-.244-7.541-.244-7.541a48.838,48.838,0,0,0,4.621-8.393c1.7-3.719,1.582-6.3,1.271-7.688a2.6,2.6,0,0,0-1.18-1.64c-1.551-.952-5.023-3.267-6.05-5.512a6.318,6.318,0,0,0-2.387-2.895l-.047-.278s1.943.364,3.283,3.283c1.03,2.245,4.5,4.56,6.05,5.512a2.6,2.6,0,0,1,1.18,1.64c.314,1.388.433,3.969-1.271,7.688a49.2,49.2,0,0,1-4.621,8.393s-.486,5.828.244,7.541,0,11.068,0,11.068-9.123,1.737-14.518.808C338.321,530.169,346.539,528.6,346.539,528.6Z" transform="translate(-305.552 -483.59)"/>
      <path id="Path_2313" data-name="Path 2313" d="M320.154,504.768a73.931,73.931,0,0,1-.136,7.854c-.588,1.2-.958,2-.958,2s.486-8.881.244-9.972c-.23-1.041,4.041-8.673,4.466-9.436l.885.061S319.9,503.675,320.154,504.768Z" transform="translate(-295.575 -491.985)"/>
      <path id="Path_2314" data-name="Path 2314" d="M245.264,553.456c5.351.122,10.094-5,10.094-5a1.943,1.943,0,0,1,.308.661c-1.388,1.307-5.273,4.546-9.55,4.441a100.626,100.626,0,0,0-11.676.608s.025-.081.064-.219a96.818,96.818,0,0,1,10.76-.494Z" transform="translate(-234.44 -530.456)"/>
      <path id="Path_2315" data-name="Path 2315" d="M295.591,603.27s-.05.76-.022,1.9c-1.266,2.5-3.569,6.805-4.6,6.977l.18-1A57.268,57.268,0,0,0,295.591,603.27Z" transform="translate(-275.281 -570.054)"/>
    </g>
    <rect id="Rectangle_663" data-name="Rectangle 663" width="29.072" height="21.909" transform="translate(42.014 121.736)" fill="url(#linear-gradient)"/>
    <rect id="Rectangle_664" data-name="Rectangle 664" width="27.571" height="20.779" transform="translate(42.763 122.3)" fill="#fff"/>
    <rect id="Rectangle_665" data-name="Rectangle 665" width="9.189" height="5.196" transform="translate(45.461 124.098)" fill="#de4756" opacity="0.2"/>
    <rect id="Rectangle_666" data-name="Rectangle 666" width="10.788" height="1.199" transform="translate(56.849 124.098)" fill="#e6e8ec"/>
    <rect id="Rectangle_667" data-name="Rectangle 667" width="7.593" height="1.199" transform="translate(56.849 126.096)" fill="#e6e8ec"/>
    <rect id="Rectangle_668" data-name="Rectangle 668" width="10.788" height="1.199" transform="translate(56.849 128.095)" fill="#e6e8ec"/>
    <rect id="Rectangle_669" data-name="Rectangle 669" width="22.178" height="1.199" transform="translate(45.461 130.093)" fill="#e6e8ec"/>
    <rect id="Rectangle_670" data-name="Rectangle 670" width="22.178" height="1.199" transform="translate(45.461 132.091)" fill="#e6e8ec"/>
    <rect id="Rectangle_671" data-name="Rectangle 671" width="22.178" height="1.199" transform="translate(45.461 134.087)" fill="#e6e8ec"/>
    <rect id="Rectangle_672" data-name="Rectangle 672" width="20.38" height="1.199" transform="translate(45.461 136.085)" fill="#e6e8ec"/>
    <rect id="Rectangle_673" data-name="Rectangle 673" width="22.178" height="1.199" transform="translate(45.461 138.083)" fill="#e6e8ec"/>
    <rect id="Rectangle_674" data-name="Rectangle 674" width="22.178" height="1.199" transform="translate(45.461 140.082)" fill="#e6e8ec"/>
    <path id="Path_2316" data-name="Path 2316" d="M283.725,571.579l2.584.555,2.037.419-1.094-3.053-.76-.191-1.185-.294s-1.7-8.507-5.107-7.9S283.725,571.579,283.725,571.579Z" transform="translate(-217.451 -420.365)" fill="#714b4f"/>
    <path id="Path_2317" data-name="Path 2317" d="M304.618,593.524l2.037.43-1.094-3.053-.76-.191a12.149,12.149,0,0,0-.183,2.814Z" transform="translate(-235.761 -441.767)" opacity="0.1"/>
    <path id="Path_2318" data-name="Path 2318" d="M325.391,528.78s-2.92,9.853-4.621,11.068-12.04,7.419-15.081,5.959c0,0-.73,3.65.364,4.5,0,0,11.34-.444,11.432-.486,0,0,7.419-.974,8.634-4.621s2.675-9.853,2.675-9.853Z" transform="translate(-236.373 -397.025)" fill="#67647e"/>
    <path id="Path_2319" data-name="Path 2319" d="M345.149,471.81s.247.952.577,2.337a6.564,6.564,0,0,1-7.249,3.331,3.788,3.788,0,0,0-.627-3.489Z" transform="translate(-259.781 -355.866)" opacity="0.1"/>
    <circle id="Ellipse_420" data-name="Ellipse 420" cx="6.567" cy="6.567" r="6.567" transform="translate(73.695 108.406)" fill="#714b4f"/>
    <path id="Path_2320" data-name="Path 2320" d="M316.754,432.655a3.516,3.516,0,0,1-1.465.089,2.407,2.407,0,0,1-1.779-2.3,3.53,3.53,0,0,1,1.354-2.712c.555-.464,1.221-.794,1.729-1.31a12.26,12.26,0,0,0,1.388-2.162,6.419,6.419,0,0,1,3.3-2.564,3.01,3.01,0,0,1,3.014.352c.4.375.63.916,1.074,1.232a4.793,4.793,0,0,0,2.3.414,4.385,4.385,0,0,1,3.305,2.476,6.2,6.2,0,0,1,.322,4.207c-.153.6-.375,1.177-.538,1.771-.341,1.238-.422,2.537-.816,3.758a4.026,4.026,0,0,1-2.437,2.775,7.7,7.7,0,0,0-.783-3.969,1.138,1.138,0,0,0-.555-.616,1.346,1.346,0,0,0-.669,0,6.661,6.661,0,0,1-4.441-.9c-.466-.278-1.193-1.252-1.693-1.349C318.733,431.736,317.421,432.5,316.754,432.655Z" transform="translate(-242.196 -319.492)" opacity="0.1"/>
    <path id="Path_2321" data-name="Path 2321" d="M316.754,431.775a3.516,3.516,0,0,1-1.465.089,2.407,2.407,0,0,1-1.779-2.3,3.53,3.53,0,0,1,1.354-2.712c.555-.464,1.221-.794,1.729-1.31a12.259,12.259,0,0,0,1.388-2.162,6.419,6.419,0,0,1,3.3-2.564,3.01,3.01,0,0,1,3.014.352c.4.375.63.916,1.074,1.232a4.793,4.793,0,0,0,2.3.414,4.385,4.385,0,0,1,3.305,2.476,6.2,6.2,0,0,1,.322,4.208c-.153.6-.375,1.177-.538,1.771-.341,1.238-.422,2.537-.816,3.758A4.026,4.026,0,0,1,327.5,437.8a7.7,7.7,0,0,0-.783-3.969,1.138,1.138,0,0,0-.555-.616,1.346,1.346,0,0,0-.669,0,6.661,6.661,0,0,1-4.441-.9c-.466-.278-1.193-1.252-1.693-1.349C318.733,430.856,317.421,431.628,316.754,431.775Z" transform="translate(-242.196 -318.856)" fill="#503f43"/>
    <path id="Path_2322" data-name="Path 2322" d="M115.881,802.03a3.239,3.239,0,0,0,1.063-1.6,1.424,1.424,0,0,0-.744-1.635,2.084,2.084,0,0,0-1.965.691,2.614,2.614,0,0,1-1.912.921,2.909,2.909,0,0,0,.9-2.723,1.138,1.138,0,0,0-.25-.555c-.38-.405-1.066-.23-1.521.089-1.443,1.016-1.846,2.975-1.854,4.74a9.087,9.087,0,0,1-.028-1.943,2.006,2.006,0,0,0-.733-1.726,2.22,2.22,0,0,0-1.11-.264,2.311,2.311,0,0,0-1.815.516,1.785,1.785,0,0,0,.072,2.22,7.225,7.225,0,0,0,1.879,1.5,4.163,4.163,0,0,1,1.343,1.279,1.268,1.268,0,0,1,.1.228h4.06A11.334,11.334,0,0,0,115.881,802.03Z" transform="translate(-91.957 -590.724)" fill="#de4756"/>
    <path id="Path_2323" data-name="Path 2323" d="M984.881,663.03a3.239,3.239,0,0,0,1.063-1.6,1.424,1.424,0,0,0-.744-1.635,2.084,2.084,0,0,0-1.965.691,2.614,2.614,0,0,1-1.912.921,2.908,2.908,0,0,0,.9-2.723,1.138,1.138,0,0,0-.25-.555c-.38-.405-1.066-.23-1.521.089-1.443,1.016-1.846,2.975-1.854,4.74a9.085,9.085,0,0,1-.028-1.943,2.006,2.006,0,0,0-.733-1.726,2.22,2.22,0,0,0-1.11-.264,2.311,2.311,0,0,0-1.815.516,1.785,1.785,0,0,0,.072,2.22,7.222,7.222,0,0,0,1.879,1.5,4.163,4.163,0,0,1,1.343,1.279,1.269,1.269,0,0,1,.1.228h4.066A11.331,11.331,0,0,0,984.881,663.03Z" transform="translate(-719.776 -490.301)" fill="#de4756"/>
    <path id="Path_2324" data-name="Path 2324" d="M1025.184,313.206c-.574-1.682-1.4-3.813-2.059-4.316a.615.615,0,0,0-.13-.08h-.08v-2.079l-1.549.247a14.8,14.8,0,0,1-.555-2.3,1.069,1.069,0,0,0,1.163.233c-.025-.042-.047-.086-.069-.13l.069-.031a2.878,2.878,0,0,1-.375-1.41,5.137,5.137,0,0,1,.214-1.332c.278-.958.747-1.851,1.008-2.814a6.837,6.837,0,0,0,.233-1.9,6.938,6.938,0,0,0-.722-3.136,1.832,1.832,0,0,0-.555-.716,7.078,7.078,0,0,0-.672-.327,3.627,3.627,0,0,1-.977-.974,8.759,8.759,0,0,0-4.232-2.825,2.478,2.478,0,0,0-1.354-.108c-1.041.278-1.418,1.568-2.262,2.245a6.214,6.214,0,0,1-2.7.858,4.591,4.591,0,0,0-2.515,1.318,2.729,2.729,0,0,0-.674,1.818,1.829,1.829,0,0,0,.744,1.626,2.337,2.337,0,0,0,1.973.278,6.711,6.711,0,0,0,5.082,8.437l.18.325h0a13.9,13.9,0,0,1,1.26,3.289,12.149,12.149,0,0,1-3.924,1.637,6.61,6.61,0,0,1-.205,1.088,6,6,0,0,1-1.235,2.428c-1.279,1.438-7.033,12.306-7.033,12.306s-.18.433-.477,1.171c-3.572.439-9.4,1.071-11.029.747L985.34,322.7s-2.065,1.576-1.885,3.491L982.3,325.1s-6.073,4.635,3.516,7.671l14.59,1.693c-1.388,4.194-2.687,9.076-2.284,11.732h.119a5.52,5.52,0,0,0,.833-.064l-.025.472-1.4,25.162a7.21,7.21,0,0,0,4,6.711s5.273,15.5,3.2,17.26c0,0,.247.13.663.311l-4.338,3.844a20.284,20.284,0,0,1-4.954.638,1.268,1.268,0,0,0-1.4.944.211.211,0,0,1-.017.1v.308a.239.239,0,0,0,.019.1v.039a.858.858,0,0,0,.036.111l.014.033a.953.953,0,0,0,.05.108v.025c.019.036.042.069.064.105l.019.031q.039.055.086.111l.025.028c.033.039.069.075.105.111l.017.014.119.1.025.019c.044.036.094.069.144.1l.033.022c.053.033.108.067.167.1h.025l.18.089h.025l.211.083.044.017.23.075h.039l.253.067h.019l.278.056h.055l.3.044h.058l.339.033c.658.05,1.543.069,2.567.064h0v.164a.194.194,0,0,0,.019.1v.039a.862.862,0,0,0,.036.111l.014.033a.938.938,0,0,0,.05.108v.025c.019.036.042.069.064.105l.019.031q.039.056.086.111l.025.028c.033.039.069.075.105.111l.017.014.119.1.025.019c.044.036.094.069.144.1l.036.022c.053.033.108.067.167.1h.025l.18.089h.025l.211.083.044.017.23.075h.039l.253.067h.019l.277.056h.056l.3.044h.058l.339.033c4.163.319,17.418-.638,17.418-.638v-.036h0v-.047h0c.13-.619.769-4.216-1.5-6.875.067-.069.133-.144.194-.222,0,0-1.757-3.036-.8-4s-4.793-17.579-4.793-17.579a13.167,13.167,0,0,1-1.279-10.227c1.757-5.434-.161-11.346-.161-11.346a6.545,6.545,0,0,0,4.277-6.406v-.48a1.7,1.7,0,0,0,.278.017,1.246,1.246,0,0,0,.178,0,8.448,8.448,0,0,1,.161-4.954c.96-2.079,3.036-.161,4.954-8.629,1.388-6.128,2.609-13.178,3.178-16.608A8.745,8.745,0,0,0,1025.184,313.206Zm-36.471,17.976-1.457-1.388c.483.2,1.019.4,1.618.586l5.5.638a28.053,28.053,0,0,1-5.656.167Z" transform="translate(-724.004 -223.905)" fill="url(#linear-gradient-8)"/>
    <path id="Path_2325" data-name="Path 2325" d="M1003.691,425.007s-11.3,1.571-13.66,1.11l-6.281-5.967s-5.967,4.554,3.455,7.535l17.585,2.04Z" transform="translate(-725.072 -318.544)" fill="#fdc2cc"/>
    <path id="Path_2326" data-name="Path 2326" d="M1003.691,425.007s-11.3,1.571-13.66,1.11l-6.281-5.967s-5.967,4.554,3.455,7.535l17.585,2.04Z" transform="translate(-725.072 -318.544)" opacity="0.05"/>
    <path id="Path_2327" data-name="Path 2327" d="M1044.528,667.33l-5.5,4.868a19.909,19.909,0,0,1-4.868.627c-1.729-.158-2.512,2.67,1.571,2.984s17.113-.627,17.113-.627,1.257-5.023-2.512-7.852Z" transform="translate(-761.827 -497.122)" fill="#47465a"/>
    <path id="Path_2328" data-name="Path 2328" d="M1044.528,667.33l-5.5,4.868a19.909,19.909,0,0,1-4.868.627c-1.729-.158-2.512,2.67,1.571,2.984s17.113-.627,17.113-.627,1.257-5.023-2.512-7.852Z" transform="translate(-761.827 -497.122)" opacity="0.05"/>
    <path id="Path_2329" data-name="Path 2329" d="M1053.05,687.78a8.66,8.66,0,0,1-.2,1.7s-13.044.941-17.113.627c-1.962-.15-2.8-.883-2.948-1.585-.178.8.533,1.871,2.948,2.057,4.083.314,17.113-.627,17.113-.627A9.075,9.075,0,0,0,1053.05,687.78Z" transform="translate(-761.831 -511.896)" fill="#fff" opacity="0.3"/>
    <path id="Path_2330" data-name="Path 2330" d="M1098.35,335.126s3.455,4.868,2.2,8.165,6.586-3.455,6.586-3.455a13.381,13.381,0,0,1-1.257-9.106Z" transform="translate(-809.212 -253.941)" fill="#fdc2cc"/>
    <path id="Path_2331" data-name="Path 2331" d="M1064.368,674.11l-5.5,4.868a19.907,19.907,0,0,1-4.868.627c-1.729-.158-2.512,2.67,1.571,2.984s17.113-.627,17.113-.627,1.257-5.023-2.512-7.852Z" transform="translate(-776.16 -502.02)" fill="#47465a"/>
    <path id="Path_2332" data-name="Path 2332" d="M1058.928,521.381a4.2,4.2,0,0,1-3.181,1.457,13.329,13.329,0,0,1-5.767-1.457c2.04-1.726-3.139-16.958-3.139-16.958a7.086,7.086,0,0,1-3.924-6.594l1.388-24.72.347-6.209,4.4-2.67,3.467,2.659,3.286,2.523a13.206,13.206,0,0,1,.411,2.451c.38,5.77-4.18,7.127-4.18,7.127s1.884,5.809.158,11.146a12.933,12.933,0,0,0,1.257,10.047s5.653,16.328,4.718,17.271S1058.928,521.381,1058.928,521.381Z" transform="translate(-769.16 -350.39)" fill="#565171"/>
    <path id="Path_2333" data-name="Path 2333" d="M1058.928,521.381a4.2,4.2,0,0,1-3.181,1.457,13.329,13.329,0,0,1-5.767-1.457c2.04-1.726-3.139-16.958-3.139-16.958a7.086,7.086,0,0,1-3.924-6.594l1.388-24.72.347-6.209,4.4-2.67,3.467,2.659,3.286,2.523a13.206,13.206,0,0,1,.411,2.451c.38,5.77-4.18,7.127-4.18,7.127s1.884,5.809.158,11.146a12.933,12.933,0,0,0,1.257,10.047s5.653,16.328,4.718,17.271S1058.928,521.381,1058.928,521.381Z" transform="translate(-769.16 -350.39)" opacity="0.05"/>
    <path id="Path_2334" data-name="Path 2334" d="M1072.188,528.178c-2.67,3.3-8.948,0-8.948,0a1,1,0,0,0,.277-.427c1.152-3.131-3.885-18.1-3.885-18.1-4.238-2.04-4.718-6.908-4.718-6.908l-1.11-25.159-.144-3.258,6.605-2.523,2.029-.774,6.752,5.182a12.245,12.245,0,0,1,.433,3.283,6.432,6.432,0,0,1-4.2,6.295s1.885,5.809.158,11.146a12.934,12.934,0,0,0,1.257,10.047s5.653,16.328,4.718,17.271S1072.188,528.178,1072.188,528.178Z" transform="translate(-776.926 -355.303)" fill="#565171"/>
    <path id="Path_2335" data-name="Path 2335" d="M1065.3,474.608c-1.357-.194-4.1-1.829-5.517-2.717l-.883-.555s-1.413-3.924-5.182-.941a14.105,14.105,0,0,1-4.094,2.315,9.579,9.579,0,0,1-1.749.439l.347-6.209,4.4-2.67,3.466,2.659,2.029-.774,6.753,5.182A12.248,12.248,0,0,1,1065.3,474.608Z" transform="translate(-772.75 -350.419)" opacity="0.1"/>
    <path id="Path_2336" data-name="Path 2336" d="M1071.235,365.6c-.555,3.369-1.76,10.294-3.122,16.317-1.884,8.326-3.924,6.436-4.868,8.479a8.3,8.3,0,0,0-.158,4.868c-1.571.158-6.753-3.3-6.753-3.3s-1.413-3.924-5.182-.941-6.753,2.825-6.753,2.825c-.785-5.182,5.023-19,5.023-19s5.654-10.677,6.908-12.09a5.894,5.894,0,0,0,1.213-2.387,6.5,6.5,0,0,0,.2-1.069c2.04-.158,7.066-3.608,7.066-3.608l3.924-.627v2.04a.6.6,0,0,1,.128.078c.647.494,1.46,2.589,2.023,4.241A8.6,8.6,0,0,1,1071.235,365.6Z" transform="translate(-770.183 -271.526)" fill="#f68080"/>
    <path id="Path_2337" data-name="Path 2337" d="M1083.82,368.519s-4.083-3.3-10.205,7.38-7.535,8.948-7.535,8.948,1.257,4.718.627,5.653a34.455,34.455,0,0,1,5.809,0c1.571.314,11.3-11.926,11.3-11.926S1088.855,371.658,1083.82,368.519Z" transform="translate(-785.898 -280.895)" opacity="0.1"/>
    <path id="Path_2338" data-name="Path 2338" d="M1083.29,366.249s-4.083-3.3-10.205,7.38-7.535,8.948-7.535,8.948,4.868,5.337,6.436,5.653,11.3-11.934,11.3-11.934S1088.314,369.391,1083.29,366.249Z" transform="translate(-785.516 -279.255)" opacity="0.1"/>
    <path id="Path_2339" data-name="Path 2339" d="M1066.217,433.637a18.985,18.985,0,0,0-.627-4.269c.955-.125,1.557-.208,1.557-.208l1.11,4.718Z" transform="translate(-785.544 -325.053)" opacity="0.1"/>
    <path id="Path_2340" data-name="Path 2340" d="M1106.455,331.87l-7.535,4.4a16.1,16.1,0,0,1,.877,1.438,6.622,6.622,0,0,0,1.321.133c2.012,0,2.95-2.112,4.163-3.533C1105.2,333.163,1106.119,333.133,1106.455,331.87Z" transform="translate(-809.624 -254.765)" opacity="0.1"/>
    <circle id="Ellipse_421" data-name="Ellipse 421" cx="6.594" cy="6.594" r="6.594" transform="translate(284.744 69.567)" fill="#fdc2cc"/>
    <rect id="Rectangle_675" data-name="Rectangle 675" width="53.107" height="40.021" transform="translate(228.04 83.677)" fill="url(#linear-gradient)"/>
    <rect id="Rectangle_676" data-name="Rectangle 676" width="50.726" height="38.228" transform="translate(229.231 84.574)" fill="#fff"/>
    <rect id="Rectangle_677" data-name="Rectangle 677" width="16.908" height="9.556" transform="translate(234.193 87.882)" fill="#de4756" opacity="0.2"/>
    <rect id="Rectangle_678" data-name="Rectangle 678" width="19.85" height="2.206" transform="translate(255.145 87.882)" fill="#e6e8ec"/>
    <rect id="Rectangle_679" data-name="Rectangle 679" width="13.969" height="2.206" transform="translate(255.145 91.559)" fill="#e6e8ec"/>
    <rect id="Rectangle_680" data-name="Rectangle 680" width="19.85" height="2.206" transform="translate(255.145 95.234)" fill="#e6e8ec"/>
    <rect id="Rectangle_681" data-name="Rectangle 681" width="40.801" height="2.206" transform="translate(234.193 98.909)" fill="#e6e8ec"/>
    <rect id="Rectangle_682" data-name="Rectangle 682" width="40.801" height="2.206" transform="translate(234.193 102.586)" fill="#e6e8ec"/>
    <rect id="Rectangle_683" data-name="Rectangle 683" width="40.801" height="2.206" transform="translate(234.193 106.261)" fill="#e6e8ec"/>
    <rect id="Rectangle_684" data-name="Rectangle 684" width="37.493" height="2.206" transform="translate(234.193 109.938)" fill="#e6e8ec"/>
    <rect id="Rectangle_685" data-name="Rectangle 685" width="40.801" height="2.206" transform="translate(234.193 113.613)" fill="#e6e8ec"/>
    <rect id="Rectangle_686" data-name="Rectangle 686" width="40.801" height="2.206" transform="translate(234.193 117.287)" fill="#e6e8ec"/>
    <path id="Path_2341" data-name="Path 2341" d="M1074.494,297.848a4.508,4.508,0,0,1,2.47-1.3,6.288,6.288,0,0,0,2.653-.833c.833-.663,1.2-1.923,2.22-2.2a2.434,2.434,0,0,1,1.329.105,8.6,8.6,0,0,1,4.163,2.775,3.563,3.563,0,0,0,.958.957,6.945,6.945,0,0,1,.661.322,1.8,1.8,0,0,1,.538.7,6.824,6.824,0,0,1,.477,4.793c-.255.946-.716,1.823-.988,2.775a3.642,3.642,0,0,0,.158,2.85,1.149,1.149,0,0,1-1.388-.513,5.906,5.906,0,0,1-.555-1.524,5.828,5.828,0,0,0-1.7-2.645c-.494-.438-1.388-.733-1.724-.167-.133.219-.125.5-.239.724a.951.951,0,0,1-1.3.278,2,2,0,0,1-.816-1.21c-.647-2.187-1.749-3.564-4.088-2.628a2.807,2.807,0,0,1-2.737-.014A2.221,2.221,0,0,1,1074.494,297.848Z" transform="translate(-791.498 -227.021)" opacity="0.1"/>
    <path id="Path_2342" data-name="Path 2342" d="M1074.494,297.278a4.508,4.508,0,0,1,2.47-1.3,6.288,6.288,0,0,0,2.653-.833c.833-.663,1.2-1.923,2.22-2.2a2.434,2.434,0,0,1,1.329.105,8.6,8.6,0,0,1,4.163,2.775,3.564,3.564,0,0,0,.958.958,6.93,6.93,0,0,1,.661.322,1.8,1.8,0,0,1,.538.7,6.825,6.825,0,0,1,.477,4.793c-.255.946-.716,1.823-.988,2.775a3.642,3.642,0,0,0,.158,2.85,1.149,1.149,0,0,1-1.388-.513,5.905,5.905,0,0,1-.555-1.524,5.828,5.828,0,0,0-1.7-2.645c-.494-.439-1.388-.733-1.724-.167-.133.219-.125.5-.239.724a.951.951,0,0,1-1.3.278,2,2,0,0,1-.816-1.21c-.647-2.187-1.749-3.564-4.088-2.628a2.807,2.807,0,0,1-2.737-.014A2.221,2.221,0,0,1,1074.494,297.278Z" transform="translate(-791.498 -226.609)" fill="#b96b6b"/>
    <path id="Path_2343" data-name="Path 2343" d="M1103.291,357.195H1100.1s-6.281,3.139-6.436,2.984a5.339,5.339,0,0,0-1.693.205,6.5,6.5,0,0,0,.2-1.069c2.04-.158,7.066-3.608,7.066-3.608l3.924-.627v2.04A.6.6,0,0,1,1103.291,357.195Z" transform="translate(-804.603 -271.533)" opacity="0.05"/>
    <path id="Path_2344" data-name="Path 2344" d="M1072.85,694.57a8.661,8.661,0,0,1-.2,1.7s-13.044.941-17.113.627c-1.962-.15-2.8-.883-2.948-1.585-.178.8.533,1.871,2.948,2.057,4.083.314,17.113-.627,17.113-.627a9.069,9.069,0,0,0,.2-2.173Z" transform="translate(-776.136 -516.801)" fill="#fff" opacity="0.3"/>
    <g id="Group_122" data-name="Group 122" transform="translate(274.262 85.59)" opacity="0.05">
      <path id="Path_2345" data-name="Path 2345" d="M1049.97,481.107a13.334,13.334,0,0,1-5.22,2.639,2.338,2.338,0,0,0,.039.344s2.984.158,6.753-2.825a5.059,5.059,0,0,1,2.018-1.055C1052.738,479.83,1051.564,479.855,1049.97,481.107Z" transform="translate(-1044.75 -447.369)"/>
      <path id="Path_2346" data-name="Path 2346" d="M1115.132,366.758c-.555-1.665-1.388-3.747-2.023-4.241a.6.6,0,0,0-.128-.078s-1.3.044-1.257.078c.647.494,1.274,2.431,1.837,4.083a8.6,8.6,0,0,1,.341,4.163c-.555,3.369-1.76,10.294-3.122,16.317-1.884,8.326-3.924,6.436-4.868,8.479a7.929,7.929,0,0,0-.219,4.61,3.971,3.971,0,0,0,1.632.414,8.3,8.3,0,0,1,.158-4.868c.944-2.043,2.984-.158,4.868-8.479,1.363-6.02,2.562-12.947,3.122-16.317A8.6,8.6,0,0,0,1115.132,366.758Z" transform="translate(-1088.602 -362.44)"/>
    </g>
    <path id="Path_2347" data-name="Path 2347" d="M1015.579,421.208l-2.029-.236-15.542-1.807c-9.42-2.984-3.455-7.535-3.455-7.535l6.281,5.967c1.812.364,8.917-.483,12.1-.891.955-.125,1.557-.208,1.557-.208Z" transform="translate(-732.877 -312.388)" fill="#fdc2cc"/>
    <path id="Path_2348" data-name="Path 2348" d="M1083.82,367.389s-4.083-3.3-10.205,7.38-7.535,8.948-7.535,8.948,1.257,4.718.627,5.653a34.451,34.451,0,0,1,5.809,0c1.571.314,11.3-11.934,11.3-11.934S1088.855,370.528,1083.82,367.389Z" transform="translate(-785.898 -280.079)" fill="#f68080"/>
  </g>
</svg>
