<svg xmlns="http://www.w3.org/2000/svg" xmlns:xlink="http://www.w3.org/1999/xlink" width="310.213" height="235.568" viewBox="0 0 310.213 235.568">
  <defs>
    <linearGradient id="linear-gradient" x1="0.5" y1="1" x2="0.5" gradientUnits="objectBoundingBox">
      <stop offset="0" stop-color="gray" stop-opacity="0.251"/>
      <stop offset="0.54" stop-color="gray" stop-opacity="0.122"/>
      <stop offset="1" stop-color="gray" stop-opacity="0.102"/>
    </linearGradient>
  </defs>
  <g id="happiness-home" transform="translate(-1349.195 -3308.112)">
    <path id="Path_430" data-name="Path 430" d="M308.552,705.8c-2.612-.264-5.341-.547-7.814.144s-4.523,2.71-3.789,4.64c1.641,4.3,11.271,1.306,15.711,4.247,1.586,1.051,2.2,2.7,3.442,3.995,2,2.1,5.448,3.073,8.773,3.611,19.973,3.229,42.743-5.082,60.249,2.922,5.669,2.593,10.14,6.72,16.357,8.45,8.235,2.292,17.254-.157,25.775-1.727a126.074,126.074,0,0,1,32.231-1.69c7.968.615,18.566.82,21.116-4.966,1.641-3.721-1.831-7.863-6.441-9.624s-10.005-1.705-15.152-1.536c-9.934.356-19.872,1.076-29.806.725-19.211-.682-37.359-8.3-56.066-8.549C351.35,706.179,330.44,708.007,308.552,705.8Z" transform="translate(1114.336 2798.897)" fill="#ff5062" opacity="0.1"/>
    <path id="Path_431" data-name="Path 431" d="M261.97,385.38c-3.073,3.107-3.26,7.869-3.26,7.869s4.76-.27,7.82-3.38S269.794,382,269.794,382,265.031,382.28,261.97,385.38Z" transform="translate(1140.721 3023.001)" fill="#ff5062" opacity="0.1"/>
    <path id="Path_432" data-name="Path 432" d="M308.887,124.211c1.085,4.225,5.064,6.852,5.064,6.852s2.222-4.219,1.137-8.444-5.064-6.849-5.064-6.849S307.79,119.989,308.887,124.211Z" transform="translate(1106.172 3207.424)" fill="#ff5062" opacity="0.1"/>
    <path id="Path_433" data-name="Path 433" d="M887.053,173.433c-3.073,3.107-3.263,7.869-3.263,7.869s4.763-.27,7.823-3.38,3.26-7.873,3.26-7.873S890.114,170.342,887.053,173.433Z" transform="translate(707.715 3169.823)" fill="#ff5062" opacity="0.1"/>
    <path id="Path_434" data-name="Path 434" d="M589.552,305.6c-.357,4.345,2.541,8.131,2.541,8.131s3.482-3.26,3.838-7.608S593.389,298,593.389,298,589.908,301.254,589.552,305.6Z" transform="translate(911.561 3081.189)" fill="#ff5062" opacity="0.1"/>
    <path id="Path_435" data-name="Path 435" d="M917.612,503.905c-.356,4.345,2.541,8.131,2.541,8.131s3.482-3.26,3.838-7.605-2.541-8.131-2.541-8.131S917.968,499.56,917.612,503.905Z" transform="translate(684.308 2943.823)" fill="#ff5062" opacity="0.1"/>
    <path id="Path_436" data-name="Path 436" d="M275.463,96.3c-19.887-.6-38.828-6.146-56.915-12.23s-36-12.811-55.412-16.031c-12.485-2.071-26.764-2.363-36.821,3.429-9.682,5.571-12.811,15.192-14.491,24.118-1.266,6.714-2.01,13.782,1.457,20.068,2.409,4.366,6.68,8.035,9.636,12.214,10.285,14.55,3.014,32.489-8.128,46.707-5.224,6.665-11.293,13.019-15.327,20.115s-5.9,15.22-2.369,22.453c3.5,7.172,11.833,12.559,20.864,16.347,18.342,7.682,39.947,9.9,61.029,11.145,46.654,2.766,93.555,1.567,140.332.369,17.312-.443,34.7-.891,51.728-3.208,9.458-1.284,19.22-3.325,26.088-8.254,8.714-6.256,10.875-16.848,5.033-24.693-9.8-13.155-36.874-16.424-43.729-30.544-3.767-7.771.1-16.427,5.58-23.636,11.75-15.462,31.444-29.029,32.479-46.707.713-12.138-8.754-24.294-23.393-30.037-15.342-6.023-36.622-5.264-47.936,4.7C313.507,92.88,293.024,96.829,275.463,96.3Z" transform="translate(1253.969 3241.425)" fill="#ff5062" opacity="0.1"/>
    <path id="Path_437" data-name="Path 437" d="M507.237,169.32a2.766,2.766,0,0,0-1.887,1.662l-.307-.049-1.146-.184s-6.072-.5-7.206-.424a2.268,2.268,0,0,1-1.844-1.042l-4.514-3.819-.35-.307c.489-.184.793-.28.793-.28s-12.113-15.057-14.725-15.349-6.929-3.807-6.972-3.841l-.046-.24c-.1-.507-.166-1.02-.218-1.536l.642.393h0a5.182,5.182,0,0,1,.018-.535h0a9.723,9.723,0,0,1,1.807-5.162c1.263-1.751,3.131-3.128,3.878-5.147a7.437,7.437,0,0,0,.4-2.7,9,9,0,0,0-1.26-4.7,5.869,5.869,0,0,0-3.964-2.735c-.43-.068-.87-.077-1.294-.175-2.523-.593-3.451-3.976-5.9-4.806a4.972,4.972,0,0,0-3.518.347c-1.1.479-2.1,1.168-3.18,1.7a18.761,18.761,0,0,0-3.282,1.675,3.429,3.429,0,0,0-.307.264h0l-.194.187h0a6.956,6.956,0,0,0-1.048,1.367l-.046.077c-.031.052-.058.108-.086.163s-.046.086-.065.129-.049.1-.071.147l-.065.147-.055.141c-.018.052-.04.1-.055.16s-.031.089-.043.135l-.046.163-.028.132a1.083,1.083,0,0,1-.031.169.545.545,0,0,0,0,.123v.568a1.87,1.87,0,0,0,.055.267h0a5.368,5.368,0,0,0,1.174,1.647c-.049.046-.1.089-.147.138a10.712,10.712,0,0,0-3.279,7.716,10.569,10.569,0,0,0,.175,1.908,10.236,10.236,0,0,0-1.791-1.085,15.637,15.637,0,0,0-6.665-1.536,45.9,45.9,0,0,1-9.052-1.457,3.6,3.6,0,0,1,.307.814c-.23-.132-.479-.273-.753-.421a22.069,22.069,0,0,0-7.067-2.366s-1.567.218-1.776-3.073a13.952,13.952,0,0,0-.553-3.033,51.694,51.694,0,0,1-1.862-9.218l-.525-4.83s2.366-12.6.943-17.97a3.721,3.721,0,0,0-1.309-4.336c-5.952-4.382-11.956,12.672-11.956,12.672l-2.231,2.166a4.788,4.788,0,0,0-1.893-.722s-1.2,1.229-2.037,4.585c-.442,1.779-3.466,4.751-6.2,7.144-1.942,1.7-3.816,3.466-5.688,5.239-1.383,1.315-4.465,3.2-11.188,4.259-1.054.166-2.013.323-2.888.467a9.012,9.012,0,0,0,.338-2.44,9.151,9.151,0,0,0-7.178-8.89,2.291,2.291,0,0,0,0-.648,2.686,2.686,0,0,0-.679-1.229c-1.417-1.751-2.953-3.552-5.061-4.382a6.591,6.591,0,0,0-2.732-.439h-.75a7,7,0,0,0-5.119,2.667c-.756,1.011-1.211,2.209-1.862,3.288a14.625,14.625,0,0,1-5.092,4.754c-1.214.734-2.489,1.367-3.635,2.2a13.633,13.633,0,0,0-5.03,13.594c.461,2.191,1.435,4.348,1.174,6.57a11.534,11.534,0,0,1-2.08,4.735,14.741,14.741,0,0,0-2.323,4.643,4.594,4.594,0,0,0,1.438,4.714,11.345,11.345,0,0,1,1.6,1.069,5.131,5.131,0,0,1,.737,1.155,11.5,11.5,0,0,0,7.15,5.556,5.224,5.224,0,0,0,1.463.16h.147a2.463,2.463,0,0,0,2.661-1.229,2.79,2.79,0,0,1,.255-.651.765.765,0,0,1,.446-.307,4.091,4.091,0,0,1,1.042.393,13.25,13.25,0,0,0,5.064,1.447,7.121,7.121,0,0,0,.888.015,3.927,3.927,0,0,0,1.81-.258,3.878,3.878,0,0,0,1.392-1.192c.08-.1.154-.209.23-.307a25.415,25.415,0,0,1-2.268,7.067,12.826,12.826,0,0,0-1.712,6.17,6.2,6.2,0,0,0,.691,3.257s.052-.135.16-.347a26.106,26.106,0,0,0,3.4,4.708c.055,2.922.043,6.582-.323,7.335a15.172,15.172,0,0,0,5.8,16.695l1.927,4.219-7.931.562c-.8-.111-11.173-1.506-11.225.525-.052,2.111,1.567,22.668,6.945,21.276,5.012-1.3,3.359-7.292,3.11-8.1l.178-.049-.2-.055,4.01-3.8a1.776,1.776,0,0,0-.307-1.318l.04-.022,9.685.433,2.277,4.947s3.863,5.875.731,10.819-6.37,12.675-6.892,17.364c-.427,3.835-3.266,7.6-4.283,8.844-1.816.615-8.782,3.349-6,7.488,3.183,4.738,13.52,13.757,17.7,13.447s2.5-3.349,2.5-3.349l-3.494-3.386a85.181,85.181,0,0,1-.366-9.326,2.173,2.173,0,0,0-1.536-2.222c.329-2.351,1.161-6.806,2.95-9.268,2.5-3.454,10.546-18.652,10.546-18.652s2.557-2.268,1.982-9.016c-.23-2.723-.36-5.113-.433-7l9.1.409s9.762-.98,3.131-11.44-20.726-20.711-20.726-20.711l-.126-6.474c.639.16,1.014.24,1.014.24s-.055-.234-.147-.651l.147.034a140.59,140.59,0,0,1-2.664-15.825l.575.264c6.057,7.009,10.14,1.085,10.14,1.085S402,148.3,400.749,149.122a1.088,1.088,0,0,1-.842.052l.922-2.938s3.776-5.771-1.705-9.016c-4.474-2.649-4.357,5.654-4.164,8.791l-.221-.187s-4.28,6.453-6.579,10.048-4.228,1.229-4.228,1.229l-2.9-3.273a11.5,11.5,0,0,0,.691-4.093,6.954,6.954,0,0,0-1.964-5.31,9.209,9.209,0,0,1-2.931-6.13,6.489,6.489,0,0,1,.581-2.526l15.091-7.989s3.183.049,7.464-6.545a113.2,113.2,0,0,1,9.139-12.055s-.089-.129-.243-.341c.154-.181.243-.28.243-.28s-.175-.255-.473-.648l2.326-2.683a34.409,34.409,0,0,0-.028,3.641l1.2,4.071.676,22.668s-.731,2.151,3.97,4.33c3.976,1.844,10.275,4.917,12.113,5.823-.068.166-.108.255-.108.255l.547-.037.08.037h0c9.185-.824,8.871,8.346,8.871,8.346s.615,18.652-2.191,25.145-2.4,14.528-2.4,14.528.28-1.37,1.844.421c-.031.157-.065.326-.1.5-.9,4.5-2.766,14.058-3.113,17.936a62.847,62.847,0,0,1-2.037,10.448l-.922,17.156,5.872.286-.065.615a1.93,1.93,0,0,1-1,1.5c-2.01,1.091-6.76,4.917-6.379,16.722l-.2,1.9a23.857,23.857,0,0,1-2.867,9.16c-.135.24-.255.47-.356.691a.566.566,0,0,1,.16-.329s-3.051.633-2.424,8.877,1.567,9.685,2.821,9.787,7.375,1.6,7.046-1.441-.615-9.79-.209-10.819,2.071-3.807.492-4.477h0a23.549,23.549,0,0,0,.661-5.777s3.073-4.843,5.27-6.646,3.38-4.867,4.176-8.81c.055-.258,6.474-4.535,5.531-8.088-.166-.615-.286-1.158-.378-1.65-.04-.218-.074-.424-.1-.615h.114l1.306-7.833v7.627l.774.1-.028.615-.329,7.313a12.04,12.04,0,0,1-.922,4.142c-1.383,3.273-3.933,10.558-3.239,18.437L445,278.807c-.221.043-3.411.8-2.805,8.758.615,8.241,1.564,9.685,2.818,9.787s7.375,1.6,7.049-1.441-.615-9.79-.209-10.819,1.137-3.752-.443-4.422a5.888,5.888,0,0,1,.658-2.652c.688-1.171,2.987-6.736,4.717-11.016a39.427,39.427,0,0,0,2.9-13.622q0-.078,0-.157a12.771,12.771,0,0,1,1-4.588,29.582,29.582,0,0,0,1.672-5.042c.043-.206.077-.406.108-.615l1.5.2,5.119-22.155s1.4-12.009.716-17.432c-.028-.224-.058-.43-.1-.63l.307.028s1.045-2.676.731-14.116,2.09-15.057,2.09-15.057c1.3-4.111,2.729-5.488,3.564-5.949h0a1.509,1.509,0,0,1,.716-.234l3.875,4.434h0l.713.817a.26.26,0,0,0,0-.049l.307.36a3.31,3.31,0,0,1-.025-.55c2.068,1.2,6.846,4.01,9.7,6.026,3.718,2.627,4.738,2.32,7.989,2.046a21.846,21.846,0,0,0,6.428-2.111l.163-.077a7.849,7.849,0,0,0,1.512.615s5.248,4.446,5.755-3.669S507.237,169.32,507.237,169.32ZM371.112,263.827a7.591,7.591,0,0,1-1.536-.648Zm-8.217-87.845.018,1.152-.08.037C362.858,176.765,362.876,176.366,362.895,175.982Zm82.087,102.853v.449A.329.329,0,0,1,444.982,278.835Z" transform="translate(1088.119 3226.254)" fill="url(#linear-gradient)"/>
    <rect id="Rectangle_91" data-name="Rectangle 91" width="8.911" height="9.372" transform="translate(1540.942 3370.069)" fill="#ff7590"/>
    <path id="Path_438" data-name="Path 438" d="M643.463,589.775c-.784,3.918-1.945,6.963-4.1,8.758s-5.172,6.607-5.172,6.607c-.052,6.4-1.742,8.346-1.742,8.346l-1.742.461h-4.3a21.291,21.291,0,0,1-.922-3.429,4.024,4.024,0,0,1,.676-1.911,23.945,23.945,0,0,0,2.812-9.1l.2-1.89c-.363-11.729,4.3-15.536,6.259-16.621a1.918,1.918,0,0,0,.974-1.487h0l.347-3.352,11.572.568a9.181,9.181,0,0,0,.194,3.38c.089.489.209,1.033.369,1.638C649.811,585.267,643.512,589.517,643.463,589.775Z" transform="translate(886.65 2888.51)" fill="#8e5362"/>
    <path id="Path_439" data-name="Path 439" d="M709.37,584.335a29.827,29.827,0,0,1-1.638,5.012,12.869,12.869,0,0,0-.983,4.56q0,.078,0,.157A39.688,39.688,0,0,1,703.9,607.6c-1.7,4.253-3.952,9.787-4.628,10.952-1.125,1.945-.461,5.224-.461,5.224l-6.514-.461.114-10.961c-.679-7.826,1.822-15.057,3.177-18.323a12.008,12.008,0,0,0,.922-4.115l.307-7.27.1-2.151s11.517-1.638,12.488.974A5.529,5.529,0,0,1,709.37,584.335Z" transform="translate(840.366 2885.85)" fill="#8e5362"/>
    <path id="Path_440" data-name="Path 440" d="M673.125,580.1,661,579.5l.347-3.352,11.584.568A8.911,8.911,0,0,0,673.125,580.1Z" transform="translate(862.047 2888.51)" opacity="0.1"/>
    <path id="Path_441" data-name="Path 441" d="M719.555,584.335,707,582.648l.1-2.151s11.517-1.638,12.488.974A5.493,5.493,0,0,1,719.555,584.335Z" transform="translate(830.182 2885.85)" opacity="0.1"/>
    <path id="Path_442" data-name="Path 442" d="M681.465,457.33l-5.018,22.023-14.851-2v-7.581l-1.284,7.79-17.822-.873.922-17.054a63.238,63.238,0,0,0,2-10.4c.347-3.853,2.172-13.357,3.054-17.822.307-1.472.479-2.4.479-2.4s30.525,6.348,32.523,8.653a4.86,4.86,0,0,1,.7,2.338C682.839,445.395,681.465,457.33,681.465,457.33Z" transform="translate(874.869 2990.43)" fill="#bdd2e8"/>
    <path id="Path_443" data-name="Path 443" d="M653.33,514.2s12.015-6.3,14.943-4.969Z" transform="translate(867.359 2934.992)" opacity="0.1"/>
    <path id="Path_444" data-name="Path 444" d="M674.66,458.82s9.987,7.581,10.294,9.627Z" transform="translate(852.584 2969.786)" opacity="0.1"/>
    <path id="Path_445" data-name="Path 445" d="M665.83,543.777s7.221-.307,9.526,1.536Z" transform="translate(858.7 2910.948)" opacity="0.1"/>
    <path id="Path_446" data-name="Path 446" d="M705.735,517.44s3.432,11.234,1.945,14.307-3.021-.719-3.021-.719Z" transform="translate(831.803 2929.179)" opacity="0.1"/>
    <path id="Path_447" data-name="Path 447" d="M686.067,708s-3.38.513-2.766,8.705,1.536,9.63,2.766,9.732,7.221,1.589,6.914-1.435-.615-9.728-.206-10.755,1.115-3.727-.433-4.394l-.335,1.579s-3.279-3.024-5.224-.82a8.514,8.514,0,0,0-.4-1.576C686.187,708.556,685.763,708.307,686.067,708Z" transform="translate(846.649 2797.175)" fill="#494457"/>
    <path id="Path_448" data-name="Path 448" d="M833.915,350.6s-.774.433-1.911.974a21.288,21.288,0,0,1-6.305,2.1c-3.19.27-4.188.578-7.836-2.034-2.8-2-7.485-4.8-9.526-5.989l-.888-.525-.089-.052v-.037l1.693-4.652,5.992-3.186,1.487,1.275,4.428,3.795a2.21,2.21,0,0,0,1.807,1.036c1.115-.077,7.067.421,7.067.421l1.125.184,2.369.393Z" transform="translate(760.66 3054.035)" fill="#8e5362"/>
    <path id="Path_449" data-name="Path 449" d="M884.405,365.753s-.774.433-1.911.974c-1.2-.615-2.695-1.767-2.12-3.663.519-1.705.661-3.036,1.088-3.995l2.369.393Z" transform="translate(710.17 3038.885)" opacity="0.1"/>
    <path id="Path_450" data-name="Path 450" d="M884.292,353.369s6.683-1.921,6.186,6.146-5.648,3.651-5.648,3.651-4.379-1.152-3.457-4.188S882.027,354.1,884.292,353.369Z" transform="translate(709.479 3042.973)" fill="#8e5362"/>
    <path id="Path_451" data-name="Path 451" d="M608.775,152.82l-6.963,2.925-.108.046-.077-.037-.433-.218c-1.8-.9-7.989-3.967-11.883-5.789-4.609-2.151-3.893-4.3-3.893-4.3l-.664-22.533-1.18-4.047s-.833-13.717,5.838-17.155,2.357,19.869,2.357,19.869l.516,4.843a51.86,51.86,0,0,0,1.828,9.148,14.215,14.215,0,0,1,.541,3.014c.206,3.276,1.742,3.057,1.742,3.057a21.39,21.39,0,0,1,6.926,2.354,17.326,17.326,0,0,1,2.292,1.45Z" transform="translate(915.703 3217.403)" fill="#8e5362"/>
    <path id="Path_452" data-name="Path 452" d="M732.933,268.72l-5.943-.615a22.833,22.833,0,0,0,2.523-5.141,8.727,8.727,0,0,0,.261-1.06,3.537,3.537,0,0,0-.326-2.609c-1.739-2.56,10.346-6.146,10.346-6.146a29.524,29.524,0,0,0-.132,4.265,21.564,21.564,0,0,0,.307,2.953c.366,1.988,1.094,3.859,2.483,4.818C746.247,267.8,732.933,268.72,732.933,268.72Z" transform="translate(816.334 3112.258)" fill="#8e5362"/>
    <path id="Path_453" data-name="Path 453" d="M732.933,284.992l-5.943-.615a22.832,22.832,0,0,0,2.523-5.141,2.146,2.146,0,0,0,1.884,1.146s6,.888,8.579-3.743c.366,1.988,1.094,3.859,2.483,4.818C746.247,284.07,732.933,284.992,732.933,284.992Z" transform="translate(816.334 3095.986)" opacity="0.1"/>
    <path id="Path_454" data-name="Path 454" d="M808.384,345.653a3.3,3.3,0,0,0,.025.547l-.922-1.072-.077-.089,1.693-4.652L815.1,337.2l1.487,1.275C814.453,339.289,808.479,341.874,808.384,345.653Z" transform="translate(760.625 3054.035)" opacity="0.1"/>
    <path id="Path_455" data-name="Path 455" d="M648.335,248.9l-6.963,2.925h-.184l-.538.037s.04-.089.1-.255c.581-1.41,3.276-8.3,2.111-11.541a17.323,17.323,0,0,1,2.292,1.45Z" transform="translate(876.143 3121.319)" opacity="0.1"/>
    <path id="Path_456" data-name="Path 456" d="M695.636,440c-2.71-.243-29.825-2.75-32.354-6.742a14.024,14.024,0,0,0-1.352-1.844c.307-1.472.479-2.4.479-2.4s30.525,6.348,32.522,8.653A4.794,4.794,0,0,1,695.636,440Z" transform="translate(861.402 2990.437)" opacity="0.1"/>
    <path id="Path_457" data-name="Path 457" d="M672.979,254.491s6.063.9,8.625-3.813c0,0,4.28,3.515,6.84,3.816s14.442,15.26,14.442,15.26-9.526,3.073-8.911,7.989l-4.508-5.224s-2.252-.1-4.2,6.146c0,0-2.357,3.583-2.05,14.952s-.716,14.034-.716,14.034-29.911-2.56-32.572-6.76-3.073-2.151-3.073-2.151-.412-7.989,2.354-14.442,2.151-24.991,2.151-24.991.307-9.117-8.705-8.3c0,0,3.789-8.81,2.05-12.19a44.366,44.366,0,0,0,8.877,1.45,15.186,15.186,0,0,1,6.539,1.536,7.253,7.253,0,0,1,2.713,2.046,3.984,3.984,0,0,0,4.609,1.334,46.525,46.525,0,0,0,2.673,6.554c.12.224.24.446.363.658a10.08,10.08,0,0,0,.547.867A2.2,2.2,0,0,0,672.979,254.491Z" transform="translate(874.751 3122.185)" fill="#cf2e3b"/>
    <path id="Path_458" data-name="Path 458" d="M744.839,257.385a10.519,10.519,0,0,1-1.088,1.306,10.721,10.721,0,0,1-7.682,3.239,11.036,11.036,0,0,1-1.109-.055,3.537,3.537,0,0,0-.326-2.609c-1.739-2.56,10.346-6.146,10.346-6.146A29.517,29.517,0,0,0,744.839,257.385Z" transform="translate(811.157 3112.279)" opacity="0.1"/>
    <path id="Path_459" data-name="Path 459" d="M726.17,221.575a10.715,10.715,0,1,1-3.138-7.617,10.755,10.755,0,0,1,3.138,7.617Z" transform="translate(831.803 3141.581)" fill="#8e5362"/>
    <path id="Path_460" data-name="Path 460" d="M792,325.792l.221,7.2s3.211-2.587,3.313-5.046S792,325.792,792,325.792Z" transform="translate(771.301 3061.946)" opacity="0.1"/>
    <path id="Path_461" data-name="Path 461" d="M707.66,349.24s8.45,11.6,13.367,12.777S709.5,353,707.66,349.24Z" transform="translate(829.725 3045.694)" opacity="0.1"/>
    <path id="Path_462" data-name="Path 462" d="M736.83,353.17s4.711,5.322,8.091,5.986Z" transform="translate(809.518 3042.972)" opacity="0.1"/>
    <path id="Path_463" data-name="Path 463" d="M682.83,396.82s8.6,8.45,13.52,8.963Z" transform="translate(846.924 3012.735)" opacity="0.1"/>
    <path id="Path_464" data-name="Path 464" d="M733.374,221.571a10.714,10.714,0,0,1-3.073,7.516l-1.18-.734a3.263,3.263,0,0,1-1.149-1,3.971,3.971,0,0,1-.246-2.228,5.241,5.241,0,0,0-1.635-4.351c-2.037-1.632-5.3-.728-7.375-2.329a7.27,7.27,0,0,1-1.306-1.453l-1.942-2.6c-.117-.154-.258-.307-.409-.489a10.755,10.755,0,0,1,18.3,7.682Z" transform="translate(824.598 3141.584)" opacity="0.1"/>
    <path id="Path_465" data-name="Path 465" d="M713.737,192.247a19.3,19.3,0,0,1,3.217-1.662c1.082-.541,2.037-1.229,3.119-1.69a4.912,4.912,0,0,1,3.454-.347c2.406.827,3.316,4.188,5.789,4.778.418.1.848.108,1.269.172a5.777,5.777,0,0,1,3.887,2.719,9.054,9.054,0,0,1,1.229,4.674,7.488,7.488,0,0,1-.39,2.683c-.731,2.007-2.566,3.38-3.8,5.116a9.728,9.728,0,0,0-1.779,5.682l-3-1.865a3.233,3.233,0,0,1-1.149-1,3.971,3.971,0,0,1-.246-2.228,5.249,5.249,0,0,0-1.632-4.351c-2.04-1.632-5.307-.728-7.375-2.329a7.27,7.27,0,0,1-1.306-1.453l-1.942-2.6a7.417,7.417,0,0,1-1.413-1.957C711.257,195.1,712.655,193.08,713.737,192.247Z" transform="translate(827 3157.137)" fill="#362133"/>
    <path id="Path_466" data-name="Path 466" d="M727.051,221.521a3.233,3.233,0,0,1-1.149-1,3.971,3.971,0,0,1-.246-2.228,5.241,5.241,0,0,0-1.635-4.351c-2.037-1.632-5.3-.728-7.375-2.329a7.276,7.276,0,0,1-1.306-1.453l-1.942-2.6a7.345,7.345,0,0,1-1.413-1.957c-.335-1.186.513-2.732,1.42-3.721-1.017.94-2.133,2.726-1.755,4.056a7.7,7.7,0,0,0,1.414,1.957l1.942,2.6a7.268,7.268,0,0,0,1.306,1.453c2.062,1.6,5.328.7,7.375,2.329a5.248,5.248,0,0,1,1.632,4.351,3.971,3.971,0,0,0,.246,2.228,3.233,3.233,0,0,0,1.149,1l3,1.865a5.06,5.06,0,0,1,.019-.532Z" transform="translate(827.012 3147.773)" opacity="0.1"/>
    <path id="Path_467" data-name="Path 467" d="M621.521,682.94s-2.993.615-2.378,8.822,1.536,9.63,2.766,9.732,7.221,1.589,6.914-1.435-.615-9.729-.206-10.755,2.031-3.783.482-4.449l-1.251,1.635s-3.279-3.024-5.224-.82C622.624,685.669,620.8,683.656,621.521,682.94Z" transform="translate(891.1 2814.534)" fill="#494457"/>
    <path id="Path_468" data-name="Path 468" d="M633.23,699.5c.648.307,1.254.682,1.9.989a4.262,4.262,0,0,0,2.062.486,1.438,1.438,0,0,0,.842-.292" transform="translate(881.283 2803.063)" opacity="0.1"/>
    <path id="Path_469" data-name="Path 469" d="M697.33,725.62a10.432,10.432,0,0,0,1.115,1.1,3.894,3.894,0,0,0,2.151.446.872.872,0,0,0,.369-.046.9.9,0,0,0,.329-.307l.4-.519" transform="translate(836.88 2784.969)" opacity="0.1"/>
    <path id="Path_470" data-name="Path 470" d="M532.641,258.72s-1.383-13.109,3.995-9.882,1.675,8.96,1.675,8.96l-1.263,4.047Z" transform="translate(951.074 3115.599)" fill="#ffc1c7"/>
    <path id="Path_471" data-name="Path 471" d="M561,109l3.073-3.017s5.891-16.953,11.729-12.6-7.4,15.364-7.4,15.364l-3.509,4.1Z" transform="translate(931.318 3223.424)" fill="#ffc1c7"/>
    <path id="Path_472" data-name="Path 472" d="M414.314,360.3l-.154,3.481s2.818,4.917,3.995,5.276,1.075-10.4,1.075-10.4Z" transform="translate(1033.037 3039.169)" fill="#ff5374"/>
    <path id="Path_473" data-name="Path 473" d="M414.314,360.3l-.154,3.481s2.818,4.917,3.995,5.276,1.075-10.4,1.075-10.4Z" transform="translate(1033.037 3039.169)" opacity="0.1"/>
    <path id="Path_474" data-name="Path 474" d="M334.76,284.87l.209,12.832h14.286l-1.076-7.476Z" transform="translate(1117.302 3110.777)" fill="#ffc1c7"/>
    <path id="Path_475" data-name="Path 475" d="M437.256,455.82l.667,4.1,8.349,18.541s3.789,5.838.716,10.755-6.247,12.6-6.76,17.257-4.557,9.218-4.557,9.218l8.81,3.74s.615-7.323,3.073-10.755S457.9,490.134,457.9,490.134s2.51-2.255,1.948-8.963-.513-11.422-.513-11.422l-.87-10.7Z" transform="translate(1018.137 2971.864)" fill="#575988"/>
    <path id="Path_476" data-name="Path 476" d="M437.256,455.82l.667,4.1,8.349,18.541s3.789,5.838.716,10.755-6.247,12.6-6.76,17.257-4.557,9.218-4.557,9.218l8.81,3.74s.615-7.323,3.073-10.755S457.9,490.134,457.9,490.134s2.51-2.255,1.948-8.963-.513-11.422-.513-11.422l-.87-10.7Z" transform="translate(1018.137 2971.864)" opacity="0.1"/>
    <path id="Path_477" data-name="Path 477" d="M422.528,648.82s-9.424,2.867-6.3,7.581,13.265,13.674,17.361,13.367,2.458-3.331,2.458-3.331l-3.432-3.38a82.343,82.343,0,0,1-.356-9.268c.258-2.1-2.919-3.073-3.331-1.844S422.528,648.82,422.528,648.82Z" transform="translate(1032.045 2838.17)" fill="#c4747b"/>
    <path id="Path_478" data-name="Path 478" d="M432.323,375.58l-7.47.827a2.679,2.679,0,0,0-2.385,2.732c.08,2.987.132,7.737-.286,8.6a15.178,15.178,0,0,0,5.685,16.593l11.114,3.534L421.16,409.15l.565,9.885,2.766-1.536,33.8,1.536s9.578-.974,3.073-11.369-20.33-20.588-20.33-20.588l-.154-8.094-1.026-2.354Z" transform="translate(1028.188 3027.448)" fill="#575988"/>
    <path id="Path_479" data-name="Path 479" d="M487.66,478.342a9.6,9.6,0,0,1,7.682,0Z" transform="translate(982.122 2956.818)" opacity="0.1"/>
    <path id="Path_480" data-name="Path 480" d="M399.059,483.356s-11.01-1.586-11.062.513,1.536,22.533,6.812,21.15,3.021-8.143,3.021-8.143l3.945-3.789s.409-2.1-2.2-1.9Z" transform="translate(1051.162 2953.188)" fill="#c4747b"/>
    <path id="Path_481" data-name="Path 481" d="M478.481,284.067l4.351,4.969s1.9,2.357,4.148-1.229,6.453-9.987,6.453-9.987,4.661,4.1,5.891,3.279-11.317,17.057-11.317,17.057-3.995,5.888-9.938-1.075l-1.739-.82Z" transform="translate(989.971 3095.169)" fill="#ff5374"/>
    <path id="Path_482" data-name="Path 482" d="M478.481,284.067l4.351,4.969s1.9,2.357,4.148-1.229,6.453-9.987,6.453-9.987,4.661,4.1,5.891,3.279-11.317,17.057-11.317,17.057-3.995,5.888-9.938-1.075l-1.739-.82Z" transform="translate(989.971 3095.169)" fill="#cf2e3b" opacity="0.81"/>
    <circle id="Ellipse_64" data-name="Ellipse 64" cx="9.065" cy="9.065" r="9.065" transform="translate(1446.076 3340.915)" fill="#ffc1c7"/>
    <path id="Path_483" data-name="Path 483" d="M420.545,166.056s-7.79,3.687-6.868,10.14a142.677,142.677,0,0,1,1.075,14.6s3.537,5.224-1.152,15.21c0,0-3,5.07-1,8.757,0,0,2.215-5.838,7.943-1.536s14.949,6.3,14.949,6.3-4.763-20.9-1.844-23.814c0,0,5.07-7.528.461-12.291s-2.3-9.218-2.3-9.218l14.8-7.937s3.122.049,7.323-6.505a112.873,112.873,0,0,1,8.963-11.984s-3.177-4.763-6.146-5.122a10.6,10.6,0,0,0-2,4.56c-.436,1.767-3.4,4.72-6.084,7.1-1.905,1.69-3.743,3.445-5.577,5.224-1.358,1.306-4.382,3.174-10.976,4.231C421.261,165.5,420.545,166.056,420.545,166.056Z" transform="translate(1034.592 3188.804)" opacity="0.1"/>
    <path id="Path_484" data-name="Path 484" d="M420.545,164.056s-7.79,3.687-6.868,10.14a142.676,142.676,0,0,1,1.075,14.6s3.537,5.224-1.152,15.21c0,0-3,5.07-1,8.758,0,0,2.215-5.838,7.943-1.536s14.949,6.3,14.949,6.3-4.763-20.9-1.844-23.814c0,0,5.07-7.528.461-12.291s-2.3-9.218-2.3-9.218l14.8-7.937s3.122.049,7.323-6.505a112.873,112.873,0,0,1,8.963-11.984s-3.177-4.763-6.146-5.122a10.6,10.6,0,0,0-2,4.56c-.436,1.767-3.4,4.72-6.084,7.1-1.905,1.69-3.743,3.445-5.577,5.224-1.358,1.306-4.382,3.174-10.976,4.231C421.261,163.5,420.545,164.056,420.545,164.056Z" transform="translate(1034.592 3190.189)" fill="#cf2e3b"/>
    <path id="Path_485" data-name="Path 485" d="M461.83,342.49s6.041,8.911,6.195,10.448C468.028,352.938,467.106,343.36,461.83,342.49Z" transform="translate(1000.016 3050.37)" opacity="0.1"/>
    <path id="Path_486" data-name="Path 486" d="M436,244.82s4.213,5.07,10.3.82A13.056,13.056,0,0,1,436,244.82Z" transform="translate(1017.908 3118.028)" opacity="0.1"/>
    <path id="Path_487" data-name="Path 487" d="M374.3,158.517a2.72,2.72,0,0,0-.664-1.229c-1.389-1.742-2.9-3.531-4.966-4.357a6.865,6.865,0,0,0-7.833,2.231c-.744,1-1.186,2.194-1.828,3.266a14.489,14.489,0,0,1-4.993,4.726c-1.189.728-2.443,1.358-3.564,2.185a13.651,13.651,0,0,0-4.935,13.52c.452,2.176,1.407,4.32,1.149,6.53a11.563,11.563,0,0,1-2.037,4.708,14.886,14.886,0,0,0-2.28,4.609,4.6,4.6,0,0,0,1.41,4.683,11.724,11.724,0,0,1,1.57,1.063,5.1,5.1,0,0,1,.722,1.149,11.3,11.3,0,0,0,7.015,5.531c1.321.347,3.094.221,3.577-1.057a2.766,2.766,0,0,1,.249-.648c.436-.615,1.4-.27,2.074.083a12.841,12.841,0,0,0,4.956,1.423,4.133,4.133,0,0,0,2.031-.243,3.752,3.752,0,0,0,1.367-1.183c1.616-2.1,2.08-4.855,2.357-7.495a17.508,17.508,0,0,0-.022-5.162c-.522-2.723-2.179-5.267-1.933-8.026.261-2.95,2.655-5.362,3.021-8.3a6.327,6.327,0,0,0-1.079-4.36,6.235,6.235,0,0,1-.82-1.284,1.275,1.275,0,0,1,.246-1.41,2.151,2.151,0,0,1,.639-.307,5.315,5.315,0,0,0,3.171-4.763,10.581,10.581,0,0,1,.212-2.225C373.457,161.018,374.48,159.752,374.3,158.517Z" transform="translate(1082.87 3181.983)" opacity="0.1"/>
    <path id="Path_488" data-name="Path 488" d="M372.3,158.517a2.719,2.719,0,0,0-.664-1.229c-1.389-1.742-2.9-3.531-4.966-4.357a6.865,6.865,0,0,0-7.833,2.231c-.744,1-1.186,2.194-1.828,3.266a14.49,14.49,0,0,1-4.993,4.726c-1.189.728-2.443,1.358-3.564,2.185a13.651,13.651,0,0,0-4.935,13.52c.452,2.176,1.407,4.32,1.149,6.53a11.562,11.562,0,0,1-2.037,4.708,14.884,14.884,0,0,0-2.28,4.609,4.6,4.6,0,0,0,1.41,4.683,11.723,11.723,0,0,1,1.57,1.063,5.1,5.1,0,0,1,.722,1.149,11.3,11.3,0,0,0,7.015,5.531c1.321.347,3.094.221,3.577-1.057a2.766,2.766,0,0,1,.249-.648c.436-.615,1.4-.27,2.074.083a12.841,12.841,0,0,0,4.956,1.423,4.133,4.133,0,0,0,2.031-.243,3.752,3.752,0,0,0,1.367-1.183c1.616-2.1,2.08-4.855,2.357-7.495a17.508,17.508,0,0,0-.022-5.162c-.522-2.723-2.179-5.267-1.933-8.026.261-2.95,2.655-5.362,3.021-8.3a6.327,6.327,0,0,0-1.079-4.36,6.234,6.234,0,0,1-.82-1.284,1.275,1.275,0,0,1,.246-1.41,2.151,2.151,0,0,1,.639-.307,5.315,5.315,0,0,0,3.171-4.763,10.583,10.583,0,0,1,.212-2.225C371.456,161.018,372.48,159.752,372.3,158.517Z" transform="translate(1084.256 3181.983)" fill="#bb7684"/>
    <g id="Group_21" data-name="Group 21" transform="translate(1436.119 3334.469)" opacity="0.1">
      <path id="Path_489" data-name="Path 489" d="M380.227,323.931a2.9,2.9,0,0,0-.252.648,2.056,2.056,0,0,1-1.865,1.2c1.158.117,2.4-.163,2.787-1.2a2.9,2.9,0,0,1,.252-.648.768.768,0,0,1,.307-.261A1.055,1.055,0,0,0,380.227,323.931Z" transform="translate(-378.11 -271.006)"/>
      <path id="Path_490" data-name="Path 490" d="M421.529,158.49a2.652,2.652,0,0,0-.664-1.229c-1.389-1.742-2.9-3.531-4.966-4.357a6.453,6.453,0,0,0-2.827-.424,6.275,6.275,0,0,1,1.905.424c2.068.827,3.577,2.615,4.966,4.357a2.651,2.651,0,0,1,.664,1.229c.175,1.229-.845,2.5-1.183,3.641a9.634,9.634,0,0,0-.212,2.225,5.332,5.332,0,0,1-3.174,4.763,2.151,2.151,0,0,0-.639.307,1.275,1.275,0,0,0-.243,1.413,6.218,6.218,0,0,0,.817,1.284,6.321,6.321,0,0,1,1.082,4.357c-.369,2.941-2.766,5.35-3.024,8.3-.246,2.766,1.414,5.3,1.933,8.023a17.614,17.614,0,0,1,.022,5.162c-.277,2.64-.737,5.393-2.357,7.495a3.74,3.74,0,0,1-1.364,1.183,3.054,3.054,0,0,1-1,.249,3.973,3.973,0,0,0,1.927-.249,3.739,3.739,0,0,0,1.374-1.162c1.619-2.1,2.08-4.855,2.357-7.495a17.506,17.506,0,0,0-.022-5.162c-.519-2.719-2.179-5.267-1.933-8.023.264-2.953,2.655-5.362,3.024-8.3a6.321,6.321,0,0,0-1.082-4.357,6.219,6.219,0,0,1-.817-1.284,1.275,1.275,0,0,1,.243-1.413,2.15,2.15,0,0,1,.639-.307,5.325,5.325,0,0,0,3.174-4.763,10.363,10.363,0,0,1,.212-2.225C420.684,160.994,421.7,159.728,421.529,158.49Z" transform="translate(-401.074 -152.462)"/>
    </g>
    <path id="Path_491" data-name="Path 491" d="M406.82,525a4.151,4.151,0,0,0,4.25,1.174" transform="translate(1038.122 2923.942)" opacity="0.1"/>
    <path id="Path_492" data-name="Path 492" d="M466.12,696a2.609,2.609,0,0,1-2.12.535" transform="translate(998.512 2805.487)" opacity="0.1"/>
    <ellipse id="Ellipse_65" data-name="Ellipse 65" cx="8.275" cy="1.398" rx="8.275" ry="1.398" transform="translate(1373.231 3508.229)" fill="#ff5062" opacity="0.1"/>
    <ellipse id="Ellipse_66" data-name="Ellipse 66" cx="8.275" cy="1.398" rx="8.275" ry="1.398" transform="translate(1599.783 3536.069)" fill="#ff5062"/>
    <ellipse id="Ellipse_67" data-name="Ellipse 67" cx="8.275" cy="1.398" rx="8.275" ry="1.398" transform="translate(1599.783 3509.157)" fill="#ff5062" opacity="0.1"/>
    <ellipse id="Ellipse_68" data-name="Ellipse 68" cx="8.275" cy="1.398" rx="8.275" ry="1.398" transform="translate(1396.695 3521.211)" fill="#ff5062" opacity="0.1"/>
    <ellipse id="Ellipse_69" data-name="Ellipse 69" cx="12.356" cy="2.09" rx="12.356" ry="2.09" transform="translate(1621.874 3520.52)" fill="#ff5062"/>
    <ellipse id="Ellipse_70" data-name="Ellipse 70" cx="27.889" cy="4.714" rx="27.889" ry="4.714" transform="translate(1428.689 3534.252)" fill="#ff5062" opacity="0.1"/>
    <path id="Path_493" data-name="Path 493" d="M1013.692,740.784a3.6,3.6,0,0,0,1.18-1.779,1.584,1.584,0,0,0-.823-1.81,2.307,2.307,0,0,0-2.176.765,2.905,2.905,0,0,1-2.117,1.02,3.217,3.217,0,0,0,1-3.014,1.262,1.262,0,0,0-.277-.615c-.421-.449-1.18-.255-1.684.1-1.6,1.125-2.043,3.294-2.053,5.248a9.864,9.864,0,0,1-.028-2.151,2.222,2.222,0,0,0-.811-1.914,2.48,2.48,0,0,0-1.229-.307,2.57,2.57,0,0,0-2.01.572,1.976,1.976,0,0,0,.08,2.458,8.034,8.034,0,0,0,2.077,1.665,4.609,4.609,0,0,1,1.487,1.417,1.562,1.562,0,0,1,.111.252h4.5a12.517,12.517,0,0,0,2.775-1.905Z" transform="translate(625.646 2778.409)" fill="#ff5062"/>
    <path id="Path_494" data-name="Path 494" d="M928.525,789.374a3.6,3.6,0,0,0,1.177-1.779,1.589,1.589,0,0,0-.823-1.81,2.308,2.308,0,0,0-2.176.765,2.905,2.905,0,0,1-2.117,1.02,3.217,3.217,0,0,0,1-3.014,1.229,1.229,0,0,0-.277-.615c-.418-.449-1.18-.255-1.681.1-1.6,1.125-2.043,3.294-2.053,5.248a9.673,9.673,0,0,1-.031-2.151,2.222,2.222,0,0,0-.811-1.914,2.459,2.459,0,0,0-1.229-.292,2.571,2.571,0,0,0-2.01.571,1.977,1.977,0,0,0,.08,2.458,8,8,0,0,0,2.08,1.665,4.609,4.609,0,0,1,1.484,1.417,1.565,1.565,0,0,1,.111.252h4.5A12.6,12.6,0,0,0,928.525,789.374Z" transform="translate(684.644 2744.75)" fill="#ff5062"/>
    <path id="Path_495" data-name="Path 495" d="M303.409,606.492s-4.317-14.66.811-25.449a23.157,23.157,0,0,0,1.881-14.534,38.893,38.893,0,0,0-2.056-6.818" transform="translate(1110.934 2899.912)" fill="none" stroke="#535461" strokeMiterlimit="10" stroke-width="2"/>
    <path id="Path_496" data-name="Path 496" d="M304.992,529.939c0,1.8-3.254,7.006-3.254,7.006s-3.251-5.208-3.251-7.006a3.254,3.254,0,1,1,6.505,0Z" transform="translate(1113.168 2922.845)" fill="#ff5062"/>
    <path id="Path_497" data-name="Path 497" d="M322.419,558.736c-.977,1.506-6.539,4.111-6.539,4.111s.1-6.146,1.079-7.648a3.254,3.254,0,0,1,5.46,3.537Z" transform="translate(1101.117 2904)" fill="#ff5062"/>
    <path id="Path_498" data-name="Path 498" d="M318.992,611.441c-1.6.811-7.722.252-7.722.252s3.187-5.251,4.79-6.06a3.254,3.254,0,0,1,2.931,5.808Z" transform="translate(1104.311 2868.3)" fill="#ff5062"/>
    <path id="Path_499" data-name="Path 499" d="M309.328,653.935c-1.444,1.066-7.568,1.536-7.568,1.536s2.255-5.715,3.687-6.785a3.254,3.254,0,0,1,3.869,5.224Z" transform="translate(1110.898 2838.642)" fill="#ff5062"/>
    <path id="Path_500" data-name="Path 500" d="M291.543,571.943c1.291,1.251,7.292,2.547,7.292,2.547s-1.469-5.964-2.766-7.215a3.254,3.254,0,0,0-4.532,4.668Z" transform="translate(1118.623 2895.254)" fill="#ff5062"/>
    <path id="Path_501" data-name="Path 501" d="M278.533,619.493c1.6.808,7.719.249,7.719.249s-3.186-5.251-4.79-6.06a3.254,3.254,0,1,0-2.929,5.811Z" transform="translate(1128.229 2862.752)" fill="#ff5062"/>
    <path id="Path_502" data-name="Path 502" d="M275.662,669.392c1.444,1.069,7.568,1.536,7.568,1.536s-2.255-5.715-3.687-6.782a3.254,3.254,0,0,0-3.869,5.224Z" transform="translate(1129.794 2827.932)" fill="#ff5062"/>
    <path id="Path_503" data-name="Path 503" d="M274,697.443s5.258-1.045,6.662-2.437,7.71-3.826,8.41-2.086,9.464,7.654,3.506,8.7-14.021,1.392-15.773.7S274,697.443,274,697.443Z" transform="translate(1130.129 2808.04)" fill="#a8a8a8"/>
    <path id="Path_504" data-name="Path 504" d="M292.587,712.418c-5.958,1.045-14.021,1.392-15.773.694-1.337-.528-2.265-3.073-2.63-4.262L274,708.9s1.051,4.176,2.805,4.873,9.815.347,15.773-.7c1.721-.307,2.212-1.008,2.028-1.905C294.468,711.742,293.869,712.193,292.587,712.418Z" transform="translate(1130.129 2796.586)" opacity="0.2"/>
    <path id="Path_505" data-name="Path 505" d="M932.694,659.91s1.69,2.209-.777,5.531-4.5,6.146-3.687,8.226c0,0,3.724-6.192,6.76-6.278S936.021,663.625,932.694,659.91Z" transform="translate(677.059 2830.487)" fill="#ff5062"/>
    <path id="Path_506" data-name="Path 506" d="M932.918,659.91a2.764,2.764,0,0,1,.347.694c2.956,3.472,4.529,6.714,1.687,6.794-2.646.077-5.82,4.809-6.582,6a2.825,2.825,0,0,0,.089.273s3.724-6.192,6.76-6.278S936.246,663.625,932.918,659.91Z" transform="translate(676.834 2830.487)" opacity="0.1"/>
    <path id="Path_507" data-name="Path 507" d="M952.51,667.935c0,.777-.089,1.407-.2,1.407s-.194-.615-.194-1.407.108-.412.215-.412S952.51,667.158,952.51,667.935Z" transform="translate(660.382 2825.277)" fill="#ffd037"/>
    <path id="Path_508" data-name="Path 508" d="M953.89,670.892c-.682.372-1.278.6-1.328.5s.458-.47,1.14-.842.415-.1.467,0S954.572,670.521,953.89,670.892Z" transform="translate(660.078 2823.248)" fill="#ffd037"/>
    <path id="Path_509" data-name="Path 509" d="M905.608,659.91s-1.69,2.209.777,5.531,4.5,6.146,3.687,8.226c0,0-3.721-6.192-6.76-6.278S902.274,663.625,905.608,659.91Z" transform="translate(695.229 2830.487)" fill="#ff5062"/>
    <path id="Path_510" data-name="Path 510" d="M905.593,659.91a2.766,2.766,0,0,0-.347.694c-2.956,3.472-4.529,6.714-1.687,6.794,2.646.077,5.82,4.809,6.582,6a2.2,2.2,0,0,1-.092.273s-3.721-6.192-6.76-6.278S902.259,663.625,905.593,659.91Z" transform="translate(695.244 2830.487)" opacity="0.1"/>
    <path id="Path_511" data-name="Path 511" d="M903.94,667.935c0,.777.089,1.407.2,1.407s.194-.615.194-1.407-.107-.412-.215-.412S903.94,667.158,903.94,667.935Z" transform="translate(693.757 2825.277)" fill="#ffd037"/>
    <path id="Path_512" data-name="Path 512" d="M899.5,670.892c.682.372,1.275.6,1.327.5s-.458-.47-1.14-.842-.415-.1-.467,0S898.82,670.521,899.5,670.892Z" transform="translate(697.119 2823.248)" fill="#ffd037"/>
    <path id="Path_513" data-name="Path 513" d="M905.69,698.012s4.72-.148,6.146-1.158,7.261-2.222,7.614-.615,7.092,8.078,1.764,8.121-12.38-.83-13.8-1.693S905.69,698.012,905.69,698.012Z" transform="translate(692.545 2805.863)" fill="#a8a8a8"/>
    <path id="Path_514" data-name="Path 514" d="M921.306,709.555c-5.328.043-12.38-.83-13.8-1.693-1.082-.658-1.515-3.021-1.656-4.111h-.16s.307,3.807,1.721,4.671,8.472,1.736,13.8,1.693c1.536,0,2.068-.559,2.04-1.367C923.036,709.241,922.449,709.545,921.306,709.555Z" transform="translate(692.545 2800.119)" opacity="0.2"/>
  </g>
</svg>
