<svg xmlns="http://www.w3.org/2000/svg" xmlns:xlink="http://www.w3.org/1999/xlink" width="316.009" height="214" viewBox="0 0 316.009 214">
  <defs>
    <linearGradient id="linear-gradient" x1="0.5" y1="1" x2="0.5" gradientUnits="objectBoundingBox">
      <stop offset="0" stop-color="gray" stop-opacity="0.251"/>
      <stop offset="0.535" stop-color="gray" stop-opacity="0.122"/>
      <stop offset="1" stop-color="gray" stop-opacity="0.102"/>
    </linearGradient>
    <linearGradient id="linear-gradient-2" x1="0.5" y1="1" x2="0.5" y2="0" xlink:href="#linear-gradient"/>
    <linearGradient id="linear-gradient-3" x1="-4.618" y1="1" x2="-4.618" y2="0" xlink:href="#linear-gradient"/>
  </defs>
  <g id="outsourcing-image" transform="translate(0 0)">
    <path id="Path_2029" data-name="Path 2029" d="M344.009,190.077c0-19.638-8.3-36.983-20.991-47.412q.262-2.976.265-6.037c0-31.885-21.888-57.733-48.888-57.733a42.982,42.982,0,0,0-23.73,7.25c-19.113-14.64-44.065-23.5-71.362-23.5-44.416,0-82.621,23.46-99.57,57.1-.942-.064-1.89-.1-2.846-.1-27,0-48.888,25.848-48.888,57.733a65.12,65.12,0,0,0,8.045,31.733h0a51.944,51.944,0,0,0,51.943,51.943H296.011a40.784,40.784,0,0,0,40.783-40.783h0A65.4,65.4,0,0,0,344.009,190.077Z" transform="translate(-28 -62.644)" fill="#de4756" opacity="0.1"/>
    <path id="Path_2030" data-name="Path 2030" d="M661.806,724.077s-3.4-2.24-6.76-.647c0,0,1.037,2,5.3,1.806Z" transform="translate(-481.835 -540.486)" fill="#de4756"/>
    <path id="Path_2031" data-name="Path 2031" d="M675.125,727.7s1.033,3.934-1.556,6.61c0,0-1.559-1.622-.012-5.6Z" transform="translate(-494.739 -543.993)" fill="#de4756"/>
    <path id="Path_2032" data-name="Path 2032" d="M675.9,707.583s-.251-3.346-7.8-2.236a3.607,3.607,0,0,0,2.617,3.181C673.369,709.552,674.581,708.689,675.9,707.583Z" transform="translate(-491.283 -527.649)" fill="#de4756"/>
    <path id="Path_2033" data-name="Path 2033" d="M692.256,713.95s3.194,1.027.346,8.111a3.607,3.607,0,0,1-2.48-3.289C689.749,715.954,690.871,714.977,692.256,713.95Z" transform="translate(-507.17 -534.039)" fill="#de4756"/>
    <path id="Path_2034" data-name="Path 2034" d="M694.4,683.719s.432-5.505-7.287-4.94c0,0-.548,4.983,5.925,6.264Z" transform="translate(-505.033 -508.554)" fill="#de4756"/>
    <path id="Path_2035" data-name="Path 2035" d="M709,661.89s-1.059-6.238-8.775-4.379c0,0-.029,5.394,7.515,5.866Z" transform="translate(-514.533 -492.94)" fill="#de4756"/>
    <path id="Path_2036" data-name="Path 2036" d="M720.808,638.953s-1.772-6.09-9.418-4.258c0,0,1.819,5.465,8.91,5.38Z" transform="translate(-522.616 -476.428)" fill="#de4756"/>
    <path id="Path_2037" data-name="Path 2037" d="M734.431,615.8s-1.732-6.308-9.112-4.414c0,0,2.463,5.991,8.627,5.487Z" transform="translate(-532.697 -459.552)" fill="#de4756"/>
    <path id="Path_2038" data-name="Path 2038" d="M745.046,590.333s-1.332-7.713-8.216-6.006c0,0,2,7.016,7.708,7.129Z" transform="translate(-541.029 -440.043)" fill="#de4756"/>
    <path id="Path_2039" data-name="Path 2039" d="M751.9,565.118s-1.6-7.775-8.556-5.514c0,0,2.732,7.347,8.071,6.587Z" transform="translate(-545.743 -422.029)" fill="#de4756"/>
    <path id="Path_2040" data-name="Path 2040" d="M758.358,536.551s-2.538-7.774-7.922-7.564c0,0,2.6,8.212,7.473,9.124Z" transform="translate(-550.876 -400.165)" fill="#de4756"/>
    <path id="Path_2041" data-name="Path 2041" d="M763.444,509.97s-2.762-9.359-7.144-8.637c0,0,1.912,7.153,6.988,10.094Z" transform="translate(-555.12 -380.125)" fill="#de4756"/>
    <path id="Path_2042" data-name="Path 2042" d="M765.776,483.176s-2.589-7.8-6.915-8.109c0,0,1.762,7.673,6.819,10.135Z" transform="translate(-556.974 -361.142)" fill="#de4756"/>
    <path id="Path_2043" data-name="Path 2043" d="M769.839,457.176s-3.229-7.807-6.088-7.983c0,0,1.4,7.687,5.8,9.264Z" transform="translate(-560.513 -342.416)" fill="#de4756"/>
    <path id="Path_2044" data-name="Path 2044" d="M774.4,429.515s-1.985-8.479-4.841-9.182c0,0,.391,6.935,4.554,9.817Z" transform="translate(-564.721 -321.528)" fill="#de4756"/>
    <path id="Path_2045" data-name="Path 2045" d="M779.447,401.084s-2.088-6.757-4.4-7.788c0,0,.457,7.967,3.864,9.441Z" transform="translate(-568.689 -301.959)" fill="#de4756"/>
    <path id="Path_2046" data-name="Path 2046" d="M789.66,369.19l.421-11.916s-4.315,8.993-.739,14.018Z" transform="translate(-578.009 -275.887)" fill="#de4756"/>
    <path id="Path_2047" data-name="Path 2047" d="M801.865,333.472s3.111-8.7,3.859-9.186c0,0-6.1,5.645-5.508,12.908Z" transform="translate(-586.876 -252.012)" fill="#de4756"/>
    <path id="Path_2048" data-name="Path 2048" d="M711,696.577s5.476-.717,5.311,7.022c0,0-4.948.806-6.562-5.593Z" transform="translate(-521.43 -521.452)" fill="#de4756"/>
    <path id="Path_2049" data-name="Path 2049" d="M729.649,673.516s6.327-.021,5.812,7.9c0,0-5.31.949-7.062-6.4Z" transform="translate(-534.926 -504.774)" fill="#de4756"/>
    <path id="Path_2050" data-name="Path 2050" d="M744.38,651.522s5.743-2.693,9.418,4.258c0,0-5.305,2.244-9.925-3.135Z" transform="translate(-546.125 -488.484)" fill="#de4756"/>
    <path id="Path_2051" data-name="Path 2051" d="M757.5,626.934s5.88-2.866,9.333,3.926c0,0-6.125,2.109-9.818-2.852Z" transform="translate(-555.636 -470.625)" fill="#de4756"/>
    <path id="Path_2052" data-name="Path 2052" d="M765.619,601.072s5.66-5.407,10.177.061c0,0-5.782,4.449-10.437,1.143Z" transform="translate(-561.677 -450.615)" fill="#de4756"/>
    <path id="Path_2053" data-name="Path 2053" d="M772.625,573.729s5.7-5.529,10.176.255c0,0-6.392,4.538-10.378.906Z" transform="translate(-566.789 -430.826)" fill="#de4756"/>
    <path id="Path_2054" data-name="Path 2054" d="M777.013,540.943s4.387-6.9,9.551-5.362c0,0-4.551,7.311-9.5,6.985Z" transform="translate(-570.112 -404.778)" fill="#de4756"/>
    <path id="Path_2055" data-name="Path 2055" d="M781.395,513.251s4.424-8.7,8.6-7.188c0,0-3.186,6.684-8.714,8.649Z" transform="translate(-573.201 -383.45)" fill="#de4756"/>
    <path id="Path_2056" data-name="Path 2056" d="M781.643,486.884s4.545-6.846,8.8-6.01c0,0-3.714,6.941-9.24,7.991Z" transform="translate(-573.144 -365.294)" fill="#de4756"/>
    <path id="Path_2057" data-name="Path 2057" d="M784.049,457.239s3.521-7.68,6.385-7.748c0,0-1.692,7.628-6.148,9.039Z" transform="translate(-575.204 -342.632)" fill="#de4756"/>
    <path id="Path_2058" data-name="Path 2058" d="M786.579,432.547s3.914-7.779,6.855-7.794c0,0-2,6.651-6.725,8.478Z" transform="translate(-577.035 -324.727)" fill="#de4756"/>
    <path id="Path_2059" data-name="Path 2059" d="M788.709,404.438s2.928-6.437,5.352-7.167c0,0-1.464,7.845-5.03,8.874Z" transform="translate(-578.577 -304.837)" fill="#de4756"/>
    <path id="Path_2060" data-name="Path 2060" d="M792.967,373.482l6.543-9.968s-1.676,9.833-7.5,11.867Z" transform="translate(-580.967 -280.404)" fill="#de4756"/>
    <path id="Path_2061" data-name="Path 2061" d="M803.424,344.467s7.605-5.25,7.88-6.1c0,0-3.88,7.353-11.051,8.65Z" transform="translate(-586.932 -262.205)" fill="#de4756"/>
    <path id="Path_2062" data-name="Path 2062" d="M812.828,329.928s8.732-8.394,10.961-8.385a14.255,14.255,0,0,0-11.17,7.938Z" transform="translate(-595.882 -250.027)" fill="#de4756"/>
    <path id="Path_2063" data-name="Path 2063" d="M789.015,371.038l.319.041c1.641-12.844,4.033-20.434,6.736-21.373l-.105-.3C793.1,350.4,790.7,357.879,789.015,371.038Z" transform="translate(-578.798 -270.191)" fill="#444053"/>
    <path id="Path_2064" data-name="Path 2064" d="M780.282,455.94l.48.04c.1-1.2.179-2.427.231-3.649.458-10.631,1.169-20.391,2.1-27.71l-.279-.344c-.937,7.332-1.848,17.389-2.306,28.033C780.46,453.526,780.383,454.747,780.282,455.94Z" transform="translate(-572.478 -324.383)" fill="#444053"/>
    <path id="Path_2065" data-name="Path 2065" d="M646.38,594.641a62.552,62.552,0,0,0,17.326-12.827,69.7,69.7,0,0,0,12.666-17.943c4.06-8.266,6.534-18.427,7.365-28.3l-.5.235c-1.864,22.152-11.95,37.3-19.97,45.535a61.913,61.913,0,0,1-17.145,12.708Z" transform="translate(-475.376 -404.936)" fill="#444053"/>
    <path id="Path_2066" data-name="Path 2066" d="M251.641,348.316V452.671c0,3.1-2.993,5.627-6.69,5.627H103.364c-3.7,0-6.69-2.523-6.69-5.627V348.316a6.739,6.739,0,0,1,6.69-6.278H244.952A6.739,6.739,0,0,1,251.641,348.316Z" transform="translate(-77.705 -264.861)" fill="#fff"/>
    <path id="Path_2067" data-name="Path 2067" d="M251.641,348.727v16.405H96.675V348.727a6.687,6.687,0,0,1,6.69-6.69H244.951A6.688,6.688,0,0,1,251.641,348.727Z" transform="translate(-77.705 -264.86)" fill="#de4756" opacity="0.2"/>
    <circle id="Ellipse_386" data-name="Ellipse 386" cx="4.473" cy="4.473" r="4.473" transform="translate(22.996 84.251)" fill="#fff"/>
    <circle id="Ellipse_387" data-name="Ellipse 387" cx="4.473" cy="4.473" r="4.473" transform="translate(36.01 84.251)" fill="#fff"/>
    <circle id="Ellipse_388" data-name="Ellipse 388" cx="4.473" cy="4.473" r="4.473" transform="translate(49.025 84.251)" fill="#fff"/>
    <path id="Path_2068" data-name="Path 2068" d="M106.022,631.521s-4.325,1.047-6.037,3a5.822,5.822,0,0,1-2.3,1.463v-2.959c.989-1.661,1.987-3.509,1.987-3.509.045-.091.406-1.365.406-1.365.811-.637-.045-2.867-.045-2.867s.5-1.411.225-1.684-.045-1,.18-1.32a1.649,1.649,0,0,0,.18-1c0-.273-.36-.683-.946-.91s.045-.592.406-.682.451-.956.045-1.411.045-.728.27-1.229-.721-.41-.721-.41v-4.595h0s-.27-1.5-.541-4.142-1.307-2.912-1.307-2.912a11.793,11.793,0,0,1-1.622-.638,11.105,11.105,0,0,0-1.713-.636,8.777,8.777,0,0,1-2.207-.306,6.766,6.766,0,0,0-1.507-.326c-.055-.026-.108-.053-.162-.081a5.9,5.9,0,0,1-2.734-2.9c-.028-.063-.053-.124-.078-.186a6.433,6.433,0,0,0,.72-.955l0-.008c0,.046,0,.093,0,.139,0,.019,0,.039,0,.058,0,.112,0,.224,0,.336h0v.01c.719-1.27,2.8-1.56,3-3.009a1.521,1.521,0,0,0,.013-.2v-.009c0-.049,0-.1-.006-.146-.027-.4-.165-.807-.192-1.217a2.369,2.369,0,0,1,.006-.351v.007c.093-1.126.942-2.1,1.331-3.2a3.917,3.917,0,0,0,.2-.91v-.008q.014-.141.019-.282c0-.023,0-.047,0-.07q0-.1,0-.2a4.258,4.258,0,0,0-1.406-3.075c-.718-.624-1.668-1.017-2.165-1.832-.232-.38-.346-.827-.6-1.193a3,3,0,0,0-2.179-1.071,12.691,12.691,0,0,1-2.472-.327c-.561-.184-1.071-.51-1.638-.675a3.135,3.135,0,0,0-3.367,1.214,5.968,5.968,0,0,1-.9,1.3c-.826.7-2.226.395-2.95,1.2a2.137,2.137,0,0,0-.395,1.661l0,.022q.006.072.013.143c0,.022,0,.044.007.067l.008.071c.025.221.057.44.085.652,0,.032.007.065.011.1.008.066.016.131.022.2,0,.048.009.1.013.144s.009.119.013.179.006.094.008.14a9.712,9.712,0,0,1-1.033,4.853c-.682,1.338-1.7,2.57-1.872,4.065a4.308,4.308,0,0,0-.019.737c0,.029,0,.058,0,.087,0,.044.008.089.012.133s.009.1.016.152c0,.029.008.058.012.087.009.067.019.135.03.2l.008.043c.179,1.019.584,2.024.8,3.046a8.438,8.438,0,0,1,.161,1.151v.008q.013.184.018.369c0,.167,0,.333,0,.5a7.846,7.846,0,0,1-1.05.322c-.631.091-2.479,1.73-2.344,2.139a17.118,17.118,0,0,1-.854,3.365h0l-1.52,10.466s-.8.774-.552,1.274a2.206,2.206,0,0,1-.049,1.365s-1.356.592-1.055.956a1.58,1.58,0,0,1-.044,1.5c-.207.455-.545,1.274,0,1.411s.094,1.911.094,1.911,1.9-.218,1.762.91c-.045.36,1.33,1.348,1.9,1.744v5.436a16.632,16.632,0,0,1-2.253-.764c-1.171-.546-7.75-1.593-9.191,1.547s1.983,7.326,2.839,7.781a5.86,5.86,0,0,1,.991.956c.18.319,1.216.41,1.216.41a7.64,7.64,0,0,1,1.352.774,15.455,15.455,0,0,0,3.8,1.131h0s-1.577,3.631,1,3.331,3.826-1.566,5.64-1.566c.725,0,2.071-.1,3.427-.222a9.031,9.031,0,0,1,1.007.238,12.892,12.892,0,0,0,2.343.5s2.027,1.092,3.109.819a.711.711,0,0,0,.246-.131l.025-.005a1.444,1.444,0,0,0,.651-.558,19.415,19.415,0,0,1,3.474.559c1.121.433,9.136-.167,9.136-.167a44.578,44.578,0,0,1,6.662.551c1.484.449.956-4.581-1.781-5.147a11.165,11.165,0,0,0-2.227-.2,4.884,4.884,0,0,0,.517-.629c.987-.09,1.635-.145,1.635-.145s2.613-1.274,4.1-2.048a9.351,9.351,0,0,0,2.523-2s1.307-.819,1.847-1.138.811-1.365.811-1.365C116.43,630.292,106.022,631.521,106.022,631.521ZM94.289,619.876q0-.23,0-.459c.144.1.123.267,0,.459Zm.043,3.218c.109.144.215.275.291.372.291.373-.236.555-.2,1.181.009.141.021.335.034.552h0c-.056-.9-.1-1.641-.127-2.105Z" transform="translate(-49.455 -438.274)" fill="url(#linear-gradient)"/>
    <path id="Path_2069" data-name="Path 2069" d="M70.879,779.163a26.627,26.627,0,0,1-3.695-1.126c-1.171-.541-7.75-1.577-9.191,1.532s1.982,7.254,2.839,7.7,9.191-5.722,9.191-5.722l6.578,2.771,1.262-4.3Z" transform="translate(-49.455 -579.981)" fill="#65617d"/>
    <rect id="Rectangle_431" data-name="Rectangle 431" width="28.622" height="9.957" rx="4.979" transform="translate(24.206 200.037)" fill="#65617d"/>
    <path id="Path_2070" data-name="Path 2070" d="M144.251,791.786a4.98,4.98,0,0,1-4.978,4.98H120.608a4.979,4.979,0,1,1,0-9.958h18.665a4.979,4.979,0,0,1,4.978,4.978Z" transform="translate(-91.423 -586.771)" opacity="0.1"/>
    <path id="Path_2071" data-name="Path 2071" d="M113.08,805.885a23.8,23.8,0,0,1-5.211.7c-2.342-.033-13.3,4.518-13.3,4.518s-1.577,3.6,1,3.3,3.826-1.55,5.64-1.55,7.52-.627,7.52-.627l5.491-4.057Z" transform="translate(-75.836 -600.578)" fill="#fbbebe"/>
    <path id="Path_2072" data-name="Path 2072" d="M133.918,649.377l-5.148,1.015-.334.066s-4.07-1.081-4.205-1.172-3.829-5.069-3.829-5.069a7.454,7.454,0,0,0,3.336-.826c.053-.03.1-.062.155-.095a3.248,3.248,0,0,0,1.392-1.7c.026-.074.049-.151.07-.231a4.568,4.568,0,0,0-.043-2.217c-.5-2.1.656-2.679,2.192-2.629a17.262,17.262,0,0,1,5.242,1.458,6.153,6.153,0,0,0,.474,2.055c.024.061.051.122.078.184a5.863,5.863,0,0,0,2.734,2.868c.054.027.107.054.162.08.164.078.337.153.516.22C140.632,644.872,133.918,649.377,133.918,649.377Z" transform="translate(-94.878 -477.995)" fill="#fbbebe"/>
    <path id="Path_2073" data-name="Path 2073" d="M145.859,640.217a6.49,6.49,0,0,1-8.014,1.38,4.362,4.362,0,0,0,.027-2.448c-1.216-5.136,7.434-1.171,7.434-1.171A6.234,6.234,0,0,0,145.859,640.217Z" transform="translate(-107.437 -477.996)" opacity="0.1"/>
    <path id="Path_2074" data-name="Path 2074" d="M138.976,616.391a6.454,6.454,0,0,1-.983,3.433,6.383,6.383,0,0,1-.72.946,6.457,6.457,0,0,1-4.393,2.1c-.13.008-.261.012-.392.012a6.488,6.488,0,1,1,6.488-6.488Z" transform="translate(-98.929 -458.733)" fill="#fbbebe"/>
    <path id="Path_2075" data-name="Path 2075" d="M133.918,666.586,128.77,667.6l-.334.066s-4.07-1.081-4.205-1.172-3.829-5.069-3.829-5.069a7.454,7.454,0,0,0,3.336-.826c.053-.03.1-.062.155-.095a6.041,6.041,0,0,0,4.392,1.921,6.251,6.251,0,0,0,.916-.073c.725-.111,1.454-.183,2.183-.258,1.395-.146,3.529-.569,4.65-1.8.054.027.107.054.162.08.164.078.337.153.516.22C140.632,662.081,133.918,666.586,133.918,666.586Z" transform="translate(-94.878 -495.204)" opacity="0.1"/>
    <path id="Path_2076" data-name="Path 2076" d="M123.794,679.951c.045.992.766,12.165.766,12.165H102.077l.153-7.034.123-5.627.041-1.846.18-6.4-.65-.573-3.54-3.122h0a16.814,16.814,0,0,0,.854-3.332c-.135-.406,1.713-2.028,2.344-2.118a7.962,7.962,0,0,0,1.057-.322,14.543,14.543,0,0,1,2.637-.837,15.987,15.987,0,0,0,2.525-.1h0a6.029,6.029,0,0,0,4.544,2.1,6.243,6.243,0,0,0,.916-.073c.724-.111,1.454-.182,2.183-.258,1.465-.153,3.744-.612,4.812-1.992a6.832,6.832,0,0,1,1.507.323,8.858,8.858,0,0,0,2.207.3,11.173,11.173,0,0,1,1.713.63,11.866,11.866,0,0,0,1.622.631s1.037.27,1.307,2.883.541,4.1.541,4.1l-5.362,4.64S123.749,678.96,123.794,679.951Z" transform="translate(-78.94 -495.413)" fill="#de4756"/>
    <path id="Path_2077" data-name="Path 2077" d="M68.257,686.239l.788,1.262L72,688.541l2.028-3.7-1.869-1.262-3-1.171-1.712.991Z" transform="translate(-48.815 -493.906)" fill="#fbbebe"/>
    <path id="Path_2078" data-name="Path 2078" d="M188.5,767.592s4.19-.315,5.9-2.253,6.037-2.974,6.037-2.974,10.408-1.216,6.308,7.975c0,0-.27,1.036-.811,1.352s-1.847,1.126-1.847,1.126l-15.992-1.4Z" transform="translate(-143.877 -569.042)" fill="#65617d"/>
    <path id="Path_2079" data-name="Path 2079" d="M175.348,795.091a4.963,4.963,0,0,1-.829,2.752c-2.69.239-8.648.8-9.894,1.146-1.531.424-4.631-.315-4.97-.4l-.031-.007s-.6-1.813-.883-2.972c-.128-.527-.193-.919-.109-.948.27-.09,2.749-.766,2.7-.384s7.434-2.906,7.434-2.906l.23,2.884C169.762,795.133,175.348,793.839,175.348,795.091Z" transform="translate(-122.52 -590.076)" opacity="0.1"/>
    <path id="Path_2080" data-name="Path 2080" d="M183.761,793.036l-.315,1.171a9.331,9.331,0,0,1-2.523,1.982c-1.487.766-4.1,2.028-4.1,2.028s-9.6.811-11.219,1.262-5-.406-5-.406-1.262-3.83-.991-3.92,2.748-.766,2.7-.383,7.434-2.906,7.434-2.906Z" transform="translate(-123.229 -590.431)" fill="#65617d"/>
    <path id="Path_2081" data-name="Path 2081" d="M150.412,821.292a40.293,40.293,0,0,1,5.838.759c1.121.429,9.136-.165,9.136-.165a45.023,45.023,0,0,1,6.662.545c1.484.444.956-4.536-1.781-5.1a19.783,19.783,0,0,0-6.6.264s-4.354-.561-4.881-.627-4.007.032-4.007.032Z" transform="translate(-116.598 -608.585)" fill="#fbbebe"/>
    <path id="Path_2082" data-name="Path 2082" d="M83.31,787.658s6.234.561,7.949,1.583Z" transform="translate(-68.031 -587.386)" opacity="0.1"/>
    <path id="Path_2083" data-name="Path 2083" d="M206.28,772.853s-4.881,1.187-6.794,2.935Z" transform="translate(-152.116 -576.671)" opacity="0.1"/>
    <path id="Path_2084" data-name="Path 2084" d="M84.623,782.524c.1.033,2.869.4,2.8.66S84.623,782.524,84.623,782.524Z" transform="translate(-68.982 -583.67)" opacity="0.1"/>
    <path id="Path_2085" data-name="Path 2085" d="M68.86,800.372l.36,1.352a5.836,5.836,0,0,1,.991.946c.18.315,1.217.405,1.217.405a7.666,7.666,0,0,1,1.352.766,22.358,22.358,0,0,0,5.947,1.487c2.748.36,7.84,1.036,8.921,1.4a13,13,0,0,0,2.343.5s2.028,1.081,3.109.811,2.929-5.181,2.929-5.181-7.119-1.667-7.344-2.208-7.074-3.062-7.074-3.062l-4.055.1Z" transform="translate(-57.573 -594.567)" opacity="0.1"/>
    <path id="Path_2086" data-name="Path 2086" d="M67.881,794.836l.36,1.352a5.838,5.838,0,0,1,.991.946c.18.315,1.216.406,1.216.406a7.662,7.662,0,0,1,1.352.766,22.362,22.362,0,0,0,5.947,1.487c2.748.36,7.84,1.036,8.921,1.4a13,13,0,0,0,2.343.5s2.028,1.081,3.109.811,2.929-5.181,2.929-5.181-7.119-1.667-7.344-2.208-10.273-4.641-10.273-4.641l-3.154-.721Z" transform="translate(-56.865 -588.897)" fill="#65617d"/>
    <path id="Path_2087" data-name="Path 2087" d="M89.962,684.05l-.788.451-1.52,10.363s-.8.766-.552,1.262a2.164,2.164,0,0,1-.049,1.352s-1.356.586-1.055.946a1.551,1.551,0,0,1-.044,1.487c-.207.451-.545,1.262,0,1.4s.094,1.892.094,1.892,1.9-.216,1.762.9c-.056.451,2.151,1.892,2.151,1.892s-2.508-4.551,3.11-3.92l.483-2.566s.483-1.444,0-1.895.109-2.591.109-2.591l.106-9.3Z" transform="translate(-69.733 -512.398)" fill="#de4756"/>
    <path id="Path_2088" data-name="Path 2088" d="M96.8,732.495c.1.165,3.133.5,3.331,1.042S96.8,732.495,96.8,732.495Z" transform="translate(-77.796 -547.461)" opacity="0.1"/>
    <path id="Path_2089" data-name="Path 2089" d="M93.339,738.971s.411-1.286,1.393-1.055S93.339,738.971,93.339,738.971Z" transform="translate(-75.29 -551.364)" opacity="0.1"/>
    <path id="Path_2090" data-name="Path 2090" d="M91.429,744.447s.726-1.715,1.715-1.583S91.429,744.447,91.429,744.447Z" transform="translate(-73.908 -554.96)" opacity="0.1"/>
    <path id="Path_2091" data-name="Path 2091" d="M187.907,742.93l-.315,1.892s-3.244,5.947-3.83,6.037-3.785-3.965-3.785-3.965l-.856-3.965,3.37-.639,1.5-1.479S187.772,741.172,187.907,742.93Z" transform="translate(-137.376 -553.48)" fill="#fbbebe"/>
    <path id="Path_2092" data-name="Path 2092" d="M192.875,687.538l1.217.856v4.551s.946-.09.721.406-.676.766-.27,1.216.315,1.307-.045,1.4-.991.451-.406.676.946.631.946.9a1.618,1.618,0,0,1-.18.991c-.225.315-.451,1.036-.18,1.307s-.225,1.667-.225,1.667.856,2.208.045,2.839c0,0-.36,1.262-.406,1.352,0,0,.568-4.386-5.1-2.531,0,0-.105-1.671-.144-2.292s.489-.8.2-1.17-1.02-1.217-.676-1.442.225-.631.09-.946-.612-.315-.181-.7.687-.742.434-.923-.693-.768-.343-1.037.36-4.19.36-4.19S190.172,684.7,192.875,687.538Z" transform="translate(-143.877 -514.354)" fill="#de4756"/>
    <path id="Path_2093" data-name="Path 2093" d="M203.306,717.114s1.732-.47,1.79,0S203.306,717.114,203.306,717.114Z" transform="translate(-154.881 -536.177)" opacity="0.1"/>
    <path id="Path_2094" data-name="Path 2094" d="M196.262,721.54s2.375-.594,2.672-.132S196.262,721.54,196.262,721.54Z" transform="translate(-149.783 -539.309)" opacity="0.1"/>
    <path id="Path_2095" data-name="Path 2095" d="M194.351,726.453s3.562-.495,3.793.231S194.351,726.453,194.351,726.453Z" transform="translate(-148.4 -542.968)" opacity="0.1"/>
    <path id="Path_2096" data-name="Path 2096" d="M196.262,732.495c.132.033,3.43.264,3.5.891S196.262,732.495,196.262,732.495Z" transform="translate(-149.783 -547.461)" opacity="0.1"/>
    <rect id="Rectangle_432" data-name="Rectangle 432" width="28.245" height="16.043" rx="8.022" transform="translate(19.983 187.065)" fill="#3f3d56"/>
    <circle id="Ellipse_389" data-name="Ellipse 389" cx="1.042" cy="1.042" r="1.042" transform="translate(33.063 194.045)" fill="#e7effd"/>
    <path id="Path_2097" data-name="Path 2097" d="M117.466,704.252s2.707,2.069,4.8.492C122.266,704.744,118.728,705.066,117.466,704.252Z" transform="translate(-92.753 -527.019)" opacity="0.1"/>
    <path id="Path_2098" data-name="Path 2098" d="M167.093,706.265s2.707,2.069,4.8.492C171.893,706.758,168.355,707.079,167.093,706.265Z" transform="translate(-128.671 -528.476)" opacity="0.1"/>
    <path id="Path_2099" data-name="Path 2099" d="M123.865,616.389a6.454,6.454,0,0,1-.983,3.433,9.887,9.887,0,0,0-1.463-5.123c-.9-1.383-3.636-3.806-5.518-3.132a1.335,1.335,0,0,0-.822.884c-.187.708.36,1,.71,1.567a4.8,4.8,0,0,1,.656,3.237,4.557,4.557,0,0,1-.095.449c-.3,1.111-.975,2.383-.274,3.3.488.635,1.537.854,1.679,1.642a.961.961,0,0,1,.014.223c-.032.53-.485,1-.683,1.519a2.494,2.494,0,0,0,.139,1.84,11.828,11.828,0,0,1,.933,2.467,4.875,4.875,0,0,1-.447,2.437,10.922,10.922,0,0,0-.743,2.294c-.218,1.5.331,3.229-.611,4.413a.659.659,0,0,1-.412.278c-.6.063-.5-1.022-.987-1.387a4.245,4.245,0,0,1-.128,1.879,1.447,1.447,0,0,1-1.45.992l-.215-1.417a4.086,4.086,0,0,1-1.5.939,10.937,10.937,0,0,1,1.565-4.24c-1.587.764-2.511,2.418-3.337,3.973a5.124,5.124,0,0,0-.868,3.12c.073.442.264.862.305,1.308a1.088,1.088,0,0,1-.535,1.135.967.967,0,0,1-1.045-.324l-.045-.054a1.054,1.054,0,0,1-.072-.1,1.577,1.577,0,0,1-.12-.214,4.14,4.14,0,0,1-.254-.828l-.028-.122a14.689,14.689,0,0,1-.491-5.6,10.527,10.527,0,0,0,.3-2.063,3.816,3.816,0,0,0-.235-1.15c-.368-1.03-1.076-1.977-1.48-3.016a.169.169,0,0,1-.009-.023,1.657,1.657,0,0,1,.076-1.677,3.416,3.416,0,0,1,.753-.51,3.4,3.4,0,0,0,1.279-2.4,8.1,8.1,0,0,0,.1-1.265,14.548,14.548,0,0,1,2.637-.837,15.987,15.987,0,0,0,2.525-.1,3.3,3.3,0,0,0,1.548-1.8c.026-.074.049-.151.07-.231a6.489,6.489,0,1,1,9.568-5.712Z" transform="translate(-83.818 -458.731)" opacity="0.1"/>
    <path id="Path_2100" data-name="Path 2100" d="M116.35,598.462c-.3,1.111-.974,2.383-.274,3.3.488.636,1.537.854,1.678,1.643.112.624-.444,1.149-.669,1.742-.535,1.415.859,2.807,1.071,4.306.23,1.625-.954,3.107-1.19,4.732-.218,1.5.331,3.229-.611,4.412a.654.654,0,0,1-.412.279c-.6.064-.5-1.021-.987-1.386a4.224,4.224,0,0,1-.128,1.879,1.445,1.445,0,0,1-1.45.992l-.215-1.417a4.1,4.1,0,0,1-1.5.94,10.942,10.942,0,0,1,1.565-4.24c-1.586.764-2.511,2.418-3.337,3.973a5.119,5.119,0,0,0-.868,3.119c.073.443.264.862.305,1.309a1.087,1.087,0,0,1-.536,1.135.983.983,0,0,1-1.089-.378,2.85,2.85,0,0,1-.446-1.144,14.95,14.95,0,0,1-.519-5.726,10.491,10.491,0,0,0,.3-2.062c-.055-1.521-1.177-2.768-1.725-4.189a1.659,1.659,0,0,1,.076-1.678,3.44,3.44,0,0,1,.754-.509,3.4,3.4,0,0,0,1.279-2.4,8.332,8.332,0,0,0-.085-3.01c-.316-1.482-1.042-2.928-.862-4.433.177-1.48,1.19-2.7,1.872-4.025a9.527,9.527,0,0,0,.965-5.565c-.118-.889-.322-1.917.28-2.581.723-.8,2.124-.5,2.95-1.188a5.906,5.906,0,0,0,.9-1.286,3.151,3.151,0,0,1,3.367-1.2c.567.163,1.077.485,1.638.668a12.815,12.815,0,0,0,2.472.323,3.009,3.009,0,0,1,2.179,1.061c.253.363.367.805.6,1.182.5.807,1.447,1.2,2.165,1.813a4.2,4.2,0,0,1,1.183,4.489c-.429,1.194-1.421,2.25-1.337,3.516a7.727,7.727,0,0,1,.184,1.547c-.2,1.435-2.283,1.722-3,2.979a10.306,10.306,0,0,0-1.464-5.914c-.9-1.383-3.636-3.807-5.517-3.132a1.336,1.336,0,0,0-.822.884c-.186.708.359,1,.709,1.567a4.764,4.764,0,0,1,.561,3.685Z" transform="translate(-83.818 -439.759)" fill="#3f3d56"/>
    <g id="Group_116" data-name="Group 116" transform="translate(21.308 148.808)" opacity="0.2">
      <path id="Path_2101" data-name="Path 2101" d="M110.978,648.129a8.327,8.327,0,0,0-.18-1.929,23.519,23.519,0,0,1-.885-3.76c-.072,1.409.587,2.772.885,4.166A8.315,8.315,0,0,1,110.978,648.129Z" transform="translate(-108.591 -631.089)"/>
      <path id="Path_2102" data-name="Path 2102" d="M123.019,698.51c.11-.2.223-.4.346-.594-1.586.764-2.511,2.418-3.337,3.973a5.556,5.556,0,0,0-.9,2.879,6.484,6.484,0,0,1,.9-2.473A9.154,9.154,0,0,1,123.019,698.51Z" transform="translate(-115.262 -671.242)"/>
      <path id="Path_2103" data-name="Path 2103" d="M113.274,716.94a.956.956,0,0,1-.527.791.983.983,0,0,1-1.089-.378,2.848,2.848,0,0,1-.446-1.144,20.378,20.378,0,0,1-.627-4.091,18.715,18.715,0,0,0,.627,4.5,2.849,2.849,0,0,0,.446,1.144.983.983,0,0,0,1.089.378,1.087,1.087,0,0,0,.536-1.135C113.28,716.98,113.276,716.96,113.274,716.94Z" transform="translate(-109.078 -681.52)"/>
      <path id="Path_2104" data-name="Path 2104" d="M144.4,632.268a4.507,4.507,0,0,1-.146.958,7.948,7.948,0,0,0-.571,2.524,13.519,13.519,0,0,1,.571-2.119A4.568,4.568,0,0,0,144.4,632.268Z" transform="translate(-133.03 -623.728)"/>
      <path id="Path_2105" data-name="Path 2105" d="M120.031,603.876a9.354,9.354,0,0,0-.078-1.438c-.046-.351-.106-.724-.124-1.088a8.133,8.133,0,0,0,.124,1.493A9.312,9.312,0,0,1,120.031,603.876Z" transform="translate(-115.771 -601.35)"/>
      <path id="Path_2106" data-name="Path 2106" d="M148.787,655c0-.011-.006-.021-.008-.032a10.517,10.517,0,0,1-.66,1.368,1.934,1.934,0,0,0-.111.882,1.859,1.859,0,0,1,.111-.476C148.342,656.148,148.9,655.623,148.787,655Z" transform="translate(-136.158 -640.156)"/>
      <path id="Path_2107" data-name="Path 2107" d="M107.048,685.942c-.055-1.521-1.177-2.768-1.725-4.189a2.812,2.812,0,0,1-.176-.693,2.335,2.335,0,0,0,.176,1.1c.539,1.4,1.631,2.626,1.719,4.113C107.049,686.163,107.052,686.053,107.048,685.942Z" transform="translate(-105.139 -659.042)"/>
      <path id="Path_2108" data-name="Path 2108" d="M147.418,616.348c-.9-1.383-3.636-3.807-5.517-3.132a1.336,1.336,0,0,0-.822.884.958.958,0,0,0-.014.474c0-.023.008-.045.014-.068a1.336,1.336,0,0,1,.822-.884c1.881-.674,4.617,1.749,5.517,3.132a10.007,10.007,0,0,1,1.466,5.33A10.216,10.216,0,0,0,147.418,616.348Z" transform="translate(-131.124 -609.854)"/>
      <path id="Path_2109" data-name="Path 2109" d="M172.426,635.434c-.2,1.432-2.273,1.721-3,2.971q0,.207,0,.414c.719-1.257,2.8-1.544,3-2.979a1.762,1.762,0,0,0,0-.425C172.427,635.421,172.427,635.428,172.426,635.434Z" transform="translate(-151.667 -626.005)"/>
      <path id="Path_2110" data-name="Path 2110" d="M180.948,614.176c-.429,1.194-1.421,2.25-1.337,3.516,0,.019,0,.037.006.056.093-1.115.942-2.084,1.331-3.166a3.973,3.973,0,0,0,.221-1.543A3.9,3.9,0,0,1,180.948,614.176Z" transform="translate(-159.036 -609.81)"/>
      <path id="Path_2111" data-name="Path 2111" d="M142.127,703.344a.654.654,0,0,1-.412.279c-.6.064-.5-1.021-.987-1.386.012.144.023.289.031.434.448.388.366,1.42.956,1.358a.654.654,0,0,0,.412-.279,3.618,3.618,0,0,0,.576-2.415A3.184,3.184,0,0,1,142.127,703.344Z" transform="translate(-130.897 -673.715)"/>
      <path id="Path_2112" data-name="Path 2112" d="M131.97,709.106a1.445,1.445,0,0,1-1.45.992l-.215-1.417a4.1,4.1,0,0,1-1.425.911c-.027.144-.054.289-.075.435a4.1,4.1,0,0,0,1.5-.94l.215,1.417a1.445,1.445,0,0,0,1.45-.992,3.2,3.2,0,0,0,.167-1.282A2.726,2.726,0,0,1,131.97,709.106Z" transform="translate(-122.267 -678.706)"/>
      <path id="Path_2113" data-name="Path 2113" d="M147.853,681.9a7.256,7.256,0,0,0-.055,1.148,5.931,5.931,0,0,1,.055-.743c.225-1.548,1.311-2.967,1.213-4.5C148.978,679.183,148.058,680.487,147.853,681.9Z" transform="translate(-136.012 -656.682)"/>
    </g>
    <path id="Path_2114" data-name="Path 2114" d="M579.725,260.9v27.121a2.873,2.873,0,0,1-3.085,2.6h-65.3a2.873,2.873,0,0,1-3.085-2.6V260.9a3.108,3.108,0,0,1,3.085-2.9h65.3A3.108,3.108,0,0,1,579.725,260.9Z" transform="translate(-375.591 -204.039)" fill="#fff"/>
    <path id="Path_2115" data-name="Path 2115" d="M579.724,261.089v7.566H508.251v-7.566A3.084,3.084,0,0,1,511.336,258h65.3A3.084,3.084,0,0,1,579.724,261.089Z" transform="translate(-375.59 -204.039)" fill="#de4756" opacity="0.2"/>
    <circle id="Ellipse_390" data-name="Ellipse 390" cx="2.063" cy="2.063" r="2.063" transform="translate(134.517 57.227)" fill="#fff"/>
    <circle id="Ellipse_391" data-name="Ellipse 391" cx="2.063" cy="2.063" r="2.063" transform="translate(140.52 57.227)" fill="#fff"/>
    <circle id="Ellipse_392" data-name="Ellipse 392" cx="2.063" cy="2.063" r="2.063" transform="translate(146.523 57.227)" fill="#fff"/>
    <circle id="Ellipse_393" data-name="Ellipse 393" cx="8.066" cy="8.066" r="8.066" transform="translate(181.992 67.356)" fill="#de4756"/>
    <rect id="Rectangle_433" data-name="Rectangle 433" width="34.015" height="1.201" transform="translate(172.85 71.195) rotate(180)" fill="#de4756"/>
    <rect id="Rectangle_434" data-name="Rectangle 434" width="34.015" height="1.201" transform="translate(172.85 74.121) rotate(180)" fill="#de4756" opacity="0.2"/>
    <rect id="Rectangle_435" data-name="Rectangle 435" width="34.015" height="1.201" transform="translate(172.85 77.048) rotate(180)" fill="#de4756" opacity="0.2"/>
    <rect id="Rectangle_436" data-name="Rectangle 436" width="34.015" height="1.201" transform="translate(172.85 79.974) rotate(180)" fill="#de4756" opacity="0.2"/>
    <path id="Path_2116" data-name="Path 2116" d="M662.179,514.055a4.541,4.541,0,0,0-3.965,1.064s1.01.911,3.381-.1Z" transform="translate(-484.128 -389.296)" fill="#de4756"/>
    <path id="Path_2117" data-name="Path 2117" d="M671.748,514.218a4.54,4.54,0,0,1,.517,4.073s-1.226-.589-1.191-3.166Z" transform="translate(-493.436 -389.479)" fill="#de4756"/>
    <path id="Path_2118" data-name="Path 2118" d="M666.481,501.358s-.85-1.842-4.893.385a2.181,2.181,0,0,0,2.155,1.248A2.633,2.633,0,0,0,666.481,501.358Z" transform="translate(-486.57 -379.654)" fill="#de4756"/>
    <path id="Path_2119" data-name="Path 2119" d="M678.575,502.83s2.026-.094,1.912,4.52a2.18,2.18,0,0,1-2.1-1.338A2.633,2.633,0,0,1,678.575,502.83Z" transform="translate(-498.406 -381.236)" fill="#de4756"/>
    <path id="Path_2120" data-name="Path 2120" d="M671.818,484.882s-.92-3.209-5.172-1.256c0,0,.744,2.938,4.681,2.294Z" transform="translate(-490.232 -366.881)" fill="#de4756"/>
    <path id="Path_2121" data-name="Path 2121" d="M675.62,468.789s-1.919-3.309-5.9-.623c0,0,1.125,3.061,5.5,1.732Z" transform="translate(-492.46 -355.387)" fill="#de4756"/>
    <path id="Path_2122" data-name="Path 2122" d="M677.455,453.219s-2.292-3.074-6.234-.419a5.341,5.341,0,0,0,6.184,1.162Z" transform="translate(-493.543 -344.244)" fill="#de4756"/>
    <path id="Path_2123" data-name="Path 2123" d="M680.278,437.352s-2.316-3.206-6.094-.571c0,0,2.663,2.872,6.047,1.282Z" transform="translate(-495.687 -332.681)" fill="#de4756"/>
    <path id="Path_2124" data-name="Path 2124" d="M680.84,421.231s-2.386-4.086-5.924-1.663c0,0,2.617,3.55,5.874,2.406Z" transform="translate(-496.218 -320.419)" fill="#de4756"/>
    <path id="Path_2125" data-name="Path 2125" d="M679.479,405.253s-2.55-4.065-6.012-1.312c0,0,3.1,3.583,5.964,2.023Z" transform="translate(-495.168 -308.972)" fill="#de4756"/>
    <path id="Path_2126" data-name="Path 2126" d="M676.865,388.949s-3.082-3.865-6.087-2.607c0,0,3.207,4.1,6.162,3.586Z" transform="translate(-493.223 -296.744)" fill="#de4756"/>
    <path id="Path_2127" data-name="Path 2127" d="M674.141,372.908s-3.545-4.716-5.873-3.38c0,0,2.6,3.646,6.094,4.238Z" transform="translate(-491.406 -284.585)" fill="#de4756"/>
    <path id="Path_2128" data-name="Path 2128" d="M669.771,357.561s-3.116-3.869-5.632-3.129c0,0,2.621,3.972,6.006,4.3Z" transform="translate(-488.417 -273.763)" fill="#de4756"/>
    <path id="Path_2129" data-name="Path 2129" d="M666.571,342.1s-3.48-3.738-5.137-3.233c0,0,2.421,4.056,5.246,4.019Z" transform="translate(-486.459 -262.532)" fill="#de4756"/>
    <path id="Path_2130" data-name="Path 2130" d="M663.3,325.574s-2.918-4.382-4.684-4.176c0,0,1.689,3.845,4.656,4.6Z" transform="translate(-484.423 -249.917)" fill="#de4756"/>
    <path id="Path_2131" data-name="Path 2131" d="M660.143,308.424s-2.612-3.385-4.139-3.479c0,0,1.945,4.415,4.186,4.529Z" transform="translate(-482.529 -238.014)" fill="#de4756"/>
    <path id="Path_2132" data-name="Path 2132" d="M662.285,287.006,660,280.168s-.541,6.006,2.547,8.1Z" transform="translate(-485.397 -220.081)" fill="#de4756"/>
    <path id="Path_2133" data-name="Path 2133" d="M663.8,262.315s-.079-5.586.242-6.019c0,0-2.262,4.488-.388,8.475Z" transform="translate(-487.531 -202.803)" fill="#de4756"/>
    <path id="Path_2134" data-name="Path 2134" d="M684.706,488.875s2.949-1.564,4.493,2.853c0,0-2.631,1.5-4.9-1.779Z" transform="translate(-503.009 -370.942)" fill="#de4756"/>
    <path id="Path_2135" data-name="Path 2135" d="M690.413,472.065s3.579-1.351,4.963,3.244c0,0-2.806,1.661-5.354-2.133Z" transform="translate(-507.15 -358.836)" fill="#de4756"/>
    <path id="Path_2136" data-name="Path 2136" d="M694.179,455.262s2.682-2.74,6.234.419a5.341,5.341,0,0,1-6.284.324Z" transform="translate(-510.123 -346.01)" fill="#de4756"/>
    <path id="Path_2137" data-name="Path 2137" d="M696.427,438.438s2.724-2.867,6.116.248c0,0-3.023,2.49-6.164.462Z" transform="translate(-511.752 -333.761)" fill="#de4756"/>
    <path id="Path_2138" data-name="Path 2138" d="M696.335,420.873s2.061-4.26,5.776-2.119c0,0-2.333,3.743-5.669,2.855Z" transform="translate(-511.72 -319.95)" fill="#de4756"/>
    <path id="Path_2139" data-name="Path 2139" d="M694.431,404s2.055-4.336,5.817-2.009c0,0-2.66,3.922-5.686,2.709Z" transform="translate(-510.341 -307.757)" fill="#de4756"/>
    <path id="Path_2140" data-name="Path 2140" d="M691.454,383.181s1.024-4.837,4.274-5.057c0,0-1.03,5.1-3.9,5.966Z" transform="translate(-508.187 -290.978)" fill="#de4756"/>
    <path id="Path_2141" data-name="Path 2141" d="M689.23,366.965s.665-5.862,3.35-5.89c0,0-.39,4.459-3.1,6.742Z" transform="translate(-506.577 -278.638)" fill="#de4756"/>
    <path id="Path_2142" data-name="Path 2142" d="M683.564,351.533s1.125-4.838,3.712-5.266c0,0-.634,4.717-3.542,6.48Z" transform="translate(-502.476 -267.921)" fill="#de4756"/>
    <path id="Path_2143" data-name="Path 2143" d="M678.927,335.712s.369-5.094,1.977-5.739c0,0,.656,4.678-1.569,6.42Z" transform="translate(-499.12 -256.129)" fill="#de4756"/>
    <path id="Path_2144" data-name="Path 2144" d="M675.161,320.933s.571-5.233,2.233-5.864c0,0,.273,4.19-2.014,6.224Z" transform="translate(-496.394 -245.341)" fill="#de4756"/>
    <path id="Path_2145" data-name="Path 2145" d="M670.072,305.4s.3-4.265,1.515-5.191c0,0,.831,4.753-.971,6.09Z" transform="translate(-492.711 -234.584)" fill="#de4756"/>
    <path id="Path_2146" data-name="Path 2146" d="M668.539,285.776l1.6-7.029s1.131,5.923-1.736,8.307Z" transform="translate(-491.501 -219.052)" fill="#de4756"/>
    <path id="Path_2147" data-name="Path 2147" d="M666.539,265.162s3.2-4.582,3.173-5.121c0,0-.641,4.985-4.428,7.237Z" transform="translate(-489.246 -205.514)" fill="#de4756"/>
    <path id="Path_2148" data-name="Path 2148" d="M668.393,254.873s3.169-6.6,4.433-7.068a8.618,8.618,0,0,0-4.646,6.859Z" transform="translate(-491.341 -196.658)" fill="#de4756"/>
    <path id="Path_2149" data-name="Path 2149" d="M667.113,285.532l.189-.044c-1.788-7.621-2.04-12.425-.708-13.529l-.124-.15C665.059,272.979,665.281,277.724,667.113,285.532Z" transform="translate(-489.441 -214.031)" fill="#444053"/>
    <path id="Path_2150" data-name="Path 2150" d="M675.987,337.907l.281-.079c-.2-.7-.412-1.412-.641-2.115-1.99-6.117-3.653-11.8-4.672-16.137l-.231-.136c1.021,4.35,2.633,10.239,4.625,16.364C675.577,336.5,675.792,337.21,675.987,337.907Z" transform="translate(-493.183 -248.504)" fill="#444053"/>
    <path id="Path_2151" data-name="Path 2151" d="M658.158,425.34a37.815,37.815,0,0,0,7.1-10.93,42.137,42.137,0,0,0,3.376-12.841,49.208,49.208,0,0,0-1.816-17.583l-.234.239a44.647,44.647,0,0,1-1.675,30.012,37.427,37.427,0,0,1-7.021,10.824Z" transform="translate(-483.892 -295.221)" fill="#444053"/>
    <path id="Path_2152" data-name="Path 2152" d="M929.973,618.323l-7.644-11.082s-.143-2.744-.643-3.385-.107-2.067-.107-2.067.536-.784.071-.855-.071-1.817-.071-1.817l-.036-2.779s.429-2.672.071-3.314a1.051,1.051,0,0,1,.036-1.14s.429-1.532,0-1.924-.321-2.779-.214-4.668a7.086,7.086,0,0,0-.75-3.243c0-.285-2.822-3.064-2.822-3.314a7.057,7.057,0,0,0-2.858-1.568c-1.072-.285-1.607-.5-1.572-.641s-1.679-.713-1.679-.713a3.375,3.375,0,0,1-2.072-.855c-.563-.738-2.319-.965-2.369-.971-.011-.05-.023-.1-.033-.149s-.022-.107-.032-.161c.135-.226.26-.459.373-.7q.051-.108.1-.217a3.037,3.037,0,0,0,1.758-.545,2.393,2.393,0,0,0,.856-1.709,3.75,3.75,0,0,0-.418-1.9,3.211,3.211,0,0,1-.614-2c.069-.3.249-.564.341-.859a2.261,2.261,0,0,0-.256-1.688c-.271-.518-.647-.973-.948-1.474a5.781,5.781,0,0,1-.754-2.084,3.234,3.234,0,0,0-.279-1.135,2.105,2.105,0,0,0-.626-.633,6.26,6.26,0,0,0-3.839-1.164,18.672,18.672,0,0,1-2.907.177,10.642,10.642,0,0,1-1.7-.444,4.385,4.385,0,0,0-3.623.186c-1.062.7-1.459,2.034-2.165,3.089a24.955,24.955,0,0,0-2.017,2.7c.006-.019.01-.039.016-.057a3.249,3.249,0,0,0-.266.72,5.123,5.123,0,0,0,.158,2.363,1.643,1.643,0,0,0,.577,1.055,3.362,3.362,0,0,0,1.249.245c-.016.068-.033.135-.048.2a8.159,8.159,0,0,0,5.663,9.517c0,.073,0,.145,0,.216a5.6,5.6,0,0,1-.038.613h0s-3.591-.738-4.555-.239-2.857.891-3.143,1.176-1,.071-1.643,1.746-.714,3.385-1.536,4.169-1.25,1.318-1.286,1.888.107.713-.214.891-.786.927-.643,1.212a1.015,1.015,0,0,1-.393,1.069,1.191,1.191,0,0,0-.5,1.069s-.214.784-.714.962-.821,1.354-.821,1.354l-1.62,1.862-3.209-3.55a1.355,1.355,0,0,0-1.91-.1l-1.576,1.418a3.111,3.111,0,0,0-1.578.939,4.1,4.1,0,0,0-.817,1.216l-.863.777a2.191,2.191,0,0,0-.221,2.422l2.057,2.275.013.019a3.624,3.624,0,0,0-1.989.81c-3.071,2.708-3.107,5.2-2.642,6.342s4.357,5.523,4.357,5.523a17.391,17.391,0,0,0,5.527,4.5l0,0-.025.025c-.065.068-.129.143-.191.224-.018.022-.035.044-.052.068l-.05.07c-.02.028-.039.056-.059.085l-.045.07c-.021.033-.041.067-.061.1l-.039.068c-.025.045-.049.091-.073.138l-.023.046c-.031.063-.06.128-.089.195-.01.023-.019.048-.029.072-.019.046-.037.093-.055.142-.011.03-.022.061-.032.092s-.031.092-.046.14-.021.066-.031.1c-.015.051-.029.1-.043.156-.008.032-.017.064-.025.1q-.03.124-.056.256c-.006.033-.012.068-.018.1-.011.06-.021.121-.031.184-.006.042-.012.086-.018.129-.008.058-.015.118-.022.178,0,.045-.01.09-.014.136-.006.066-.011.134-.016.2,0,.042-.006.083-.008.125-.006.112-.011.226-.013.345-.072,4.169.172,4.775.172,4.775a2.314,2.314,0,0,0,1.9,1.423,2.474,2.474,0,0,0,.611-.033c1.857-.321,6.215-1.069,7.751-.784a13.252,13.252,0,0,0,3.85-.312l.321-.062.222.709.707-.193.6.346.378.218c.706,2.39,3.566,1.575,3.566,1.575l.679.392,6.893.177a13.884,13.884,0,0,0,2.44,1.172,2.18,2.18,0,0,0,.346.076,15.83,15.83,0,0,0,1.921.036c.528-.014.937-.036.937-.036s-.07-1.871-.17-3.967a56.328,56.328,0,0,0,6.385-.523c3.681-.646,5.217-3.995,5.783-5.783a16.85,16.85,0,0,1,.361,2.22,16.052,16.052,0,0,0,.572,1.924,6.508,6.508,0,0,0,.786,1.425c2.715-.926,1.071-2.316.5-2.922s.393-1.1.393-1.1.75-.5.679-.962-.107-.962,2.322-.926S929.973,618.323,929.973,618.323Zm-37.715-22.753a16.561,16.561,0,0,0,.676,2.976,3.925,3.925,0,0,1,.08,1.174c-1.439-.115-2.938-.176-2.938-.176a.343.343,0,0,1,.077.183l-.226-.051c-.107-.025-.217-.052-.329-.081l2.652-4.032Zm-5.253,8.357,2.491.394.209.033a8.256,8.256,0,0,0-.129,1.176c.007.037.056.082.136.133a3.251,3.251,0,0,0-.048.59,6.871,6.871,0,0,0,2.54.976c-.018.072-.036.14-.055.2h0c-1.18-.621-3.038-.911-3.252-1.372s-6.536-2.67-6.536-2.67-.231-.122-.63-.314l1.666.315.457-.046a24.94,24.94,0,0,0,3.15.581Z" transform="translate(-635.836 -420.446)" fill="url(#linear-gradient-2)"/>
    <path id="Path_2153" data-name="Path 2153" d="M945.485,749.531s-.991,5.983-6.018,6.868-21.807.708-21.807.708-9.593-1.381-13.063-9.487-5.7-11.328-2.726-11.47,19.01,5.416,19.93,5.487S946.372,729.318,945.485,749.531Z" transform="translate(-659.477 -550.104)" fill="#65617d"/>
    <path id="Path_2154" data-name="Path 2154" d="M945.485,749.531s-.991,5.983-6.018,6.868-21.807.708-21.807.708-9.593-1.381-13.063-9.487-5.7-11.328-2.726-11.47,19.01,5.416,19.93,5.487S946.372,729.318,945.485,749.531Z" transform="translate(-659.477 -550.104)" opacity="0.05"/>
    <path id="Path_2155" data-name="Path 2155" d="M900.006,784.947a2.3,2.3,0,0,0,1.879,1.414,2.448,2.448,0,0,0,.605-.033c1.84-.319,6.16-1.062,7.682-.778a13.1,13.1,0,0,0,3.816-.31c.8-.151,1.388-.292,1.388-.292s-1.416-4.708-1.593-4.85-6.372-3.858-6.372-3.858l-4.905-.353h-.015a2.584,2.584,0,0,0-1.663.977,5.228,5.228,0,0,0-.992,3.341C899.763,784.345,900.006,784.947,900.006,784.947Z" transform="translate(-658.997 -578.865)" fill="#3f3d56"/>
    <path id="Path_2156" data-name="Path 2156" d="M900.006,784.947a2.3,2.3,0,0,0,1.879,1.414,20.2,20.2,0,0,1-1.333-1.945l.026-3.433a6.049,6.049,0,0,1,1.927-5.1h-.015s-2.584.176-2.655,4.318S900.006,784.947,900.006,784.947Z" transform="translate(-658.997 -578.865)" opacity="0.05"/>
    <path id="Path_2157" data-name="Path 2157" d="M970.042,753.373l4.567-3.575,7.187-7.08s-.776-.037-1.948-.088c-.291.186-1.108.77-1.137,1.479-.035.866-1.942.061-2.933.556s-5.841,6.7-6.691,6.662-1.522-.431-1.877.171c-.007.014-.017.026-.026.039Z" transform="translate(-707.752 -554.796)" opacity="0.1"/>
    <path id="Path_2158" data-name="Path 2158" d="M903.46,776.862q.244.118.495.226c3.47,1.487,7.753,4.6,8.071,5.169a33.6,33.6,0,0,0,4.594,2.982c.8-.151,1.388-.292,1.388-.292s-1.416-4.708-1.593-4.85-6.372-3.858-6.372-3.858l-4.905-.353h-.015A2.583,2.583,0,0,0,903.46,776.862Z" transform="translate(-661.63 -578.865)" opacity="0.1"/>
    <path id="Path_2159" data-name="Path 2159" d="M868.037,723.946c.46,1.133,4.318,5.487,4.318,5.487a16.93,16.93,0,0,0,5.912,4.673c3.47,1.487,7.753,4.6,8.071,5.169a37.071,37.071,0,0,0,4.918,3.173c.151.088.3.174.436.255.381.222.714.415.966.561.319.185.511.294.511.294s1.185-.952,2.366-1.909c1.165-.945,2.325-1.9,2.343-1.949.035-.106.495-1.311.389-1.381-.055-.037-.3-.527-.745-1.095a5.01,5.01,0,0,0-1.8-1.49,5.126,5.126,0,0,1-2.336-2.436s-.155-.113-.39-.261a4.731,4.731,0,0,0-1.592-.709c-.779-.1-2.23-1.691-2.23-1.691a4.359,4.359,0,0,1-1.381-1.451c-.372-.776-5.862-4.548-6.371-4.9l13.31,8.548,3.185,2.047,4.567-3.575,7.187-7.08s-.966-.047-2.371-.107c-3.493-.151-9.7-.388-10.479-.211a5.972,5.972,0,0,1-1.948.127,6.831,6.831,0,0,1-2.936-.537c-1.169-.617-3.011-.9-3.223-1.363s-6.478-2.653-6.478-2.653-8.531-4.531-11.576-1.84S867.576,722.814,868.037,723.946Z" transform="translate(-635.836 -536.096)" fill="#65617d"/>
    <path id="Path_2160" data-name="Path 2160" d="M968.176,621.113l1.1,3.646,1.416,8.212,5.2.355,1.507-2.5,1.5-2.492s.937-3.319,1.61-6.529c.6-2.841.984-5.6.337-5.9-.574-.265-.953-1.222-1.2-2.25-.031-.127-.059-.257-.085-.385a20.045,20.045,0,0,1-.345-2.639s-10.9-.566-9.382,3.929a7.156,7.156,0,0,1,.411,2.391,5.6,5.6,0,0,1-.037.609A5.1,5.1,0,0,1,968.176,621.113Z" transform="translate(-708.469 -459.245)" fill="#ee8e9e"/>
    <path id="Path_2161" data-name="Path 2161" d="M959.972,638.724l.39,6.195.885,5.275.992,2.443L963.123,666s8.535.987,10.612-.018a.908.908,0,0,0,.376-.293c2.507-3.786,1.685-14.752,1.685-14.752l.956-7.08-.637-3.674-1.54-.164-1.185-.126s-.268.329-.654.84c-1.049,1.386-2.98,4.111-2.85,5.248.176,1.558-.212,3.151-.815,3.4s-1.1.673-1.2.249a1.917,1.917,0,0,1-.106-1.133,9.291,9.291,0,0,0-.461-2.443,10.242,10.242,0,0,1-.885-3.08,3.62,3.62,0,0,0-.39-2.23c-.282-.247-.672-.5-.354-1.628s-1.4-3.338-1.4-3.338Z" transform="translate(-702.532 -477.459)" fill="#e3e8f4"/>
    <path id="Path_2162" data-name="Path 2162" d="M1000.75,643.788l.355,10.585,2.044,1.133a.907.907,0,0,0,.376-.293c2.507-3.786,1.685-14.752,1.685-14.752l.956-7.08-.637-3.674-1.54-.164c.6-2.841.984-5.6.337-5.9-.575-.266-.953-1.222-1.2-2.25h0l-1.1,7.489s.092.674.125,1.371a3.925,3.925,0,0,1-.089,1.319,4.394,4.394,0,0,0-.071,1.77,14.415,14.415,0,0,0-1.113,5.219C1000.67,641.239,1000.75,643.788,1000.75,643.788Z" transform="translate(-732.034 -467.051)" opacity="0.1"/>
    <path id="Path_2163" data-name="Path 2163" d="M1003.671,620.784s1.784.222,2.35.965a3.341,3.341,0,0,0,2.053.85s1.7.566,1.664.708.5.354,1.558.637a6.991,6.991,0,0,1,2.832,1.558c0,.248,2.8,3.009,2.8,3.292a7.054,7.054,0,0,1,.743,3.221c-.106,1.876-.212,4.248.212,4.637s0,1.912,0,1.912a1.046,1.046,0,0,0-.035,1.133c.354.637-.071,3.292-.071,3.292l.035,2.761s-.389,1.735.071,1.805-.071.85-.071.85-.389,1.416.106,2.053.637,3.363.637,3.363l7.576,11.009s.106,2.018-2.3,1.982-2.372.46-2.3.92-.673.956-.673.956-.956.5-.389,1.1,2.195,1.982-.5,2.9a6.472,6.472,0,0,1-.779-1.416,15.95,15.95,0,0,1-.566-1.912s-.248-2.69-.743-3.044-.425-2.053-.425-2.053.708-1.381-.283-1.947-15.364-8.531-15.364-8.531l-.354-10.585s-.248-7.823,1.239-10.443a4.4,4.4,0,0,1,.071-1.77,9.18,9.18,0,0,0-.035-2.69Z" transform="translate(-732.544 -466.608)" fill="#3f3d56"/>
    <path id="Path_2164" data-name="Path 2164" d="M942.052,635.087s-3.559-.733-4.515-.238-2.832.885-3.115,1.168-.991.071-1.628,1.735-.708,3.363-1.522,4.142-1.239,1.31-1.274,1.876.106.708-.212.885-.779.92-.637,1.2,7.363,6.514,7.363,6.514a16.982,16.982,0,0,0,.673,2.974c.319.6-.354,8.885-1.062,9.452s4.779.514,4.779.514.248-5.435.46-5.718a56.451,56.451,0,0,0-.142-6.089s-.035-4.956.425-6.266.408-5.664.408-5.664a11.7,11.7,0,0,1,.9-3.221C943.448,637.745,942.052,635.087,942.052,635.087Z" transform="translate(-680.203 -476.663)" opacity="0.1"/>
    <path id="Path_2165" data-name="Path 2165" d="M941.667,634.7s-3.559-.733-4.515-.238-2.832.885-3.115,1.168-.991.071-1.628,1.735-.708,3.363-1.522,4.142-1.239,1.31-1.274,1.876.106.708-.212.885-.779.92-.637,1.2,7.363,6.514,7.363,6.514a16.985,16.985,0,0,0,.673,2.974c.319.6-.354,8.885-1.062,9.452s4.779.514,4.779.514.248-5.435.46-5.718a56.437,56.437,0,0,0-.142-6.089s-.035-4.956.425-6.266.408-5.664.408-5.664a11.7,11.7,0,0,1,.9-3.221C943.063,637.36,941.667,634.7,941.667,634.7Z" transform="translate(-679.924 -476.385)" fill="#3f3d56"/>
    <path id="Path_2166" data-name="Path 2166" d="M973.815,614.563a7.155,7.155,0,0,1,.411,2.391,8.118,8.118,0,0,0,9.316-3.681,20.044,20.044,0,0,1-.345-2.639S972.293,610.068,973.815,614.563Z" transform="translate(-712.445 -459.245)" opacity="0.1"/>
    <path id="Path_2167" data-name="Path 2167" d="M954.72,583.427a8.1,8.1,0,1,0,.176-1.685,8.1,8.1,0,0,0-.176,1.685Z" transform="translate(-698.73 -433.703)" fill="#ee8e9e"/>
    <path id="Path_2168" data-name="Path 2168" d="M917.237,672.592l-1.947.6a1.01,1.01,0,0,1-.389,1.062,1.184,1.184,0,0,0-.5,1.062s-.212.779-.708.956-.814,1.345-.814,1.345l-1.628,1.876s-.6.5-.5.743-.637.319-.637.319l.389,6.3,3.363.637,2.089-.212,1.7-.637,1.487-.885.673-1.735,2.974-4.531Z" transform="translate(-666.451 -504.105)" fill="#3f3d56"/>
    <path id="Path_2169" data-name="Path 2169" d="M889.177,693.1s-4.319-6.23-7.54-2.867,1.31,8.815,2.372,8.638,6.124-.46,6.124-.46Z" transform="translate(-645.011 -516.15)" fill="#ee8e9e"/>
    <rect id="Rectangle_437" data-name="Rectangle 437" width="22.605" height="17.552" rx="1.544" transform="translate(234.745 164.246) rotate(27.036)" fill="#3f3d56"/>
    <rect id="Rectangle_438" data-name="Rectangle 438" width="19" height="14.318" transform="translate(235.646 166.483) rotate(27.036)" fill="#de4756"/>
    <circle id="Ellipse_394" data-name="Ellipse 394" cx="0.312" cy="0.312" r="0.312" transform="translate(231.422 172.211)" fill="#e6e8ec"/>
    <circle id="Ellipse_395" data-name="Ellipse 395" cx="0.514" cy="0.514" r="0.514" transform="translate(249.538 181.395)" fill="#e6e8ec"/>
    <path id="Path_2170" data-name="Path 2170" d="M901.791,702.213c-.035,4.673,9.629,5.664,9.629,5.664l2.469.392,1.106.175.461-4.567s-.507-.075-1.14-.223c-.936-.218-2.147-.595-2.4-1.122C911.49,701.647,901.826,697.54,901.791,702.213Z" transform="translate(-660.422 -523.955)" fill="#ee8e9e"/>
    <path id="Path_2171" data-name="Path 2171" d="M955.358,581.745a.96.96,0,0,1,.593.266c.274.29.289.8.645.982a.717.717,0,0,0,.423.049c.941-.133,1.486-1.2,2.39-1.488a2.4,2.4,0,0,1,1.583.136,1.179,1.179,0,0,1,.525.337c.3.392.09.967.23,1.441.194.657.979.919,1.659,1a2.9,2.9,0,0,1,1.9.647,1.721,1.721,0,0,1,.338,1.37,1.077,1.077,0,0,0,0,.507c.187.531,1.106.452,1.346.033.175-.3.122-.558.535-.643a1.76,1.76,0,0,1,.867.15,6.361,6.361,0,0,0,2.242.344,8.108,8.108,0,1,0-15.268-5.135Z" transform="translate(-699.192 -433.706)" opacity="0.1"/>
    <path id="Path_2172" data-name="Path 2172" d="M960.426,575.482a1.092,1.092,0,0,1,0-.507,1.722,1.722,0,0,0-.337-1.37,2.9,2.9,0,0,0-1.9-.648c-.68-.086-1.464-.347-1.659-1-.14-.474.072-1.05-.23-1.441a1.168,1.168,0,0,0-.524-.337,2.4,2.4,0,0,0-1.584-.137c-.9.292-1.449,1.355-2.389,1.488a.72.72,0,0,1-.422-.049c-.356-.178-.371-.692-.645-.982-.43-.455-1.245-.161-1.772-.5a1.634,1.634,0,0,1-.572-1.048,5.1,5.1,0,0,1-.157-2.348c.308-1.317,1.484-2.22,2.236-3.344.7-1.048,1.094-2.375,2.146-3.069a4.337,4.337,0,0,1,3.591-.184,10.525,10.525,0,0,0,1.682.441,18.467,18.467,0,0,0,2.881-.176,6.193,6.193,0,0,1,3.805,1.157,2.087,2.087,0,0,1,.621.628,3.219,3.219,0,0,1,.276,1.127,5.751,5.751,0,0,0,.747,2.071c.3.5.671.95.94,1.464a2.252,2.252,0,0,1,.254,1.677c-.091.292-.27.555-.338.853a3.2,3.2,0,0,0,.609,1.989,3.733,3.733,0,0,1,.414,1.886,2.379,2.379,0,0,1-.848,1.7,3.048,3.048,0,0,1-1.795.544,6.365,6.365,0,0,1-2.286-.343,1.77,1.77,0,0,0-.867-.15c-.413.085-.36.338-.535.643C961.531,575.934,960.614,576.012,960.426,575.482Z" transform="translate(-693.981 -422.404)" fill="#3f3d56"/>
    <path id="Path_2173" data-name="Path 2173" d="M968.416,754.092l4.567-3.575,7.187-7.08s-.966-.047-2.371-.107a1.551,1.551,0,0,0-.5.968c-.035.866-1.943.06-2.933.555s-5.841,6.7-6.691,6.662-1.522-.431-1.877.171c-.007.014-.017.027-.026.039a1.007,1.007,0,0,1-.54.321Z" transform="translate(-706.338 -555.303)" opacity="0.1"/>
    <path id="Path_2174" data-name="Path 2174" d="M943.44,747.441l2.295,7.325.36,1.15,1.092-.3,2.41-.662,10.729-2.947a9.308,9.308,0,0,0,3.862-1.03,11.7,11.7,0,0,1,6.667-1.454c1.419.133,3-.479,4.3-2.9,0,0,2.974-8.779-4.531-11.292s-7.863,1.336-7.863,1.336-.038.021-.1.063c-.291.186-1.108.77-1.137,1.479-.035.866-1.942.061-2.933.555s-5.841,6.7-6.691,6.662-1.522-.431-1.877.171c-.007.014-.017.027-.026.039-.262.361-1.05.445-1.572.46-.285.008-.491,0-.491,0l-.067.02-.545.163Z" transform="translate(-690.566 -548.899)" fill="#65617d"/>
    <path id="Path_2175" data-name="Path 2175" d="M945.589,717.795l1.106.175.461-4.567s-.507-.075-1.14-.223A23.434,23.434,0,0,1,945.589,717.795Z" transform="translate(-692.122 -533.482)" opacity="0.1"/>
    <path id="Path_2176" data-name="Path 2176" d="M974.962,652.352s3.292-.956,2.478,8.39a26.126,26.126,0,0,1-6.9,15.257s-7.009,3.08-10.16,2.584-5.452-.6-5.452-.6a8,8,0,0,0-3.186-.85c-1.77-.071-5.487-1.168-5.558-1.522s.92-5.558.5-5.947c0,0,4.956.2,5.452.562s1.2.1,1.735,0a6.037,6.037,0,0,1,5.381-.279,3.251,3.251,0,0,0,1.522-.177,1.519,1.519,0,0,1,1.107-.071,3.114,3.114,0,0,0,.769-.389c.106-.142.956,0,.956,0a.377.377,0,0,0,.531-.248,2.316,2.316,0,0,1,.5-.779s.956-5.381,2.761-7.4a1.153,1.153,0,0,0,.389-1.027C967.634,659.29,970.713,651.219,974.962,652.352Z" transform="translate(-692.548 -489.377)" opacity="0.1"/>
    <path id="Path_2177" data-name="Path 2177" d="M974.642,649.752s3.292-.956,2.478,8.39a26.126,26.126,0,0,1-6.9,15.257s-7.009,3.08-10.16,2.584-5.452-.6-5.452-.6a8,8,0,0,0-3.186-.85c-1.77-.071-5.487-1.168-5.558-1.522s.92-5.558.5-5.947c0,0,4.956.2,5.452.562s1.2.1,1.735,0a6.036,6.036,0,0,1,5.381-.279,3.253,3.253,0,0,0,1.522-.177,1.519,1.519,0,0,1,1.107-.071,3.113,3.113,0,0,0,.769-.389c.106-.142.956,0,.956,0a.377.377,0,0,0,.531-.248,2.316,2.316,0,0,1,.5-.779s.956-5.381,2.761-7.4a1.153,1.153,0,0,0,.389-1.027C967.314,656.69,970.4,648.619,974.642,649.752Z" transform="translate(-692.316 -487.495)" fill="#3f3d56"/>
    <path id="Path_2178" data-name="Path 2178" d="M957.5,776.759l4.676,5.657a.139.139,0,0,0,.03-.033c.035-.106.495-1.311.389-1.381a6.579,6.579,0,0,0-2.549-2.585,4.841,4.841,0,0,1-2-1.821Z" transform="translate(-700.745 -579.38)" opacity="0.1"/>
    <path id="Path_2179" data-name="Path 2179" d="M957.475,796.248c.319.185.511.294.511.294s1.185-.952,2.366-1.909c1.165-.945,2.325-1.9,2.343-1.949.035-.106.495-1.31.389-1.381-.055-.037-.3-.527-.745-1.095-3.17-.888-1.151,1.313-.883,1.414a3.229,3.229,0,0,0-4.071,3.318,4.933,4.933,0,0,0,.09,1.308Z" transform="translate(-700.651 -589.079)" opacity="0.1"/>
    <path id="Path_2180" data-name="Path 2180" d="M962.224,798.029l.673.39,6.832.176a13.74,13.74,0,0,0,2.418,1.164,2.146,2.146,0,0,0,.343.075,15.659,15.659,0,0,0,1.9.036c.524-.014.928-.036.928-.036s-.323-8.616-.567-9.523c-.117-.433-.689-.338-1.254-.121a8.316,8.316,0,0,0-1.224.619,21.9,21.9,0,0,0-3.363.531c-.46.25-1.769-.143-2.584,0s-2.265-.958-2.265-.958c-3.965-1.309-1.735,1.133-1.452,1.239a3.229,3.229,0,0,0-4.071,3.318C958.33,799.142,962.224,798.029,962.224,798.029Z" transform="translate(-701.491 -589.079)" fill="#3f3d56"/>
    <path id="Path_2181" data-name="Path 2181" d="M1007.632,794.726c.074,1.783,1.465,4,2.294,5.169.523-.014.928-.036.928-.036s-.323-8.616-.567-9.523c-.117-.433-.689-.338-1.254-.121A9.989,9.989,0,0,0,1007.632,794.726Z" transform="translate(-737.024 -589.104)" fill="#565387"/>
    <path id="Path_2182" data-name="Path 2182" d="M1007.632,794.726c.074,1.783,1.465,4,2.294,5.169.523-.014.928-.036.928-.036s-.323-8.616-.567-9.523c-.117-.433-.689-.338-1.254-.121A9.989,9.989,0,0,0,1007.632,794.726Z" transform="translate(-737.024 -589.104)" opacity="0.1"/>
    <path id="Path_2183" data-name="Path 2183" d="M1003.117,794.963c.47,1.721.465,3.652,1.215,4.82a2.166,2.166,0,0,0,.343.076,15.659,15.659,0,0,0,1.9.036c.524-.014.928-.036.928-.036s-.323-8.616-.567-9.523c-.117-.433-.689-.338-1.254-.121a8.3,8.3,0,0,0-1.223.619S1002.515,792.758,1003.117,794.963Z" transform="translate(-733.675 -589.104)" opacity="0.05"/>
    <path id="Path_2184" data-name="Path 2184" d="M918.089,744.653a14.14,14.14,0,0,1,6.269,5.015Z" transform="translate(-672.218 -556.26)" opacity="0.1"/>
    <g id="Group_117" data-name="Group 117" transform="translate(254.166 143.482)" opacity="0.1">
      <path id="Path_2185" data-name="Path 2185" d="M1017.557,590.877c-.006.025-.013.05-.021.075a2.515,2.515,0,0,1-.118.3A2.168,2.168,0,0,1,1017.557,590.877Z" transform="translate(-998.276 -588.444)"/>
      <path id="Path_2186" data-name="Path 2186" d="M948.2,582.786a3.228,3.228,0,0,1,.264-.715c-.018.061-.037.122-.051.184a5.1,5.1,0,0,0,.157,2.348,1.633,1.633,0,0,0,.572,1.048c.527.338,1.342.044,1.772.5.273.29.289.8.645.982a.72.72,0,0,0,.422.049c.94-.133,1.486-1.2,2.389-1.488a2.4,2.4,0,0,1,1.584.137,1.168,1.168,0,0,1,.524.337c.3.391.09.967.23,1.441.195.657.979.918,1.659,1a2.9,2.9,0,0,1,1.9.648,1.721,1.721,0,0,1,.337,1.37,1.09,1.09,0,0,0,0,.507c.188.531,1.105.452,1.346.033.175-.305.122-.558.535-.643a1.771,1.771,0,0,1,.867.15,6.367,6.367,0,0,0,2.286.343,3.048,3.048,0,0,0,1.795-.544,2.116,2.116,0,0,0,.551-.669,2.265,2.265,0,0,1-.763,1.2,3.049,3.049,0,0,1-1.795.544,6.369,6.369,0,0,1-2.286-.343,1.769,1.769,0,0,0-.867-.15c-.413.085-.36.338-.535.643-.241.419-1.158.5-1.346-.033a1.09,1.09,0,0,1,0-.507,1.722,1.722,0,0,0-.337-1.37,2.9,2.9,0,0,0-1.9-.648c-.68-.086-1.464-.346-1.659-1-.14-.474.072-1.05-.23-1.441a1.168,1.168,0,0,0-.524-.337,2.4,2.4,0,0,0-1.584-.137c-.9.292-1.449,1.356-2.389,1.488a.72.72,0,0,1-.422-.049c-.356-.179-.371-.692-.645-.982-.43-.455-1.245-.161-1.772-.5a1.634,1.634,0,0,1-.572-1.048A5.1,5.1,0,0,1,948.2,582.786Z" transform="translate(-948.118 -582.071)"/>
    </g>
    <path id="Path_2187" data-name="Path 2187" d="M1012.449,682.785c-.648.876-1.389,1.685-1.963,2.611a4.967,4.967,0,0,0-.86,3.09,8.1,8.1,0,0,0,1.24-2.215,31.585,31.585,0,0,1,2.381-3.58c.153-.228,1.131-1.54.636-1.6C1013.477,681.037,1012.67,682.486,1012.449,682.785Z" transform="translate(-738.455 -510.254)" opacity="0.1"/>
    <ellipse id="Ellipse_396" data-name="Ellipse 396" cx="33.424" cy="31.49" rx="33.424" ry="31.49" transform="translate(52.622 113.215)" fill="#f1f1f1"/>
    <path id="Path_2188" data-name="Path 2188" d="M299.751,527.386,272.1,519.142a42.229,42.229,0,0,1-18.375,4.178c-21.629,0-39.225-16.109-39.225-35.91s17.6-35.91,39.225-35.91,39.225,16.109,39.225,35.91a34.667,34.667,0,0,1-12.6,26.373Zm-27.7-8.835.1.031,24.491,7.3-17.207-12.062.278-.231a34.149,34.149,0,0,0,12.68-26.18c0-19.5-17.348-35.358-38.672-35.358s-38.672,15.861-38.672,35.358,17.348,35.358,38.672,35.358a41.662,41.662,0,0,0,18.229-4.169Z" transform="translate(-162.983 -344.086)" fill="#2f2e41"/>
    <circle id="Ellipse_397" data-name="Ellipse 397" cx="3.039" cy="3.039" r="3.039" transform="translate(74.583 142.358)" fill="#de4756"/>
    <circle id="Ellipse_398" data-name="Ellipse 398" cx="3.039" cy="3.039" r="3.039" transform="translate(83.422 142.358)" fill="#de4756"/>
    <circle id="Ellipse_399" data-name="Ellipse 399" cx="3.039" cy="3.039" r="3.039" transform="translate(92.261 142.358)" fill="#de4756"/>
    <path id="Path_2189" data-name="Path 2189" d="M290.025,250.185c1.9,1.275,4.788.668,4.788.668s4.359-2.064,5.648-2.064a19.01,19.01,0,0,0,4.42-1.275l-.106-.86-.32-2.59c1.984,1.546,4.189,1.013,5.275.9,1.166-.121,7.4-3.825,8-4.068a1.585,1.585,0,0,0,.546-.551h0a14.03,14.03,0,0,0,1.055-1.927h0c.391-.343.675-.619.655-.679a4.292,4.292,0,0,1,.382-1.019,5,5,0,0,0,1.89-.681,1.714,1.714,0,0,0,.262-.265,1.68,1.68,0,0,0,.352-1.071s6.078-6.132,5.279-8.682,1.965-2.611,1.965-2.611,4.236-1.821,4.825-2.914c.363-.673,3.54-2.148,5.931-3.185l.294-.127c.93,2.034,5.64.469,6.568-.392.982-.911,3.868-1.336,3.868-1.336s.123-11.9,1.044-13.418c.437-.72.543-3.07.532-5.339q0-.121,0-.242c1.29-.252,4.357-.835,5.782-.976a5.536,5.536,0,0,0,2.566-1.2l.085.107a1.773,1.773,0,0,0,.785.129,1.215,1.215,0,0,0,.688-.129c.553-.3,2.578-.911,3.315-1.214s-.123-2.489-.675-2.914-.921-.971-.614-1.214-.737-.85-1.351-.971a19.982,19.982,0,0,1-2.456-.971s-.675-1.4-1.78-1.4a5.705,5.705,0,0,1-2.578-1.093c-.061-.486-1.228-.546-1.228-.546s-4.42-3.4-5.157-2.975-2.763-.668-2.763-.668-2.485.278-3.069-.179v0a.7.7,0,0,0-.147-.412,4.292,4.292,0,0,0-1.4-1.443,5.484,5.484,0,0,0,.071-.877c0-.128,0-.255-.013-.38,0-.021,0-.042-.006-.063l.087-.855a1.772,1.772,0,0,1,.215-.8c.1-.16.256-.286.371-.438a1.2,1.2,0,0,0,.075-.114l.018-.032q.025-.045.046-.092l.014-.031a1.384,1.384,0,0,0,.079-.259l0-.021q.012-.06.018-.122l0-.017a2.614,2.614,0,0,0-.138-1.043,7.018,7.018,0,0,1-.5-1.726,5.325,5.325,0,0,0-.031-.89A2.267,2.267,0,0,0,342,169.263a8.282,8.282,0,0,1-2.094-1.361c-.62-.481-1.642-.239-2.422-.189a21.15,21.15,0,0,0-5.214,1.205,5.183,5.183,0,0,0-1.822.9,2.007,2.007,0,0,0-.667,1.125h0a1.412,1.412,0,0,0-.02.307c0,.009,0,.018,0,.027q0,.059.013.118c0,.013,0,.026.006.038a1.258,1.258,0,0,0,.034.139v0c.071.224.2.427.278.649a1.416,1.416,0,0,1,.042.15l0,.016c.01.049.019.1.025.146h0a6.279,6.279,0,0,1-.226,1.691c-.013.08-.021.161-.028.242h0v0a2.9,2.9,0,0,0,.085.969l0,.011c.011.039.023.077.036.115.005.016.01.033.016.05.011.032.024.064.037.1s.017.043.026.063.026.056.04.084.023.047.036.069.028.05.043.074.029.048.045.071.03.045.046.066.036.047.054.07.032.04.049.059.042.046.064.068.034.035.051.051.051.044.077.066.034.029.052.042.063.044.1.065c.015.01.03.021.046.03a1.6,1.6,0,0,0,.155.081c.352.161.8.218,1.01.527a.692.692,0,0,1,.1.242c0,.021,0,.042,0,.063v.053c0,.18.012.357.031.532a2.034,2.034,0,0,0,.016.288.83.83,0,0,0,.06.209,5.508,5.508,0,0,0,1.862,3.127c.018.093.039.2.063.327a6.134,6.134,0,0,1-1.786.936,12.345,12.345,0,0,0-3.561,2.421s-1.038,7.468-1.285,8.379a40.472,40.472,0,0,0-.433,4.432,10.173,10.173,0,0,1-.614,2.186,6.354,6.354,0,0,0,.514,4.06,3.428,3.428,0,0,1-.453.736c-1.473,1.7-5.893,1.639-7.367,1.639a1.858,1.858,0,0,0-1.833.952c-2.7.766-11.434,3.26-12.47,3.713-1.228.537-1.9,5.838-1.9,5.838s-2.578,8.8-2.456,9.962a18.578,18.578,0,0,1-.859,4.367s0,3.632-.417,3.878a.033.033,0,0,1-.012.007c-.43.182-.368,1.943-.368,1.943s.316.091.809.216a14.107,14.107,0,0,1-.995,3.019c-.191-.242-.378-.343-.49-.061-.307.772-4.911,6.237-6.078,6.237a3.537,3.537,0,0,0-2.079,1.07C289.311,248.652,289.03,249.519,290.025,250.185Zm21.118-31.632a51.188,51.188,0,0,0,10.8-.37,12.412,12.412,0,0,1-.8,2.131,21.571,21.571,0,0,0-1.412,4.8c0,.729-1.658,6.982-2.149,7.286a1.818,1.818,0,0,0-.534.772,7.247,7.247,0,0,0-.325.928c.007.159.022.308.042.45-.367.337-.755.688-1.1,1h0a23.9,23.9,0,0,0-2.932,1.889c-.737.668-4.174,1.486-4.174,1.486a21.305,21.305,0,0,0-2.47,1.26,5.6,5.6,0,0,0-2.409,2.264c.12-1.357.317-2.991.448-4.031.067,0,.132,0,.2-.008,1.72-.107,1.464-1.749,1.373-2.155-.012-.058-.022-.091-.022-.091,1.228-1.336,3.99-11.293,3.622-12.386a1.959,1.959,0,0,1,.453-2.064,2.458,2.458,0,0,0,.038-1.882c-.307-.668,1.35-1.275,1.35-1.275Zm42.2-26.785c-.109.026-.217.052-.326.08l0-.071s.123,0,.33-.01ZM335.5,182.607c-.049.061-.1.12-.152.177l-.063.065c0-.114,0-.227,0-.337q.106.049.215.094Zm-6.15,11.779.023.342s-.034.208-.1.565Zm28.212-3.393-1.071.185c.152-.057.3-.12.446-.189a1.022,1.022,0,0,1,.341-.093,1.86,1.86,0,0,1,.4.086.834.834,0,0,0-.116.011Z" transform="translate(-217.175 -138.613)" fill="url(#linear-gradient-3)"/>
    <path id="Path_2190" data-name="Path 2190" d="M387.328,406.134a23.283,23.283,0,0,0-1.173,2.734,23.9,23.9,0,0,1-2.651,2.35l-2.952-2.109.3-1.446s3.314-2.986,3.555-3.331S387.328,406.134,387.328,406.134Z" transform="translate(-283.165 -309.92)" fill="#be6f72"/>
    <path id="Path_2191" data-name="Path 2191" d="M343.078,421.053c2.049,1.988,4.459,1.386,5.6,1.265s7.259-3.8,7.847-4.037a1.564,1.564,0,0,0,.536-.547h0a13.983,13.983,0,0,0,1.035-1.912c-.041.011-2.045.583-2.551,0,0,0-.844-1.034-1.024-1.034s-.014-1.815-.014-1.815a23.437,23.437,0,0,0-2.878,1.875c-.723.663-4.1,1.475-4.1,1.475a20.831,20.831,0,0,0-2.425,1.251C343.514,418.548,341.913,419.923,343.078,421.053Z" transform="translate(-255.755 -316.2)" fill="#3f3d56"/>
    <path id="Path_2192" data-name="Path 2192" d="M343.078,433.108c2.049,1.988,4.459,1.386,5.6,1.265s7.259-3.8,7.847-4.037a1.564,1.564,0,0,0,.536-.547c-.713-.425-5.371,2.535-6.675,3.078s-4.6.241-6.469-.542c-.933-.39.012-1.592,1.191-2.7C343.514,430.6,341.913,431.978,343.078,433.108Z" transform="translate(-255.755 -328.255)" opacity="0.1"/>
    <path id="Path_2193" data-name="Path 2193" d="M329.21,417.254s-.858,6.447-.64,7.291-5.385-2.892-5.385-2.892,1.961-4.04,1.386-4.968S329.21,417.254,329.21,417.254Z" transform="translate(-241.645 -318.668)" fill="#be6f72"/>
    <path id="Path_2194" data-name="Path 2194" d="M325.575,339.147a21.685,21.685,0,0,0,5.423.9c1.688-.106,1.436-1.735,1.347-2.139-.012-.058-.022-.09-.022-.09,1.205-1.326,3.916-11.207,3.555-12.292a1.958,1.958,0,0,1,.445-2.049,2.464,2.464,0,0,0,.037-1.868c-.3-.663,1.326-1.265,1.326-1.265a49.694,49.694,0,0,0,10.6-.368,12.4,12.4,0,0,1-.783,2.115,21.586,21.586,0,0,0-1.386,4.76c0,.723-1.627,6.929-2.109,7.23a1.8,1.8,0,0,0-.524.766,7.236,7.236,0,0,0-.319.921c.181,4.037,4.76,2.47,5.423,1.928a1.643,1.643,0,0,0,.6-1.326s5.965-6.086,5.182-8.616,1.928-2.591,1.928-2.591,4.157-1.808,4.736-2.892c.357-.668,3.474-2.132,5.822-3.161,1.47-.645,2.638-1.117,2.638-1.117l-.977-3.5-.77-2.762-1.45-.545-4.636-1.745-8.323-1.145-.763.1-8.086,1.046s-11.81,3.374-13.015,3.907-1.868,5.794-1.868,5.794-2.531,8.737-2.41,9.886a18.613,18.613,0,0,1-.844,4.333s0,3.6-.41,3.849a.032.032,0,0,1-.012.007C325.515,337.4,325.575,339.147,325.575,339.147Z" transform="translate(-243.373 -240.44)" fill="#3f3d56"/>
    <path id="Path_2195" data-name="Path 2195" d="M369.427,339.442a49.693,49.693,0,0,0,10.6-.368c.362-1.139,5.426-4.272,5.426-4.272C381.3,333.778,369.427,339.442,369.427,339.442Z" transform="translate(-275.114 -259.534)" opacity="0.1"/>
    <path id="Path_2196" data-name="Path 2196" d="M389.276,405.351c.181,4.037,4.76,2.47,5.423,1.928a1.693,1.693,0,0,0,.257-.263c-1.6.589-4.437,1.045-5.36-2.586A7.255,7.255,0,0,0,389.276,405.351Z" transform="translate(-289.48 -310.018)" fill="#444053"/>
    <path id="Path_2197" data-name="Path 2197" d="M325.575,414.907a21.686,21.686,0,0,0,5.423.9c1.688-.106,1.436-1.735,1.347-2.139a31.375,31.375,0,0,1-6.4-.7.032.032,0,0,1-.012.007C325.515,413.16,325.575,414.907,325.575,414.907Z" transform="translate(-243.373 -316.2)" fill="#444053"/>
    <path id="Path_2198" data-name="Path 2198" d="M389.276,405.351c.181,4.037,4.76,2.47,5.423,1.928a1.693,1.693,0,0,0,.257-.263c-1.6.589-4.437,1.045-5.36-2.586A7.255,7.255,0,0,0,389.276,405.351Z" transform="translate(-289.48 -310.018)" opacity="0.1"/>
    <path id="Path_2199" data-name="Path 2199" d="M325.575,414.907a21.686,21.686,0,0,0,5.423.9c1.688-.106,1.436-1.735,1.347-2.139a31.375,31.375,0,0,1-6.4-.7.032.032,0,0,1-.012.007C325.515,413.16,325.575,414.907,325.575,414.907Z" transform="translate(-243.373 -316.2)" opacity="0.1"/>
    <path id="Path_2200" data-name="Path 2200" d="M292.717,440.38c1.868,1.265,4.7.663,4.7.663s4.278-2.049,5.543-2.049a18.5,18.5,0,0,0,4.338-1.265l-.1-.853-.5-4.088s-4.693-.12-4.88-.542c0,0-.844-2.075-1.145-1.309s-4.82,6.189-5.965,6.189a3.457,3.457,0,0,0-2.04,1.062C292.016,438.858,291.74,439.718,292.717,440.38Z" transform="translate(-219.131 -329.08)" fill="#3f3d56"/>
    <path id="Path_2201" data-name="Path 2201" d="M353.067,336.654s3.916,2.47,2.832,3.013S353.067,336.654,353.067,336.654Z" transform="translate(-263.273 -260.964)" opacity="0.1"/>
    <path id="Path_2202" data-name="Path 2202" d="M347.178,353.886s3.374,3.2,2.109,3.289S347.178,353.886,347.178,353.886Z" transform="translate(-259.011 -273.436)" opacity="0.1"/>
    <path id="Path_2203" data-name="Path 2203" d="M334.09,390.75s1.713,3.22,1.067,3.779S334.09,390.75,334.09,390.75Z" transform="translate(-249.538 -300.117)" opacity="0.1"/>
    <path id="Path_2204" data-name="Path 2204" d="M402.258,396.99c-.6.6,5.724-1.988,4.278-2.109S402.258,396.99,402.258,396.99Z" transform="translate(-298.846 -303.103)" opacity="0.1"/>
    <path id="Path_2205" data-name="Path 2205" d="M448.17,217.5l.2-.03c.75-.114,3.466-.541,5.9-1.07.594-.129,1.17-.264,1.7-.4,1.867-.489,3.119-1.017,2.321-1.45a4.274,4.274,0,0,1-1.908-2.513c-.028-.088-.054-.174-.078-.258a6.622,6.622,0,0,1-.243-1.387s-6.809-2.41-5.483,0a2.284,2.284,0,0,1-.4,2.823,5.287,5.287,0,0,1-1.467,1.093Z" transform="translate(-332.106 -168.802)" fill="#be6f72"/>
    <path id="Path_2206" data-name="Path 2206" d="M435.6,232.172a4.793,4.793,0,0,1-4.923.3c-2.488-1.446-5.742,12.774-5.742,12.774l-3.374,8.315s-2.186,1.808.534,2.591,8.755-.783,10.286,1.506a6.7,6.7,0,0,0,4.73,2.651c.3,0,1.445-8.616,1.445-8.616l.3-12.472Z" transform="translate(-312.247 -185.343)" opacity="0.1"/>
    <path id="Path_2207" data-name="Path 2207" d="M422.534,254.408c2.72.783,8.755-.783,10.286,1.506A5.884,5.884,0,0,0,435.412,258a6.788,6.788,0,0,0,2.138.565c.04,0,.1-.158.163-.431.424-1.744,1.282-8.185,1.282-8.185l.3-12.472-2.863-6.2-.391-.847a5.189,5.189,0,0,1-1.241.6,4.369,4.369,0,0,1-3.683-.3c-.73-.424-1.526.5-2.286,2.018C427,236.4,425.374,243.5,425.374,243.5L422,251.817a2.923,2.923,0,0,0-.229.219C421.291,252.541,420.394,253.792,422.534,254.408Z" transform="translate(-312.563 -184.08)" fill="#f3f5f9"/>
    <path id="Path_2208" data-name="Path 2208" d="M470.665,245.989a15.685,15.685,0,0,0-.081,3.173,37.17,37.17,0,0,0,.567,4.482,1.713,1.713,0,0,0,.073.274c1.47-.645,2.638-1.117,2.638-1.117l-.977-3.5c.424-1.744,1.282-8.185,1.282-8.185l.3-12.472-2.863-6.2c1.867-.489,3.119-1.017,2.321-1.45a4.418,4.418,0,0,1-1.986-2.77,10.093,10.093,0,0,1-1.712,1.843l-.037.031-.217,2.1-.066.646-.139,1.341s.663,15.847,1.145,16.75.241,2.651-.181,4.7C470.7,245.746,470.684,245.865,470.665,245.989Z" transform="translate(-347.736 -175.242)" opacity="0.1"/>
    <path id="Path_2209" data-name="Path 2209" d="M471.6,235.444c-.422,2.049-.06,5.423.422,8.014s5.6.9,6.568,0,3.8-1.326,3.8-1.326.121-11.81,1.024-13.316c.429-.715.533-3.046.522-5.3-.008-2.023-.108-3.982-.146-4.646-.01-.154-.014-.239-.014-.239s3.916-6.628,3.856-7.11-1.205-.542-1.205-.542-4.338-3.374-5.061-2.952-2.711-.663-2.711-.663-2.52.286-3.04-.2a.265.265,0,0,1-.093-.222c.059-.771-2.568-2.419-2.649-2.469,2.214,1.992-1.367,5.061-1.773,5.4l-.037.031-.422,4.09s.663,15.847,1.145,16.75S472.023,233.395,471.6,235.444Z" transform="translate(-348.367 -165.297)" fill="#67647e"/>
    <circle id="Ellipse_400" data-name="Ellipse 400" cx="0.301" cy="0.301" r="0.301" transform="translate(123.166 52.632)" fill="#444053"/>
    <path id="Path_2210" data-name="Path 2210" d="M472.736,210.745l1.831,1.771,2.684-4.478a.265.265,0,0,1-.093-.222c.059-.771-2.568-2.419-2.649-2.469C476.722,207.339,473.142,210.408,472.736,210.745Z" transform="translate(-349.886 -165.928)" opacity="0.1"/>
    <circle id="Ellipse_401" data-name="Ellipse 401" cx="0.301" cy="0.301" r="0.301" transform="translate(123.769 62.272)" opacity="0.1"/>
    <circle id="Ellipse_402" data-name="Ellipse 402" cx="0.301" cy="0.301" r="0.301" transform="translate(123.769 62.152)" fill="#444053"/>
    <path id="Path_2211" data-name="Path 2211" d="M472.3,209.872l1.83,1.771,2.684-4.478a.265.265,0,0,1-.093-.222c.059-.771-2.568-2.419-2.649-2.469C476.285,206.466,472.705,209.536,472.3,209.872Z" transform="translate(-349.569 -165.296)" fill="#67647e"/>
    <rect id="Rectangle_439" data-name="Rectangle 439" width="4.193" height="8.86" rx="1.699" transform="matrix(-1, -0.023, 0.023, -1, 125.02, 61.543)" fill="#3f3d56"/>
    <rect id="Rectangle_440" data-name="Rectangle 440" width="4.193" height="8.86" rx="1.699" transform="matrix(-1, -0.023, 0.023, -1, 125.02, 61.543)" opacity="0.1"/>
    <rect id="Rectangle_441" data-name="Rectangle 441" width="4.193" height="8.86" rx="1.699" transform="matrix(-1, -0.023, 0.023, -1, 125.042, 61.74)" fill="#3f3d56"/>
    <circle id="Ellipse_403" data-name="Ellipse 403" cx="0.659" cy="0.659" r="0.659" transform="translate(122.501 54.765)" fill="#67647e"/>
    <path id="Path_2212" data-name="Path 2212" d="M391.676,245.242c1.506.663,11.388-1.085,12.834-1.506s3.555-3.675,2.531-6.025a5.491,5.491,0,0,1,.362-4.64s2.169-4.639,2.651-5.543,1.487-3.536,1.627-3.977a.358.358,0,0,0-.086-.276,10.513,10.513,0,0,0-1.9-1.652c-.425.154-.478-1.064-.462-1.959.01-.5.04-.9.04-.9s-.2.2-.527.481c-.119.1-.255.211-.406.325a6.239,6.239,0,0,1-1.9,1.038,12.118,12.118,0,0,0-3.495,2.4l.6,9.254s-1.386,8.7-2.832,10.389-5.784,1.627-7.23,1.627A1.8,1.8,0,0,0,391.676,245.242Z" transform="translate(-291.217 -175.637)" opacity="0.1"/>
    <path id="Path_2213" data-name="Path 2213" d="M391.239,243.933c1.506.663,11.388-1.085,12.834-1.506s3.555-3.675,2.531-6.025a5.491,5.491,0,0,1,.362-4.64s2.169-4.639,2.651-5.543,1.487-3.536,1.627-3.977a.358.358,0,0,0-.086-.276,10.514,10.514,0,0,0-1.9-1.652c-.425.154-.478-1.064-.462-1.959.01-.5.04-.9.04-.9s-.2.2-.527.481c-.119.1-.255.211-.406.325A6.239,6.239,0,0,1,406,219.3a12.118,12.118,0,0,0-3.495,2.4l.6,9.254s-1.386,8.7-2.832,10.389-5.784,1.627-7.23,1.627A1.8,1.8,0,0,0,391.239,243.933Z" transform="translate(-290.901 -174.69)" fill="#67647e"/>
    <path id="Path_2214" data-name="Path 2214" d="M450.57,218.325s.057.318.152.806c.324,1.655,1.1,5.267,1.656,5.128a5.035,5.035,0,0,0,1.6-1.421,10.513,10.513,0,0,0-1.9-1.652c-.425.154-.478-1.064-.462-1.959l-.487-.421Z" transform="translate(-333.843 -175.321)" opacity="0.1"/>
    <path id="Path_2215" data-name="Path 2215" d="M451.006,217.453s.057.318.152.806c.324,1.655,1.1,5.267,1.656,5.128a5.035,5.035,0,0,0,1.6-1.421,10.515,10.515,0,0,0-1.9-1.652c-.425.154-.478-1.064-.462-1.959l-.487-.421Z" transform="translate(-334.158 -174.69)" fill="#67647e"/>
    <path id="Path_2216" data-name="Path 2216" d="M430.108,272.143s3.013-.6,3.856-1.928,6.582-2.47,5.882-1.085-5.882,5.92-5.882,5.92l-2.245,3.215-3-.76-1.262-2.455Z" transform="translate(-317.117 -211.636)" fill="#be6f72"/>
    <path id="Path_2217" data-name="Path 2217" d="M453.961,294.131s-2.917,1.085-3.357,2.531S453.961,294.131,453.961,294.131Z" transform="translate(-333.842 -230.187)" opacity="0.1"/>
    <path id="Path_2218" data-name="Path 2218" d="M460.44,300.227s.266,1.505-3.392,1.385Z" transform="translate(-338.531 -234.599)" opacity="0.1"/>
    <path id="Path_2219" data-name="Path 2219" d="M515.269,230.111l1.326-.121a5.571,5.571,0,0,0,2.531,1.085c1.085,0,1.747,1.386,1.747,1.386a19.488,19.488,0,0,0,2.41.964c.6.121,1.627.723,1.326.964s.06.783.6,1.205,1.386,2.591.663,2.892-2.711.9-3.254,1.205a1.494,1.494,0,0,1-1.205,0s-3.192-4.158-4.819-3.374a10.441,10.441,0,0,1-3.857.783l-1.747-3.675Z" transform="translate(-377.573 -183.764)" opacity="0.1"/>
    <path id="Path_2220" data-name="Path 2220" d="M424.023,251.989a1.611,1.611,0,0,0,1.123.781,8.515,8.515,0,0,0,3.509-.324s-6.07-1.928-.225-6.617h-1.567l-.522-.2.239-1.249.343-11.255-1.265-.3s-1.018,7.411-1.262,8.315a40.6,40.6,0,0,0-.425,4.4,10.184,10.184,0,0,1-.6,2.169A6.269,6.269,0,0,0,424.023,251.989Z" transform="translate(-314.052 -185.817)" fill="#67647e"/>
    <path id="Path_2221" data-name="Path 2221" d="M426.981,285.54a1.611,1.611,0,0,0,1.123.781,8.514,8.514,0,0,0,3.509-.324s-6.07-1.928-.225-6.617h-1.567l-.522-.2C428.442,280.7,427.091,283.406,426.981,285.54Z" transform="translate(-316.77 -219.368)" opacity="0.1"/>
    <path id="Path_2222" data-name="Path 2222" d="M426.109,285.54a1.611,1.611,0,0,0,1.123.781,8.514,8.514,0,0,0,3.509-.324s-6.07-1.928-.225-6.617h-1.567l-.522-.2C427.569,280.7,426.219,283.406,426.109,285.54Z" transform="translate(-316.139 -219.368)" fill="none"/>
    <path id="Path_2223" data-name="Path 2223" d="M426.109,285.54a1.611,1.611,0,0,0,1.123.781,8.514,8.514,0,0,0,3.509-.324s-6.07-1.928-.225-6.617h-1.567l-.522-.2C427.569,280.7,426.219,283.406,426.109,285.54Z" transform="translate(-316.139 -219.368)" fill="#67647e"/>
    <path id="Path_2224" data-name="Path 2224" d="M455.442,213.211a5.483,5.483,0,0,0,6.206-1.179c-.028-.088-.054-.174-.078-.258a6.624,6.624,0,0,1-.243-1.387s-6.809-2.41-5.483,0A2.284,2.284,0,0,1,455.442,213.211Z" transform="translate(-337.369 -168.801)" opacity="0.1"/>
    <path id="Path_2225" data-name="Path 2225" d="M443.808,190.1v.053c0,.178.012.354.03.528s.043.331.075.493a5.485,5.485,0,0,0,10.565.709c.036-.106.07-.213.1-.322a5.458,5.458,0,0,0,.2-1.461c0-.127,0-.253-.013-.377a5.483,5.483,0,0,0-10.953.377Z" transform="translate(-328.949 -150.927)" fill="#be6f72"/>
    <path id="Path_2226" data-name="Path 2226" d="M443.808,190.157a2.376,2.376,0,0,1,.03.528,2.049,2.049,0,0,0,.016.286.83.83,0,0,0,.059.207,1.025,1.025,0,0,0,1.422.522,1.544,1.544,0,0,0,.428-.56c.506-.941,1.211-2.025,2.32-2.043a5.277,5.277,0,0,1,1.374.307,1.472,1.472,0,0,0,1.34-.181c.262-.239.386-.647.738-.731s.675.239.836.554.289.687.616.85c.145.072.315.093.457.17.656.359.354,1.617,1.035,1.821a.511.511,0,0,0,.065.016c.011-.112.023-.225.034-.337l.184-1.838a5.483,5.483,0,0,0-10.953.377Z" transform="translate(-328.949 -150.927)" opacity="0.1"/>
    <path id="Path_2227" data-name="Path 2227" d="M447.587,170.535a2.235,2.235,0,0,1,1.46,1.351,5.34,5.34,0,0,1,.031.883,7.018,7.018,0,0,0,.494,1.713,1.9,1.9,0,0,1-.117,1.716c-.113.151-.263.277-.365.435a1.773,1.773,0,0,0-.211.8l-.3,2.966c-.765-.142-.424-1.468-1.1-1.837-.142-.078-.311-.1-.456-.171-.326-.163-.454-.534-.616-.85s-.48-.639-.837-.554-.475.493-.737.732a1.471,1.471,0,0,1-1.341.18,5.309,5.309,0,0,0-1.373-.307c-1.109.019-1.814,1.1-2.32,2.043a1.533,1.533,0,0,1-.428.561,1.03,1.03,0,0,1-1.481-.73c-.052-.354.059-.749-.145-1.048s-.645-.364-.991-.523a2.222,2.222,0,0,1-1.007-2.427,4.212,4.212,0,0,0,.154-1.988c-.075-.22-.2-.422-.273-.644a1.74,1.74,0,0,1,.619-1.745,5.066,5.066,0,0,1,1.788-.9,20.568,20.568,0,0,1,5.118-1.2c.766-.05,1.769-.289,2.377.188A8.117,8.117,0,0,0,447.587,170.535Z" transform="translate(-322.988 -139.543)" fill="#3f3d56"/>
    <circle id="Ellipse_404" data-name="Ellipse 404" cx="0.301" cy="0.301" r="0.301" transform="translate(122.865 47.872)" opacity="0.1"/>
    <circle id="Ellipse_405" data-name="Ellipse 405" cx="0.301" cy="0.301" r="0.301" transform="translate(122.865 47.751)" fill="#444053"/>
    <circle id="Ellipse_406" data-name="Ellipse 406" cx="0.301" cy="0.301" r="0.301" transform="translate(124.793 66.791)" opacity="0.1"/>
    <circle id="Ellipse_407" data-name="Ellipse 407" cx="0.301" cy="0.301" r="0.301" transform="translate(124.793 66.671)" fill="#444053"/>
    <circle id="Ellipse_408" data-name="Ellipse 408" cx="0.301" cy="0.301" r="0.301" transform="translate(123.769 71.792)" opacity="0.1"/>
    <circle id="Ellipse_409" data-name="Ellipse 409" cx="0.301" cy="0.301" r="0.301" transform="translate(123.769 71.672)" fill="#444053"/>
    <path id="Path_2228" data-name="Path 2228" d="M438.891,254.27s-.663,4.5,0,5.284S438.891,254.27,438.891,254.27Z" transform="translate(-325.177 -201.337)" opacity="0.1"/>
    <path id="Path_2229" data-name="Path 2229" d="M506.426,284.522a6.807,6.807,0,0,1,0,5.34c-1.265,2.614-2.049,3.675-1.627,5.344S506.426,284.522,506.426,284.522Z" transform="translate(-373.009 -223.232)" opacity="0.1"/>
    <path id="Path_2230" data-name="Path 2230" d="M292.717,456.385c1.868,1.265,4.7.663,4.7.663S301.695,455,302.96,455a18.5,18.5,0,0,0,4.338-1.265l-.1-.853a26.01,26.01,0,0,0-4.415,1.094c-.422.361-5.6,2.109-5.6,2.109s-3.528-.441-4.511-1.891C292.016,454.863,291.74,455.724,292.717,456.385Z" transform="translate(-219.131 -345.085)" opacity="0.1"/>
    <g id="Group_118" data-name="Group 118" transform="translate(112.585 32.548)" opacity="0.1">
      <path id="Path_2231" data-name="Path 2231" d="M484.456,180.668c0-.065,0-.131,0-.2.005.075.006.15.005.226C484.459,180.688,484.457,180.678,484.456,180.668Z" transform="translate(-470.951 -180.472)"/>
      <path id="Path_2232" data-name="Path 2232" d="M437.124,193.623c.346.159.782.216.991.523s.094.694.145,1.048a1.03,1.03,0,0,0,1.481.73,1.533,1.533,0,0,0,.428-.561c.506-.941,1.211-2.024,2.32-2.043a5.309,5.309,0,0,1,1.373.307,1.471,1.471,0,0,0,1.341-.18c.262-.238.386-.648.737-.732s.675.238.837.554.29.687.616.85c.145.072.314.093.456.171.676.369.336,1.694,1.1,1.837l.3-2.966a1.774,1.774,0,0,1,.211-.8c.1-.159.251-.284.365-.435a1.327,1.327,0,0,0,.247-.638,1.541,1.541,0,0,1-.247,1.12c-.113.151-.263.277-.365.435a1.774,1.774,0,0,0-.211.8l-.3,2.966c-.765-.142-.424-1.468-1.1-1.837-.142-.078-.311-.1-.456-.171-.326-.163-.454-.534-.616-.85s-.48-.639-.837-.554-.475.493-.737.732a1.471,1.471,0,0,1-1.341.18,5.309,5.309,0,0,0-1.373-.307c-1.109.019-1.814,1.1-2.32,2.043a1.533,1.533,0,0,1-.428.561,1.03,1.03,0,0,1-1.481-.73c-.052-.354.059-.749-.145-1.048s-.645-.364-.991-.523a2.138,2.138,0,0,1-1.034-2.187A1.966,1.966,0,0,0,437.124,193.623Z" transform="translate(-435.941 -188.301)"/>
      <path id="Path_2233" data-name="Path 2233" d="M435.63,181.036c.069.222.2.423.273.644a1.853,1.853,0,0,1,.068.792,1.541,1.541,0,0,0-.068-.31c-.075-.22-.2-.422-.273-.644a1.333,1.333,0,0,1-.035-.629A1.259,1.259,0,0,0,435.63,181.036Z" transform="translate(-435.573 -180.774)"/>
    </g>
    <path id="Path_2234" data-name="Path 2234" d="M480.337,262.619c1.386-.3,4.639-1.263,4.639-1.263l.582-.117c-.008-2.023-.108-3.982-.146-4.646l-.014,0a22.419,22.419,0,0,0-3.434,1.386,6.221,6.221,0,0,1-2.711.362,9.287,9.287,0,0,0-5.845,3.133C470.756,264.429,478.951,262.922,480.337,262.619Z" transform="translate(-349.992 -203.019)" opacity="0.1"/>
    <path id="Path_2235" data-name="Path 2235" d="M493.879,254.543a.8.8,0,0,1,.181,1.351,5.886,5.886,0,0,1-2.829,1.438c-1.707.172-5.815,1-6.223,1.078-.022,0-.043.01-.065.016-.339.1-3.3.967-4.608,1.254-1.386.3-9.58,1.81-6.929-1.142a9.371,9.371,0,0,1,5.786-3.128.751.751,0,0,1,.106,0,5.911,5.911,0,0,0,2.664-.364,5.688,5.688,0,0,1,1-.5,19.149,19.149,0,0,1,4.073-1.175l2.834-.494a.815.815,0,0,1,.477.061Z" transform="translate(-349.992 -200.32)" fill="#be6f72"/>
    <path id="Path_2236" data-name="Path 2236" d="M516.141,230.111l1.326-.121A5.571,5.571,0,0,0,520,231.075c1.085,0,1.747,1.386,1.747,1.386a19.486,19.486,0,0,0,2.41.964c.6.121,1.627.723,1.326.964s.06.783.6,1.205,1.386,2.591.663,2.892-2.711.9-3.254,1.205a1.494,1.494,0,0,1-1.205,0s-3.192-4.158-4.82-3.374a10.443,10.443,0,0,1-3.857.783l-1.747-3.675Z" transform="translate(-378.204 -183.764)" fill="#67647e"/>
  </g>
</svg>
