<svg xmlns="http://www.w3.org/2000/svg" width="682" height="551.639" viewBox="0 0 682 551.639">
  <g id="space-home" transform="translate(-1090 -234.549)">
    <circle id="Ellipse_71" data-name="Ellipse 71" cx="61.851" cy="61.851" r="61.851" transform="translate(1203.366 339.836)" fill="#ff6584"/>
    <path id="Path_523" data-name="Path 523" d="M819,276.46V439.138c0,132.611-107.5,240.107-240.106,240.1H137V516.56A240.321,240.321,0,0,1,289.868,292.8a235.759,235.759,0,0,1,23.391-7.755c.155-.052.317-.1.471-.133q3.513-.961,7.07-1.812c.133-.037.258-.066.39-.1a240.183,240.183,0,0,1,44.536-6.282c1.775-.081,3.55-.147,5.34-.184.641-.022,1.289-.037,1.944-.037q2.033-.044,4.088-.044Z" transform="translate(953 106.096)" fill="#3f3d56"/>
    <path id="Path_524" data-name="Path 524" d="M455.171,681C279.82,681,137.606,728.284,137.01,786.688H773.333C772.736,728.284,630.522,681,455.171,681Z" transform="translate(952.997 -0.5)" fill="#f2f2f2"/>
    <g id="Group_28" data-name="Group 28" transform="translate(1290.328 727.84)" opacity="0.1">
      <ellipse id="Ellipse_72" data-name="Ellipse 72" cx="58.92" cy="16.367" rx="58.92" ry="16.367"/>
    </g>
    <g id="Group_29" data-name="Group 29" transform="translate(1417.743 698.38)" opacity="0.1">
      <ellipse id="Ellipse_73" data-name="Ellipse 73" cx="58.92" cy="16.367" rx="58.92" ry="16.367"/>
    </g>
    <g id="Group_30" data-name="Group 30" transform="translate(1296.22 729.477)" opacity="0.1">
      <ellipse id="Ellipse_74" data-name="Ellipse 74" cx="53.028" cy="14.73" rx="53.028" ry="14.73"/>
    </g>
    <g id="Group_31" data-name="Group 31" transform="translate(1423.635 700.017)" opacity="0.1">
      <ellipse id="Ellipse_75" data-name="Ellipse 75" cx="53.028" cy="14.73" rx="53.028" ry="14.73"/>
    </g>
    <circle id="Ellipse_76" data-name="Ellipse 76" cx="5.156" cy="5.156" r="5.156" transform="translate(1186.482 442.978)" fill="#f2f2f2"/>
    <circle id="Ellipse_77" data-name="Ellipse 77" cx="5.156" cy="5.156" r="5.156" transform="translate(1629.855 644.78)" fill="#f2f2f2"/>
    <circle id="Ellipse_78" data-name="Ellipse 78" cx="5.156" cy="5.156" r="5.156" transform="translate(1386.81 479.067)" fill="#f2f2f2"/>
    <circle id="Ellipse_79" data-name="Ellipse 79" cx="2.946" cy="2.946" r="2.946" transform="translate(1644.585 450.343)" fill="#ff6584"/>
    <circle id="Ellipse_80" data-name="Ellipse 80" cx="2.946" cy="2.946" r="2.946" transform="translate(1200.475 597.643)" fill="#ff6584"/>
    <path id="Path_525" data-name="Path 525" d="M92.946,580.842H91.6V579.5h-.262v1.342H90v.262h1.342v1.342H91.6V581.1h1.342Z" transform="translate(1066.285 81.851)" fill="#f2f2f2"/>
    <path id="Path_527" data-name="Path 527" d="M828.946,402.842H827.6V401.5h-.262v1.342H826v.262h1.342v1.342h.262V403.1h1.342Z" transform="translate(872.35 128.754)" fill="#f2f2f2"/>
    <path id="Path_528" data-name="Path 528" d="M503.946,482.842H502.6V481.5h-.262v1.342H501v.262h1.342v1.342h.262V483.1h1.342Z" transform="translate(957.987 107.674)" fill="#f2f2f2"/>
    <path id="Path_529" data-name="Path 529" d="M784.946,492.842H783.6V491.5h-.262v1.342H782v.262h1.342v1.342h.262V493.1h1.342Z" transform="translate(883.944 105.039)" fill="#f2f2f2"/>
    <path id="Path_530" data-name="Path 530" d="M445.946,535.842H444.6V534.5h-.262v1.342H443v.262h1.342v1.342h.262V536.1h1.342Z" transform="translate(973.27 93.708)" fill="#f2f2f2"/>
    <path id="Path_531" data-name="Path 531" d="M573.946,537.842H572.6V536.5h-.262v1.342H571v.262h1.342v1.342h.262V538.1h1.342Z" transform="translate(939.542 93.181)" fill="#f2f2f2"/>
    <path id="Path_532" data-name="Path 532" d="M94.946,367.842H93.6V366.5h-.262v1.342H92v.262h1.342v1.342H93.6V368.1h1.342Z" transform="translate(1065.758 137.976)" fill="#f2f2f2"/>
    <path id="Path_542" data-name="Path 542" d="M479.946,351.842H478.6V350.5h-.262v1.342H477v.262h1.342v1.342h.262V352.1h1.342Z" transform="translate(964.311 142.192)" fill="#f2f2f2"/>
    <g id="Group_129" data-name="Group 129">
      <path id="Path_526" data-name="Path 526" d="M677.946,432.842H676.6V431.5h-.262v1.342H675v.262h1.342v1.342h.262V433.1h1.342Z" transform="translate(912.138 120.849)" fill="#f2f2f2"/>
      <rect id="Rectangle_102" data-name="Rectangle 102" width="2.117" height="42.764" transform="translate(1588.609 404.451)" fill="#e6e6e6"/>
      <g id="Group_127" data-name="Group 127">
        <path id="Path_533" data-name="Path 533" d="M604.78,385.046,585.3,429.927l3.811,6.351-1.27,2.117,8.892,4.658v-2.54l3.387-.847,14.4-26.251Z" transform="translate(935.773 133.089)" fill="#e6e6e6"/>
        <path id="Path_534" data-name="Path 534" d="M725.932,532.407s-14.4,22.44,1.694,25.828,2.964-23.711,2.964-23.711Z" transform="translate(799.378 38.654)" fill="#e6e6e6"/>
      </g>
      <path id="Path_535" data-name="Path 535" d="M752.283,516.553,747.2,533.066l-2.117,21.17-3.811,7.621,4.234,34.3,6.775,6.774,2.964,33.872v15.243l8.045,13.972-10.36,14.7a4.685,4.685,0,0,0,3.675,7.388c2.287.06,5.3-.586,9.225-2.615,12.279-6.351,11.855-12.279,11.855-12.279s7.621,0,8.045-5.927-4.657-48.268-4.657-48.268l-4.657-18.206V551.272h1.694l.847,42.341,3.811,15.666.423,6.774,5.5,67.745s24.557,6.775,25.828,1.27-9.315-8.891-9.315-8.891l6.351-12.279V640.187l-2.117-5.081-3.811-34.3,6.351-6.775,3.387-4.234V555.93L811.136,542.8l-1.27-11.008-6.775-16.936S772.183,504.7,752.283,516.553Z" transform="translate(793.774 44.346)" fill="#fff"/>
      <path id="Path_536" data-name="Path 536" d="M807.931,377.171a32.179,32.179,0,1,1-58.006-19.193l.008-.008a32.176,32.176,0,0,1,58,19.2Z" transform="translate(793.169 88.039)" fill="#cf2e3b"/>
      <g id="Group_32" data-name="Group 32" transform="translate(1542.255 434.725)" opacity="0.1">
        <path id="Path_537" data-name="Path 537" d="M805.33,364.437l-2.625,15.035c-19.727-51.206-51.1-19.752-51.647-19.2a32.178,32.178,0,0,1,54.272,4.166Z" transform="translate(-751.058 -347.294)"/>
      </g>
      <path id="Path_538" data-name="Path 538" d="M806.48,362.138l-2.625,15.035c-19.727-51.206-51.1-19.752-51.647-19.2a32.179,32.179,0,0,1,54.272,4.166Z" transform="translate(790.893 88.037)" fill="#fff"/>
      <path id="Path_539" data-name="Path 539" d="M800.1,359.6l4.411,15.312s-9.157,27.444-51.618,28.4l-1.392,3.921-4.657,1.27-2.117,8.891,5.928,56.313s-2.541,5.5,1.693,5.081c0,0,27.945-9.315,52.079-.847,0,0,5.081,2.117,3.811-2.54,0,0,16.936-10.585,15.666-21.594s1.27-62.24,1.27-62.24,2.54-14.819-5.081-18.206C820.089,373.356,808.9,357.689,800.1,359.6Z" transform="translate(792.865 84.232)" fill="#fff"/>
      <path id="Path_540" data-name="Path 540" d="M799.981,504.918s-26.528,2.664-19.185,17.375,20.42-12.41,20.42-12.41Z" transform="translate(783.699 45.897)" fill="#e6e6e6"/>
      <path id="Path_541" data-name="Path 541" d="M819.571,415.367s-4.657,5.5-2.964,14.4,8.045,28.791,8.045,28.791L802.212,479.3l6.774,9.314,30.485-15.666,6.774-4.234h0A175.658,175.658,0,0,0,833.805,418.9l-1.108-2.685S824.653,412.827,819.571,415.367Z" transform="translate(777.717 69.743)" fill="#e6e6e6"/>
      <circle id="Ellipse_81" data-name="Ellipse 81" cx="7.833" cy="7.833" r="7.833" transform="translate(1587.339 454.413)" fill="#e6e6e6"/>
      <circle id="Ellipse_82" data-name="Ellipse 82" cx="5.716" cy="5.716" r="5.716" transform="translate(1583.951 398.524)" fill="#e6e6e6"/>
      <path id="Path_543" data-name="Path 543" d="M643.946,295.842H642.6V294.5h-.262v1.342H641v.262h1.342v1.342h.262V296.1h1.342Z" transform="translate(921.097 156.948)" fill="#f2f2f2"/>
      <path id="Path_544" data-name="Path 544" d="M625.946,312.842H624.6V311.5h-.262v1.342H623v.262h1.342v1.342h.262V313.1h1.342Z" transform="translate(925.84 152.468)" fill="#f2f2f2"/>
    </g>
    <circle id="Ellipse_83" data-name="Ellipse 83" cx="2.946" cy="2.946" r="2.946" transform="translate(1496.549 428.248)" fill="#f2f2f2"/>
    <g id="Group_128" data-name="Group 128">
      <path id="Path_545" data-name="Path 545" d="M454.663,292.911c0,205.516-25.843,205.516-57.712,205.516-16.476,0-31.341,0-41.852-28.389-3.022-8.159-5.692-18.679-7.93-32.222-5.04-30.442-7.93-76.189-7.93-144.905a394.921,394.921,0,0,1,7.93-76.523c2.309-11.648,5-22.891,7.93-33.614,3.577-13.128,7.5-25.473,11.454-36.768,2.652-7.6,5.331-14.723,7.93-21.3,12.009-30.38,22.468-49.2,22.468-49.2S454.663,179.408,454.663,292.911Z" transform="translate(899.71 159.048)" fill="#f2f2f2"/>
      <path id="Path_546" data-name="Path 546" d="M384.255,142.3V500.611h-7.93v-337C378.977,156.013,381.656,148.885,384.255,142.3Z" transform="translate(889.938 141.446)" fill="#e1e1e1"/>
      <circle id="Ellipse_84" data-name="Ellipse 84" cx="31.72" cy="31.72" r="31.72" transform="translate(1263.179 344.686)" fill="#3f3d56"/>
      <path id="Path_547" data-name="Path 547" d="M459.517,615.223c-7.053-17.36-16.108-20.356-22.027-20.1v-2.813H344.974v2.813c-5.919-.261-14.975,2.735-22.027,20.1-11.455,28.2,7.048,76.656,7.048,76.656s-9.888-67.586,22.948-68.031a38.855,38.855,0,0,0,10.3,9.346v18.178h53.028V634.849a38.815,38.815,0,0,0,13.247-11c32.836.445,22.948,68.031,22.948,68.031S470.971,643.419,459.517,615.223Z" transform="translate(904.989 22.868)" fill="#cf2e3b"/>
      <circle id="Ellipse_85" data-name="Ellipse 85" cx="24.671" cy="24.671" r="24.671" transform="translate(1270.228 351.734)" fill="#cf2e3b"/>
    </g>
    <path id="Path_548" data-name="Path 548" d="M982.483,276.46H981.01a60.455,60.455,0,0,0,60.386,60.054v-1.473A58.978,58.978,0,0,1,982.483,276.46Z" transform="translate(730.604 106.096)" fill="#cf2e3b"/>
    <path id="Path_549" data-name="Path 549" d="M945.483,276.46H944.01a87.728,87.728,0,0,0,87.636,87.3v-1.473A86.26,86.26,0,0,1,945.483,276.46Z" transform="translate(740.354 106.096)" fill="#cf2e3b"/>
    <path id="Path_550" data-name="Path 550" d="M907.473,276.46H906a115.762,115.762,0,0,0,115.631,115.292v-1.473A114.284,114.284,0,0,1,907.473,276.46Z" transform="translate(750.369 106.096)" fill="#cf2e3b"/>
  </g>
</svg>
