<svg id="work-home" xmlns="http://www.w3.org/2000/svg" xmlns:xlink="http://www.w3.org/1999/xlink" width="329.764" height="248.736" viewBox="0 0 329.764 248.736">
  <defs>
    <linearGradient id="linear-gradient" x1="0.877" y1="1" x2="0.877" gradientUnits="objectBoundingBox">
      <stop offset="0" stop-color="gray" stop-opacity="0.251"/>
      <stop offset="0.54" stop-color="gray" stop-opacity="0.122"/>
      <stop offset="1" stop-color="gray" stop-opacity="0.102"/>
    </linearGradient>
    <linearGradient id="linear-gradient-2" x1="0.5" y1="1" x2="0.5" y2="0" xlink:href="#linear-gradient"/>
  </defs>
  <path id="Path_163" data-name="Path 163" d="M264.165,77.56c-14.15,12.011-32.5,11.234-48.587,4.984S184.721,65.169,169.05,57.26a130.63,130.63,0,0,0-40.877-12.92c-19.972-2.772-42.275.612-56.19,20.021-15.5,21.624-14.306,60.626,2.448,80.463,8.527,10.1,19.69,15.052,29.426,22.946s18.751,20.975,17.922,36.193c-.768,14.073-9.692,24.895-18.929,31.677-7.138,5.241-15.927,10.965-16.787,21.823-.832,10.5,6.559,18.736,13.618,23.417,23.025,15.27,51.4,15.123,74.344-.385,8.181-5.534,15.695-12.9,24.277-17.2,22.533-11.32,47.363.073,71.224,4.243a118.517,118.517,0,0,0,60.577-5.348c11.815-4.231,23.677-10.708,31.977-22.75,5.987-8.689,9.717-19.687,13.217-30.548q5.6-17.368,10.766-34.988c2.065-7.052,4.1-14.239,4.635-21.78.967-13.67-3.108-27.183-8.658-38.717-13.177-27.391-35.37-46.65-59.4-51.542s-49.462,4.663-68.1,25.571" transform="translate(-61.076 -43.494)" fill="#fe2d43" opacity="0.1"/>
  <ellipse id="Ellipse_28" data-name="Ellipse 28" cx="69.443" cy="3.17" rx="69.443" ry="3.17" transform="translate(80.33 159.753)" fill="#fe2d43" opacity="0.1"/>
  <path id="Path_164" data-name="Path 164" d="M400.177,247.594a62.957,62.957,0,1,1,62.948-62.957A63.027,63.027,0,0,1,400.177,247.594Zm0-125.3a62.345,62.345,0,1,0,62.345,62.345,62.416,62.416,0,0,0-62.345-62.345Z" transform="translate(-252.736 -97.76)" fill="#fff"/>
  <path id="Path_165" data-name="Path 165" d="M432.222,265.517a48.829,48.829,0,1,1,48.828-48.829A48.888,48.888,0,0,1,432.222,265.517Zm0-97.045a48.217,48.217,0,1,0,48.217,48.217A48.272,48.272,0,0,0,432.222,168.472Z" transform="translate(-284.78 -129.811)" fill="#fff"/>
  <path id="Path_166" data-name="Path 166" d="M466.654,284.767a33.654,33.654,0,1,1,33.654-33.654A33.654,33.654,0,0,1,466.654,284.767Zm0-66.7A33.042,33.042,0,1,0,499.7,251.114,33.042,33.042,0,0,0,466.654,218.072Z" transform="translate(-319.212 -164.236)" fill="#fff"/>
  <ellipse id="Ellipse_29" data-name="Ellipse 29" cx="4.366" cy="1.444" rx="4.366" ry="1.444" transform="translate(295.451 121.899)" fill="#fe2d43" opacity="0.1"/>
  <ellipse id="Ellipse_30" data-name="Ellipse 30" cx="25.711" cy="4.219" rx="25.711" ry="4.219" transform="translate(28.91 195.2)" fill="#fe2d43" opacity="0.1"/>
  <g id="Group_3" data-name="Group 3" transform="translate(17.153 82.518)" opacity="0.1">
    <path id="Path_167" data-name="Path 167" d="M199.68,313.21H121.24a4.112,4.112,0,0,0-4.1,4.1v49.563a4.112,4.112,0,0,0,4.1,4.1h61.534s1.594,8.462-3.644,9.374c0,0,11.73.841,9.68-9.374h10.87a4.112,4.112,0,0,0,4.1-4.1V317.31A4.112,4.112,0,0,0,199.68,313.21Z" transform="translate(-117.14 -313.21)"/>
    <g id="Group_2" data-name="Group 2" transform="translate(11.546 13.156)" opacity="0.2">
      <rect id="Rectangle_71" data-name="Rectangle 71" width="63.544" height="3.873" rx="1.937"/>
      <rect id="Rectangle_72" data-name="Rectangle 72" width="63.544" height="3.873" rx="1.937" transform="translate(0 17.31)"/>
      <rect id="Rectangle_73" data-name="Rectangle 73" width="53.289" height="3.873" rx="1.937" transform="translate(0 25.962)"/>
      <rect id="Rectangle_74" data-name="Rectangle 74" width="27.553" height="3.873" rx="1.937" transform="translate(0 8.655)"/>
    </g>
  </g>
  <path id="Path_168" data-name="Path 168" d="M201.913,312.09H123.47a4.112,4.112,0,0,0-4.1,4.1v49.563a4.112,4.112,0,0,0,4.1,4.1H185s1.6,8.462-3.644,9.371c0,0,11.73.841,9.68-9.371h10.873a4.109,4.109,0,0,0,4.1-4.1V316.19A4.109,4.109,0,0,0,201.913,312.09Z" transform="translate(-101.535 -229.915)" fill="#fff"/>
  <g id="Group_4" data-name="Group 4" transform="translate(29.384 95.331)" opacity="0.2">
    <rect id="Rectangle_75" data-name="Rectangle 75" width="63.544" height="3.873" rx="1.937" fill="#fe2d43"/>
    <rect id="Rectangle_76" data-name="Rectangle 76" width="63.544" height="3.873" rx="1.937" transform="translate(0 17.31)" fill="#fe2d43"/>
    <rect id="Rectangle_77" data-name="Rectangle 77" width="53.289" height="3.873" rx="1.937" transform="translate(0 25.965)" fill="#fe2d43"/>
    <rect id="Rectangle_78" data-name="Rectangle 78" width="27.553" height="3.873" rx="1.937" transform="translate(0 8.655)" fill="#fe2d43"/>
  </g>
  <path id="Path_169" data-name="Path 169" d="M258.326,298.005l-4.347,9.246a7.919,7.919,0,0,1-1.056,2.056c-.413.321-2.24,5.813-2.24,5.813l-4.66,7.2h0l-.306.489-1.836-.5-1.282-4.794.08-1.392v-.174A28.718,28.718,0,0,1,246.2,312.7s.5.058,1.465-2.279,1.836-2.845,1.836-2.845l.5-1.695,5.4-8.6s4.528-6.5,5.761-3.613S258.326,298.005,258.326,298.005Z" transform="translate(-187.064 -216.617)" fill="#ffd2c6"/>
  <path id="Path_170" data-name="Path 170" d="M206.883,518.139a1.041,1.041,0,0,1-.147.444c-.5.731-3.338,15.692-3.338,15.692a8.443,8.443,0,0,1-.826,3.938,56.645,56.645,0,0,0-1.328,5.672s-.226,10.249-.82,11.849.19,5.033.19,5.033a7.705,7.705,0,0,0,1.453,4.1c.043.055.076.11.11.156.184.263.306.413.306.413a2.384,2.384,0,0,0,.639.792c.04.034.083.064.128.1a7.284,7.284,0,0,0,2.564,1.083l.089.018c.367.083.612.113.612.113l.226,1.224-2.423.5-4.62.306s-5.446.413-4.21-2.013a3.838,3.838,0,0,0,.223-.514h0c.046-.116.089-.239.125-.361a12.558,12.558,0,0,0,.242-5.164l-1.065-8.245c-1.735-7.685,1.371-16.242,1.371-16.242a3.961,3.961,0,0,1,.324-2.423c.6-1.738,0-5.534,0-5.534s-.306-4.9-.731-7.321a14.792,14.792,0,0,1-.165-3.081,15.391,15.391,0,0,1,.165-1.805l10.433-1.383A8.049,8.049,0,0,1,206.883,518.139Z" transform="translate(-153.672 -371.079)" fill="#ffd2c6"/>
  <path id="Path_171" data-name="Path 171" d="M208.558,680.3l-2.423.5-4.62.306s-5.446.413-4.21-2.013a3.842,3.842,0,0,0,.223-.514h0c.046-.116.089-.239.125-.361a8.377,8.377,0,0,1,2.753.557c1.551.612,2.72-.964,2.72-.964l.753-1.438.11-.208c.184.263.306.413.306.413a2.447,2.447,0,0,0,.768.887l-.128.269-.731,1.53s.936.095,2.218.306a.991.991,0,0,0,1.205-.661l.089.018c.367.083.612.113.612.113Z" transform="translate(-155.501 -482.607)" opacity="0.1"/>
  <path id="Path_172" data-name="Path 172" d="M209.9,682.3c-.184.823-5.284,1.077-5.284,1.077s-2.839-.275-3.635.388-3.139.5-3.231.5-1.325-.049-1.808-2.264c-.468-2.16.63-2.536.685-2.555h0a8.3,8.3,0,0,1,2.885.56c1.551.612,2.72-.961,2.72-.961l.863-1.649c.184.263.306.413.306.413a2.417,2.417,0,0,0,.768.89l-.86,1.808s.936.095,2.218.306a1.059,1.059,0,0,0,1.294-1.007,1.046,1.046,0,0,0,0-.138s.8.229,1.781.5A1.836,1.836,0,0,1,209.9,682.3Z" transform="translate(-154.604 -483.461)" fill="#626696"/>
  <path id="Path_173" data-name="Path 173" d="M247.341,526.366c-.122.731-.248,2.625-.248,2.625.428,1.585-.67,5.351-.67,5.351l-.548,2.142c.245,2.753-1.508,9.457-1.508,9.457s-1.175,6.223-1.787,8.909a7.407,7.407,0,0,0,.306,4.485c.031.073.049.11.049.11a.512.512,0,0,0,.037.15c.015.049.04.147.064.217a3.3,3.3,0,0,0,.612,1.022,3.1,3.1,0,0,0,.327.337l.018.018a6.621,6.621,0,0,0,1.946,1.2h0l.306.122a9.2,9.2,0,0,0,.97.306h0a1.013,1.013,0,0,0,.11.024l-.248,1.438-3.231-.826-4.329-1.4-2.142-1.224s.024-.116.067-.34v-.037c.018-.095.037-.208.064-.337a43.813,43.813,0,0,0,.777-11.045c-.517-4.819,1.49-11.47,1.979-13.055a7.914,7.914,0,0,0,.367-2.805c-.8-1.163-.979-5.794-.979-5.794s-1.462-2.992-2.674-6.165a16.214,16.214,0,0,1-.872-3.206,11.213,11.213,0,0,1-.177-2.344s9.827-8.967,10.9-.285c.037.306.07.575.1.851C247.879,524.2,247.457,525.659,247.341,526.366Z" transform="translate(-182.43 -368.403)" fill="#ffd2c6"/>
  <path id="Path_174" data-name="Path 174" d="M250.669,671.353l-.248,1.438-3.231-.826-4.329-1.4-2.142-1.224s.024-.116.067-.34v-.037c.018-.095.037-.208.064-.336l.306-.031h.024a4.075,4.075,0,0,1,1.814.245c.7.266,1.628.569,1.817.441a2.313,2.313,0,0,1,1.037-.184l.45-.985.064-.15a3.269,3.269,0,0,0,.612,1.022,3.47,3.47,0,0,0,.346.355l-.018.349-.024.493a6.3,6.3,0,0,0,1.554.719.9.9,0,0,0,.434,0h0l.306.122a9.2,9.2,0,0,0,.97.306h0A.991.991,0,0,0,250.669,671.353Z" transform="translate(-185.759 -476.909)" opacity="0.1"/>
  <path id="Path_175" data-name="Path 175" d="M248.356,675.254c-.9-.26-3.078-.673-3.43-.352s-3.365,0-3.365,0a1.835,1.835,0,0,1-1.557-.918c-.612-.976-.119-4.133-.119-4.133l.223-.021.373-.037h.024a4.029,4.029,0,0,1,1.814.245,4.342,4.342,0,0,0,1.817.441,2.27,2.27,0,0,1,1.037-.184l.514-1.135a3.305,3.305,0,0,0,.612,1.022,3.459,3.459,0,0,0,.346.355l-.043.841a6.338,6.338,0,0,0,1.554.716.612.612,0,0,0,.746-.236.463.463,0,0,0,.055-.125h0a5.26,5.26,0,0,0,1.276.425h0a2.336,2.336,0,0,1,2.49,1.793C253.184,675.352,249.241,675.511,248.356,675.254Z" transform="translate(-185.049 -477.742)" fill="#626696"/>
  <path id="Path_176" data-name="Path 176" d="M209.9,518.118c-.2.058-.385.113-.557.168a7.718,7.718,0,0,1-1.349.285,56.227,56.227,0,0,1-9.157.067,15.39,15.39,0,0,1,.165-1.805l10.433-1.383A8.174,8.174,0,0,1,209.9,518.118Z" transform="translate(-156.692 -371.058)" opacity="0.1"/>
  <path id="Path_177" data-name="Path 177" d="M216.911,483.311s-3.83.594-6.945,1.276c-1.04.226-2,.462-2.711.695a8.322,8.322,0,0,1-1.349.284,60.661,60.661,0,0,1-9.631.037c-1.692-5.489,2.056-12.4,2.056-12.4a6.957,6.957,0,0,1,.78-2.24l.015-.055.532-1.958h14.229l.174.841.361,1.713,2.233,10.607Z" transform="translate(-154.607 -338.785)" fill="#626696"/>
  <path id="Path_178" data-name="Path 178" d="M246.937,516.251l-.086.037-1.664.737c-1.8.832-7.2.988-9.08,1a11.213,11.213,0,0,1-.177-2.344s9.827-8.967,10.9-.284C246.87,515.709,246.9,515.975,246.937,516.251Z" transform="translate(-182.43 -368.396)" opacity="0.1"/>
  <path id="Path_179" data-name="Path 179" d="M227.092,485.806l-.349.153-1.664.74c-1.836.844-7.4.994-9.178,1h-.468a2.143,2.143,0,0,1-1.646-1c0-.11-.086-.652-.159-1.117-.061-.373-.116-.694-.116-.694a42.732,42.732,0,0,1-5.534-2.867c-1.4-.951-1.046-7.713-.774-11.112.095-1.172.177-1.943.177-1.943l14.4.841,2.019.116,1.156.257.306.064s.826,6.039,1.224,6.541.141,2.2.092,3.16a5.872,5.872,0,0,1-.135,1.224,7.566,7.566,0,0,1,.453,2.643,5.272,5.272,0,0,0,.193,1.989Z" transform="translate(-162.323 -338.799)" fill="#626696"/>
  <ellipse id="Ellipse_31" data-name="Ellipse 31" cx="5.902" cy="5.902" rx="5.902" ry="5.902" transform="translate(43.451 85.051)" fill="#ffd2c6"/>
  <path id="Path_180" data-name="Path 180" d="M202,348.782s.41,5.59-.731,6.871a51.074,51.074,0,0,1-4.118,3.7l.918,3.8,5.17.6,6.039-6.452-1.374-1.692s-1.052-3.57-.184-5.354S202,348.782,202,348.782Z" transform="translate(-155.519 -255.367)" fill="#ffd2c6"/>
  <path id="Path_181" data-name="Path 181" d="M246.023,373.7h0l-.306.489-1.836-.5-1.282-4.794.08-1.392.376-.542s2.013.049,1.924,1.879A16.048,16.048,0,0,0,246.023,373.7Z" transform="translate(-187.064 -267.998)" opacity="0.1"/>
  <path id="Path_182" data-name="Path 182" d="M225.011,470.963s-1.456.324-3.124.542-3.592.327-4.381-.132c-1.325-.783-8.5-.56-10.561-.48a2.355,2.355,0,0,0-.355.015l.532-1.958h14.229l.174.841,2.019.116,1.156.257C224.895,470.639,225.011,470.963,225.011,470.963Z" transform="translate(-162.071 -338.785)" opacity="0.1"/>
  <path id="Path_183" data-name="Path 183" d="M201.429,368.15s2.013.046,1.921,1.875a16.881,16.881,0,0,0,1.1,4.987l-.459,1.052s-.639,2.561-.138,3.2,2.334.639,1.282,5.9c0,0-.226,3.934.321,5.216s.548,4.344,1.371,5.626a30.925,30.925,0,0,1,1.924,4.256s-5.951,1.325-7.5.41-11.118-.45-11.118-.45.046-1.6,0-1.784a1.53,1.53,0,0,1,.229-1.169c.306-.434.823-1.166.548-1.805s.688-1.585.184-2.576-1.117-1.19-.994-1.732a2.347,2.347,0,0,0-.56-1.732c-.364-.456-2.839-5.293-2.839-5.293l-.41-2.267s-3.185-2.334-3.127-3.433a6.423,6.423,0,0,1,1.205-2.619l3.059-3.007s1.692,1.836,3.338,1.19,5.2-3.7,5.2-3.7,1.267-.685,1.358-1.187.869-.046.869-.046,1.144-.627,1.374-.407a3.971,3.971,0,0,0,1.224.407Z" transform="translate(-145.807 -268.824)" fill="#ffcde5"/>
  <path id="Path_184" data-name="Path 184" d="M152.99,399.3l-.976.762a13.03,13.03,0,0,0-1.224,4.987,68.325,68.325,0,0,1-1.224,7.728l-1.921,3.436a86.8,86.8,0,0,0-3.576,8.389,21.889,21.889,0,0,1-2.288,4.736s-6.361,5.715-1.921,6.731,4.574-4.549,4.574-4.549a6.01,6.01,0,0,0,1.205-1.921c.168-.777,5.795-10.729,5.795-10.729s1.97-2.677,1.557-4.094c0,0,2.561-6.024,2.561-7.535a26.763,26.763,0,0,0-.41-3.748l.41-3.157Z" transform="translate(-114.663 -290.444)" fill="#ffd2c6"/>
  <path id="Path_185" data-name="Path 185" d="M217.029,440.53A45.372,45.372,0,0,1,211.675,443c-.869.122,3.8-.49,3.8-.49Z" transform="translate(-165.525 -319.06)" opacity="0.1"/>
  <path id="Path_186" data-name="Path 186" d="M221.946,446.51s-5.948,2.013-8.566,1.646C213.392,448.156,219.887,449.392,221.946,446.51Z" transform="translate(-166.784 -323.21)" opacity="0.1"/>
  <path id="Path_187" data-name="Path 187" d="M223.271,448.66s-5.354,3.365-8.511,2.818c0,0,7.367,1.465,8.511.688l-3.3-.918S223.638,449.315,223.271,448.66Z" transform="translate(-167.741 -324.702)" opacity="0.1"/>
  <path id="Path_188" data-name="Path 188" d="M184.764,306.533a5.574,5.574,0,0,0-4.5.851c-.918.722-1.53,1.836-2.561,2.362a15.058,15.058,0,0,1-1.674.59,4.828,4.828,0,0,0-2.946,5.2c.162.918.587,1.744.8,2.637a10.305,10.305,0,0,1-.361,4.858,51.123,51.123,0,0,1-5.094,12.614,1.322,1.322,0,0,0-.254.847,1.224,1.224,0,0,0,.306.542c2.114,2.448,5.556,3.283,8.787,3.393a6.655,6.655,0,0,0,3.482-.578,5.262,5.262,0,0,0,1.7-1.557,8.261,8.261,0,0,0,1.585-5.326c-.089-1.53-.612-3.087-.217-4.571a1.224,1.224,0,0,1,.275-.56c.349-.355.918-.263,1.42-.321,1.343-.156,2.212-1.573,2.371-2.913a33.222,33.222,0,0,0-.184-4.045,8.472,8.472,0,0,1,1.594-4.981,5.37,5.37,0,0,0,1.169-1.992,3.339,3.339,0,0,0-.854-2.448c-.75-1.187-1.117-2.573-2.258-3.479A6.1,6.1,0,0,0,184.764,306.533Z" transform="translate(-135.401 -225.964)" opacity="0.1"/>
  <path id="Path_189" data-name="Path 189" d="M183.6,305.333a5.566,5.566,0,0,0-4.5.854c-.918.719-1.53,1.836-2.561,2.362a14.78,14.78,0,0,1-1.67.587,4.831,4.831,0,0,0-2.949,5.2c.162.918.587,1.744.8,2.64a10.332,10.332,0,0,1-.361,4.855,51.152,51.152,0,0,1-5.085,12.614,1.294,1.294,0,0,0-.251.844,1.178,1.178,0,0,0,.306.542c2.117,2.448,5.556,3.283,8.787,3.393a6.653,6.653,0,0,0,3.482-.575,5.275,5.275,0,0,0,1.7-1.56,8.26,8.26,0,0,0,1.576-5.314c-.089-1.53-.612-3.087-.214-4.574a1.224,1.224,0,0,1,.272-.56c.349-.355.918-.263,1.423-.306,1.343-.156,2.209-1.573,2.368-2.916a32.619,32.619,0,0,0-.184-4.045,8.472,8.472,0,0,1,1.591-5,5.351,5.351,0,0,0,1.166-1.995,3.341,3.341,0,0,0-.851-2.448c-.75-1.187-1.117-2.573-2.261-3.476A6.064,6.064,0,0,0,183.6,305.333Z" transform="translate(-134.602 -225.131)" fill="#985c7e"/>
  <path id="Path_190" data-name="Path 190" d="M214.76,492.62s1.175,5.489,3.127,6.985Z" transform="translate(-167.741 -355.213)" opacity="0.1"/>
  <g id="Group_5" data-name="Group 5" transform="translate(32.403 85.638)" opacity="0.1">
    <path id="Path_191" data-name="Path 191" d="M183.7,337.619c-.061-.214-.132-.428-.2-.639C183.561,337.194,183.632,337.408,183.7,337.619Z" transform="translate(-178.449 -332.828)"/>
    <path id="Path_192" data-name="Path 192" d="M188.938,323.41a1.985,1.985,0,0,1-.024.517,5.424,5.424,0,0,1-1.169,1.995,8.447,8.447,0,0,0-1.594,4.978,34.49,34.49,0,0,1,.181,4.045c-.159,1.343-1.025,2.754-2.368,2.916-.5.058-1.074-.037-1.42.306a1.224,1.224,0,0,0-.275.56c-.389,1.487.128,3.041.214,4.574a8.26,8.26,0,0,1-1.573,5.314,5.3,5.3,0,0,1-1.7,1.56,6.843,6.843,0,0,1-3.485.575c-3.176-.107-6.553-.918-8.677-3.277a.839.839,0,0,0-.052.441,1.178,1.178,0,0,0,.306.542c2.117,2.448,5.556,3.283,8.787,3.393a6.653,6.653,0,0,0,3.482-.575,5.3,5.3,0,0,0,1.7-1.56,8.26,8.26,0,0,0,1.576-5.314c-.089-1.53-.612-3.087-.214-4.574a1.224,1.224,0,0,1,.272-.56c.349-.355.918-.263,1.423-.306,1.343-.156,2.209-1.573,2.368-2.916a32.617,32.617,0,0,0-.184-4.045,8.471,8.471,0,0,1,1.591-4.978,5.351,5.351,0,0,0,1.166-1.995A2.267,2.267,0,0,0,188.938,323.41Z" transform="translate(-166.989 -323.41)"/>
  </g>
  <path id="Path_193" data-name="Path 193" d="M558.782,807.435s-11.641-.7-10.267,7.453a1.99,1.99,0,0,0,1.034,2.1s.021-.612,1.193-.4a5.361,5.361,0,0,0,1.264.061,2.641,2.641,0,0,0,1.548-.639h0s3.271-1.352,4.543-6.7c0,0,.942-1.166.918-1.465l-1.964.838a3.52,3.52,0,0,1,.141,2.594s-.061-2.542-.44-2.481c-.077,0-1.019.49-1.019.49s1.153,2.469.281,4.262c0,0,.33-3.041-.642-4.081l-1.383.8s1.349,2.552.434,4.632c0,0,.236-3.191-.725-4.433l-1.254.976s1.27,2.512.5,4.237c0,0-.1-3.714-.768-3.977a7.525,7.525,0,0,0-1.26,1.361s.866,1.836.327,2.787c0,0-.33-2.475-.612-2.484a8.235,8.235,0,0,0-1.205,2.754,5.96,5.96,0,0,1,.939-2.922,3.276,3.276,0,0,0-1.67.866s.168-1.159,1.94-1.26a8.364,8.364,0,0,1,1.144-1.319,7.174,7.174,0,0,0-2.83.327s.939-1.1,3.154-.612l1.224-1.01a10.554,10.554,0,0,0-3.3.034s1.132-.97,3.638-.263l1.346-.808a12.23,12.23,0,0,0-3.154-.272,4.832,4.832,0,0,1,3.549.058l.964-.434s-1.45-.285-1.872-.327-.447-.162-.447-.162a5.005,5.005,0,0,1,2.72.306A12.414,12.414,0,0,0,558.782,807.435Z" transform="translate(-399.308 -573.702)" fill="#fe2d43"/>
  <ellipse id="Ellipse_32" data-name="Ellipse 32" cx="8.239" cy="1.392" rx="8.239" ry="1.392" transform="translate(143.216 242.602)" fill="#fe2d43" opacity="0.1"/>
  <path id="Path_194" data-name="Path 194" d="M856.9,774.836s-11.626-.7-10.267,7.456a1.99,1.99,0,0,0,1.034,2.1s.021-.612,1.193-.4a5.391,5.391,0,0,0,1.267.061,2.613,2.613,0,0,0,1.545-.639h0s3.274-1.349,4.543-6.7c0,0,.942-1.169.918-1.469l-1.976.857a3.53,3.53,0,0,1,.144,2.594s-.064-2.545-.441-2.484c-.076,0-1.022.489-1.022.489s1.153,2.469.284,4.265c0,0,.33-3.041-.646-4.084l-1.383.808s1.349,2.548.434,4.629c0,0,.236-3.191-.725-4.433l-1.251.97s1.267,2.515.493,4.24c0,0-.1-3.717-.765-4a7.671,7.671,0,0,0-1.264,1.365s.869,1.836.331,2.784c0,0-.331-2.472-.612-2.484a8.235,8.235,0,0,0-1.205,2.753,5.95,5.95,0,0,1,.942-2.922,3.292,3.292,0,0,0-1.674.866s.171-1.156,1.943-1.26a8.36,8.36,0,0,1,1.144-1.319,7.191,7.191,0,0,0-2.833.327s.942-1.1,3.154-.6l1.224-1.01a10.557,10.557,0,0,0-3.3.034s1.132-.967,3.638-.263l1.346-.8a12.115,12.115,0,0,0-3.157-.272,4.846,4.846,0,0,1,3.552.055l.964-.431s-1.45-.284-1.876-.33-.447-.162-.447-.162a5.015,5.015,0,0,1,2.723.306A12.44,12.44,0,0,0,856.9,774.836Z" transform="translate(-606.218 -551.077)" fill="#fe2d43"/>
  <ellipse id="Ellipse_33" data-name="Ellipse 33" cx="8.239" cy="1.392" rx="8.239" ry="1.392" transform="translate(234.421 232.629)" fill="#fe2d43" opacity="0.1"/>
  <ellipse id="Ellipse_34" data-name="Ellipse 34" cx="23.726" cy="3.892" rx="23.726" ry="3.892" transform="translate(235.737 129.752)" fill="#fe2d43" opacity="0.1"/>
  <path id="Path_195" data-name="Path 195" d="M858.675,131.22a12.737,12.737,0,0,0,0-6.5v-3.059a10.714,10.714,0,0,0-3.824-9.848l-3.274-2.885a12.369,12.369,0,0,0-2.365-1.674,2.4,2.4,0,0,0-.306-.046l-.1-.055a9.849,9.849,0,0,1-.716-1.508,1.4,1.4,0,0,0,1.166-.4,1.531,1.531,0,0,0,.275-.459h0c.19-.425.22-.939.382-1.392a3.248,3.248,0,0,1,.612-1c-.034.055-.067.107-.1.162.462-.575,1.068-1.071,1.5-1.68a3.685,3.685,0,0,0,.239-.373l-.064.076a8.408,8.408,0,0,0,.961-3.267,2.949,2.949,0,0,0,.018-1.169,3.9,3.9,0,0,0-.327-.74c-.71-1.469-.695-3.31-1.836-4.482a5.487,5.487,0,0,0-3.365-1.3,8.683,8.683,0,0,1-3.546-.875,3.842,3.842,0,0,0-.961-.529.792.792,0,0,0-.945.352.611.611,0,0,1-.125.254.407.407,0,0,1-.364.021l-1.622-.434.018.083h-.04l.058.257a.143.143,0,0,1,.153.089l-.26.4a4.017,4.017,0,0,1-1.465-.306.692.692,0,0,0,0,.08h-.021c-.031.459.49.756.649,1.187a.9.9,0,0,1,0,.581,1.321,1.321,0,0,1-.306.465c-.578.569-1.312.456-1.976.817a.422.422,0,0,0-.242.266.205.205,0,0,0-.021.147.343.343,0,0,0,.135.168,3.064,3.064,0,0,0,.63.392l-.19.184a7.263,7.263,0,0,0,2.509,11.843c.024.125.043.254.061.392v.037l.018.174-2.187.918a1.741,1.741,0,0,1-1.566-1.007c-.508-1.052-2.3,0-2.3,0s-5.486-.413-7.514.6c0,0-3.274-1.374-3.732-1.465s-1.153-.459-1.478-.367-.737-.612-.967-.551-.306-.456-1.059-.639-1.016.046-1.836-.78-7.56-4.075-7.56-4.075l-3.041-2.475-3.228-2.564-.058.107c-.018-.076-.04-.156-.061-.239a30.586,30.586,0,0,0-1.2-3.763c-.208-.5-.306-1.123-.578-.792-.171.2-.465-.236-.918-.529a.762.762,0,0,0-1.138.33h0c-2.512,3.937-3.411,4.222-1.955,5.663,1.294,1.285,2.157,2.42,3.215,2.753l.125.04a.177.177,0,0,1-.07,0l6.119,7.327s4.424,3.849,7.468,5.085,2.812,1.6,2.812,1.6,9.218,4.672,10.647,4.589,1.153,9.573.554,11.13-1.566,12.825-1.566,12.825-.918,2.38.046,4.029a25.428,25.428,0,0,1,.021,3.913,13.427,13.427,0,0,0-2.233,5.752,3.277,3.277,0,0,1-.037.349.792.792,0,0,1-.217.177s.08-.018.205-.061a11.632,11.632,0,0,1-.612,2.754,11.217,11.217,0,0,0-.753,3.977v7.278l-.609,4.513s-.737,3.417,0,4.213a1.936,1.936,0,0,1,.4,1.4,2.6,2.6,0,0,0,.471,1.637,1.242,1.242,0,0,1,.306,1.052c-.245.792.361,9.218.361,9.218a9.37,9.37,0,0,1-.422,2.448c-.245.125.41,2.668.41,2.668s-2.49,2.077-1.857,3.179l.636.976-.168.165-.1.1a.97.97,0,0,0-.633-.119,23.747,23.747,0,0,1-2.506,2.23,27.154,27.154,0,0,1-4.179,1.986l-2.411.2H812.7s-1.153-.107-.508,1.68,6.425,1.224,6.425,1.224l3.365-.532a64.761,64.761,0,0,0,7.743-.352c.722-.162.893-.545.847-.936h0l-.018-.018a2.4,2.4,0,0,0-.493-1.013.481.481,0,0,0-.043-.052l.11-1.224c2.555-1.472-.722-4.369-.722-4.369a29.2,29.2,0,0,1,1.7-3.234c.578-.786.575-12.458.575-12.458s.306-4.216-.493-5.2a1.759,1.759,0,0,1,.86-1.588c.569-.389,2.288-5.74,3.638-10.182l.85,5.235s-.184,2.5.37,3.237a1.245,1.245,0,0,1,.226.973,4.329,4.329,0,0,0,.125,2.12,1.371,1.371,0,0,0,.444.753c.493.245.523,1.117.707,1.3s1.322-.26,1.383.41a14.954,14.954,0,0,1,0,1.771l.37,10.87a7.112,7.112,0,0,0-.737,3.3,4.262,4.262,0,0,1-.444,1.946.994.994,0,0,0,.092,1.169l.107.122-.456.352a.994.994,0,0,0-.281,1.224.982.982,0,0,0-.285,1.056,1.243,1.243,0,0,0,.08.171,1.722,1.722,0,0,0-.918.453,7.525,7.525,0,0,1-1.622,1.634,30.558,30.558,0,0,0-2.588,2.215A3.714,3.714,0,0,1,831.6,206.7a2.45,2.45,0,0,1-.456.135c-1.224.248-.829,1.514.153,1.713s4.24,1.205,6.777.612a2.368,2.368,0,0,0,1.857-.257,25.57,25.57,0,0,1,3.619-1.224s1.383,0,1.566-.551a2.108,2.108,0,0,0,.08-.535l.04-.037-.037-.034a7.209,7.209,0,0,0-.095-1.224c-.034-.208-.073-.4-.11-.548-.119-.459-.337-1.049-.431-1.3a.467.467,0,0,0,.043-.064c.526-.89-.349-3.059-.349-3.059A5.847,5.847,0,0,1,845.3,199.1c.493-.364,1.784-9.891,1.784-9.891a8.577,8.577,0,0,1,.612-3.543c.673-1.1-.918-7.756-.918-7.756s-.676-1.53-.428-2.077a7.276,7.276,0,0,0-.248-2.564v-2.4a2.644,2.644,0,0,0-.141-.844,4.015,4.015,0,0,1-.165-2.448c.431-1.1,1.413-7.878,1.413-7.878a9.078,9.078,0,0,1,.355-5.369,5.124,5.124,0,0,1,.306-.554c.832-1.309.584-3.635.174-5.507-.064-.291-.132-.569-.2-.835-.031-.113-.061-.22-.089-.327l.132-.055a4.12,4.12,0,0,1,.04-.483,3.365,3.365,0,0,0,2.218-1.53,24.743,24.743,0,0,1,5.3-4.488,4.6,4.6,0,0,0,2.674-3.252c-.37-.642.658-3.252.658-3.252ZM848.885,107.241Zm1.692,28.193-2.662,3.087a.064.064,0,0,1,0-.018c-.691-.961.646-3.115.646-3.115l2.2-4.929a2.982,2.982,0,0,1-.288,1.456c-.612.826,1.1,2.2,1.1,2.2-.921-.009-1.013,1.319-1.013,1.319Z" transform="translate(-571.589 -74.316)" fill="url(#linear-gradient)"/>
  <path id="Path_196" data-name="Path 196" d="M805.26,97.269l-1.45,2.818a5.612,5.612,0,0,1-1.352-.281,5.131,5.131,0,0,1-3.176-2.753,3.994,3.994,0,0,1,1.851-5.268c1-.545,1.927-1.172,2.677.612a31.013,31.013,0,0,1,1.181,3.739C805.156,96.813,805.26,97.269,805.26,97.269Z" transform="translate(-573.152 -76.616)" fill="#cc818c"/>
  <path id="Path_197" data-name="Path 197" d="M944.666,138.492l-2.319,3.46s-10.971,5.232-8.872-.918a13.861,13.861,0,0,0,.866-6.061v-.037a4.784,4.784,0,0,0-.86-2.448s10.693-5.47,9.1-1.729a5.2,5.2,0,0,0-.379,2.463,8.39,8.39,0,0,0,1.153,3.417A11.318,11.318,0,0,0,944.666,138.492Z" transform="translate(-666.385 -103.154)" fill="#cc818c"/>
  <path id="Path_198" data-name="Path 198" d="M904.324,309.407s1.579,6.615.918,7.707a8.691,8.691,0,0,0-.612,3.518s-1.276,9.469-1.762,9.833a5.815,5.815,0,0,0-1.031,1.224s.866,2.142.346,3.029a.719.719,0,0,1-.346.306c-.814.343-3.818-1.178-5.528-2.111a.942.942,0,0,1-.453-.542.964.964,0,0,1,.278-1.046,1,1,0,0,1,.278-1.224l.45-.349-.1-.122a.994.994,0,0,1-.092-1.163,4.291,4.291,0,0,0,.438-1.931,7.053,7.053,0,0,1,.728-3.277l-.364-10.8a15.489,15.489,0,0,0,0-1.759c-.061-.667-1.184-.226-1.365-.41s-.214-1.046-.7-1.291a1.359,1.359,0,0,1-.441-.747,4.351,4.351,0,0,1-.125-2.108,1.242,1.242,0,0,0-.223-.967c-.548-.728-.364-3.215-.364-3.215l-.838-5.2c-1.334,4.415-3.032,9.732-3.592,10.118a1.75,1.75,0,0,0-.85,1.579c.789.97.486,5.158.486,5.158s0,11.589-.569,12.378a30.169,30.169,0,0,0-1.677,3.215s3.252,2.894.695,4.354l-.028.015c-2.61,1.456-8.01-2.607-8.01-2.607l.563-.563.165-.165-.612-.973c-.627-1.092,1.836-3.154,1.836-3.154s-.655-2.549-.413-2.671a9.312,9.312,0,0,0,.413-2.429s-.6-8.374-.355-9.16a1.224,1.224,0,0,0-.288-1.046,2.612,2.612,0,0,1-.465-1.625,1.934,1.934,0,0,0-.4-1.4c-.728-.789,0-4.188,0-4.188l.612-4.491v-7.153a11.322,11.322,0,0,1,.734-4.014,12.116,12.116,0,0,0,.661-3.231,13.566,13.566,0,0,1,2.267-5.813c.441-.673.768-1.077.768-1.077l19.418-.762s.306.866.612,2.068c.067.263.135.538.2.829.407,1.866.652,4.176-.171,5.479a4.324,4.324,0,0,0-.306.548,9.065,9.065,0,0,0-.352,5.336s-.97,6.731-1.4,7.829a3.93,3.93,0,0,0,.165,2.417,2.686,2.686,0,0,1,.138.838v2.389a7.34,7.34,0,0,1,.245,2.548C903.666,307.89,904.324,309.407,904.324,309.407Z" transform="translate(-629.366 -205.602)" fill="#444053"/>
  <path id="Path_199" data-name="Path 199" d="M958.1,292.569a5.037,5.037,0,0,0-.306.548l-1.092-.061c.1-.563-.639-5.84-.639-5.84l2.2-.125C958.673,288.969,958.921,291.281,958.1,292.569Z" transform="translate(-682.246 -212.564)" opacity="0.1"/>
  <path id="Path_200" data-name="Path 200" d="M958.688,292.02a4.309,4.309,0,0,0-.306.548l-1.1-.061c.107-.563-.636-5.844-.636-5.844l2.2-.122C959.266,288.406,959.511,290.716,958.688,292.02Z" transform="translate(-682.655 -212.182)" fill="#444053"/>
  <path id="Path_201" data-name="Path 201" d="M958.688,292.02a4.309,4.309,0,0,0-.306.548l-1.1-.061c.107-.563-.636-5.844-.636-5.844l2.2-.122C959.266,288.406,959.511,290.716,958.688,292.02Z" transform="translate(-682.655 -212.182)" opacity="0.05"/>
  <path id="Path_202" data-name="Path 202" d="M938.447,460.122a.719.719,0,0,1-.346.306c-.814.343-3.818-1.178-5.528-2.111a.943.943,0,0,1-.453-.542c.973-.177,1.612.918,1.612.918a1.435,1.435,0,0,1,2,.486c.835,1.224,2.625.71,2.625.71S938.395,459.973,938.447,460.122Z" transform="translate(-665.63 -331.016)" opacity="0.1"/>
  <path id="Path_203" data-name="Path 203" d="M921.525,464.246c-.184.545-1.548.545-1.548.545a29.069,29.069,0,0,0-3.537,1.245,2.418,2.418,0,0,1-1.836.257c-2.506.578-5.721-.422-6.691-.612s-1.352-1.456-.153-1.7a2.4,2.4,0,0,0,.45-.138,3.653,3.653,0,0,0,1.493-1.224,30.967,30.967,0,0,1,2.555-2.2,7.392,7.392,0,0,0,1.6-1.621c1.426-1.26,2.448.471,2.448.471a1.435,1.435,0,0,1,2,.486c.835,1.224,2.625.71,2.625.71s.306.82.471,1.41c.037.15.076.34.11.548A4.787,4.787,0,0,1,921.525,464.246Z" transform="translate(-648.203 -331.419)" fill="#ff748f"/>
  <ellipse id="Ellipse_35" data-name="Ellipse 35" cx="0.168" cy="0.168" rx="0.168" ry="0.168" transform="translate(268.98 128.654)" fill="#575988"/>
  <ellipse id="Ellipse_36" data-name="Ellipse 36" cx="0.168" cy="0.168" rx="0.168" ry="0.168" transform="translate(267.555 129.988)" fill="#575988"/>
  <ellipse id="Ellipse_37" data-name="Ellipse 37" cx="0.168" cy="0.168" rx="0.168" ry="0.168" transform="translate(266.104 131.187)" fill="#575988"/>
  <ellipse id="Ellipse_38" data-name="Ellipse 38" cx="0.168" cy="0.168" rx="0.168" ry="0.168" transform="translate(266.854 130.652)" fill="#575988"/>
  <ellipse id="Ellipse_39" data-name="Ellipse 39" cx="0.168" cy="0.168" rx="0.168" ry="0.168" transform="translate(268.298 129.278)" fill="#575988"/>
  <path id="Path_204" data-name="Path 204" d="M921.525,473.513c-.184.545-1.548.545-1.548.545a29.069,29.069,0,0,0-3.537,1.245,2.418,2.418,0,0,1-1.836.257c-2.506.578-5.721-.422-6.691-.612s-1.352-1.456-.153-1.7a2.4,2.4,0,0,0,.45-.138,11.622,11.622,0,0,0,3.283.612c2.472.1,4.43,0,4.43,0l2.5-.8a4.189,4.189,0,0,1,1.548-.563,3.977,3.977,0,0,0,1.53-.667A4.789,4.789,0,0,1,921.525,473.513Z" transform="translate(-648.203 -340.686)" fill="#dce6f2"/>
  <path id="Path_205" data-name="Path 205" d="M933.146,477.616a2.065,2.065,0,0,1-.416-.043l.037-.177a2.628,2.628,0,0,0,1.5-.208,7.182,7.182,0,0,0,.664-.306,7.708,7.708,0,0,1,.789-.346l.248-.086c.138-.046.275-.092.407-.15.076-.031.15-.067.223-.1a2.487,2.487,0,0,1,.563-.214,2.619,2.619,0,0,1,.306-.04,2.607,2.607,0,0,0,.275-.034,2.394,2.394,0,0,0,.526-.2,2.553,2.553,0,0,1,.566-.208l.135-.024a.646.646,0,0,0,.392-.144l.132.125a.817.817,0,0,1-.5.2l-.125.021a2.393,2.393,0,0,0-.526.2,2.555,2.555,0,0,1-.566.208,2.013,2.013,0,0,1-.306.037,2.679,2.679,0,0,0-.285.037,2.315,2.315,0,0,0-.52.2l-.229.1c-.141.058-.281.107-.422.153l-.242.086c-.263.1-.523.22-.777.337s-.444.211-.673.306a3.236,3.236,0,0,1-1.178.266Z" transform="translate(-666.053 -343.22)" fill="#575988" opacity="0.5"/>
  <path id="Path_206" data-name="Path 206" d="M936,379.587a4.413,4.413,0,0,1,3.414-1.805,11.689,11.689,0,0,0,3.078-.242,7.641,7.641,0,0,1-2.334.918A39.455,39.455,0,0,0,936,379.587Z" transform="translate(-668.323 -275.341)" opacity="0.1"/>
  <path id="Path_207" data-name="Path 207" d="M938.38,383.552a5.072,5.072,0,0,1,1.79-.82c.652-.031,1.224-.092,1.224-.092a3.458,3.458,0,0,1-1,.486C939.836,383.279,938.38,383.552,938.38,383.552Z" transform="translate(-669.975 -278.881)" opacity="0.1"/>
  <path id="Path_208" data-name="Path 208" d="M939.17,387.4s1.716.138,1.732.594" transform="translate(-670.523 -282.184)" opacity="0.1"/>
  <path id="Path_209" data-name="Path 209" d="M887,296.5a6.838,6.838,0,0,0,1.726-2.23,1.561,1.561,0,0,1,.667-.979s.988.395.107,1.6A4.9,4.9,0,0,1,887,296.5Z" transform="translate(-634.314 -216.867)" opacity="0.1"/>
  <path id="Path_210" data-name="Path 210" d="M943.172,130.705c-.349.826-.658.887-.591,1.689a6.081,6.081,0,0,1-1.389,1.092c-1.086.646-2.267,1.906-3.619,1.906a7.174,7.174,0,0,1-2.643-.5,4.784,4.784,0,0,0-.86-2.448S944.757,126.964,943.172,130.705Z" transform="translate(-666.983 -103.117)" opacity="0.1"/>
  <path id="Path_211" data-name="Path 211" d="M936.341,107.736a7.236,7.236,0,1,1-7.235-7.236A7.235,7.235,0,0,1,936.341,107.736Z" transform="translate(-658.516 -83.059)" fill="#cc818c"/>
  <path id="Path_212" data-name="Path 212" d="M944.666,151.018l-2.319,3.46s-10.971,5.232-8.872-.918a13.861,13.861,0,0,0,.866-6.061h.018a5.741,5.741,0,0,1,.217,1.4c.034.942.058,2.142,2.4,2.533a6.546,6.546,0,0,0,6.373-2.267A11.317,11.317,0,0,0,944.666,151.018Z" transform="translate(-666.385 -115.68)" opacity="0.1"/>
  <path id="Path_213" data-name="Path 213" d="M813.1,108.356l-1.45,2.818a5.614,5.614,0,0,1-1.352-.281l-.125-.15c.594.226,2.594-3.552,2.594-3.552l.064.052C812.994,107.9,813.1,108.356,813.1,108.356Z" transform="translate(-580.99 -87.703)" opacity="0.1"/>
  <path id="Path_214" data-name="Path 214" d="M915.833,279.152c-4.684,2.035-20.893.306-20.893.306a2.046,2.046,0,0,0,.083-.529c.441-.673.768-1.077.768-1.077l19.418-.762S915.524,277.95,915.833,279.152Z" transform="translate(-639.825 -205.623)" opacity="0.1"/>
  <path id="Path_215" data-name="Path 215" d="M849.438,120.107l-2.16.918a1.726,1.726,0,0,1-1.548-1c-.5-1.046-2.273,0-2.273,0s-5.418-.41-7.419.594c0,0-3.231-1.368-3.671-1.456s-1.138-.456-1.456-.364-.728-.594-.955-.548-.321-.456-1.049-.636-1,.046-1.82-.774-7.462-4.051-7.462-4.051l-3-2.448-3.185-2.549s-2,3.775-2.594,3.549l6.052,7.281s4.369,3.824,7.373,5.051,2.775,1.594,2.775,1.594,9.1,4.641,10.515,4.552,1.138,9.512.545,11.06-1.545,12.743-1.545,12.743-.918,2.365.043,4a22.527,22.527,0,0,1,0,3.959s16.31,1.744,20.936-.306c0,0,.682-7.554,0-8.511s.64-3.093.64-3.093l2.891-6.523,7.092-7.15s1.092-5.963-3.775-9.79l-3.234-2.867a11.991,11.991,0,0,0-2.334-1.661c-.526-.1-.334,0-.334,0a6.546,6.546,0,0,1-6.425,2.344c-2.343-.395-2.368-1.588-2.4-2.533A5.744,5.744,0,0,0,849.438,120.107Z" transform="translate(-581.455 -88.119)" fill="#67647e"/>
  <path id="Path_216" data-name="Path 216" d="M938.794,228.13s-10.013.41-12.014,3.552a9.94,9.94,0,0,1,4.913-.866C934.013,231.174,938.794,228.13,938.794,228.13Z" transform="translate(-661.924 -171.642)" opacity="0.1"/>
  <path id="Path_217" data-name="Path 217" d="M929.9,258.843s4.733.306,5.736-.682,1-1.591,1-1.591Z" transform="translate(-664.089 -191.381)" opacity="0.1"/>
  <path id="Path_218" data-name="Path 218" d="M965.657,196.6s-4,4.733.866,6.78Z" transform="translate(-687.832 -149.758)" opacity="0.1"/>
  <path id="Path_219" data-name="Path 219" d="M891.67,166.7s1.456,2.971,2.184,3.17Z" transform="translate(-637.555 -129.006)" opacity="0.1"/>
  <path id="Path_220" data-name="Path 220" d="M875.61,162.53a54.521,54.521,0,0,0,4.323,3.595S876.155,162.53,875.61,162.53Z" transform="translate(-626.409 -126.112)" opacity="0.1"/>
  <path id="Path_221" data-name="Path 221" d="M918.533,152.27s-3.506,5.232-1.224,8.42A11.184,11.184,0,0,1,918.533,152.27Z" transform="translate(-654.815 -118.991)" opacity="0.1"/>
  <path id="Path_222" data-name="Path 222" d="M926.185,275.233l-1.071,1.007-.15.141-1.239,1.172c-.092.067-.177.135-.266.2-5.048,3.619-6.061-1.879-6.061-1.879s-2.23,1.456-2.549.272,5.2-2.867,6.006-2.775a1.068,1.068,0,0,0,.22,0,3.46,3.46,0,0,0,1.132-.4c.083-.043.165-.086.245-.132a9.079,9.079,0,0,0,.817-.514Z" transform="translate(-653.635 -202.312)" fill="#cc818c"/>
  <path id="Path_223" data-name="Path 223" d="M941.619,107.734a7.236,7.236,0,0,1-3.538,6.22,4.219,4.219,0,0,1-.262-.527c-.26-.612-.419-1.251-.679-1.857a5.8,5.8,0,0,0-1.224-1.771.775.775,0,0,0-.306-.223.878.878,0,0,0-.664.184,3,3,0,0,1-1.01.444,1.074,1.074,0,0,1-1.013-.306,1.518,1.518,0,0,1-.159-1.264,15.687,15.687,0,0,0,.471-2.824,2.786,2.786,0,0,0-1.193-2.466,10.626,10.626,0,0,0-2.463-.535,2.648,2.648,0,0,1-.37-.129,7.239,7.239,0,0,1,12.418,5.054Z" transform="translate(-663.61 -83.057)" opacity="0.1"/>
  <path id="Path_224" data-name="Path 224" d="M927.03,95.137c-.131.07-.275.2-.236.343a.337.337,0,0,0,.132.168,3.133,3.133,0,0,0,1.144.587,10.057,10.057,0,0,1,2.466.535,2.78,2.78,0,0,1,1.193,2.463,16.5,16.5,0,0,1-.474,2.824,1.53,1.53,0,0,0,.162,1.267,1.08,1.08,0,0,0,1.013.306,2.984,2.984,0,0,0,1.007-.441.872.872,0,0,1,.664-.184.808.808,0,0,1,.324.22A5.745,5.745,0,0,1,935.649,105c.263.612.422,1.248.679,1.857a3,3,0,0,0,1.224,1.511,1.53,1.53,0,0,0,1.836-.193c.422-.465.41-1.169.612-1.765.361-1.031,1.371-1.68,2-2.57a7.9,7.9,0,0,0,1.1-3.476,2.919,2.919,0,0,0,.018-1.163,4.211,4.211,0,0,0-.321-.734c-.7-1.456-.688-3.289-1.811-4.455a5.412,5.412,0,0,0-3.329-1.285,8.556,8.556,0,0,1-3.5-.872,3.856,3.856,0,0,0-.948-.526.78.78,0,0,0-.933.349.612.612,0,0,1-.125.254.4.4,0,0,1-.355.021l-1.6-.431.184.808a4,4,0,0,1-1.7-.306c-.031.456.483.753.643,1.178a1.089,1.089,0,0,1-.306,1.111C928.413,94.893,927.685,94.78,927.03,95.137Z" transform="translate(-661.929 -76.666)" fill="#585268"/>
  <path id="Path_225" data-name="Path 225" d="M887.971,453.8l-.064.728-.028.015c-2.61,1.456-8.01-2.607-8.01-2.607l.563-.563a.979.979,0,0,1,.245.759l1.1.061,1.319,1.426a24.806,24.806,0,0,0,4.537.18Z" transform="translate(-629.366 -326.583)" opacity="0.1"/>
  <path id="Path_226" data-name="Path 226" d="M865.116,457.717a63.662,63.662,0,0,1-7.648.349l-3.323.529s-5.718.548-6.354-1.224.5-1.667.5-1.667h.043l2.38-.193a26.786,26.786,0,0,0,4.127-1.973,23.812,23.812,0,0,0,2.472-2.215s.994-.193.976.958l1.1.061,1.319,1.423a24.743,24.743,0,0,0,4.537.184h.333l-.153,1.759.043.055C865.682,456.034,866.634,457.377,865.116,457.717Z" transform="translate(-606.966 -326.542)" fill="#ff748f"/>
  <ellipse id="Ellipse_40" data-name="Ellipse 40" cx="0.168" cy="0.168" rx="0.168" ry="0.168" transform="translate(251.82 126.586)" fill="#575988"/>
  <ellipse id="Ellipse_41" data-name="Ellipse 41" cx="0.168" cy="0.168" rx="0.168" ry="0.168" transform="translate(247.543 128.443)" fill="#575988"/>
  <ellipse id="Ellipse_42" data-name="Ellipse 42" cx="0.168" cy="0.168" rx="0.168" ry="0.168" transform="translate(245.34 129.113)" fill="#575988"/>
  <ellipse id="Ellipse_43" data-name="Ellipse 43" cx="0.168" cy="0.168" rx="0.168" ry="0.168" transform="translate(248.666 128.088)" fill="#575988"/>
  <ellipse id="Ellipse_44" data-name="Ellipse 44" cx="0.168" cy="0.168" rx="0.168" ry="0.168" transform="translate(246.438 128.779)" fill="#575988"/>
  <ellipse id="Ellipse_45" data-name="Ellipse 45" cx="0.168" cy="0.168" rx="0.168" ry="0.168" transform="translate(249.801 127.562)" fill="#575988"/>
  <ellipse id="Ellipse_46" data-name="Ellipse 46" cx="0.168" cy="0.168" rx="0.168" ry="0.168" transform="translate(250.924 127.075)" fill="#575988"/>
  <path id="Path_227" data-name="Path 227" d="M865.116,467.681a63.662,63.662,0,0,1-7.648.349l-3.323.529s-5.718.548-6.354-1.224.5-1.667.5-1.667h.043a3.059,3.059,0,0,0,2.533,1.034l4.112.168,4.262-.306s3.977-.122,4.641-.257a9.646,9.646,0,0,0,1.591-.584C865.682,466,866.634,467.341,865.116,467.681Z" transform="translate(-606.966 -336.506)" fill="#dce6f2"/>
  <path id="Path_228" data-name="Path 228" d="M868.473,470.312a2.682,2.682,0,0,1-.673-.083l.061-.165a3.3,3.3,0,0,0,1.695-.077c.2-.052.4-.11.612-.171a6.939,6.939,0,0,1,2.952-.333h.132a27.945,27.945,0,0,0,5.461-.245,2.031,2.031,0,0,0,1.169-.468l.132.128a2.215,2.215,0,0,1-1.27.52,28.366,28.366,0,0,1-5.507.245h-.129a8.933,8.933,0,0,0-1.808.052,9.382,9.382,0,0,0-1.086.272c-.2.061-.4.122-.612.174A4.547,4.547,0,0,1,868.473,470.312Z" transform="translate(-620.988 -338.66)" fill="#575988" opacity="0.5"/>
  <path id="Path_229" data-name="Path 229" d="M943.462,275.233l-1.071,1.007-2.662-3.405a9.061,9.061,0,0,0,.817-.514Z" transform="translate(-670.912 -202.312)" opacity="0.1"/>
  <path id="Path_230" data-name="Path 230" d="M955.1,190.5l2.093,2.913v3.059a12.741,12.741,0,0,1,0,6.465l.107,2.821s-1.016,2.594-.652,3.231a4.58,4.58,0,0,1-2.64,3.234,24.779,24.779,0,0,0-5.235,4.436,3.562,3.562,0,0,1-3.867,1.548l-2.686,1.138-3.093-3.959,4.185-2.276s1.456-1.958,2.322-1.866l3.549-4.133s.092-1.319,1-1.319c0,0-1.683-1.365-1.092-2.184s.092-4.461.092-4.461Z" transform="translate(-670.495 -145.525)" fill="#67647e"/>
  <path id="Path_231" data-name="Path 231" d="M978.55,233.7s4.779-.089,5.369,1.138S980.006,233.019,978.55,233.7Z" transform="translate(-697.855 -175.439)" opacity="0.1"/>
  <path id="Path_232" data-name="Path 232" d="M939.13,277.6a1.261,1.261,0,0,1-.018.239,1.609,1.609,0,0,1-1.505,1.368h-.086a1.606,1.606,0,0,1-1.606-1.606,1.644,1.644,0,0,1,.089-.523,2.77,2.77,0,0,1-.78-2.255,3.46,3.46,0,0,0,1.132-.4,7.534,7.534,0,0,0,.792,1.618,1.531,1.531,0,0,1,.373-.046,1.606,1.606,0,0,1,1.609,1.606Z" transform="translate(-667.781 -203.77)" opacity="0.1"/>
  <path id="Path_233" data-name="Path 233" d="M936.911,273.26s-1.077.242-1.077.438-.242,1.973.939,2.7,1.065-1.016,1.065-1.016S936.819,273.82,936.911,273.26Z" transform="translate(-668.193 -202.965)" fill="#575988"/>
  <ellipse id="Ellipse_47" data-name="Ellipse 47" cx="1.609" cy="1.609" rx="1.609" ry="1.609" transform="translate(268.313 72.22)" fill="#e4aab4"/>
  <ellipse id="Ellipse_48" data-name="Ellipse 48" cx="1.38" cy="1.38" rx="1.38" ry="1.38" transform="translate(268.543 72.449)" fill="#dce6f2"/>
  <path id="Path_234" data-name="Path 234" d="M922.8,286.84a7.97,7.97,0,0,0,7.768,1.034v1.365s-2.913,2-5.553.789S922.8,286.84,922.8,286.84Z" transform="translate(-659.146 -212.39)" opacity="0.1"/>
  <path id="Path_235" data-name="Path 235" d="M922.8,285.65a7.962,7.962,0,0,0,7.768,1.025v1.364s-2.913,2-5.553.789S922.8,285.65,922.8,285.65Z" transform="translate(-659.146 -211.564)" opacity="0.1"/>
  <path id="Path_236" data-name="Path 236" d="M922.8,285.65a7.962,7.962,0,0,0,7.768,1.025v1.364s-2.913,2-5.553.789S922.8,285.65,922.8,285.65Z" transform="translate(-659.146 -211.564)" fill="#444053"/>
  <path id="Path_237" data-name="Path 237" d="M923.106,285.65a7.97,7.97,0,0,0,7.768,1.034v1.365s-2.922,1.992-5.553.789S923.106,285.65,923.106,285.65Z" transform="translate(-659.357 -211.564)" opacity="0.05"/>
  <path id="Path_238" data-name="Path 238" d="M888,451.32s4.552.835,5.219,1.016-.184.5-.184.5S888.866,452.094,888,451.32Z" transform="translate(-635.008 -326.549)" opacity="0.1"/>
  <path id="Path_239" data-name="Path 239" d="M887.61,438.207c.073,0,3.093-.851,3.745-2.307" transform="translate(-634.738 -315.846)" opacity="0.1"/>
  <path id="Path_240" data-name="Path 240" d="M902,386.506s1.224,1.609,2.013,1.563S902.719,386.445,902,386.506Z" transform="translate(-644.725 -281.563)" opacity="0.1"/>
  <path id="Path_241" data-name="Path 241" d="M904.22,395.24s.514,1.138,1.273.774" transform="translate(-646.266 -287.626)" opacity="0.1"/>
  <path id="Path_242" data-name="Path 242" d="M913.59,313.542l3.228,8.511s.456-5.476-.508-7.116A2.842,2.842,0,0,0,913.59,313.542Z" transform="translate(-652.769 -230.914)" opacity="0.05"/>
  <g id="Group_6" data-name="Group 6" transform="translate(264.826 14.926)" opacity="0.1">
    <path id="Path_243" data-name="Path 243" d="M938.318,92.54l-.027-.122-.52-.138.058.254A3.727,3.727,0,0,0,938.318,92.54Z" transform="translate(-934.377 -92.28)"/>
    <path id="Path_244" data-name="Path 244" d="M933.433,95.76l.055-.049a1.086,1.086,0,0,0,.306-1.108,1.5,1.5,0,0,0-.257-.413,3.977,3.977,0,0,1-.75-.22c-.031.456.483.75.643,1.178A.917.917,0,0,1,933.433,95.76Z" transform="translate(-930.918 -93.453)"/>
    <path id="Path_245" data-name="Path 245" d="M937.792,116.6a3.007,3.007,0,0,1-1.224-1.511c-.26-.612-.416-1.254-.679-1.857a5.7,5.7,0,0,0-1.224-1.771.775.775,0,0,0-.321-.223.869.869,0,0,0-.664.184,3.059,3.059,0,0,1-1.01.444,1.092,1.092,0,0,1-1.013-.306,1.518,1.518,0,0,1-.159-1.264,15.722,15.722,0,0,0,.474-2.827,2.733,2.733,0,0,0-1.2-2.448,10.514,10.514,0,0,0-2.448-.535,3.108,3.108,0,0,1-1.144-.587l-.064-.058a1.962,1.962,0,0,0-.2.095c-.132.07-.272.2-.236.34a.364.364,0,0,0,.135.171,3.151,3.151,0,0,0,1.144.584,10.178,10.178,0,0,1,2.463.538,2.77,2.77,0,0,1,1.2,2.448,16.455,16.455,0,0,1-.474,2.824,1.523,1.523,0,0,0,.159,1.264,1.077,1.077,0,0,0,1.013.306,3.06,3.06,0,0,0,1.01-.441.884.884,0,0,1,.664-.187.8.8,0,0,1,.306.223,5.776,5.776,0,0,1,1.224,1.771c.263.612.419,1.251.679,1.857a3,3,0,0,0,1.224,1.53,1.549,1.549,0,0,0,1.836-.193,1.445,1.445,0,0,0,.272-.456A1.56,1.56,0,0,1,937.792,116.6Z" transform="translate(-926.681 -100.303)"/>
    <path id="Path_246" data-name="Path 246" d="M971.54,133.364c.456-.575,1.052-1.065,1.481-1.67a4.281,4.281,0,0,0,.236-.373A15.155,15.155,0,0,0,971.54,133.364Z" transform="translate(-957.816 -119.376)"/>
  </g>
  <g id="Group_8" data-name="Group 8" transform="translate(175.38 20.316)" opacity="0.1">
    <path id="Path_247" data-name="Path 247" d="M710.491,109.9H638.1a3.794,3.794,0,0,0-3.785,3.781v45.735A3.794,3.794,0,0,0,638.1,163.2h56.783s1.472,7.811-3.365,8.649c0,0,10.824.777,8.934-8.649h10.032a3.791,3.791,0,0,0,3.781-3.781V113.681A3.791,3.791,0,0,0,710.491,109.9Z" transform="translate(-634.32 -109.9)"/>
    <g id="Group_7" data-name="Group 7" transform="translate(10.656 12.14)" opacity="0.2">
      <rect id="Rectangle_79" data-name="Rectangle 79" width="58.637" height="3.573" rx="1.787"/>
      <rect id="Rectangle_80" data-name="Rectangle 80" width="48.385" height="3.573" rx="1.787" transform="translate(0 15.97)"/>
      <rect id="Rectangle_81" data-name="Rectangle 81" width="34.832" height="3.573" rx="1.787" transform="translate(0 7.985)"/>
    </g>
  </g>
  <path id="Path_248" data-name="Path 248" d="M713.581,107.83H641.195a3.8,3.8,0,0,0-3.784,3.785V157.35a3.794,3.794,0,0,0,3.784,3.781h56.783s1.472,7.811-3.365,8.649c0,0,10.824.777,8.934-8.649h10.032a3.791,3.791,0,0,0,3.781-3.781V111.615a3.794,3.794,0,0,0-3.778-3.785Z" transform="translate(-461.085 -88.147)" fill="#fff"/>
  <g id="Group_9" data-name="Group 9" transform="translate(186.981 31.823)" opacity="0.2">
    <rect id="Rectangle_82" data-name="Rectangle 82" width="58.637" height="3.573" rx="1.787" fill="#fe2d43"/>
    <rect id="Rectangle_83" data-name="Rectangle 83" width="48.385" height="3.573" rx="1.787" transform="translate(0 15.973)" fill="#fe2d43"/>
    <rect id="Rectangle_84" data-name="Rectangle 84" width="34.832" height="3.573" rx="1.787" transform="translate(0 7.988)" fill="#fe2d43"/>
  </g>
  <path id="Path_249" data-name="Path 249" d="M135.379,596.48s1.089,1.426-.5,3.58-2.91,3.977-2.377,5.314c0,0,2.4-4,4.363-4.054S137.533,598.885,135.379,596.48Z" transform="translate(-110.563 -427.298)" fill="#fe2d43"/>
  <path id="Path_250" data-name="Path 250" d="M135.52,596.48a1.8,1.8,0,0,1,.22.447c1.912,2.245,2.928,4.338,1.092,4.393-1.71.049-3.76,3.105-4.253,3.879a.556.556,0,0,0,.058.174s2.4-4,4.363-4.054S137.674,598.885,135.52,596.48Z" transform="translate(-110.704 -427.298)" opacity="0.1"/>
  <path id="Path_251" data-name="Path 251" d="M148.241,601.683c0,.5-.055.918-.125.918s-.125-.407-.125-.918.07-.266.141-.266S148.241,601.182,148.241,601.683Z" transform="translate(-121.399 -430.684)" fill="#ffd037"/>
  <path id="Path_252" data-name="Path 252" d="M149.134,603.6c-.441.242-.826.386-.86.324s.306-.306.737-.545.269-.064.306,0S149.575,603.365,149.134,603.6Z" transform="translate(-121.595 -432.005)" fill="#ffd037"/>
  <path id="Path_253" data-name="Path 253" d="M117.8,596.48s-1.089,1.426.5,3.58,2.91,3.977,2.377,5.314c0,0-2.4-4-4.363-4.054S115.645,598.885,117.8,596.48Z" transform="translate(-98.747 -427.298)" fill="#fe2d43"/>
  <path id="Path_254" data-name="Path 254" d="M117.8,596.48a1.8,1.8,0,0,0-.22.447c-1.912,2.245-2.928,4.338-1.092,4.393,1.71.049,3.76,3.105,4.253,3.879-.015.058-.037.116-.058.174,0,0-2.4-4-4.363-4.054S115.645,598.885,117.8,596.48Z" transform="translate(-98.747 -427.298)" opacity="0.1"/>
  <path id="Path_255" data-name="Path 255" d="M116.73,601.683c0,.5.055.918.125.918s.125-.407.125-.918-.07-.266-.141-.266S116.73,601.182,116.73,601.683Z" transform="translate(-99.703 -430.684)" fill="#ffd037"/>
  <path id="Path_256" data-name="Path 256" d="M113.832,603.6c.441.242.826.386.86.324s-.306-.306-.737-.545-.269-.064-.306,0S113.389,603.365,113.832,603.6Z" transform="translate(-97.503 -432.005)" fill="#ffd037"/>
  <ellipse id="Ellipse_49" data-name="Ellipse 49" cx="11.406" cy="1.75" rx="11.406" ry="1.75" transform="translate(10.529 185.489)" fill="#fe2d43" opacity="0.1"/>
  <path id="Path_257" data-name="Path 257" d="M125.329,617.764l-.055.444-.076.63-.034.263-.076.627-.031.263-.076.63-.875,7.156c-.076.639-1.12,1.138-2.38,1.138h-4.546c-1.26,0-2.3-.5-2.38-1.138l-.875-7.153-.076-.63-.031-.263-.076-.627-.034-.263-.076-.63-.055-.444c-.043-.361.523-.667,1.224-.667h9.273C124.794,617.1,125.36,617.4,125.329,617.764Z" transform="translate(-97.511 -441.609)" fill="#65617d"/>
  <path id="Path_258" data-name="Path 258" d="M64.329,577.23l-.076.63H52.776l-.076-.63Z" transform="translate(-36.582 -400.632)" fill="#9d9cb5"/>
  <path id="Path_259" data-name="Path 259" d="M64.465,580.15l-.076.627H53.13l-.08-.627Z" transform="translate(-36.824 -402.659)" fill="#9d9cb5"/>
  <path id="Path_260" data-name="Path 260" d="M64.6,583.06l-.076.63H53.486l-.076-.63Z" transform="translate(-37.074 -404.678)" fill="#9d9cb5"/>
  <ellipse id="Ellipse_50" data-name="Ellipse 50" cx="25.711" cy="4.219" rx="25.711" ry="4.219" transform="translate(171.859 237.276)" fill="#fe2d43" opacity="0.1"/>
  <g id="Group_11" data-name="Group 11" transform="translate(144.81 111.934)" opacity="0.1">
    <path id="Path_261" data-name="Path 261" d="M616.94,409.36H538.5a4.112,4.112,0,0,0-4.1,4.1v49.563a4.112,4.112,0,0,0,4.1,4.1h61.534s1.594,8.462-3.644,9.371c0,0,11.727.841,9.677-9.371H616.94a4.112,4.112,0,0,0,4.1-4.1V413.46A4.112,4.112,0,0,0,616.94,409.36Z" transform="translate(-534.4 -409.36)"/>
    <g id="Group_10" data-name="Group 10" transform="translate(11.546 21.811)" opacity="0.2">
      <rect id="Rectangle_85" data-name="Rectangle 85" width="63.544" height="3.873" rx="1.937" transform="translate(0 8.655)"/>
      <rect id="Rectangle_86" data-name="Rectangle 86" width="27.553" height="3.873" rx="1.937"/>
    </g>
  </g>
  <path id="Path_262" data-name="Path 262" d="M614.716,407.13H536.26a4.112,4.112,0,0,0-4.1,4.1v49.563a4.112,4.112,0,0,0,4.1,4.1h61.534s1.594,8.462-3.644,9.374c0,0,11.73.841,9.68-9.374h10.885a4.112,4.112,0,0,0,4.1-4.1V411.23a4.112,4.112,0,0,0-4.1-4.1Z" transform="translate(-388.035 -295.878)" fill="#fff"/>
  <g id="Group_12" data-name="Group 12" transform="translate(155.674 133.062)" opacity="0.2">
    <rect id="Rectangle_87" data-name="Rectangle 87" width="63.544" height="3.873" rx="1.937" transform="translate(0 8.655)" fill="#fe2d43"/>
    <rect id="Rectangle_88" data-name="Rectangle 88" width="27.553" height="3.873" rx="1.937" fill="#fe2d43"/>
  </g>
  <path id="Path_263" data-name="Path 263" d="M607.958,517.134c-.37-1.569-.612-2.949-.612-2.949a6.079,6.079,0,0,0-.682-3v-.428h0V507.6a10.6,10.6,0,0,1,.8-1.655c.569-.994,0-4.635,0-4.635s-2.111-5.134-1.6-8.389-4.335-14.462-4.335-14.462a14.226,14.226,0,0,1,.456-3.2,2.473,2.473,0,0,0,.061-.67.691.691,0,0,0,0-.083v.028c-.073-2.142-1.771-6.174-1.771-6.174l.229-7.67a22.555,22.555,0,0,0-.685-10.6c-.612-2.117-1.013-3.815-1.263-5.122-.028-.15-.055-.306-.08-.428,3.641-.554,6.425-1.016,6.425-1.016s-2.1-8.833-3.531-10.362-2.564-6.425-2.564-6.425-.743-6.238.456-8.059a12.094,12.094,0,0,0,1.368-4.965s2.753-1.989,3.081-2.87a15.185,15.185,0,0,0,.918-3.919c0-1.049-.343-1.989-.229-2.539s-.8-2.649-.343-3.644a2.676,2.676,0,0,0,.184-.958v-.028h0A13.526,13.526,0,0,0,604,397.17a7.342,7.342,0,0,0-2.708-1.447l-.061-.239-.153-.612c-.092-.061-.181-.113-.269-.162v-.226l-.028-.9.431-2.013c.841-3.506-3.837-4.029-3.837-4.029a2.447,2.447,0,0,0-1.325-1.16c-.942-.33-.156,5.271.285,5.629a20.326,20.326,0,0,1,1.836,2.888h0l.08.144a1.725,1.725,0,0,0-.214.223l.177,1.224.028.187a5.1,5.1,0,0,0-.747,1.273,2.718,2.718,0,0,1,.685,1.989,6.045,6.045,0,0,0,.281,2.426c-.049-.058-.652-.71-1.251-.551s-2.282.664-2.282.664-1.254.22-1.138.5-.857,1.49-.857,1.49l-3.365-3.194c-.031-.095-.067-.19-.1-.291a8.006,8.006,0,0,1-.306-1.4,8.013,8.013,0,0,0,1.077-.343,2.332,2.332,0,0,0,.918-.6,3.629,3.629,0,0,0,.541-1.453,21.031,21.031,0,0,1,1.251-2.79,9.057,9.057,0,0,0,.673-5.008,3.308,3.308,0,0,0-.517-1.465c-.551-.759-1.548-1.065-2.276-1.67s-1.193-1.53-2.038-1.979a4.056,4.056,0,0,0-2.561-.22,13.8,13.8,0,0,0-4.776,1.738,2.459,2.459,0,0,1-1.6.526,2.152,2.152,0,0,1-1.153-.847.056.056,0,0,1,.015-.046l-.037-.043a5.926,5.926,0,0,0-.5,2.5,3.559,3.559,0,0,0,.015.4v.257h0a.614.614,0,0,1-.024.181,1.316,1.316,0,0,1-.306.456,2.4,2.4,0,0,0-.275.373,1.239,1.239,0,0,1,.046-.138,2,2,0,0,0-.349,1.065,1.053,1.053,0,0,0,.251.759,3.67,3.67,0,0,0,.551.444,6.425,6.425,0,0,0,3.059,6.682c.04.095.08.193.116.291a8.044,8.044,0,0,1,.612,3.671,1.337,1.337,0,0,1-.043.269c-.018.089-.083.092-.119.141h0s-5.565.055-6.878-1.132-3.307,2.9-3.307,2.9-1.995.386-2.392,0-2.738-.055-2.738-.055a5.033,5.033,0,0,0-3.463-1.267,10.293,10.293,0,0,0-2.552-1.42h0l-.061-.021h0a2.87,2.87,0,0,0-1.254-.159,25.741,25.741,0,0,1-3.537-3.476c-.8-1.212-4.589-5.718-4.617-5.74v-.217l-.043-.658a2.181,2.181,0,0,1-.34.031c-.021-.064-.046-.141-.076-.226a12.708,12.708,0,0,0-.808-1.857s0-.826.242-1.034-.1-3.243-.1-3.243-2.466-5.767-4.675-1.462c0,0-4.176,2.787-.67,6.03,0,0,1.4.676,1.594,1.224.132.349.612,1.322.918,1.967l.144.291-.04.034.052.542.021.208c-.661.376-1.108.746-1,1.028a6.226,6.226,0,0,1,.4,1.49s4.828,6.058,5.455,8.658c0,0,13,7.725,17.277,8.276l-.74,3.864a30.883,30.883,0,0,0-.171,3.145c.055.829-.514,4.589-.514,4.589s-.74,5.507-1.368,6.29-.5,4.078-.5,4.078a27.881,27.881,0,0,1-.857,4.69,12.294,12.294,0,0,0-.171,4.693s-2.166,4.965,3.023,1.6c0,0,2.549-.159,5.483-.26v.306c0,.376,0,.786-.018,1.224-.04,2.845-.055,6.764.073,9.732.229,5.241,1.836,15.618,1.836,15.618v5.2a7.166,7.166,0,0,0-.15,1.49,9.714,9.714,0,0,0,1.4,5.219l.4,3.475a13.607,13.607,0,0,1,.955,3.671,2.128,2.128,0,0,1-.04.333,2.372,2.372,0,0,0-.046.532,30.034,30.034,0,0,0,.9,5.354s.055,3.809.612,4.029c.486.19-.652,2.2-.991,2.772a.2.2,0,0,0-.021-.11l-.07.116a2.669,2.669,0,0,0-.177.961,1.386,1.386,0,0,0,.633,1.34c1.083.661,1.664,1.224.743,1.435a9.881,9.881,0,0,0-1,.211l-.049-.129a.612.612,0,0,0-.373.667,2.778,2.778,0,0,0,.34,1.291,14.723,14.723,0,0,0,1.53,2.815l.44-.049a2.359,2.359,0,0,1-.254.471,1.817,1.817,0,0,1-.646.572,1.945,1.945,0,0,1-.78.266,2.206,2.206,0,0,0-1.615.786,1.685,1.685,0,0,0,.2,2.619l4.078,1.407s7.012.918,6.642-.664-.612-2.952-.612-2.952a6.217,6.217,0,0,0-.569-2.79,3.744,3.744,0,0,0-.248-.41l.248-.028s.514-3.479,1.2-4.139c.159-.153.2-.269.156-.361.07-.19-.107-.306-.337-.364l-.049.138a3.338,3.338,0,0,0-.682-.076s-.226-1.82.514-2.481a.7.7,0,0,0,.144-.542,3.043,3.043,0,0,0-.076-.743l-.028.043a26.944,26.944,0,0,0-1.637-4.283,5.218,5.218,0,0,1,.4-2.319c.459-.664-.058-8.995-.058-8.995a27.239,27.239,0,0,0-.343-5.9,6.616,6.616,0,0,1,.627-4.084v-.122l.015-.028s-.028-.248-.067-.633v.037c-.116-1.065-.333-3-.493-3.892-.229-1.27.055-7.343.055-7.343l1.028-2.594,1.836,4.473,1.94,5.96a5.071,5.071,0,0,1,.982,2.533,1.269,1.269,0,0,1,0,.187,3.588,3.588,0,0,0-.021.4,3.531,3.531,0,0,0,.59,2.12s.514,2.815,1.313,3.534a3.183,3.183,0,0,1,.8,2.1,35.071,35.071,0,0,0,1.426,4.8,7.2,7.2,0,0,1,.4,2.775h0v.15s.135,1.459.129,2.686v.438a.129.129,0,0,1,0-.034,4.482,4.482,0,0,1-.119.994.1.1,0,0,1-.018.058l.018-.208a10.515,10.515,0,0,0-.306,2.545,6.518,6.518,0,0,0,1.086,4.225c1.53,1.768,2.509,1.548,2.509,1.548s-.74,2.206-1.655,2.646a.512.512,0,0,0-.095.064.953.953,0,0,0-.024-.129,1.071,1.071,0,0,0-.266.823,5.864,5.864,0,0,0,1.129,3.27,1.78,1.78,0,0,0,.771.45l-.144.089a3.133,3.133,0,0,1-.306.15,1.475,1.475,0,0,1-.465.119,2.185,2.185,0,0,0-1.615.786,1.682,1.682,0,0,0,.2,2.616l4.078,1.407S608.328,518.709,607.958,517.134Z" transform="translate(-395.592 -278.509)" fill="url(#linear-gradient-2)"/>
  <path id="Path_264" data-name="Path 264" d="M657.082,814.43l-3.947-1.407a1.716,1.716,0,0,1-.193-2.619,2.111,2.111,0,0,1,1.563-.786,1.835,1.835,0,0,0,.756-.266,1.772,1.772,0,0,0,.612-.572,2.886,2.886,0,0,0,.45-1.53s4.335-1.27,5.507,0a3.26,3.26,0,0,1,.526.768,6.426,6.426,0,0,1,.551,2.79s.223,1.38.578,2.952S657.082,814.43,657.082,814.43Z" transform="translate(-471.505 -573.193)" fill="#2d293d"/>
  <path id="Path_265" data-name="Path 265" d="M720.22,808.074l-3.947-1.407a1.711,1.711,0,0,1-.193-2.616,2.089,2.089,0,0,1,1.563-.786,1.386,1.386,0,0,0,.45-.119,2.312,2.312,0,0,0,.306-.15,2.506,2.506,0,0,0,1.074-2.1s4.332-1.27,5.507,0a2.958,2.958,0,0,1,.413.563,6.243,6.243,0,0,1,.664,3s.22,1.38.578,2.952S720.22,808.074,720.22,808.074Z" transform="translate(-515.326 -568.785)" fill="#2d293d"/>
  <path id="Path_266" data-name="Path 266" d="M669.709,807.254a3.265,3.265,0,0,1,.526.768h0l-6.5.753a2.884,2.884,0,0,0,.45-1.53S668.525,805.985,669.709,807.254Z" transform="translate(-479.359 -573.194)" opacity="0.1"/>
  <path id="Path_267" data-name="Path 267" d="M731.152,801.457v1.224c-1.007,1.664-5.892,1.3-7.312.465a2.315,2.315,0,0,0,.306-.15,2.506,2.506,0,0,0,1.074-2.1s4.332-1.27,5.507,0A2.96,2.96,0,0,1,731.152,801.457Z" transform="translate(-521.072 -568.785)" opacity="0.1"/>
  <path id="Path_268" data-name="Path 268" d="M675.417,640.52a11.241,11.241,0,0,0-.774,1.655v4.36c-1.1,1.836-6.841,1.224-7.615.22s-1.6-3.586-.716-4.026,1.6-2.649,1.6-2.649-.939.22-2.429-1.545-1.049-5.684-.771-6.624a19.436,19.436,0,0,0,0-4.084,8.156,8.156,0,0,0-.389-2.925,36.007,36.007,0,0,1-1.38-4.8,3.262,3.262,0,0,0-.771-2.1c-.771-.719-1.27-3.531-1.27-3.531a3.626,3.626,0,0,1-.56-2.371,4.794,4.794,0,0,0-.936-2.87l-1.875-5.96-1.768-4.47-.985,2.591s-.278,6.07-.055,7.343.551,4.635.551,4.635a6.83,6.83,0,0,0-.612,4.084,28.456,28.456,0,0,1,.33,5.9s.5,8.334.055,8.995a5.414,5.414,0,0,0-.385,2.319s2.261,4.855,1.53,5.507-.5,2.484-.5,2.484,1.53,0,.884.661-1.129,4.149-1.129,4.149l-6.673.771a13.862,13.862,0,0,1-1.5-2.815c-.884-2.044.165-1.836,1.055-2.041s.324-.774-.722-1.435-.444-2.142-.444-2.142,1.6-2.7,1.049-2.928-.612-4.026-.612-4.026-1.1-4.528-.829-5.74-.884-4.139-.884-4.139l-.385-3.479a9.567,9.567,0,0,1-1.224-6.566v-5.363s-1.53-10.374-1.765-15.618c-.141-3.365-.1-7.939-.055-10.8.028-1.6.055-2.665.055-2.665L666.367,576a19.7,19.7,0,0,0,.431,3.54c.242,1.309.612,3,1.224,5.125a23.266,23.266,0,0,1,.661,10.595l-.22,7.673s2.1,5.131,1.655,6.9a14.687,14.687,0,0,0-.441,3.2s4.69,11.2,4.194,14.459,1.53,8.389,1.53,8.389S675.967,639.526,675.417,640.52Z" transform="translate(-464.562 -413.084)" fill="#575988"/>
  <path id="Path_269" data-name="Path 269" d="M705.71,690.717l7.26-.967S708.858,693.944,705.71,690.717Z" transform="translate(-508.489 -492.033)" opacity="0.05"/>
  <path id="Path_270" data-name="Path 270" d="M722.995,666.57s.248,2.567-1.325,3.534C721.673,670.1,724.488,669.66,722.995,666.57Z" transform="translate(-519.566 -475.944)" opacity="0.1"/>
  <path id="Path_271" data-name="Path 271" d="M705.124,639.88s-6.067,4.993-8.26,4.589S705.124,639.88,705.124,639.88Z" transform="translate(-502.139 -457.42)" opacity="0.1"/>
  <path id="Path_272" data-name="Path 272" d="M665.539,700.58s-4.607,1.046-4.745,2.9S665.539,700.58,665.539,700.58Z" transform="translate(-477.312 -499.549)" opacity="0.1"/>
  <path id="Path_273" data-name="Path 273" d="M668.293,775.8s-6.51,1.224-4.663,2.041a32.814,32.814,0,0,0,4.9,1.49S670.612,779.441,668.293,775.8Z" transform="translate(-479.054 -551.756)" opacity="0.05"/>
  <g id="Group_13" data-name="Group 13" transform="translate(177.853 165.248)" opacity="0.05">
    <path id="Path_274" data-name="Path 274" d="M658.18,784.625a1.3,1.3,0,0,1-.594-.945l-.067.116s-.612,1.49.441,2.142c.122.076.236.153.34.226.2-.037.4-.064.612-.113C659.792,785.837,659.229,785.286,658.18,784.625Z" transform="translate(-652.772 -722.473)"/>
    <path id="Path_275" data-name="Path 275" d="M686.8,782.745c.181-.165.174-.59.064-1.135a3.077,3.077,0,0,0-.37,1.6A1.337,1.337,0,0,1,686.8,782.745Z" transform="translate(-673.003 -721.036)"/>
    <path id="Path_276" data-name="Path 276" d="M683.231,695.58a7.418,7.418,0,0,0-.44,2.028,7.991,7.991,0,0,1,.5-1.4S683.27,695.966,683.231,695.58Z" transform="translate(-670.434 -661.327)"/>
    <path id="Path_277" data-name="Path 277" d="M732.729,684.722a2.537,2.537,0,0,0,.061-.612c-.083.41-.141.792-.181,1.129A2.967,2.967,0,0,1,732.729,684.722Z" transform="translate(-705.012 -653.366)"/>
    <path id="Path_278" data-name="Path 278" d="M683.391,756.934a3.517,3.517,0,0,0,.165-1.224,4.157,4.157,0,0,0-.306,1.548A1.489,1.489,0,0,1,683.391,756.934Z" transform="translate(-670.753 -703.06)"/>
    <path id="Path_279" data-name="Path 279" d="M666.672,793.72a21.725,21.725,0,0,0-.759,3.39l-6.673.774a13.985,13.985,0,0,1-1.5-2.815c-.076-.18-.138-.339-.187-.486-.4.184-.557.612-.034,1.811a14.115,14.115,0,0,0,1.493,2.815l6.682-.774s.5-3.476,1.156-4.14C667.177,793.971,666.969,793.806,666.672,793.72Z" transform="translate(-652.667 -729.441)"/>
    <path id="Path_280" data-name="Path 280" d="M647.591,637.989s.055,3.809.612,4.029h0c.278-.63.465-1.224.217-1.328-.554-.22-.612-4.029-.612-4.029s-1.1-4.525-.826-5.74-.884-4.139-.884-4.139l-.385-3.476a9.554,9.554,0,0,1-1.224-6.569v-5.354s-1.53-10.375-1.765-15.6c-.141-3.365-.1-7.955-.055-10.8,0-.517.015-.976.024-1.361l-.19.018s-.031,1.062-.055,2.668c-.049,2.858-.089,7.441.055,10.8.22,5.244,1.765,15.618,1.765,15.618v5.354a9.555,9.555,0,0,0,1.224,6.569l.389,3.454s1.16,2.925.884,4.139S647.591,637.989,647.591,637.989Z" transform="translate(-642.403 -583.62)"/>
    <path id="Path_281" data-name="Path 281" d="M720.591,796.512a6.426,6.426,0,0,1-1.056-2.622c-.682.612.1,3,.835,3.947.771.991,6.51,1.6,7.615-.22v-1.052C726.493,798.045,721.332,797.451,720.591,796.512Z" transform="translate(-695.756 -729.559)"/>
    <path id="Path_282" data-name="Path 282" d="M749.244,781.969a10.708,10.708,0,0,0-.774,1.655v.768c.125-.284.306-.661.554-1.107a3.3,3.3,0,0,0,.242-1.365A.184.184,0,0,0,749.244,781.969Z" transform="translate(-716.02 -721.252)"/>
    <path id="Path_283" data-name="Path 283" d="M717.522,766.458a10.641,10.641,0,0,0,.545-1.312s-.939.22-2.429-1.53c-1.086-1.285-1.147-3.711-.991-5.3-.278.936-.719,4.855.771,6.621A3.956,3.956,0,0,0,717.522,766.458Z" transform="translate(-692.347 -704.872)"/>
    <path id="Path_284" data-name="Path 284" d="M693.174,676.056a29.484,29.484,0,0,1,.11,3.271,4.741,4.741,0,0,1,.113-.514,19.414,19.414,0,0,0,0-4.081,8.2,8.2,0,0,0-.386-2.925,36.381,36.381,0,0,1-1.38-4.8,3.251,3.251,0,0,0-.771-2.1c-.771-.716-1.27-3.534-1.27-3.534a3.613,3.613,0,0,1-.554-2.371,4.816,4.816,0,0,0-.936-2.87l-1.879-5.963-1.765-4.47-.994,2.594s0,.327-.034.838l.808-2.108,1.765,4.47,1.885,5.963a4.81,4.81,0,0,1,.939,2.87,3.613,3.613,0,0,0,.554,2.371s.5,2.815,1.267,3.534a3.266,3.266,0,0,1,.774,2.1,36.5,36.5,0,0,0,1.38,4.8A8.126,8.126,0,0,1,693.174,676.056Z" transform="translate(-670.878 -626.707)"/>
  </g>
  <path id="Path_285" data-name="Path 285" d="M718.129,401.2l-.416,2.013.024.9.018.664-2.3.236-.257-.477h0a21.085,21.085,0,0,0-1.787-2.888c-.425-.358-1.184-5.96-.272-5.629a2.41,2.41,0,0,1,1.282,1.163S718.943,397.713,718.129,401.2Z" transform="translate(-513.344 -288.156)" fill="#ffcdd3"/>
  <path id="Path_286" data-name="Path 286" d="M723.4,422.605l-2.3.236-.257-.477h0a2.035,2.035,0,0,1,2.542-.419Z" transform="translate(-518.99 -305.972)" opacity="0.1"/>
  <path id="Path_287" data-name="Path 287" d="M723.684,424.149l-3.038.7-.061-.453-.174-1.224a2.089,2.089,0,0,1,2.94-.4l.15.612Z" transform="translate(-518.691 -306.427)" fill="#dce6f2"/>
  <path id="Path_288" data-name="Path 288" d="M553.677,391.775l-3.24,1.738-.306-.612c-.306-.646-.768-1.618-.893-1.967-.193-.535-1.545-1.224-1.545-1.224-3.393-3.243.649-6.03.649-6.03,2.142-4.3,4.525,1.462,4.525,1.462s.33,3.038.1,3.243-.236,1.034-.236,1.034a12.558,12.558,0,0,1,.783,1.857C553.625,391.585,553.677,391.775,553.677,391.775Z" transform="translate(-397.874 -278.495)" fill="#ffcdd3"/>
  <path id="Path_289" data-name="Path 289" d="M562.286,412.6l-3.24,1.738-.306-.612c.456-.379,2.08-1.695,2.613-1.637a4.071,4.071,0,0,0,.768.021C562.234,412.407,562.286,412.6,562.286,412.6Z" transform="translate(-406.483 -299.316)" opacity="0.1"/>
  <path id="Path_290" data-name="Path 290" d="M562.866,414.116l-3.641,1.8-.073-.783-.052-.541s2.111-1.808,2.735-1.741a3.294,3.294,0,0,0,.952,0l.04.655Z" transform="translate(-406.733 -299.844)" fill="#dce6f2"/>
  <path id="Path_291" data-name="Path 291" d="M671.434,428.842s-15.885,1.793-12.914.829a3.983,3.983,0,0,0,3.059-3.445,8.276,8.276,0,0,0-.594-3.671,15.8,15.8,0,0,0-1.419-2.87s12.143-6.679,9.714-.612a9.729,9.729,0,0,0-.688,2.876,8.042,8.042,0,0,0,.306,2.909A8.649,8.649,0,0,0,671.434,428.842Z" transform="translate(-475.479 -302.4)" fill="#ffcdd3"/>
  <path id="Path_292" data-name="Path 292" d="M672.494,419.066a9.726,9.726,0,0,0-.688,2.876c-1.144.961-2.4.9-4.008.9-1.224,0-2.607.306-3.6-.306a15.8,15.8,0,0,0-1.42-2.87S674.923,412.99,672.494,419.066Z" transform="translate(-478.693 -302.39)" opacity="0.1"/>
  <ellipse id="Ellipse_51" data-name="Ellipse 51" cx="6.569" cy="6.569" rx="6.569" ry="6.569" transform="translate(182.319 107.733)" fill="#ffcdd3"/>
  <path id="Path_293" data-name="Path 293" d="M671.434,446.2s-15.885,1.793-12.914.829a3.983,3.983,0,0,0,3.059-3.445,8.664,8.664,0,0,1,3.4-1.8,4.745,4.745,0,0,1,2.879-.046,4,4,0,0,1,1.046.483A8.649,8.649,0,0,0,671.434,446.2Z" transform="translate(-475.479 -319.755)" opacity="0.1"/>
  <path id="Path_294" data-name="Path 294" d="M724.079,426.346l-3.038.7-.061-.453a2.683,2.683,0,0,1,2.916-1Z" transform="translate(-519.087 -308.623)" opacity="0.1"/>
  <path id="Path_295" data-name="Path 295" d="M562.984,415.6l-3.641,1.8-.073-.783a26.765,26.765,0,0,1,3.671-1.628Z" transform="translate(-406.851 -301.333)" opacity="0.1"/>
  <path id="Path_296" data-name="Path 296" d="M666.909,579.546c-6.149.973-14.906,2.236-16.294,1.814-1.15-.352-4.831-.306-8.034-.205.028-1.6.055-2.665.055-2.665L666.477,576A19.708,19.708,0,0,0,666.909,579.546Z" transform="translate(-464.673 -413.084)" opacity="0.1"/>
  <path id="Path_297" data-name="Path 297" d="M613.068,466.8s-20.253,3.479-22.429,2.815-13.333.055-13.333.055c-5.021,3.365-2.925-1.6-2.925-1.6a12.355,12.355,0,0,1,.165-4.69,28.582,28.582,0,0,0,.844-4.69s-.11-3.313.5-4.084,1.325-6.293,1.325-6.293.554-3.751.5-4.589a31.4,31.4,0,0,1,.165-3.145l.716-3.864c-4.14-.551-16.723-8.279-16.723-8.279-.612-2.591-5.3-8.664-5.3-8.664a6.3,6.3,0,0,0-.389-1.49c-.33-.881,4.638-2.646,4.638-2.646s3.7,4.525,4.47,5.74a25.221,25.221,0,0,0,3.42,3.475,2.693,2.693,0,0,1,1.224.159l.064.018h0a9.9,9.9,0,0,1,2.472,1.42,4.791,4.791,0,0,1,3.365,1.27s2.264-.33,2.649.055,2.319,0,2.319,0,1.931-4.084,3.2-2.9S590.661,426,590.661,426a7.959,7.959,0,0,1,3.558-1.992,4.767,4.767,0,0,1,2.879-.046,3.711,3.711,0,0,1,1.135.548l3.268,3.2s.939-1.224.829-1.49,1.1-.5,1.1-.5,1.6-.5,2.206-.664,1.163.493,1.224.551a6.472,6.472,0,0,1-.272-2.426,2.856,2.856,0,0,0-.664-1.989c1.934-4.745,6.293-.771,6.293-.771s.5,2.594.055,3.586.441,3.093.331,3.644.22,1.49.22,2.539a14.894,14.894,0,0,1-.884,3.916c-.333.881-2.98,2.87-2.98,2.87a12.458,12.458,0,0,1-1.325,4.969c-1.16,1.82-.474,8.059-.474,8.059s1.1,4.868,2.494,6.425S613.068,466.8,613.068,466.8Z" transform="translate(-404.698 -301.778)" fill="#656691"/>
  <path id="Path_298" data-name="Path 298" d="M639.39,456.5s-.612-1.82-1.16-1.986a13.136,13.136,0,0,1-1.6-.719l.355-.679s2.071.569,2.4,1.175A4.738,4.738,0,0,1,639.39,456.5Z" transform="translate(-460.543 -327.798)" opacity="0.1"/>
  <path id="Path_299" data-name="Path 299" d="M597.994,447.731c-.11.551-5.024,1.049-5.024,1.049l2.484-2.49h0l.061.021h0a9.9,9.9,0,0,1,2.478,1.42Z" transform="translate(-430.241 -323.057)" opacity="0.1"/>
  <ellipse id="Ellipse_52" data-name="Ellipse 52" cx="0.441" cy="0.441" rx="0.441" ry="0.441" transform="translate(153.098 116.661)" fill="#575988"/>
  <ellipse id="Ellipse_53" data-name="Ellipse 53" cx="0.441" cy="0.441" rx="0.441" ry="0.441" transform="translate(153.664 117.545)" fill="#575988"/>
  <ellipse id="Ellipse_54" data-name="Ellipse 54" cx="0.441" cy="0.441" rx="0.441" ry="0.441" transform="translate(154.218 118.359)" fill="#575988"/>
  <ellipse id="Ellipse_55" data-name="Ellipse 55" cx="0.441" cy="0.441" rx="0.441" ry="0.441" transform="translate(154.796 119.243)" fill="#575988"/>
  <ellipse id="Ellipse_56" data-name="Ellipse 56" cx="0.358" cy="0.358" rx="0.358" ry="0.358" transform="translate(206.901 119.277)" fill="#575988"/>
  <ellipse id="Ellipse_57" data-name="Ellipse 57" cx="0.358" cy="0.358" rx="0.358" ry="0.358" transform="translate(206.957 120.091)" fill="#575988"/>
  <ellipse id="Ellipse_58" data-name="Ellipse 58" cx="0.358" cy="0.358" rx="0.358" ry="0.358" transform="translate(207.005 120.904)" fill="#575988"/>
  <path id="Path_300" data-name="Path 300" d="M645.74,513.06c-.052-.064,12.388,15.646,22.046,6.569C667.786,519.628,652.525,521.7,645.74,513.06Z" transform="translate(-466.866 -369.399)" opacity="0.1"/>
  <path id="Path_301" data-name="Path 301" d="M622.38,539.76s7.444.2,8.221,2.344v2.23a1.423,1.423,0,0,1-1.383,0c-.75-.407-5.253-2.692-6.838-1.594Z" transform="translate(-450.653 -387.931)" opacity="0.1"/>
  <path id="Path_302" data-name="Path 302" d="M622.83,539.76s7.119.193,7.863,2.236v2.12a1.364,1.364,0,0,1-1.325,0c-.716-.385-5.021-2.567-6.538-1.53Z" transform="translate(-450.965 -387.931)" fill="#656691"/>
  <path id="Path_303" data-name="Path 303" d="M635.66,486.92a24.053,24.053,0,0,0,2.885,4.953,19.421,19.421,0,0,0,4.522,4.366S635.782,487.945,635.66,486.92Z" transform="translate(-459.87 -351.257)" opacity="0.1"/>
  <path id="Path_304" data-name="Path 304" d="M627.7,458.65s1.242,5.36,4.442,7.184Z" transform="translate(-454.345 -331.636)" opacity="0.1"/>
  <path id="Path_305" data-name="Path 305" d="M621.22,460.416c-.031-.1-1.1,4.24,4.127,6.642C625.359,467.058,623.126,466.3,621.22,460.416Z" transform="translate(-449.771 -332.861)" opacity="0.1"/>
  <path id="Path_306" data-name="Path 306" d="M727.716,448.662a37.506,37.506,0,0,1,3.3,2.481S729.288,448.552,727.716,448.662Z" transform="translate(-523.76 -324.702)" opacity="0.1"/>
  <path id="Path_307" data-name="Path 307" d="M660.3,402.939a1.4,1.4,0,0,0,.514.887,1.417,1.417,0,0,0,.612.138,13.292,13.292,0,0,0,5.938-.56,2.247,2.247,0,0,0,.918-.6,3.7,3.7,0,0,0,.526-1.453,19.07,19.07,0,0,1,1.224-2.79,9.36,9.36,0,0,0,.649-5.008,3.32,3.32,0,0,0-.5-1.465c-.532-.759-1.5-1.065-2.2-1.667s-1.153-1.53-1.973-1.983a3.809,3.809,0,0,0-2.478-.22,13.076,13.076,0,0,0-4.656,1.738,2.312,2.312,0,0,1-1.53.526,2.137,2.137,0,0,1-1.138-.872,6.119,6.119,0,0,0-.489,2.861,1.273,1.273,0,0,1,0,.431,1.331,1.331,0,0,1-.306.456,1.649,1.649,0,0,0-.306,2.059c.211.254.538.392.746.649.37.462.245,1.123.236,1.716a.876.876,0,0,0,.147.581.847.847,0,0,0,.811.193,2.248,2.248,0,0,1,.863-.083,1.419,1.419,0,0,1,.75.578A10.617,10.617,0,0,1,660.3,402.939Z" transform="translate(-473.19 -282.683)" fill="#2d293d"/>
  <g id="Group_14" data-name="Group 14" transform="translate(181.642 106.865)" opacity="0.1">
    <path id="Path_308" data-name="Path 308" d="M668.451,414.752a2.222,2.222,0,0,1-.918.612,13.226,13.226,0,0,1-5.938.557,1.333,1.333,0,0,1-.612-.138,1.389,1.389,0,0,1-.514-.887,10.228,10.228,0,0,0-1.673-3.882,1.42,1.42,0,0,0-.75-.578,2.191,2.191,0,0,0-.863.083.854.854,0,0,1-.8-.193.881.881,0,0,1-.147-.584c0-.591.135-1.254-.236-1.713-.208-.26-.532-.395-.747-.649a1.3,1.3,0,0,1-.128-1.319,1.51,1.51,0,0,0-.092,1.759c.211.254.538.392.746.649.37.462.245,1.123.236,1.716a.875.875,0,0,0,.147.581.848.848,0,0,0,.811.193,2.249,2.249,0,0,1,.863-.083,1.419,1.419,0,0,1,.75.578,10.364,10.364,0,0,1,1.674,3.885,1.037,1.037,0,0,0,1.132,1.025,13.291,13.291,0,0,0,5.938-.56,2.245,2.245,0,0,0,.918-.6,1.753,1.753,0,0,0,.285-.532.949.949,0,0,1-.079.076Z" transform="translate(-654.786 -402)"/>
    <path id="Path_309" data-name="Path 309" d="M657.6,395.972a.918.918,0,0,0,.2-.33,1.276,1.276,0,0,0,0-.431,6.087,6.087,0,0,1,.306-2.377l-.037-.043a6.076,6.076,0,0,0-.49,2.861A1.886,1.886,0,0,1,657.6,395.972Z" transform="translate(-656.718 -392.79)"/>
  </g>
  <path id="Path_310" data-name="Path 310" d="M668.84,449.237s8.205,1.086,8.943-.147" transform="translate(-482.899 -325.001)" opacity="0.1"/>
  <path id="Path_311" data-name="Path 311" d="M721,438.47s4.555,0,5.559,1.716" transform="translate(-519.101 -317.63)" opacity="0.1"/>
  <path id="Path_312" data-name="Path 312" d="M1038.176,425s.569.743-.263,1.869-1.53,2.077-1.242,2.778c0,0,1.257-2.09,2.279-2.12S1039.3,426.242,1038.176,425Z" transform="translate(-738.148 -308.281)" fill="#fe2d43"/>
  <path id="Path_313" data-name="Path 313" d="M1038.256,425a1.016,1.016,0,0,1,.116.233c1,1.175,1.53,2.267.569,2.295-.893.028-1.964,1.625-2.221,2.028a.271.271,0,0,0,.031.092c.012.031,1.257-2.09,2.279-2.12S1039.382,426.242,1038.256,425Z" transform="translate(-738.228 -308.281)" opacity="0.1"/>
  <path id="Path_314" data-name="Path 314" d="M1044.9,427.67c0,.263-.027.477-.064.477s-.067-.214-.067-.477.037-.138.073-.138S1044.9,427.41,1044.9,427.67Z" transform="translate(-743.816 -310.018)" fill="#ffd037"/>
  <path id="Path_315" data-name="Path 315" d="M1045.375,428.671c-.229.125-.431.2-.447.168s.153-.159.386-.285.138-.034.156,0S1045.607,428.546,1045.375,428.671Z" transform="translate(-743.924 -310.704)" fill="#ffd037"/>
  <path id="Path_316" data-name="Path 316" d="M1028.992,425s-.572.743.263,1.869,1.53,2.077,1.242,2.778c0,0-1.257-2.09-2.282-2.12S1027.866,426.242,1028.992,425Z" transform="translate(-731.975 -308.281)" fill="#fe2d43"/>
  <path id="Path_317" data-name="Path 317" d="M1028.992,425a.929.929,0,0,0-.12.233c-1,1.175-1.53,2.267-.569,2.295.893.028,1.967,1.625,2.224,2.028a.269.269,0,0,1-.031.092c-.012.031-1.257-2.09-2.282-2.12S1027.866,426.242,1028.992,425Z" transform="translate(-731.975 -308.281)" opacity="0.1"/>
  <path id="Path_318" data-name="Path 318" d="M1028.43,427.672c0,.263.031.477.067.477a.966.966,0,0,0,.064-.477c0-.26-.037-.138-.073-.138S1028.43,427.412,1028.43,427.672Z" transform="translate(-732.475 -310.02)" fill="#ffd037"/>
  <path id="Path_319" data-name="Path 319" d="M1026.921,428.671c.232.125.431.2.45.168s-.156-.159-.385-.285-.141-.034-.159,0S1026.692,428.546,1026.921,428.671Z" transform="translate(-731.33 -310.704)" fill="#ffd037"/>
  <path id="Path_320" data-name="Path 320" d="M1029,437.866a5.831,5.831,0,0,0,2.074-.392c.48-.343,2.448-.75,2.573-.2s2.4,2.729.612,2.753a14.974,14.974,0,0,1-4.662-.572C1029.116,439.16,1029,437.866,1029,437.866Z" transform="translate(-732.87 -316.613)" fill="#a8a8a8"/>
  <path id="Path_321" data-name="Path 321" d="M1034.281,441.781a15.754,15.754,0,0,1-4.66-.572c-.367-.223-.511-1.022-.56-1.389H1029s.1,1.288.581,1.579a15.271,15.271,0,0,0,4.662.572c.52,0,.7-.19.688-.462C1034.865,441.674,1034.669,441.778,1034.281,441.781Z" transform="translate(-732.87 -318.567)" opacity="0.2"/>
</svg>
